<svg width="64" height="64" viewBox="0 0 64 64" fill="none" xmlns="http://www.w3.org/2000/svg">
<path d="M64 32C64 49.6731 49.6731 64 32 64C14.3269 64 0 49.6731 0 32C0 14.3269 14.3269 0 32 0C49.6731 0 64 14.3269 64 32Z" fill="#F0BB12"/>
<path d="M24.3965 36.2645L31.424 29.348C31.5773 29.1963 31.7843 29.1112 32 29.1112C32.2157 29.1112 32.4227 29.1963 32.576 29.348L39.6035 36.263C39.7578 36.4146 39.9654 36.4996 40.1818 36.4996C40.3981 36.4996 40.6057 36.4146 40.76 36.263C40.836 36.1889 40.8963 36.1004 40.9376 36.0026C40.9788 35.9049 41 35.7999 41 35.6937C41 35.5876 40.9788 35.4826 40.9376 35.3849C40.8963 35.2871 40.836 35.1986 40.76 35.1245L33.734 28.2095C33.2712 27.7551 32.6486 27.5005 32 27.5005C31.3514 27.5005 30.7288 27.7551 30.266 28.2095L23.24 35.1245C23.1638 35.1986 23.1032 35.2872 23.0619 35.3851C23.0205 35.483 22.9992 35.5882 22.9992 35.6945C22.9992 35.8008 23.0205 35.906 23.0619 36.0039C23.1032 36.1018 23.1638 36.1904 23.24 36.2645C23.3943 36.4161 23.6019 36.5011 23.8183 36.5011C24.0346 36.5011 24.2422 36.4161 24.3965 36.2645Z" fill="white"/>
</svg>
