<svg width="25" height="22" viewBox="0 0 25 22" fill="none" xmlns="http://www.w3.org/2000/svg">
<path fill-rule="evenodd" clip-rule="evenodd" d="M5.66044 2.78742C3.80853 3.63786 2.45225 5.66186 2.45225 8.07518C2.45225 10.5401 3.4569 12.4407 4.89467 14.0698C6.08127 15.4116 7.51681 16.5246 8.91662 17.6084C9.24927 17.8665 9.57969 18.1234 9.90453 18.3803C10.4917 18.8459 11.0152 19.2532 11.5209 19.5505C12.0255 19.8467 12.4318 19.9825 12.7778 19.9825C13.1239 19.9825 13.5302 19.8478 14.0348 19.5505C14.5404 19.2532 15.064 18.8459 15.6511 18.3803C15.9749 18.1223 16.3064 17.8665 16.639 17.6095C18.0389 16.5235 19.4744 15.4116 20.661 14.0698C22.0999 12.4407 23.1034 10.5401 23.1034 8.07518C23.1034 5.66298 21.7471 3.63786 19.8952 2.78742C18.0958 1.96054 15.6779 2.17932 13.3806 4.57917C13.3025 4.66061 13.2089 4.72539 13.1053 4.76964C13.0018 4.81388 12.8904 4.83668 12.7778 4.83668C12.6653 4.83668 12.5539 4.81388 12.4503 4.76964C12.3468 4.72539 12.2531 4.66061 12.175 4.57917C9.87774 2.17932 7.45988 1.96054 5.66044 2.78742ZM12.7778 2.82781C10.197 0.505366 7.30695 0.18 4.96388 1.25595C2.49244 2.39473 0.777832 5.03356 0.777832 8.0763C0.777832 11.0663 2.0169 13.3484 3.64332 15.1884C4.9449 16.6615 6.53783 17.8945 7.94546 18.9828C8.26472 19.2296 8.57393 19.4697 8.86751 19.7031C9.44016 20.1564 10.0541 20.6388 10.6759 21.0046C11.2976 21.3692 12.0076 21.6665 12.7778 21.6665C13.5481 21.6665 14.258 21.3692 14.8798 21.0046C15.5027 20.6388 16.1155 20.1564 16.6882 19.7031C16.9939 19.4609 17.3013 19.2208 17.6102 18.9828C19.0167 17.8945 20.6108 16.6604 21.9123 15.1884C23.5388 13.3484 24.7778 11.0663 24.7778 8.0763C24.7778 5.03356 23.0643 2.39473 20.5918 1.2582C18.2487 0.181122 15.3587 0.506488 12.7778 2.82781Z" fill="#F0BB12"/>
</svg>
