<svg width="22" height="26" viewBox="0 0 22 26" fill="none" xmlns="http://www.w3.org/2000/svg">
<path fill-rule="evenodd" clip-rule="evenodd" d="M17.4677 0.1875C16.8625 0.187296 16.2647 0.32086 15.7163 0.578771C15.168 0.836682 14.6825 1.21266 14.2941 1.68017C13.9057 2.14769 13.6239 2.69536 13.4686 3.28454C13.3132 3.87372 13.2881 4.49007 13.395 5.0901L7.37504 9.33628C7.34494 9.35726 7.31604 9.37995 7.2885 9.40423C6.67777 8.92331 5.94517 8.62495 5.17424 8.54317C4.40332 8.46139 3.62509 8.59948 2.92831 8.9417C2.23153 9.28393 1.64424 9.8165 1.2334 10.4787C0.822572 11.1409 0.604736 11.9061 0.604736 12.687C0.604736 13.4678 0.822572 14.233 1.2334 14.8952C1.64424 15.5574 2.23153 16.09 2.92831 16.4322C3.62509 16.7744 4.40332 16.9125 5.17424 16.8307C5.94517 16.749 6.67777 16.4506 7.2885 15.9697C7.31601 15.9944 7.3449 16.0175 7.37504 16.0389L13.395 20.2851C13.2163 21.2886 13.409 22.3233 13.9367 23.1933C14.4645 24.0633 15.2905 24.7082 16.2586 25.0059C17.2266 25.3036 18.2694 25.2335 19.1895 24.8087C20.1096 24.384 20.8432 23.6341 21.2514 22.7012C21.6595 21.7682 21.714 20.7169 21.4043 19.7462C21.0947 18.7755 20.4425 17.9529 19.5713 17.434C18.7 16.9151 17.6701 16.7361 16.6766 16.9307C15.6831 17.1254 14.7949 17.6802 14.1802 18.4902L8.47976 14.4709C8.7343 13.9299 8.87685 13.3261 8.87685 12.6876C8.87685 12.0491 8.7343 11.444 8.47976 10.9042L14.1815 6.8837C14.6086 7.44687 15.1713 7.891 15.8162 8.17407C16.4612 8.45715 17.1672 8.56983 17.8675 8.50146C18.5677 8.43308 19.2391 8.18591 19.8181 7.78332C20.3971 7.38073 20.8646 6.83602 21.1764 6.2007C21.4882 5.56539 21.6339 4.86046 21.5999 4.15259C21.5658 3.44471 21.3531 2.75728 20.9818 2.15529C20.6106 1.55331 20.093 1.05667 19.4781 0.712343C18.8632 0.368013 18.1712 0.187372 17.4677 0.1875ZM15.2404 4.3542C15.2404 3.75916 15.4751 3.18849 15.8928 2.76773C16.3105 2.34697 16.877 2.11059 17.4677 2.11059C18.0584 2.11059 18.6249 2.34697 19.0426 2.76773C19.4603 3.18849 19.6949 3.75916 19.6949 4.3542C19.6949 4.94924 19.4603 5.51991 19.0426 5.94067C18.6249 6.36142 18.0584 6.5978 17.4677 6.5978C16.877 6.5978 16.3105 6.36142 15.8928 5.94067C15.4751 5.51991 15.2404 4.94924 15.2404 4.3542ZM4.74053 10.444C4.14982 10.444 3.58331 10.6804 3.16562 11.1011C2.74793 11.5219 2.51328 12.0926 2.51328 12.6876C2.51328 13.2826 2.74793 13.8533 3.16562 14.2741C3.58331 14.6948 4.14982 14.9312 4.74053 14.9312C5.33123 14.9312 5.89774 14.6948 6.31543 14.2741C6.73312 13.8533 6.96778 13.2826 6.96778 12.6876C6.96778 12.0926 6.73312 11.5219 6.31543 11.1011C5.89774 10.6804 5.33123 10.444 4.74053 10.444ZM17.4677 18.7774C16.877 18.7774 16.3105 19.0138 15.8928 19.4345C15.4751 19.8553 15.2404 20.4259 15.2404 21.021C15.2404 21.616 15.4751 22.1867 15.8928 22.6075C16.3105 23.0282 16.877 23.2646 17.4677 23.2646C18.0584 23.2646 18.6249 23.0282 19.0426 22.6075C19.4603 22.1867 19.6949 21.616 19.6949 21.021C19.6949 20.4259 19.4603 19.8553 19.0426 19.4345C18.6249 19.0138 18.0584 18.7774 17.4677 18.7774Z" fill="#F0BB12"/>
</svg>
