<svg width="320" height="326" viewBox="0 0 320 326" fill="none" xmlns="http://www.w3.org/2000/svg">
<rect x="64.7993" y="170.621" width="8.61708" height="8.61708" transform="rotate(-132.513 64.7993 170.621)" fill="#E2E2E2"/>
<rect x="76.9738" y="171.149" width="8.61708" height="8.61708" transform="rotate(-132.513 76.9738 171.149)" fill="#E2E2E2"/>
<rect x="52.6251" y="170.093" width="8.61708" height="8.61708" transform="rotate(-132.513 52.6251 170.093)" fill="#E2E2E2"/>
<rect x="40.4501" y="169.563" width="8.61708" height="8.61708" transform="rotate(-132.513 40.4501 169.563)" fill="#E2E2E2"/>
<rect x="55.4314" y="203.757" width="8.61708" height="8.61708" transform="rotate(-132.513 55.4314 203.757)" fill="#E2E2E2"/>
<rect x="49.0262" y="196.771" width="8.61708" height="8.61708" transform="rotate(-132.513 49.0262 196.771)" fill="#E2E2E2"/>
<rect x="42.6211" y="189.783" width="8.61708" height="8.61708" transform="rotate(-132.513 42.6211 189.783)" fill="#E2E2E2"/>
<rect x="36.2151" y="182.797" width="8.61708" height="8.61708" transform="rotate(-132.513 36.2151 182.797)" fill="#E2E2E2"/>
<rect x="16.9996" y="161.836" width="8.61708" height="8.61708" transform="rotate(-132.513 16.9996 161.836)" fill="#E2E2E2"/>
<rect x="29.8103" y="175.81" width="8.61708" height="8.61708" transform="rotate(-132.513 29.8103 175.81)" fill="#E2E2E2"/>
<rect x="10.594" y="154.849" width="8.61708" height="8.61708" transform="rotate(-132.513 10.594 154.849)" fill="#E2E2E2"/>
<rect x="23.4048" y="168.822" width="8.61708" height="8.61708" transform="rotate(-132.513 23.4048 168.822)" fill="#E2E2E2"/>
<rect x="62.4187" y="197.353" width="8.61708" height="8.61708" transform="rotate(-132.513 62.4187 197.353)" fill="#E2E2E2"/>
<rect x="56.0131" y="190.365" width="8.61708" height="8.61708" transform="rotate(-132.513 56.0131 190.365)" fill="#E2E2E2"/>
<rect x="49.6083" y="183.378" width="8.61708" height="8.61708" transform="rotate(-132.513 49.6083 183.378)" fill="#E2E2E2"/>
<rect x="69.4051" y="190.947" width="8.61708" height="8.61708" transform="rotate(-132.513 69.4051 190.947)" fill="#E2E2E2"/>
<rect x="63.0003" y="183.96" width="8.61708" height="8.61708" transform="rotate(-132.513 63.0003 183.96)" fill="#E2E2E2"/>
<rect x="76.3928" y="184.541" width="8.61708" height="8.61708" transform="rotate(-132.513 76.3928 184.541)" fill="#E2E2E2"/>
<rect x="83.3796" y="178.137" width="8.61708" height="8.61708" transform="rotate(-132.513 83.3796 178.137)" fill="#E2E2E2"/>
<rect x="90.3669" y="171.73" width="8.61708" height="8.61708" transform="rotate(-132.513 90.3669 171.73)" fill="#E2E2E2"/>
<rect x="83.9617" y="164.744" width="8.61708" height="8.61708" transform="rotate(-132.513 83.9617 164.744)" fill="#E2E2E2"/>
<rect x="77.5565" y="157.757" width="8.61708" height="8.61708" transform="rotate(-132.513 77.5565 157.757)" fill="#E2E2E2"/>
<rect x="71.1505" y="150.77" width="8.61708" height="8.61708" transform="rotate(-132.513 71.1505 150.77)" fill="#E2E2E2"/>
<rect x="44.8955" y="151.459" width="8.61708" height="8.61708" transform="rotate(-132.513 44.8955 151.459)" fill="#E2E2E2"/>
<rect x="57.0705" y="151.988" width="8.61708" height="8.61708" transform="rotate(-132.513 57.0705 151.988)" fill="#E2E2E2"/>
<rect x="32.7205" y="150.931" width="8.61708" height="8.61708" transform="rotate(-132.513 32.7205 150.931)" fill="#E2E2E2"/>
<rect x="20.5455" y="150.401" width="8.61708" height="8.61708" transform="rotate(-132.513 20.5455 150.401)" fill="#E2E2E2"/>
<rect x="39.1247" y="143.89" width="8.61708" height="8.61708" transform="rotate(-132.513 39.1247 143.89)" fill="#E2E2E2"/>
<rect x="51.2997" y="144.419" width="8.61708" height="8.61708" transform="rotate(-132.513 51.2997 144.419)" fill="#E2E2E2"/>
<rect x="26.9496" y="143.361" width="8.61708" height="8.61708" transform="rotate(-132.513 26.9496 143.361)" fill="#E2E2E2"/>
<rect x="14.7755" y="142.833" width="8.61708" height="8.61708" transform="rotate(-132.513 14.7755 142.833)" fill="#E2E2E2"/>
<rect x="45.5294" y="136.85" width="8.61708" height="8.61708" transform="rotate(-132.513 45.5294 136.85)" fill="#E2E2E2"/>
<rect x="57.7048" y="137.379" width="8.61708" height="8.61708" transform="rotate(-132.513 57.7048 137.379)" fill="#E2E2E2"/>
<rect x="33.3548" y="136.321" width="8.61708" height="8.61708" transform="rotate(-132.513 33.3548 136.321)" fill="#E2E2E2"/>
<rect x="21.1798" y="135.792" width="8.61708" height="8.61708" transform="rotate(-132.513 21.1798 135.792)" fill="#E2E2E2"/>
<rect x="64.1105" y="144.365" width="8.61708" height="8.61708" transform="rotate(-132.513 64.1105 144.365)" fill="#E2E2E2"/>
<rect x="71.0973" y="137.959" width="8.61708" height="8.61708" transform="rotate(-132.513 71.0973 137.959)" fill="#E2E2E2"/>
<rect x="78.0846" y="131.554" width="8.61708" height="8.61708" transform="rotate(-132.513 78.0846 131.554)" fill="#E2E2E2"/>
<rect x="97.2468" y="125.678" width="8.61708" height="8.61708" transform="rotate(-132.513 97.2468 125.678)" fill="#E2E2E2"/>
<rect x="109.421" y="126.206" width="8.61708" height="8.61708" transform="rotate(-132.513 109.421 126.206)" fill="#E2E2E2"/>
<rect x="85.0714" y="125.148" width="8.61708" height="8.61708" transform="rotate(-132.513 85.0714 125.148)" fill="#E2E2E2"/>
<rect x="78.6658" y="118.162" width="8.61708" height="8.61708" transform="rotate(-132.513 78.6658 118.162)" fill="#E2E2E2"/>
<rect x="64.6926" y="130.973" width="8.61708" height="8.61708" transform="rotate(-132.513 64.6926 130.973)" fill="#E2E2E2"/>
<rect x="71.6794" y="124.567" width="8.61708" height="8.61708" transform="rotate(-132.513 71.6794 124.567)" fill="#E2E2E2"/>
<rect width="8.61708" height="8.61708" transform="matrix(-0.675755 -0.737126 -0.737126 0.675755 175.323 69.2979)" fill="#E2E2E2"/>
<rect width="8.61708" height="8.61708" transform="matrix(-0.675755 -0.737126 -0.737126 0.675755 174.794 81.4731)" fill="#E2E2E2"/>
<rect width="8.61708" height="8.61708" transform="matrix(-0.675755 -0.737126 -0.737126 0.675755 175.851 57.123)" fill="#E2E2E2"/>
<rect width="8.61708" height="8.61708" transform="matrix(-0.675755 -0.737126 -0.737126 0.675755 176.38 44.9478)" fill="#E2E2E2"/>
<rect width="8.61708" height="8.61708" transform="matrix(-0.675755 -0.737126 -0.737126 0.675755 209.148 62.8389)" fill="#E2E2E2"/>
<rect width="8.61708" height="8.61708" transform="matrix(-0.675755 -0.737126 -0.737126 0.675755 202.742 55.8516)" fill="#E2E2E2"/>
<rect width="8.61708" height="8.61708" transform="matrix(-0.675755 -0.737126 -0.737126 0.675755 196.337 48.8647)" fill="#E2E2E2"/>
<rect width="8.61708" height="8.61708" transform="matrix(-0.675755 -0.737126 -0.737126 0.675755 189.932 41.8774)" fill="#E2E2E2"/>
<rect width="8.61708" height="8.61708" transform="matrix(-0.675755 -0.737126 -0.737126 0.675755 170.716 20.916)" fill="#E2E2E2"/>
<rect width="8.61708" height="8.61708" transform="matrix(-0.675755 -0.737126 -0.737126 0.675755 183.526 34.8906)" fill="#E2E2E2"/>
<rect width="8.61708" height="8.61708" transform="matrix(-0.675755 -0.737126 -0.737126 0.675755 164.31 13.9292)" fill="#E2E2E2"/>
<rect width="8.61708" height="8.61708" transform="matrix(-0.675755 -0.737126 -0.737126 0.675755 177.121 27.9033)" fill="#E2E2E2"/>
<rect width="8.61708" height="8.61708" transform="matrix(-0.675755 -0.737126 -0.737126 0.675755 157.904 6.94189)" fill="#E2E2E2"/>
<rect width="8.61708" height="8.61708" transform="matrix(-0.675755 -0.737126 -0.737126 0.675755 202.161 69.2441)" fill="#E2E2E2"/>
<rect width="8.61708" height="8.61708" transform="matrix(-0.675755 -0.737126 -0.737126 0.675755 195.755 62.2573)" fill="#E2E2E2"/>
<rect width="8.61708" height="8.61708" transform="matrix(-0.675755 -0.737126 -0.737126 0.675755 189.35 55.27)" fill="#E2E2E2"/>
<rect width="8.61708" height="8.61708" transform="matrix(-0.675755 -0.737126 -0.737126 0.675755 195.174 75.6494)" fill="#E2E2E2"/>
<rect width="8.61708" height="8.61708" transform="matrix(-0.675755 -0.737126 -0.737126 0.675755 188.768 68.6626)" fill="#E2E2E2"/>
<rect width="8.61708" height="8.61708" transform="matrix(-0.675755 -0.737126 -0.737126 0.675755 188.186 82.0547)" fill="#E2E2E2"/>
<rect width="8.61708" height="8.61708" transform="matrix(-0.675755 -0.737126 -0.737126 0.675755 181.199 88.46)" fill="#E2E2E2"/>
<rect width="8.61708" height="8.61708" transform="matrix(-0.675755 -0.737126 -0.737126 0.675755 174.212 94.8657)" fill="#E2E2E2"/>
<rect width="8.61708" height="8.61708" transform="matrix(-0.675755 -0.737126 -0.737126 0.675755 167.807 87.8784)" fill="#E2E2E2"/>
<rect width="8.61708" height="8.61708" transform="matrix(-0.675755 -0.737126 -0.737126 0.675755 161.402 80.8911)" fill="#E2E2E2"/>
<rect width="8.61708" height="8.61708" transform="matrix(-0.675755 -0.737126 -0.737126 0.675755 154.996 73.9048)" fill="#E2E2E2"/>
<rect width="8.61708" height="8.61708" transform="matrix(-0.675755 -0.737126 -0.737126 0.675755 157.959 47.8081)" fill="#E2E2E2"/>
<rect width="8.61708" height="8.61708" transform="matrix(-0.675755 -0.737126 -0.737126 0.675755 157.43 59.9834)" fill="#E2E2E2"/>
<rect width="8.61708" height="8.61708" transform="matrix(-0.675755 -0.737126 -0.737126 0.675755 158.488 35.6333)" fill="#E2E2E2"/>
<rect width="8.61708" height="8.61708" transform="matrix(-0.675755 -0.737126 -0.737126 0.675755 159.017 23.458)" fill="#E2E2E2"/>
<rect width="8.61708" height="8.61708" transform="matrix(-0.675755 -0.737126 -0.737126 0.675755 150.919 41.4038)" fill="#E2E2E2"/>
<rect width="8.61708" height="8.61708" transform="matrix(-0.675755 -0.737126 -0.737126 0.675755 150.389 53.5786)" fill="#E2E2E2"/>
<rect width="8.61708" height="8.61708" transform="matrix(-0.675755 -0.737126 -0.737126 0.675755 151.447 29.228)" fill="#E2E2E2"/>
<rect width="8.61708" height="8.61708" transform="matrix(-0.675755 -0.737126 -0.737126 0.675755 151.976 17.0537)" fill="#E2E2E2"/>
<rect width="8.61708" height="8.61708" transform="matrix(-0.675755 -0.737126 -0.737126 0.675755 143.35 47.1738)" fill="#E2E2E2"/>
<rect width="8.61708" height="8.61708" transform="matrix(-0.675755 -0.737126 -0.737126 0.675755 142.821 59.3486)" fill="#E2E2E2"/>
<rect width="8.61708" height="8.61708" transform="matrix(-0.675755 -0.737126 -0.737126 0.675755 143.878 34.9985)" fill="#E2E2E2"/>
<rect width="8.61708" height="8.61708" transform="matrix(-0.675755 -0.737126 -0.737126 0.675755 144.408 22.8232)" fill="#E2E2E2"/>
<rect width="8.61708" height="8.61708" transform="matrix(-0.675755 -0.737126 -0.737126 0.675755 149.226 66.335)" fill="#E2E2E2"/>
<rect width="8.61708" height="8.61708" transform="matrix(-0.675755 -0.737126 -0.737126 0.675755 142.239 72.7402)" fill="#E2E2E2"/>
<rect width="8.61708" height="8.61708" transform="matrix(-0.675755 -0.737126 -0.737126 0.675755 135.252 79.1455)" fill="#E2E2E2"/>
<rect width="8.61708" height="8.61708" transform="matrix(-0.675755 -0.737126 -0.737126 0.675755 127.736 97.7256)" fill="#E2E2E2"/>
<rect width="8.61708" height="8.61708" transform="matrix(-0.675755 -0.737126 -0.737126 0.675755 127.207 109.901)" fill="#E2E2E2"/>
<rect width="8.61708" height="8.61708" transform="matrix(-0.675755 -0.737126 -0.737126 0.675755 128.265 85.5513)" fill="#E2E2E2"/>
<rect width="8.61708" height="8.61708" transform="matrix(-0.675755 -0.737126 -0.737126 0.675755 121.86 78.564)" fill="#E2E2E2"/>
<rect width="8.61708" height="8.61708" transform="matrix(-0.675755 -0.737126 -0.737126 0.675755 135.834 65.7529)" fill="#E2E2E2"/>
<rect width="8.61708" height="8.61708" transform="matrix(-0.675755 -0.737126 -0.737126 0.675755 128.847 72.1582)" fill="#E2E2E2"/>
<rect x="101.162" y="91.6929" width="8.61708" height="8.61708" transform="rotate(47.4872 101.162 91.6929)" fill="#E2E2E2"/>
<rect x="199.609" y="119.509" width="8.61708" height="8.61708" transform="rotate(47.4872 199.609 119.509)" fill="#E2E2E2"/>
<rect x="178.647" y="138.725" width="8.61708" height="8.61708" transform="rotate(47.4872 178.647 138.725)" fill="#E2E2E2"/>
<rect x="192.622" y="125.914" width="8.61708" height="8.61708" transform="rotate(47.4872 192.622 125.914)" fill="#E2E2E2"/>
<rect x="171.66" y="145.13" width="8.61708" height="8.61708" transform="rotate(47.4872 171.66 145.13)" fill="#E2E2E2"/>
<rect x="206.595" y="113.104" width="8.61708" height="8.61708" transform="rotate(47.4872 206.595 113.104)" fill="#E2E2E2"/>
<rect x="185.634" y="132.319" width="8.61708" height="8.61708" transform="rotate(47.4872 185.634 132.319)" fill="#E2E2E2"/>
<rect x="198.447" y="202.404" width="8.61707" height="8.61707" transform="rotate(137.487 198.447 202.404)" fill="#E2E2E2"/>
<rect x="179.231" y="181.442" width="8.61707" height="8.61707" transform="rotate(137.487 179.231 181.442)" fill="#E2E2E2"/>
<rect x="192.042" y="195.417" width="8.61707" height="8.61707" transform="rotate(137.487 192.042 195.417)" fill="#E2E2E2"/>
<rect x="172.826" y="174.456" width="8.61707" height="8.61707" transform="rotate(137.487 172.826 174.456)" fill="#E2E2E2"/>
<rect x="204.852" y="209.391" width="8.61707" height="8.61707" transform="rotate(137.487 204.852 209.391)" fill="#E2E2E2"/>
<rect x="185.636" y="188.43" width="8.61707" height="8.61707" transform="rotate(137.487 185.636 188.43)" fill="#E2E2E2"/>
<rect x="137.36" y="176.574" width="8.61707" height="8.61707" transform="rotate(47.4872 137.36 176.574)" fill="#E2E2E2"/>
<rect x="116.398" y="195.79" width="8.61707" height="8.61707" transform="rotate(47.4872 116.398 195.79)" fill="#E2E2E2"/>
<rect x="130.373" y="182.979" width="8.61707" height="8.61707" transform="rotate(47.4872 130.373 182.979)" fill="#E2E2E2"/>
<rect x="109.412" y="202.195" width="8.61707" height="8.61707" transform="rotate(47.4872 109.412 202.195)" fill="#E2E2E2"/>
<rect x="144.347" y="170.169" width="8.61707" height="8.61707" transform="rotate(47.4872 144.347 170.169)" fill="#E2E2E2"/>
<rect x="123.386" y="189.386" width="8.61707" height="8.61707" transform="rotate(47.4872 123.386 189.386)" fill="#E2E2E2"/>
<rect x="147.204" y="146.508" width="8.61707" height="8.61707" transform="rotate(137.487 147.204 146.508)" fill="#E2E2E2"/>
<rect x="127.988" y="125.546" width="8.61707" height="8.61707" transform="rotate(137.487 127.988 125.546)" fill="#E2E2E2"/>
<rect x="140.799" y="139.521" width="8.61707" height="8.61707" transform="rotate(137.487 140.799 139.521)" fill="#E2E2E2"/>
<rect x="121.583" y="118.559" width="8.61707" height="8.61707" transform="rotate(137.487 121.583 118.559)" fill="#E2E2E2"/>
<rect x="153.609" y="153.495" width="8.61707" height="8.61707" transform="rotate(137.487 153.609 153.495)" fill="#E2E2E2"/>
<rect x="134.393" y="132.533" width="8.61707" height="8.61707" transform="rotate(137.487 134.393 132.533)" fill="#E2E2E2"/>
<rect x="231.528" y="114.796" width="8.61708" height="8.61708" transform="rotate(47.4872 231.528 114.796)" fill="#E2E2E2"/>
<rect x="200.361" y="93.8281" width="8.61708" height="8.61708" transform="rotate(-44.1906 200.361 93.8281)" fill="#E2E2E2"/>
<rect x="219.353" y="114.268" width="8.61708" height="8.61708" transform="rotate(47.4872 219.353 114.268)" fill="#E2E2E2"/>
<rect x="200.188" y="106.013" width="8.61708" height="8.61708" transform="rotate(-44.1906 200.188 106.013)" fill="#E2E2E2"/>
<rect x="243.702" y="115.325" width="8.61708" height="8.61708" transform="rotate(47.4872 243.702 115.325)" fill="#E2E2E2"/>
<rect x="200.533" y="81.6426" width="8.61708" height="8.61708" transform="rotate(-44.1906 200.533 81.6426)" fill="#E2E2E2"/>
<rect x="255.877" y="115.854" width="8.61708" height="8.61708" transform="rotate(47.4872 255.877 115.854)" fill="#E2E2E2"/>
<rect x="313.525" y="178.737" width="8.61708" height="8.61708" transform="rotate(47.4872 313.525 178.737)" fill="#E2E2E2"/>
<rect x="238.302" y="85.2061" width="8.61708" height="8.61708" transform="rotate(47.4872 238.302 85.2061)" fill="#E2E2E2"/>
<rect x="252.915" y="155.978" width="8.61708" height="8.61708" transform="rotate(47.4872 252.915 155.978)" fill="#E2E2E2"/>
<rect x="240.74" y="155.449" width="8.61708" height="8.61708" transform="rotate(47.4872 240.74 155.449)" fill="#E2E2E2"/>
<rect x="265.089" y="156.507" width="8.61708" height="8.61708" transform="rotate(47.4872 265.089 156.507)" fill="#E2E2E2"/>
<rect x="277.264" y="157.035" width="8.61708" height="8.61708" transform="rotate(47.4872 277.264 157.035)" fill="#E2E2E2"/>
<rect x="262.282" y="122.841" width="8.61708" height="8.61708" transform="rotate(47.4872 262.282 122.841)" fill="#E2E2E2"/>
<rect x="268.688" y="129.828" width="8.61708" height="8.61708" transform="rotate(47.4872 268.688 129.828)" fill="#E2E2E2"/>
<rect x="275.093" y="136.815" width="8.61708" height="8.61708" transform="rotate(47.4872 275.093 136.815)" fill="#E2E2E2"/>
<rect x="281.499" y="143.803" width="8.61708" height="8.61708" transform="rotate(47.4872 281.499 143.803)" fill="#E2E2E2"/>
<rect x="300.714" y="164.764" width="8.61708" height="8.61708" transform="rotate(47.4872 300.714 164.764)" fill="#E2E2E2"/>
<rect x="287.903" y="150.789" width="8.61708" height="8.61708" transform="rotate(47.4872 287.903 150.789)" fill="#E2E2E2"/>
<rect x="307.12" y="171.751" width="8.61708" height="8.61708" transform="rotate(47.4872 307.12 171.751)" fill="#E2E2E2"/>
<rect x="294.309" y="157.776" width="8.61708" height="8.61708" transform="rotate(47.4872 294.309 157.776)" fill="#E2E2E2"/>
<rect x="255.295" y="129.247" width="8.61708" height="8.61708" transform="rotate(47.4872 255.295 129.247)" fill="#E2E2E2"/>
<rect x="261.7" y="136.234" width="8.61708" height="8.61708" transform="rotate(47.4872 261.7 136.234)" fill="#E2E2E2"/>
<rect x="268.106" y="143.221" width="8.61708" height="8.61708" transform="rotate(47.4872 268.106 143.221)" fill="#E2E2E2"/>
<rect x="248.309" y="135.651" width="8.61708" height="8.61708" transform="rotate(47.4872 248.309 135.651)" fill="#E2E2E2"/>
<rect x="254.713" y="142.639" width="8.61708" height="8.61708" transform="rotate(47.4872 254.713 142.639)" fill="#E2E2E2"/>
<rect x="241.321" y="142.057" width="8.61708" height="8.61708" transform="rotate(47.4872 241.321 142.057)" fill="#E2E2E2"/>
<rect x="234.334" y="148.463" width="8.61708" height="8.61708" transform="rotate(47.4872 234.334 148.463)" fill="#E2E2E2"/>
<rect x="227.347" y="154.868" width="8.61708" height="8.61708" transform="rotate(47.4872 227.347 154.868)" fill="#E2E2E2"/>
<rect x="233.752" y="161.855" width="8.61708" height="8.61708" transform="rotate(47.4872 233.752 161.855)" fill="#E2E2E2"/>
<rect x="240.158" y="168.841" width="8.61708" height="8.61708" transform="rotate(47.4872 240.158 168.841)" fill="#E2E2E2"/>
<rect x="246.563" y="175.829" width="8.61708" height="8.61708" transform="rotate(47.4872 246.563 175.829)" fill="#E2E2E2"/>
<rect x="272.819" y="175.14" width="8.61708" height="8.61708" transform="rotate(47.4872 272.819 175.14)" fill="#E2E2E2"/>
<rect x="260.644" y="174.611" width="8.61708" height="8.61708" transform="rotate(47.4872 260.644 174.611)" fill="#E2E2E2"/>
<rect x="284.994" y="175.668" width="8.61708" height="8.61708" transform="rotate(47.4872 284.994 175.668)" fill="#E2E2E2"/>
<rect x="297.169" y="176.197" width="8.61708" height="8.61708" transform="rotate(47.4872 297.169 176.197)" fill="#E2E2E2"/>
<rect x="278.589" y="182.709" width="8.61708" height="8.61708" transform="rotate(47.4872 278.589 182.709)" fill="#E2E2E2"/>
<rect x="266.414" y="182.181" width="8.61708" height="8.61708" transform="rotate(47.4872 266.414 182.181)" fill="#E2E2E2"/>
<rect x="290.764" y="183.238" width="8.61708" height="8.61708" transform="rotate(47.4872 290.764 183.238)" fill="#E2E2E2"/>
<rect x="302.938" y="183.768" width="8.61708" height="8.61708" transform="rotate(47.4872 302.938 183.768)" fill="#E2E2E2"/>
<rect x="272.185" y="189.75" width="8.61708" height="8.61708" transform="rotate(47.4872 272.185 189.75)" fill="#E2E2E2"/>
<rect x="260.01" y="189.221" width="8.61708" height="8.61708" transform="rotate(47.4872 260.01 189.221)" fill="#E2E2E2"/>
<rect x="284.359" y="190.279" width="8.61708" height="8.61708" transform="rotate(47.4872 284.359 190.279)" fill="#E2E2E2"/>
<rect x="296.534" y="190.808" width="8.61708" height="8.61708" transform="rotate(47.4872 296.534 190.808)" fill="#E2E2E2"/>
<rect x="253.604" y="182.233" width="8.61708" height="8.61708" transform="rotate(47.4872 253.604 182.233)" fill="#E2E2E2"/>
<rect x="246.617" y="188.639" width="8.61708" height="8.61708" transform="rotate(47.4872 246.617 188.639)" fill="#E2E2E2"/>
<rect x="239.63" y="195.045" width="8.61708" height="8.61708" transform="rotate(47.4872 239.63 195.045)" fill="#E2E2E2"/>
<rect x="220.468" y="200.92" width="8.61708" height="8.61708" transform="rotate(47.4872 220.468 200.92)" fill="#E2E2E2"/>
<rect x="208.293" y="200.392" width="8.61708" height="8.61708" transform="rotate(47.4872 208.293 200.392)" fill="#E2E2E2"/>
<rect x="232.643" y="201.449" width="8.61708" height="8.61708" transform="rotate(47.4872 232.643 201.449)" fill="#E2E2E2"/>
<rect x="239.048" y="208.437" width="8.61708" height="8.61708" transform="rotate(47.4872 239.048 208.437)" fill="#E2E2E2"/>
<rect x="253.022" y="195.626" width="8.61708" height="8.61708" transform="rotate(47.4872 253.022 195.626)" fill="#E2E2E2"/>
<rect x="246.035" y="202.032" width="8.61708" height="8.61708" transform="rotate(47.4872 246.035 202.032)" fill="#E2E2E2"/>
<rect width="8.61708" height="8.61708" transform="matrix(0.675755 0.737126 0.737126 -0.675755 142.392 257.299)" fill="#E2E2E2"/>
<rect width="8.61708" height="8.61708" transform="matrix(0.675755 0.737126 0.737126 -0.675755 142.922 245.125)" fill="#E2E2E2"/>
<rect width="8.61708" height="8.61708" transform="matrix(0.675755 0.737126 0.737126 -0.675755 141.864 269.475)" fill="#E2E2E2"/>
<rect width="8.61708" height="8.61708" transform="matrix(0.675755 0.737126 0.737126 -0.675755 141.335 281.649)" fill="#E2E2E2"/>
<rect width="8.61708" height="8.61708" transform="matrix(0.675755 0.737126 0.737126 -0.675755 108.568 263.759)" fill="#E2E2E2"/>
<rect width="8.61708" height="8.61708" transform="matrix(0.675755 0.737126 0.737126 -0.675755 114.973 270.746)" fill="#E2E2E2"/>
<rect width="8.61708" height="8.61708" transform="matrix(0.675755 0.737126 0.737126 -0.675755 121.379 277.732)" fill="#E2E2E2"/>
<rect width="8.61708" height="8.61708" transform="matrix(0.675755 0.737126 0.737126 -0.675755 127.784 284.72)" fill="#E2E2E2"/>
<rect width="8.61708" height="8.61708" transform="matrix(0.675755 0.737126 0.737126 -0.675755 147 305.681)" fill="#E2E2E2"/>
<rect width="8.61708" height="8.61708" transform="matrix(0.675755 0.737126 0.737126 -0.675755 134.189 291.707)" fill="#E2E2E2"/>
<rect width="8.61708" height="8.61708" transform="matrix(0.675755 0.737126 0.737126 -0.675755 153.406 312.668)" fill="#E2E2E2"/>
<rect width="8.61708" height="8.61708" transform="matrix(0.675755 0.737126 0.737126 -0.675755 140.595 298.694)" fill="#E2E2E2"/>
<rect width="8.61708" height="8.61708" transform="matrix(0.675755 0.737126 0.737126 -0.675755 159.811 319.655)" fill="#E2E2E2"/>
<rect width="8.61708" height="8.61708" transform="matrix(0.675755 0.737126 0.737126 -0.675755 115.556 257.354)" fill="#E2E2E2"/>
<rect width="8.61708" height="8.61708" transform="matrix(0.675755 0.737126 0.737126 -0.675755 121.96 264.341)" fill="#E2E2E2"/>
<rect width="8.61708" height="8.61708" transform="matrix(0.675755 0.737126 0.737126 -0.675755 128.366 271.328)" fill="#E2E2E2"/>
<rect width="8.61708" height="8.61708" transform="matrix(0.675755 0.737126 0.737126 -0.675755 122.542 250.948)" fill="#E2E2E2"/>
<rect width="8.61708" height="8.61708" transform="matrix(0.675755 0.737126 0.737126 -0.675755 128.948 257.935)" fill="#E2E2E2"/>
<rect width="8.61708" height="8.61708" transform="matrix(0.675755 0.737126 0.737126 -0.675755 129.53 244.543)" fill="#E2E2E2"/>
<rect width="8.61708" height="8.61708" transform="matrix(0.675755 0.737126 0.737126 -0.675755 136.517 238.138)" fill="#E2E2E2"/>
<rect width="8.61708" height="8.61708" transform="matrix(0.675755 0.737126 0.737126 -0.675755 143.503 231.732)" fill="#E2E2E2"/>
<rect width="8.61708" height="8.61708" transform="matrix(0.675755 0.737126 0.737126 -0.675755 149.909 238.719)" fill="#E2E2E2"/>
<rect width="8.61708" height="8.61708" transform="matrix(0.675755 0.737126 0.737126 -0.675755 156.314 245.706)" fill="#E2E2E2"/>
<rect width="8.61708" height="8.61708" transform="matrix(0.675755 0.737126 0.737126 -0.675755 162.72 252.693)" fill="#E2E2E2"/>
<rect width="8.61708" height="8.61708" transform="matrix(0.675755 0.737126 0.737126 -0.675755 159.756 278.79)" fill="#E2E2E2"/>
<rect width="8.61708" height="8.61708" transform="matrix(0.675755 0.737126 0.737126 -0.675755 160.284 266.615)" fill="#E2E2E2"/>
<rect width="8.61708" height="8.61708" transform="matrix(0.675755 0.737126 0.737126 -0.675755 159.227 290.965)" fill="#E2E2E2"/>
<rect width="8.61708" height="8.61708" transform="matrix(0.675755 0.737126 0.737126 -0.675755 158.698 303.14)" fill="#E2E2E2"/>
<rect width="8.61708" height="8.61708" transform="matrix(0.675755 0.737126 0.737126 -0.675755 166.797 285.194)" fill="#E2E2E2"/>
<rect width="8.61708" height="8.61708" transform="matrix(0.675755 0.737126 0.737126 -0.675755 167.326 273.02)" fill="#E2E2E2"/>
<rect width="8.61708" height="8.61708" transform="matrix(0.675755 0.737126 0.737126 -0.675755 166.268 297.369)" fill="#E2E2E2"/>
<rect width="8.61708" height="8.61708" transform="matrix(0.675755 0.737126 0.737126 -0.675755 165.739 309.544)" fill="#E2E2E2"/>
<rect width="8.61708" height="8.61708" transform="matrix(0.675755 0.737126 0.737126 -0.675755 174.366 279.425)" fill="#E2E2E2"/>
<rect width="8.61708" height="8.61708" transform="matrix(0.675755 0.737126 0.737126 -0.675755 174.895 267.25)" fill="#E2E2E2"/>
<rect width="8.61708" height="8.61708" transform="matrix(0.675755 0.737126 0.737126 -0.675755 173.837 291.6)" fill="#E2E2E2"/>
<rect width="8.61708" height="8.61708" transform="matrix(0.675755 0.737126 0.737126 -0.675755 173.308 303.774)" fill="#E2E2E2"/>
<rect width="8.61708" height="8.61708" transform="matrix(0.675755 0.737126 0.737126 -0.675755 168.49 260.263)" fill="#E2E2E2"/>
<rect width="8.61708" height="8.61708" transform="matrix(0.675755 0.737126 0.737126 -0.675755 175.477 253.857)" fill="#E2E2E2"/>
<rect width="8.61708" height="8.61708" transform="matrix(0.675755 0.737126 0.737126 -0.675755 182.463 247.452)" fill="#E2E2E2"/>
<rect width="8.61708" height="8.61708" transform="matrix(0.675755 0.737126 0.737126 -0.675755 189.98 228.871)" fill="#E2E2E2"/>
<rect width="8.61708" height="8.61708" transform="matrix(0.675755 0.737126 0.737126 -0.675755 190.508 216.696)" fill="#E2E2E2"/>
<rect width="8.61708" height="8.61708" transform="matrix(0.675755 0.737126 0.737126 -0.675755 189.45 241.047)" fill="#E2E2E2"/>
<rect width="8.61708" height="8.61708" transform="matrix(0.675755 0.737126 0.737126 -0.675755 195.856 248.033)" fill="#E2E2E2"/>
<rect width="8.61708" height="8.61708" transform="matrix(0.675755 0.737126 0.737126 -0.675755 181.882 260.845)" fill="#E2E2E2"/>
<rect width="8.61708" height="8.61708" transform="matrix(0.675755 0.737126 0.737126 -0.675755 188.869 254.438)" fill="#E2E2E2"/>
<rect x="216.499" y="222.095" width="8.61708" height="8.61708" transform="rotate(47.4872 216.499 222.095)" fill="#E2E2E2"/>
<rect x="157.687" y="157.94" width="8.61708" height="8.61708" transform="rotate(47.4872 157.687 157.94)" fill="#E2E2E2"/>
<rect x="194.951" y="142.483" width="8.61708" height="8.61708" transform="rotate(47.4872 194.951 142.483)" fill="#E2E2E2"/>
<rect x="182.246" y="154.129" width="8.61708" height="8.61708" transform="rotate(47.4872 182.246 154.129)" fill="#E2E2E2"/>
<rect x="193.893" y="166.833" width="8.61708" height="8.61708" transform="rotate(47.4872 193.893 166.833)" fill="#E2E2E2"/>
<rect x="207.126" y="143.012" width="8.61708" height="8.61708" transform="rotate(47.4872 207.126 143.012)" fill="#E2E2E2"/>
<rect x="194.422" y="154.658" width="8.61708" height="8.61708" transform="rotate(47.4872 194.422 154.658)" fill="#E2E2E2"/>
<rect x="206.068" y="167.361" width="8.61708" height="8.61708" transform="rotate(47.4872 206.068 167.361)" fill="#E2E2E2"/>
<rect x="219.3" y="143.541" width="8.61708" height="8.61708" transform="rotate(47.4872 219.3 143.541)" fill="#E2E2E2"/>
<rect x="206.597" y="155.187" width="8.61708" height="8.61708" transform="rotate(47.4872 206.597 155.187)" fill="#E2E2E2"/>
<rect x="218.243" y="167.89" width="8.61708" height="8.61708" transform="rotate(47.4872 218.243 167.89)" fill="#E2E2E2"/>
<rect x="144.92" y="126.39" width="8.61708" height="8.61708" transform="rotate(-41.9964 144.92 126.39)" fill="#E2E2E2"/>
<rect x="156.451" y="139.198" width="8.61708" height="8.61708" transform="rotate(-41.9964 156.451 139.198)" fill="#E2E2E2"/>
<rect x="169.259" y="127.667" width="8.61708" height="8.61708" transform="rotate(-41.9964 169.259 127.667)" fill="#E2E2E2"/>
<rect x="145.559" y="114.22" width="8.61708" height="8.61708" transform="rotate(-41.9964 145.559 114.22)" fill="#E2E2E2"/>
<rect x="157.09" y="127.028" width="8.61708" height="8.61708" transform="rotate(-41.9964 157.09 127.028)" fill="#E2E2E2"/>
<rect x="169.898" y="115.498" width="8.61708" height="8.61708" transform="rotate(-41.9964 169.898 115.498)" fill="#E2E2E2"/>
<rect x="146.197" y="102.051" width="8.61708" height="8.61708" transform="rotate(-41.9964 146.197 102.051)" fill="#E2E2E2"/>
<rect x="157.728" y="114.859" width="8.61708" height="8.61708" transform="rotate(-41.9964 157.728 114.859)" fill="#E2E2E2"/>
<rect x="170.536" y="103.328" width="8.61708" height="8.61708" transform="rotate(-41.9964 170.536 103.328)" fill="#E2E2E2"/>
<rect x="121.121" y="185.336" width="8.61708" height="8.61708" transform="rotate(-132.513 121.121 185.336)" fill="#E2E2E2"/>
<rect x="133.826" y="173.689" width="8.61708" height="8.61708" transform="rotate(-132.513 133.826 173.689)" fill="#E2E2E2"/>
<rect x="122.179" y="160.985" width="8.61708" height="8.61708" transform="rotate(-132.513 122.179 160.985)" fill="#E2E2E2"/>
<rect x="108.947" y="184.807" width="8.61708" height="8.61708" transform="rotate(-132.513 108.947 184.807)" fill="#E2E2E2"/>
<rect x="121.651" y="173.161" width="8.61708" height="8.61708" transform="rotate(-132.513 121.651 173.161)" fill="#E2E2E2"/>
<rect x="110.005" y="160.457" width="8.61708" height="8.61708" transform="rotate(-132.513 110.005 160.457)" fill="#E2E2E2"/>
<rect x="96.7727" y="184.278" width="8.61708" height="8.61708" transform="rotate(-132.513 96.7727 184.278)" fill="#E2E2E2"/>
<rect x="109.476" y="172.632" width="8.61708" height="8.61708" transform="rotate(-132.513 109.476 172.632)" fill="#E2E2E2"/>
<rect x="97.83" y="159.928" width="8.61708" height="8.61708" transform="rotate(-132.513 97.83 159.928)" fill="#E2E2E2"/>
<rect x="167.42" y="200.643" width="8.61708" height="8.61708" transform="rotate(137.487 167.42 200.643)" fill="#E2E2E2"/>
<rect x="155.773" y="187.939" width="8.61708" height="8.61708" transform="rotate(137.487 155.773 187.939)" fill="#E2E2E2"/>
<rect x="143.07" y="199.585" width="8.61708" height="8.61708" transform="rotate(137.487 143.07 199.585)" fill="#E2E2E2"/>
<rect x="166.89" y="212.817" width="8.61708" height="8.61708" transform="rotate(137.487 166.89 212.817)" fill="#E2E2E2"/>
<rect x="155.244" y="200.114" width="8.61708" height="8.61708" transform="rotate(137.487 155.244 200.114)" fill="#E2E2E2"/>
<rect x="142.541" y="211.76" width="8.61708" height="8.61708" transform="rotate(137.487 142.541 211.76)" fill="#E2E2E2"/>
<rect x="166.362" y="224.993" width="8.61708" height="8.61708" transform="rotate(137.487 166.362 224.993)" fill="#E2E2E2"/>
<rect x="154.715" y="212.289" width="8.61708" height="8.61708" transform="rotate(137.487 154.715 212.289)" fill="#E2E2E2"/>
<rect x="142.012" y="223.936" width="8.61708" height="8.61708" transform="rotate(137.487 142.012 223.936)" fill="#E2E2E2"/>
<rect x="200.705" y="69.458" width="8.61708" height="8.61708" transform="rotate(-44.1906 200.705 69.458)" fill="#E2E2E2"/>
<rect x="83.9507" y="212.679" width="8.61708" height="8.61708" transform="rotate(-132.513 83.9507 212.679)" fill="#E2E2E2"/>
<rect x="115.117" y="233.646" width="8.61708" height="8.61708" transform="rotate(135.809 115.117 233.646)" fill="#E2E2E2"/>
<rect x="96.1262" y="213.207" width="8.61708" height="8.61708" transform="rotate(-132.513 96.1262 213.207)" fill="#E2E2E2"/>
<rect x="115.29" y="221.461" width="8.61708" height="8.61708" transform="rotate(135.809 115.29 221.461)" fill="#E2E2E2"/>
<rect x="71.7762" y="212.149" width="8.61708" height="8.61708" transform="rotate(-132.513 71.7762 212.149)" fill="#E2E2E2"/>
<rect x="114.945" y="245.831" width="8.61708" height="8.61708" transform="rotate(135.809 114.945 245.831)" fill="#E2E2E2"/>
<rect x="59.6007" y="211.62" width="8.61708" height="8.61708" transform="rotate(-132.513 59.6007 211.62)" fill="#E2E2E2"/>
<rect x="77.176" y="242.269" width="8.61708" height="8.61708" transform="rotate(-132.513 77.176 242.269)" fill="#E2E2E2"/>
<rect x="114.773" y="258.017" width="8.61708" height="8.61708" transform="rotate(135.809 114.773 258.017)" fill="#E2E2E2"/>
</svg>
