<svg width="28" height="28" viewBox="0 0 28 28" fill="none" xmlns="http://www.w3.org/2000/svg">
<path d="M26.75 26.75L20.5974 20.5975M20.5974 20.5975C21.6498 19.545 22.4847 18.2956 23.0542 16.9206C23.6238 15.5455 23.9169 14.0717 23.9169 12.5834C23.9169 11.095 23.6238 9.62125 23.0542 8.24619C22.4847 6.87113 21.6498 5.62172 20.5974 4.5693C19.545 3.51687 18.2956 2.68204 16.9205 2.11248C15.5455 1.54291 14.0717 1.24976 12.5833 1.24976C11.095 1.24976 9.62119 1.54291 8.24613 2.11248C6.87107 2.68204 5.62166 3.51687 4.56924 4.5693C2.44377 6.69476 1.24969 9.57752 1.24969 12.5834C1.24969 15.5892 2.44377 18.472 4.56924 20.5975C6.6947 22.7229 9.57746 23.917 12.5833 23.917C15.5892 23.917 18.4719 22.7229 20.5974 20.5975Z" stroke="#212529" stroke-width="1.5" stroke-linecap="round" stroke-linejoin="round"/>
</svg>
