<svg width="202" height="187" viewBox="0 0 202 187" fill="none" xmlns="http://www.w3.org/2000/svg">
<path d="M106.958 166L110.12 169.449L106.671 172.611L103.508 169.162L106.958 166Z" fill="#FDF9ED"/>
<path d="M72.9577 159L76.1198 162.449L72.6705 165.611L69.5084 162.162L72.9577 159Z" fill="#FEFCF6"/>
<path d="M180.958 87L184.12 90.4493L180.671 93.6114L177.508 90.1621L180.958 87Z" fill="#FBECBC"/>
<path d="M72.7375 27L75.1235 29.6027L72.5085 32L70.1225 29.3973L72.7375 27Z" fill="#F5D05A"/>
<path d="M133.678 177L138.418 182.17L133.248 186.909L128.508 181.739L133.678 177Z" fill="#FDF9E9"/>
<path d="M86.6783 179L89.5895 182.176L86.5085 185L83.5973 181.824L86.6783 179Z" fill="#FEFCF4"/>
<path d="M147.501 153.992L151.245 158.076L147.161 161.819L143.418 157.736L147.501 153.992Z" fill="#FDF7E2"/>
<path d="M117.675 19L121.584 23.2641L117.319 27.1733L113.41 22.9091L117.675 19Z" fill="#F7DA80"/>
<path d="M178.724 146L183.505 151.215L178.29 155.996L173.508 150.781L178.724 146Z" fill="#FCF4D9"/>
<path d="M152.724 14L157.505 19.2153L152.29 23.9965L147.508 18.7811L152.724 14Z" fill="#F8E195"/>
<path d="M174.508 125L176.536 127.211L174.324 129.239L172.297 127.027L174.508 125Z" fill="#FCF2D2"/>
<path d="M41.9359 60.0508L45.0779 63.4781L41.6505 66.6201L38.5085 63.1928L41.9359 60.0508Z" fill="#F2C431"/>
<path d="M166.082 48L168.269 50.3859L165.883 52.5731L163.696 50.1872L166.082 48Z" fill="#F9E5A5"/>
<path d="M195.674 105L201.327 111.166L195.161 116.819L189.508 110.653L195.674 105Z" fill="#FBEFC9"/>
<path d="M187.508 56L191.327 60.1656L187.162 63.9844L183.343 59.8188L187.508 56Z" fill="#FAE8B1"/>
<path d="M88.6745 0L94.3272 6.16606L88.1611 11.8188L82.5084 5.6527L88.6745 0Z" fill="#F6D56D"/>
<path d="M39.4361 25.6494L46.3272 33.1663L38.8103 40.0574L31.9192 32.5405L39.4361 25.6494Z" fill="#F3C945"/>
<path d="M41.4884 77.8425C47.1119 85.4774 45.4812 96.2255 37.8462 101.849C30.2112 107.472 19.4632 105.842 13.8398 98.2067C8.21636 90.5717 9.84705 79.8236 17.482 74.2002C25.117 68.5768 35.865 70.2075 41.4884 77.8425Z" fill="white"/>
<path d="M13.6031 99.9315L11.9662 99.6099L12.2877 97.9729L13.9247 98.2945L13.6031 99.9315Z" fill="#F0BB12"/>
<path d="M15.562 98.6162L13.9247 98.2945L14.2466 96.6577L15.8836 96.9793L15.562 98.6162Z" fill="#F0BB12"/>
<path d="M11.6449 101.248L10.0079 100.926L10.3295 99.289L11.9662 99.6099L11.6449 101.248Z" fill="#F0BB12"/>
<path d="M9.68573 102.562L8.04874 102.24L8.37033 100.603L10.0073 100.925L9.68573 102.562Z" fill="#F0BB12"/>
<path d="M15.9479 106.173L14.3109 105.851L14.6325 104.214L16.2695 104.536L15.9479 106.173Z" fill="#F0BB12"/>
<path d="M14.1468 105.819L12.5098 105.498L12.8314 103.861L14.4683 104.182L14.1468 105.819Z" fill="#F0BB12"/>
<path d="M12.3464 105.464L10.7094 105.143L11.031 103.506L12.6679 103.827L12.3464 105.464Z" fill="#F0BB12"/>
<path d="M10.5456 105.111L8.9086 104.79L9.23018 103.153L10.8672 103.474L10.5456 105.111Z" fill="#F0BB12"/>
<path d="M5.14401 104.051L3.50703 103.729L3.82861 102.092L5.4656 102.414L5.14401 104.051Z" fill="#F0BB12"/>
<path d="M8.74481 104.757L7.10783 104.436L7.42941 102.799L9.06639 103.12L8.74481 104.757Z" fill="#F0BB12"/>
<path d="M3.34287 103.697L1.70588 103.375L2.02747 101.738L3.66445 102.06L3.34287 103.697Z" fill="#F0BB12"/>
<path d="M6.94413 104.404L5.30715 104.082L5.62873 102.445L7.26572 102.767L6.94413 104.404Z" fill="#F0BB12"/>
<path d="M16.3016 104.372L14.6646 104.05L14.9862 102.413L16.6232 102.735L16.3016 104.372Z" fill="#F0BB12"/>
<path d="M14.5003 104.018L12.8633 103.696L13.1849 102.059L14.8218 102.381L14.5003 104.018Z" fill="#F0BB12"/>
<path d="M12.6992 103.663L11.0622 103.342L11.3838 101.705L13.0208 102.026L12.6992 103.663Z" fill="#F0BB12"/>
<path d="M16.6552 102.572L15.0182 102.25L15.3398 100.613L16.9768 100.935L16.6552 102.572Z" fill="#F0BB12"/>
<path d="M14.8552 102.218L13.2183 101.896L13.5399 100.259L15.1768 100.581L14.8552 102.218Z" fill="#F0BB12"/>
<path d="M17.0087 100.77L15.3717 100.448L15.6933 98.8111L17.3303 99.1326L17.0087 100.77Z" fill="#F0BB12"/>
<path d="M17.3628 98.9707L15.7259 98.6491L16.0474 97.0121L17.6844 97.3337L17.3628 98.9707Z" fill="#F0BB12"/>
<path d="M17.7167 97.1688L16.0797 96.8472L16.4013 95.2103L18.0383 95.5318L17.7167 97.1688Z" fill="#F0BB12"/>
<path d="M15.9153 96.8149L14.2783 96.4933L14.5999 94.8563L16.2369 95.1779L15.9153 96.8149Z" fill="#F0BB12"/>
<path d="M14.1158 96.4624L12.4788 96.1408L12.8004 94.5038L14.4374 94.8254L14.1158 96.4624Z" fill="#F0BB12"/>
<path d="M12.3145 96.1084L10.6775 95.7868L10.9991 94.1498L12.6361 94.4714L12.3145 96.1084Z" fill="#F0BB12"/>
<path d="M8.30211 99.2332L6.66513 98.9116L6.98672 97.2746L8.6237 97.5962L8.30211 99.2332Z" fill="#F0BB12"/>
<path d="M10.2609 97.9179L8.6237 97.5962L8.94547 95.9594L10.5825 96.2809L10.2609 97.9179Z" fill="#F0BB12"/>
<path d="M6.3441 100.548L4.70712 100.227L5.02871 98.5899L6.66513 98.9116L6.3441 100.548Z" fill="#F0BB12"/>
<path d="M4.38461 101.864L2.74762 101.542L3.06921 99.9052L4.70712 100.227L4.38461 101.864Z" fill="#F0BB12"/>
<path d="M6.5341 98.716L4.89711 98.3944L5.2187 96.7574L6.85568 97.079L6.5341 98.716Z" fill="#F0BB12"/>
<path d="M8.49322 97.4007L6.85568 97.079L7.17783 95.4421L8.81481 95.7637L8.49322 97.4007Z" fill="#F0BB12"/>
<path d="M4.57572 100.032L2.93873 99.7104L3.26032 98.0734L4.89711 98.3944L4.57572 100.032Z" fill="#F0BB12"/>
<path d="M2.61696 101.347L0.97998 101.025L1.30157 99.388L2.93873 99.7104L2.61696 101.347Z" fill="#F0BB12"/>
<path d="M6.72347 96.8821L5.08649 96.5605L5.40807 94.9235L7.04506 95.2451L6.72347 96.8821Z" fill="#F0BB12"/>
<path d="M8.68232 95.5661L7.04506 95.2451L7.36692 93.6075L9.0039 93.9291L8.68232 95.5661Z" fill="#F0BB12"/>
<path d="M4.76574 98.1981L3.12876 97.8765L3.45035 96.2396L5.08733 96.5611L4.76574 98.1981Z" fill="#F0BB12"/>
<path d="M2.80652 99.5126L1.16954 99.1911L1.49113 97.5541L3.12811 97.8757L2.80652 99.5126Z" fill="#F0BB12"/>
<path d="M10.4815 95.9176L8.84451 95.5961L9.1661 93.9591L10.8031 94.2807L10.4815 95.9176Z" fill="#F0BB12"/>
<path d="M10.8362 94.118L9.19922 93.7964L9.52081 92.1594L11.1578 92.481L10.8362 94.118Z" fill="#F0BB12"/>
<path d="M11.1894 92.3168L9.55245 91.9953L9.87403 90.3583L11.511 90.6799L11.1894 92.3168Z" fill="#F0BB12"/>
<path d="M13.5024 89.2012L11.8654 88.8796L12.187 87.2426L13.824 87.5642L13.5024 89.2012Z" fill="#F0BB12"/>
<path d="M15.4603 87.8859L13.824 87.5642L14.1449 85.9273L15.7818 86.2489L15.4603 87.8859Z" fill="#F0BB12"/>
<path d="M11.5431 90.5164L9.90614 90.1949L10.2277 88.5579L11.8654 88.8796L11.5431 90.5164Z" fill="#F0BB12"/>
<path d="M9.74216 90.1625L8.10518 89.8409L8.42677 88.2039L10.0637 88.5255L9.74216 90.1625Z" fill="#F0BB12"/>
<path d="M9.03488 93.764L7.39789 93.4424L7.71948 91.8055L9.35646 92.127L9.03488 93.764Z" fill="#F0BB12"/>
<path d="M9.38819 91.9629L7.75121 91.6413L8.0728 90.0043L9.70978 90.3259L9.38819 91.9629Z" fill="#F0BB12"/>
<path d="M19.2038 71.4457L17.5668 71.1241L17.2452 72.7611L18.8822 73.0827L19.2038 71.4457Z" fill="#F0BB12"/>
<path d="M20.5196 73.4048L18.8822 73.0827L18.561 74.7202L20.198 75.0418L20.5196 73.4048Z" fill="#F0BB12"/>
<path d="M17.8889 69.4873L16.2519 69.1657L15.9303 70.8027L17.5668 71.1241L17.8889 69.4873Z" fill="#F0BB12"/>
<path d="M16.5737 67.5289L14.9367 67.2073L14.6151 68.8443L16.2519 69.1657L16.5737 67.5289Z" fill="#F0BB12"/>
<path d="M23.7362 66.5565L22.0992 66.2349L21.7776 67.8719L23.4146 68.1935L23.7362 66.5565Z" fill="#F0BB12"/>
<path d="M21.9359 66.2021L20.2989 65.8805L19.9773 67.5175L21.6143 67.839L21.9359 66.2021Z" fill="#F0BB12"/>
<path d="M20.1344 65.8481L18.4975 65.5265L18.1759 67.1635L19.8129 67.4851L20.1344 65.8481Z" fill="#F0BB12"/>
<path d="M18.3345 65.4949L16.6975 65.1733L16.3759 66.8103L18.0129 67.1319L18.3345 65.4949Z" fill="#F0BB12"/>
<path d="M12.9328 64.4337L11.2959 64.1121L10.9743 65.7491L12.6113 66.0707L12.9328 64.4337Z" fill="#F0BB12"/>
<path d="M16.5332 65.1409L14.8962 64.8193L14.5746 66.4563L16.2116 66.7779L16.5332 65.1409Z" fill="#F0BB12"/>
<path d="M11.1315 64.0797L9.49453 63.7581L9.17295 65.3951L10.8099 65.7167L11.1315 64.0797Z" fill="#F0BB12"/>
<path d="M14.7332 64.7869L13.0962 64.4653L12.7746 66.1023L14.4116 66.4239L14.7332 64.7869Z" fill="#F0BB12"/>
<path d="M9.33028 63.7258L7.6933 63.4042L7.37171 65.0412L9.00869 65.3627L9.33028 63.7258Z" fill="#F0BB12"/>
<path d="M23.3833 68.3579L21.7463 68.0363L21.4248 69.6733L23.0617 69.9949L23.3833 68.3579Z" fill="#F0BB12"/>
<path d="M21.5822 68.0039L19.9452 67.6824L19.6236 69.3193L21.2606 69.6409L21.5822 68.0039Z" fill="#F0BB12"/>
<path d="M19.7813 67.6492L18.1443 67.3276L17.8227 68.9646L19.4597 69.2862L19.7813 67.6492Z" fill="#F0BB12"/>
<path d="M23.03 70.1583L21.393 69.8367L21.0714 71.4737L22.7084 71.7953L23.03 70.1583Z" fill="#F0BB12"/>
<path d="M21.2279 69.8029L19.5909 69.4813L19.2694 71.1183L20.9063 71.4398L21.2279 69.8029Z" fill="#F0BB12"/>
<path d="M22.6747 71.958L21.0377 71.6364L20.7162 73.2734L22.3531 73.595L22.6747 71.958Z" fill="#F0BB12"/>
<path d="M22.3204 73.7584L20.6834 73.4368L20.3618 75.0738L21.9988 75.3953L22.3204 73.7584Z" fill="#F0BB12"/>
<path d="M21.967 75.5588L20.33 75.2372L20.0084 76.8742L21.6454 77.1957L21.967 75.5588Z" fill="#F0BB12"/>
<path d="M20.1671 75.2063L18.5302 74.8847L18.2086 76.5217L19.8456 76.8433L20.1671 75.2063Z" fill="#F0BB12"/>
<path d="M18.3661 74.8523L16.7291 74.5307L16.4075 76.1677L18.0445 76.4893L18.3661 74.8523Z" fill="#F0BB12"/>
<path d="M16.566 74.4991L14.929 74.1775L14.6074 75.8145L16.2444 76.1361L16.566 74.4991Z" fill="#F0BB12"/>
<path d="M14.0304 70.092L12.3934 69.7704L12.0718 71.4074L13.7088 71.729L14.0304 70.092Z" fill="#F0BB12"/>
<path d="M15.3459 72.0496L13.7088 71.729L13.3873 73.365L15.0243 73.6866L15.3459 72.0496Z" fill="#F0BB12"/>
<path d="M12.715 68.1321L11.0781 67.8105L10.7565 69.4475L12.3935 69.7691L12.715 68.1321Z" fill="#F0BB12"/>
<path d="M11.4 66.1737L9.76298 65.8521L9.44139 67.4891L11.0781 67.8105L11.4 66.1737Z" fill="#F0BB12"/>
<path d="M12.1985 69.9026L10.5615 69.5811L10.2399 71.218L11.8769 71.5396L12.1985 69.9026Z" fill="#F0BB12"/>
<path d="M13.5136 71.861L11.8769 71.5396L11.555 73.1764L13.192 73.498L13.5136 71.861Z" fill="#F0BB12"/>
<path d="M10.8829 67.9435L9.24595 67.6219L8.92437 69.2589L10.5615 69.5811L10.8829 67.9435Z" fill="#F0BB12"/>
<path d="M9.56766 65.9851L7.93068 65.6636L7.60909 67.3005L9.24595 67.6219L9.56766 65.9851Z" fill="#F0BB12"/>
<path d="M11.6811 71.6681L10.0442 71.3465L9.72257 72.9834L11.3596 73.305L11.6811 71.6681Z" fill="#F0BB12"/>
<path d="M12.9956 73.6272L11.3586 73.3056L11.037 74.9426L12.674 75.2642L12.9956 73.6272Z" fill="#F0BB12"/>
<path d="M10.3654 69.7089L8.72841 69.3873L8.40683 71.0243L10.0442 71.3465L10.3654 69.7089Z" fill="#F0BB12"/>
<path d="M9.04966 67.7513L7.41267 67.4297L7.09109 69.0667L8.72841 69.3873L9.04966 67.7513Z" fill="#F0BB12"/>
<path d="M14.7974 73.9812L13.1604 73.6596L12.8389 75.2966L14.4758 75.6182L14.7974 73.9812Z" fill="#F0BB12"/>
<path d="M14.444 75.7823L12.807 75.4607L12.4854 77.0977L14.1224 77.4193L14.444 75.7823Z" fill="#F0BB12"/>
<path d="M14.0892 77.582L12.4522 77.2604L12.1306 78.8974L13.7676 79.219L14.0892 77.582Z" fill="#F0BB12"/>
<path d="M15.0511 81.3415L13.4141 81.0199L13.0925 82.6569L14.7295 82.9785L15.0511 81.3415Z" fill="#F0BB12"/>
<path d="M16.3664 83.2999L14.7295 82.9785L14.4079 84.6153L16.0449 84.9369L16.3664 83.2999Z" fill="#F0BB12"/>
<path d="M13.7351 79.3824L12.0982 79.0608L11.7766 80.6978L13.4141 81.0199L13.7351 79.3824Z" fill="#F0BB12"/>
<path d="M11.9358 79.0299L10.2988 78.7083L9.9772 80.3453L11.6142 80.6669L11.9358 79.0299Z" fill="#F0BB12"/>
<path d="M12.6428 75.4284L11.0058 75.1068L10.6842 76.7438L12.3212 77.0653L12.6428 75.4284Z" fill="#F0BB12"/>
<path d="M12.288 77.228L10.651 76.9064L10.3294 78.5434L11.9664 78.865L12.288 77.228Z" fill="#F0BB12"/>
<path d="M10.2109 83.4542L11.8479 83.7758L11.5263 85.4128L9.8893 85.0912L10.2109 83.4542Z" fill="#F0BB12"/>
<path d="M28.755 76.4837L30.3919 76.8052L30.0704 78.4422L28.4334 78.1206L28.755 76.4837Z" fill="#F0BB12"/>
<path d="M27.6928 81.8856L29.3298 82.2072L29.0082 83.8442L27.3712 83.5226L27.6928 81.8856Z" fill="#F0BB12"/>
<path d="M28.4013 78.2841L30.0383 78.6056L29.7167 80.2426L28.0797 79.921L28.4013 78.2841Z" fill="#F0BB12"/>
<path d="M27.3395 83.6867L28.9765 84.0083L28.6549 85.6453L27.018 85.3237L27.3395 83.6867Z" fill="#F0BB12"/>
<path d="M29.1079 74.6833L30.7449 75.0049L30.4233 76.6418L28.7863 76.3202L29.1079 74.6833Z" fill="#F0BB12"/>
<path d="M28.0472 80.0845L29.6842 80.406L29.3626 82.043L27.7256 81.7214L28.0472 80.0845Z" fill="#F0BB12"/>
<path d="M38.0908 89.5396L37.7693 91.1766L36.1323 90.855L36.4539 89.2181L38.0908 89.5396Z" fill="#F0BB12"/>
<path d="M32.6878 88.477L32.3662 90.114L30.7292 89.7924L31.0508 88.1554L32.6878 88.477Z" fill="#F0BB12"/>
<path d="M36.2899 89.1857L35.9683 90.8227L34.3313 90.5011L34.6529 88.8641L36.2899 89.1857Z" fill="#F0BB12"/>
<path d="M30.8876 88.1238L30.566 89.7607L28.929 89.4392L29.2506 87.8022L30.8876 88.1238Z" fill="#F0BB12"/>
<path d="M39.8905 89.8921L39.5689 91.5291L37.932 91.2075L38.2535 89.5706L39.8905 89.8921Z" fill="#F0BB12"/>
<path d="M34.489 88.831L34.1674 90.4679L32.5304 90.1464L32.852 88.5094L34.489 88.831Z" fill="#F0BB12"/>
<path d="M25.6038 92.527L27.2408 92.8486L26.9192 94.4856L25.2822 94.164L25.6038 92.527Z" fill="#F0BB12"/>
<path d="M24.542 97.9282L26.179 98.2498L25.8574 99.8868L24.2204 99.5652L24.542 97.9282Z" fill="#F0BB12"/>
<path d="M25.2498 94.3274L26.8868 94.649L26.5652 96.286L24.9282 95.9644L25.2498 94.3274Z" fill="#F0BB12"/>
<path d="M24.1888 99.7294L25.8258 100.051L25.5042 101.688L23.8672 101.366L24.1888 99.7294Z" fill="#F0BB12"/>
<path d="M25.9568 90.7259L27.5938 91.0475L27.2722 92.6845L25.6352 92.3629L25.9568 90.7259Z" fill="#F0BB12"/>
<path d="M24.8968 96.1286L26.5338 96.4502L26.2122 98.0872L24.5752 97.7656L24.8968 96.1286Z" fill="#F0BB12"/>
<path d="M23.6854 86.7079L23.3638 88.3449L21.7268 88.0233L22.0484 86.3864L23.6854 86.7079Z" fill="#F0BB12"/>
<path d="M18.2836 85.6475L17.962 87.2845L16.325 86.9629L16.6466 85.3259L18.2836 85.6475Z" fill="#F0BB12"/>
<path d="M21.8845 86.354L21.5629 87.991L19.9259 87.6694L20.2475 86.0324L21.8845 86.354Z" fill="#F0BB12"/>
<path d="M16.4826 85.2928L16.161 86.9298L14.524 86.6082L14.8456 84.9712L16.4826 85.2928Z" fill="#F0BB12"/>
<path d="M25.4856 87.061L25.164 88.698L23.527 88.3764L23.8486 86.7394L25.4856 87.061Z" fill="#F0BB12"/>
<path d="M20.0829 86L19.7613 87.637L18.1243 87.3154L18.4459 85.6784L20.0829 86Z" fill="#F0BB12"/>
<path d="M33.1892 72.084L34.8262 72.4056L34.5046 74.0426L32.8676 73.721L33.1892 72.084Z" fill="#F0BB12"/>
<path d="M25.9239 72.3948L26.1974 70.7491L27.8431 71.0226L27.5696 72.6683L25.9239 72.3948Z" fill="#F0BB12"/>
<path d="M31.231 73.4L32.8676 73.721L32.5464 75.3586L30.9094 75.037L31.231 73.4Z" fill="#F0BB12"/>
<path d="M27.2957 74.3136L27.5696 72.6683L29.2149 72.9415L28.9414 74.5872L27.2957 74.3136Z" fill="#F0BB12"/>
<path d="M35.1478 70.7695L36.7848 71.0911L36.4632 72.7281L34.8262 72.4056L35.1478 70.7695Z" fill="#F0BB12"/>
<path d="M24.5509 70.4744L24.8244 68.8287L26.4701 69.1022L26.1966 70.7479L24.5509 70.4744Z" fill="#F0BB12"/>
<path d="M37.1061 69.4535L38.7431 69.775L38.4215 71.412L36.7848 71.0911L37.1061 69.4535Z" fill="#F0BB12"/>
<path d="M53.312 72.6369L54.949 72.9585L54.6274 74.5955L52.9905 74.2739L53.312 72.6369Z" fill="#F0BB12"/>
<path d="M30.8482 66.694L32.4852 67.0156L32.1636 68.6526L30.5266 68.331L30.8482 66.694Z" fill="#F0BB12"/>
<path d="M41.2501 76.0466L42.8871 76.3682L42.5655 78.0052L40.9285 77.6836L41.2501 76.0466Z" fill="#F0BB12"/>
<path d="M39.2913 77.3619L40.9285 77.6836L40.6067 79.3204L38.9698 78.9988L39.2913 77.3619Z" fill="#F0BB12"/>
<path d="M43.2088 74.7306L44.8458 75.0522L44.5242 76.6891L42.8871 76.3682L43.2088 74.7306Z" fill="#F0BB12"/>
<path d="M45.1676 73.416L46.8046 73.7376L46.483 75.3746L44.8458 75.0522L45.1676 73.416Z" fill="#F0BB12"/>
<path d="M38.9062 69.8062L40.5432 70.1278L40.2216 71.7648L38.5846 71.4432L38.9062 69.8062Z" fill="#F0BB12"/>
<path d="M40.7075 70.1594L42.3445 70.481L42.0229 72.1179L40.386 71.7964L40.7075 70.1594Z" fill="#F0BB12"/>
<path d="M42.5079 70.5141L44.1449 70.8357L43.8233 72.4727L42.1864 72.1511L42.5079 70.5141Z" fill="#F0BB12"/>
<path d="M44.3086 70.8673L45.9456 71.1889L45.624 72.8259L43.987 72.5043L44.3086 70.8673Z" fill="#F0BB12"/>
<path d="M49.7107 71.9277L51.3477 72.2493L51.0261 73.8863L49.3892 73.5647L49.7107 71.9277Z" fill="#F0BB12"/>
<path d="M46.1095 71.222L47.7465 71.5436L47.4249 73.1806L45.7879 72.859L46.1095 71.222Z" fill="#F0BB12"/>
<path d="M51.5114 72.2824L53.1484 72.604L52.8268 74.241L51.1898 73.9194L51.5114 72.2824Z" fill="#F0BB12"/>
<path d="M47.909 71.5738L49.546 71.8953L49.2244 73.5323L47.5875 73.2107L47.909 71.5738Z" fill="#F0BB12"/>
<path d="M38.5529 71.6073L40.1899 71.9289L39.8683 73.5659L38.2313 73.2443L38.5529 71.6073Z" fill="#F0BB12"/>
<path d="M40.3533 71.962L41.9903 72.2836L41.6687 73.9206L40.0317 73.599L40.3533 71.962Z" fill="#F0BB12"/>
<path d="M42.1538 72.3137L43.7908 72.6353L43.4692 74.2723L41.8322 73.9507L42.1538 72.3137Z" fill="#F0BB12"/>
<path d="M38.1998 73.4084L39.8367 73.73L39.5152 75.367L37.8782 75.0454L38.1998 73.4084Z" fill="#F0BB12"/>
<path d="M40.0006 73.7624L41.6376 74.084L41.316 75.721L39.679 75.3994L40.0006 73.7624Z" fill="#F0BB12"/>
<path d="M37.8457 75.2088L39.4827 75.5304L39.1611 77.1674L37.5241 76.8458L37.8457 75.2088Z" fill="#F0BB12"/>
<path d="M37.4911 77.0085L39.1281 77.3301L38.8065 78.9671L37.1695 78.6455L37.4911 77.0085Z" fill="#F0BB12"/>
<path d="M37.1376 78.8096L38.7746 79.1312L38.453 80.7682L36.816 80.4466L37.1376 78.8096Z" fill="#F0BB12"/>
<path d="M38.9389 79.1636L40.5759 79.4852L40.2543 81.1222L38.6173 80.8006L38.9389 79.1636Z" fill="#F0BB12"/>
<path d="M40.7387 79.5176L42.3757 79.8392L42.0541 81.4761L40.4172 81.1546L40.7387 79.5176Z" fill="#F0BB12"/>
<path d="M42.5401 79.8715L44.1771 80.1931L43.8555 81.8301L42.2185 81.5085L42.5401 79.8715Z" fill="#F0BB12"/>
<path d="M46.552 76.7479L48.189 77.0695L47.8674 78.7065L46.2304 78.3849L46.552 76.7479Z" fill="#F0BB12"/>
<path d="M44.5933 78.0632L46.2304 78.3849L45.9087 80.0217L44.2717 79.7001L44.5933 78.0632Z" fill="#F0BB12"/>
<path d="M48.5108 75.4319L50.1477 75.7534L49.8262 77.3904L48.189 77.0695L48.5108 75.4319Z" fill="#F0BB12"/>
<path d="M50.4695 74.1173L52.1065 74.4389L51.7849 76.0759L50.1477 75.7534L50.4695 74.1173Z" fill="#F0BB12"/>
<path d="M48.3209 77.2654L49.9579 77.587L49.6363 79.2239L47.9993 78.9024L48.3209 77.2654Z" fill="#F0BB12"/>
<path d="M46.3617 78.5806L47.9993 78.9024L47.6771 80.5392L46.0401 80.2176L46.3617 78.5806Z" fill="#F0BB12"/>
<path d="M50.2792 75.9493L51.9162 76.2709L51.5946 77.9079L49.9579 77.587L50.2792 75.9493Z" fill="#F0BB12"/>
<path d="M52.238 74.6348L53.8749 74.9564L53.5534 76.5934L51.9162 76.2709L52.238 74.6348Z" fill="#F0BB12"/>
<path d="M48.1308 79.0982L49.7678 79.4198L49.4462 81.0568L47.8092 80.7352L48.1308 79.0982Z" fill="#F0BB12"/>
<path d="M46.1717 80.4135L47.8092 80.7352L47.4871 82.3721L45.8501 82.0505L46.1717 80.4135Z" fill="#F0BB12"/>
<path d="M50.0891 77.7822L51.7261 78.1038L51.4045 79.7408L49.7678 79.4198L50.0891 77.7822Z" fill="#F0BB12"/>
<path d="M52.0479 76.4677L53.6849 76.7893L53.3633 78.4262L51.7261 78.1038L52.0479 76.4677Z" fill="#F0BB12"/>
<path d="M44.373 80.0608L46.01 80.3824L45.6884 82.0194L44.0514 81.6978L44.373 80.0608Z" fill="#F0BB12"/>
<path d="M44.0183 81.8605L45.6553 82.1821L45.3337 83.819L43.6967 83.4975L44.0183 81.8605Z" fill="#F0BB12"/>
<path d="M43.665 83.6616L45.302 83.9832L44.9804 85.6202L43.3435 85.2986L43.665 83.6616Z" fill="#F0BB12"/>
<path d="M41.3524 86.7788L42.9894 87.1004L42.6678 88.7374L41.0308 88.4158L41.3524 86.7788Z" fill="#F0BB12"/>
<path d="M39.3946 88.0941L41.0308 88.4158L40.71 90.0526L39.073 89.731L39.3946 88.0941Z" fill="#F0BB12"/>
<path d="M43.312 85.4628L44.949 85.7843L44.6274 87.4213L42.9904 87.0997L43.312 85.4628Z" fill="#F0BB12"/>
<path d="M45.1125 85.8175L46.7495 86.1391L46.4279 87.776L44.7909 87.4545L45.1125 85.8175Z" fill="#F0BB12"/>
<path d="M45.8193 82.2152L47.4563 82.5368L47.1347 84.1738L45.4977 83.8522L45.8193 82.2152Z" fill="#F0BB12"/>
<path d="M45.4659 84.0163L47.1029 84.3379L46.7813 85.9749L45.1443 85.6533L45.4659 84.0163Z" fill="#F0BB12"/>
<path d="M35.6527 104.539L37.2896 104.86L37.6112 103.223L35.9742 102.902L35.6527 104.539Z" fill="#F0BB12"/>
<path d="M34.3378 102.58L35.9742 102.902L36.2964 101.265L34.6594 100.943L34.3378 102.58Z" fill="#F0BB12"/>
<path d="M36.9683 106.498L38.6053 106.819L38.9269 105.182L37.2896 104.86L36.9683 106.498Z" fill="#F0BB12"/>
<path d="M38.2836 108.456L39.9206 108.778L40.2421 107.141L38.6053 106.819L38.2836 108.456Z" fill="#F0BB12"/>
<path d="M31.121 109.427L32.758 109.749L33.0796 108.112L31.4426 107.79L31.121 109.427Z" fill="#F0BB12"/>
<path d="M32.9217 109.782L34.5587 110.103L34.8803 108.466L33.2433 108.145L32.9217 109.782Z" fill="#F0BB12"/>
<path d="M34.7224 110.135L36.3594 110.456L36.6809 108.82L35.044 108.498L34.7224 110.135Z" fill="#F0BB12"/>
<path d="M36.5233 110.489L38.1603 110.81L38.4819 109.173L36.8449 108.852L36.5233 110.489Z" fill="#F0BB12"/>
<path d="M41.925 111.55L43.562 111.872L43.8836 110.235L42.2466 109.913L41.925 111.55Z" fill="#F0BB12"/>
<path d="M38.3229 110.841L39.9599 111.163L40.2815 109.526L38.6445 109.204L38.3229 110.841Z" fill="#F0BB12"/>
<path d="M43.7254 111.903L45.3624 112.225L45.684 110.588L44.047 110.266L43.7254 111.903Z" fill="#F0BB12"/>
<path d="M40.1246 111.195L41.7616 111.517L42.0832 109.88L40.4462 109.558L40.1246 111.195Z" fill="#F0BB12"/>
<path d="M45.5263 112.257L47.1632 112.579L47.4848 110.942L45.8478 110.62L45.5263 112.257Z" fill="#F0BB12"/>
<path d="M31.4748 107.627L33.1118 107.948L33.4334 106.311L31.7964 105.99L31.4748 107.627Z" fill="#F0BB12"/>
<path d="M33.275 107.981L34.912 108.302L35.2336 106.665L33.5966 106.344L33.275 107.981Z" fill="#F0BB12"/>
<path d="M35.0758 108.333L36.7128 108.655L37.0344 107.018L35.3974 106.696L35.0758 108.333Z" fill="#F0BB12"/>
<path d="M31.8282 105.825L33.4652 106.147L33.7868 104.51L32.1498 104.188L31.8282 105.825Z" fill="#F0BB12"/>
<path d="M33.6291 106.179L35.2661 106.501L35.5876 104.864L33.9507 104.542L33.6291 106.179Z" fill="#F0BB12"/>
<path d="M32.1813 104.024L33.8183 104.346L34.1399 102.709L32.5029 102.387L32.1813 104.024Z" fill="#F0BB12"/>
<path d="M32.5363 102.225L34.1733 102.546L34.4949 100.909L32.8579 100.588L32.5363 102.225Z" fill="#F0BB12"/>
<path d="M32.889 100.423L34.526 100.745L34.8476 99.1081L33.2106 98.7865L32.889 100.423Z" fill="#F0BB12"/>
<path d="M34.6905 100.777L36.3275 101.099L36.6491 99.4621L35.0121 99.1405L34.6905 100.777Z" fill="#F0BB12"/>
<path d="M36.4906 101.131L38.1276 101.452L38.4492 99.8153L36.8122 99.4937L36.4906 101.131Z" fill="#F0BB12"/>
<path d="M38.2919 101.485L39.9289 101.806L40.2504 100.169L38.6135 99.8477L38.2919 101.485Z" fill="#F0BB12"/>
<path d="M40.8251 105.89L42.4621 106.212L42.7837 104.575L41.1467 104.253L40.8251 105.89Z" fill="#F0BB12"/>
<path d="M39.5096 103.933L41.1467 104.253L41.4682 102.617L39.8312 102.296L39.5096 103.933Z" fill="#F0BB12"/>
<path d="M42.1404 107.85L43.7773 108.172L44.0989 106.535L42.4619 106.213L42.1404 107.85Z" fill="#F0BB12"/>
<path d="M43.4555 109.809L45.0925 110.13L45.4141 108.493L43.7773 108.172L43.4555 109.809Z" fill="#F0BB12"/>
<path d="M42.6583 106.082L44.2953 106.404L44.6169 104.767L42.9799 104.445L42.6583 106.082Z" fill="#F0BB12"/>
<path d="M41.3434 104.124L42.9799 104.445L43.302 102.808L41.665 102.487L41.3434 104.124Z" fill="#F0BB12"/>
<path d="M43.9745 108.041L45.6115 108.363L45.9331 106.726L44.2953 106.404L43.9745 108.041Z" fill="#F0BB12"/>
<path d="M45.2893 110L46.9263 110.321L47.2479 108.684L45.6115 108.363L45.2893 110Z" fill="#F0BB12"/>
<path d="M43.1747 104.313L44.8116 104.634L45.1332 102.997L43.4962 102.676L43.1747 104.313Z" fill="#F0BB12"/>
<path d="M41.8597 102.354L43.4962 102.676L43.8183 101.039L42.1813 100.717L41.8597 102.354Z" fill="#F0BB12"/>
<path d="M44.4902 106.272L46.1272 106.593L46.4488 104.956L44.8116 104.634L44.4902 106.272Z" fill="#F0BB12"/>
<path d="M45.8056 108.23L47.4426 108.552L47.7641 106.915L46.1272 106.593L45.8056 108.23Z" fill="#F0BB12"/>
<path d="M40.0603 102.003L41.6973 102.324L42.0189 100.687L40.3819 100.366L40.0603 102.003Z" fill="#F0BB12"/>
<path d="M40.4149 100.202L42.0518 100.524L42.3734 98.8868L40.7364 98.5652L40.4149 100.202Z" fill="#F0BB12"/>
<path d="M40.7675 98.401L42.4045 98.7226L42.7261 97.0856L41.0891 96.764L40.7675 98.401Z" fill="#F0BB12"/>
<path d="M39.806 94.6415L41.443 94.9631L41.7646 93.3261L40.1276 93.0045L39.806 94.6415Z" fill="#F0BB12"/>
<path d="M38.4905 92.6831L40.1276 93.0045L40.449 91.3677L38.8121 91.0461L38.4905 92.6831Z" fill="#F0BB12"/>
<path d="M41.1221 96.6014L42.7591 96.9229L43.0807 95.286L41.4437 94.9644L41.1221 96.6014Z" fill="#F0BB12"/>
<path d="M42.922 96.9538L44.559 97.2754L44.8805 95.6384L43.2436 95.3169L42.922 96.9538Z" fill="#F0BB12"/>
<path d="M42.2155 100.556L43.8525 100.878L44.1741 99.2407L42.5371 98.9191L42.2155 100.556Z" fill="#F0BB12"/>
<path d="M42.5688 98.755L44.2058 99.0766L44.5274 97.4396L42.8904 97.118L42.5688 98.755Z" fill="#F0BB12"/>
<path d="M43.1666 90.5366L44.8036 90.8582L44.482 92.4952L42.845 92.1736L43.1666 90.5366Z" fill="#F0BB12"/>
<path d="M26.6316 87.2875L28.2686 87.6091L27.947 89.2461L26.31 88.9245L26.6316 87.2875Z" fill="#F0BB12"/>
<path d="M30.6649 80.5976L32.3019 80.9192L31.9803 82.5562L30.3434 82.2346L30.6649 80.5976Z" fill="#F0BB12"/>
<path d="M30.0226 83.8728L31.6596 84.1944L31.338 85.8313L29.701 85.5098L30.0226 83.8728Z" fill="#F0BB12"/>
<path d="M33.2971 84.5166L34.9341 84.8382L34.6125 86.4752L32.9755 86.1536L33.2971 84.5166Z" fill="#F0BB12"/>
<path d="M32.6242 79.2823L34.2612 79.6039L33.9396 81.2409L32.3019 80.9192L32.6242 79.2823Z" fill="#F0BB12"/>
<path d="M31.9813 82.5575L33.6183 82.8791L33.2971 84.5166L31.6596 84.1944L31.9813 82.5575Z" fill="#F0BB12"/>
<path d="M35.2547 83.1999L36.8917 83.5214L36.5701 85.1584L34.9331 84.8368L35.2547 83.1999Z" fill="#F0BB12"/>
<path d="M34.5835 77.9693L36.2205 78.2909L35.8989 79.9279L34.2619 79.6063L34.5835 77.9693Z" fill="#F0BB12"/>
<path d="M33.9395 81.2422L35.5765 81.5638L35.2547 83.1999L33.6183 82.8791L33.9395 81.2422Z" fill="#F0BB12"/>
<path d="M37.2141 81.8861L38.8511 82.2077L38.5295 83.8446L36.8925 83.5231L37.2141 81.8861Z" fill="#F0BB12"/>
<path d="M21.0152 83.8373L21.3515 82.2033L22.9856 82.5396L22.6492 84.1736L21.0152 83.8373Z" fill="#F0BB12"/>
<path d="M24.2828 84.5102L24.6191 82.8762L26.2532 83.2125L25.9168 84.8466L24.2828 84.5102Z" fill="#F0BB12"/>
<path d="M24.9556 81.2418L25.292 79.6078L26.926 79.9441L26.5896 81.5781L24.9556 81.2418Z" fill="#F0BB12"/>
<path d="M19.7178 81.8678L20.0541 80.2337L21.6882 80.5701L21.3515 82.2033L19.7178 81.8678Z" fill="#F0BB12"/>
<path d="M22.9856 82.5396L23.3223 80.9059L24.9556 81.2418L24.6191 82.8762L22.9856 82.5396Z" fill="#F0BB12"/>
<path d="M23.6583 79.2722L23.9947 77.6382L25.6287 77.9745L25.292 79.6078L23.6583 79.2722Z" fill="#F0BB12"/>
<path d="M18.4201 79.8982L18.7564 78.2642L20.3904 78.6005L20.0541 80.2337L18.4201 79.8982Z" fill="#F0BB12"/>
<path d="M21.6882 80.5701L22.0248 78.9364L23.6583 79.2722L23.3223 80.9059L21.6882 80.5701Z" fill="#F0BB12"/>
<path d="M22.36 77.3019L22.6963 75.6679L24.3304 76.0042L23.9947 77.6382L22.36 77.3019Z" fill="#F0BB12"/>
<path d="M24.0718 95.7584L22.4348 95.4368L22.7564 93.7998L24.3934 94.1214L24.0718 95.7584Z" fill="#F0BB12"/>
<path d="M24.7156 92.4855L23.0787 92.1639L23.4002 90.5269L25.0372 90.8485L24.7156 92.4855Z" fill="#F0BB12"/>
<path d="M21.4409 91.8409L19.8039 91.5193L20.1255 89.8823L21.7625 90.2039L21.4409 91.8409Z" fill="#F0BB12"/>
<path d="M22.1136 97.0744L20.4766 96.7528L20.7982 95.1158L22.4348 95.4368L22.1136 97.0744Z" fill="#F0BB12"/>
<path d="M22.7564 93.7998L21.1201 93.4784L21.4409 91.8409L23.0787 92.1639L22.7564 93.7998Z" fill="#F0BB12"/>
<path d="M19.4833 93.1576L17.8463 92.8361L18.1679 91.1991L19.8049 91.5207L19.4833 93.1576Z" fill="#F0BB12"/>
<path d="M20.1565 98.3904L18.5195 98.0688L18.8411 96.4319L20.4781 96.7534L20.1565 98.3904Z" fill="#F0BB12"/>
<path d="M20.7982 95.1158L19.1616 94.7944L19.4833 93.1576L21.1201 93.4784L20.7982 95.1158Z" fill="#F0BB12"/>
<path d="M17.5252 94.4737L15.8882 94.1521L16.2098 92.5151L17.8463 92.8361L17.5252 94.4737Z" fill="#F0BB12"/>
<path d="M33.0524 92.8283L32.7308 94.4653L31.0939 94.1437L31.4154 92.5067L33.0524 92.8283Z" fill="#F0BB12"/>
<path d="M29.7793 92.1859L29.4577 93.8229L27.8208 93.5013L28.1423 91.8643L29.7793 92.1859Z" fill="#F0BB12"/>
<path d="M29.1356 95.4588L28.814 97.0958L27.177 96.7742L27.4986 95.1373L29.1356 95.4588Z" fill="#F0BB12"/>
<path d="M34.3679 94.7859L34.0463 96.4229L32.4093 96.1013L32.7308 94.4653L34.3679 94.7859Z" fill="#F0BB12"/>
<path d="M31.0939 94.1437L30.7731 95.7805L29.1356 95.4588L29.4577 93.8229L31.0939 94.1437Z" fill="#F0BB12"/>
<path d="M30.4506 97.4165L30.129 99.0535L28.492 98.7319L28.8136 97.0949L30.4506 97.4165Z" fill="#F0BB12"/>
<path d="M35.6838 96.745L35.3622 98.382L33.7252 98.0604L34.0463 96.4229L35.6838 96.745Z" fill="#F0BB12"/>
<path d="M32.4093 96.1013L32.0879 97.7389L30.4506 97.4165L30.7731 95.7805L32.4093 96.1013Z" fill="#F0BB12"/>
<path d="M31.7665 99.3756L31.4449 101.013L29.8079 100.691L30.129 99.0535L31.7665 99.3756Z" fill="#F0BB12"/>
<path d="M23.1785 68.5555L23.452 66.9098L25.0977 67.1833L24.8244 68.8287L23.1785 68.5555Z" fill="#F0BB12"/>
<path d="M21.4177 104.289L19.7807 103.968L20.1023 102.331L21.7393 102.652L21.4177 104.289Z" fill="#F0BB12"/>
<path d="M28.6828 103.979L28.4093 105.625L26.7636 105.351L27.0371 103.706L28.6828 103.979Z" fill="#F0BB12"/>
<path d="M23.3766 102.975L21.7393 102.652L22.0612 101.016L23.6982 101.338L23.3766 102.975Z" fill="#F0BB12"/>
<path d="M27.3114 102.061L27.0379 103.707L25.3922 103.433L25.6657 101.788L27.3114 102.061Z" fill="#F0BB12"/>
<path d="M19.4588 105.605L17.8218 105.284L18.1434 103.647L19.7807 103.968L19.4588 105.605Z" fill="#F0BB12"/>
<path d="M30.056 105.9L29.7825 107.546L28.1368 107.272L28.4103 105.627L30.056 105.9Z" fill="#F0BB12"/>
<path d="M17.5003 106.92L15.8633 106.599L16.1849 104.962L17.8218 105.284L17.5003 106.92Z" fill="#F0BB12"/>
<path d="M23.7581 109.679L22.1211 109.358L22.4427 107.721L24.0796 108.042L23.7581 109.679Z" fill="#F0BB12"/>
<path d="M31.4277 107.818L31.1542 109.463L29.5085 109.19L29.782 107.544L31.4277 107.818Z" fill="#F0BB12"/>
</svg>
