<svg width="613" height="446" viewBox="0 0 613 446" fill="none" xmlns="http://www.w3.org/2000/svg">
<path d="M263.557 232.771L255.585 224.075L264.281 216.103L272.252 224.799L263.557 232.771Z" fill="#E2E2E2"/>
<path d="M280.224 233.495L272.252 224.799L280.948 216.827L288.92 225.523L280.224 233.495Z" fill="#E2E2E2"/>
<path d="M246.89 232.047L238.918 223.351L247.614 215.379L255.585 224.075L246.89 232.047Z" fill="#E2E2E2"/>
<path d="M230.222 231.323L222.251 222.627L230.946 214.656L238.918 223.351L230.222 231.323Z" fill="#E2E2E2"/>
<path d="M250.732 278.135L242.76 269.439L251.456 261.468L259.428 270.163L250.732 278.135Z" fill="#E2E2E2"/>
<path d="M241.964 268.57L233.992 259.875L242.688 251.903L250.659 260.598L241.964 268.57Z" fill="#E2E2E2"/>
<path d="M233.194 259.005L225.222 250.309L233.918 242.337L241.89 251.033L233.194 259.005Z" fill="#E2E2E2"/>
<path d="M224.425 249.44L216.453 240.744L225.149 232.772L233.121 241.468L224.425 249.44Z" fill="#E2E2E2"/>
<path d="M198.119 220.744L190.147 212.048L198.843 204.076L206.815 212.772L198.119 220.744Z" fill="#E2E2E2"/>
<path d="M215.657 239.874L207.685 231.179L216.381 223.207L224.352 231.903L215.657 239.874Z" fill="#E2E2E2"/>
<path d="M189.349 211.178L181.378 202.483L190.073 194.511L198.045 203.207L189.349 211.178Z" fill="#E2E2E2"/>
<path d="M206.887 230.309L198.915 221.613L207.611 213.642L215.583 222.337L206.887 230.309Z" fill="#E2E2E2"/>
<path d="M260.297 269.367L252.326 260.671L261.021 252.699L268.993 261.395L260.297 269.367Z" fill="#E2E2E2"/>
<path d="M251.528 259.801L243.557 251.106L252.252 243.134L260.224 251.83L251.528 259.801Z" fill="#E2E2E2"/>
<path d="M242.76 250.236L234.788 241.54L243.484 233.569L251.455 242.264L242.76 250.236Z" fill="#E2E2E2"/>
<path d="M269.862 260.598L261.89 251.902L270.586 243.93L278.558 252.626L269.862 260.598Z" fill="#E2E2E2"/>
<path d="M261.094 251.032L253.122 242.337L261.818 234.365L269.789 243.061L261.094 251.032Z" fill="#E2E2E2"/>
<path d="M279.428 251.829L271.456 243.133L280.152 235.161L288.124 243.857L279.428 251.829Z" fill="#E2E2E2"/>
<path d="M288.993 243.06L281.021 234.364L289.717 226.392L297.689 235.088L288.993 243.06Z" fill="#E2E2E2"/>
<path d="M298.559 234.291L290.587 225.595L299.283 217.623L307.254 226.319L298.559 234.291Z" fill="#E2E2E2"/>
<path d="M289.79 224.726L281.818 216.03L290.514 208.058L298.486 216.754L289.79 224.726Z" fill="#E2E2E2"/>
<path d="M281.021 215.16L273.049 206.465L281.745 198.493L289.717 207.189L281.021 215.16Z" fill="#E2E2E2"/>
<path d="M272.252 205.595L264.28 196.899L272.975 188.927L280.947 197.623L272.252 205.595Z" fill="#E2E2E2"/>
<path d="M236.308 206.538L228.336 197.843L237.032 189.871L245.004 198.567L236.308 206.538Z" fill="#E2E2E2"/>
<path d="M252.976 207.262L245.004 198.567L253.7 190.595L261.671 199.291L252.976 207.262Z" fill="#E2E2E2"/>
<path d="M219.64 205.814L211.668 197.119L220.364 189.147L228.336 197.843L219.64 205.814Z" fill="#E2E2E2"/>
<path d="M202.973 205.091L195.001 196.395L203.697 188.423L211.668 197.119L202.973 205.091Z" fill="#E2E2E2"/>
<path d="M228.408 196.176L220.436 187.48L229.132 179.508L237.104 188.204L228.408 196.176Z" fill="#E2E2E2"/>
<path d="M245.076 196.9L237.104 188.204L245.8 180.233L253.771 188.928L245.076 196.9Z" fill="#E2E2E2"/>
<path d="M211.74 195.452L203.768 186.756L212.464 178.785L220.436 187.48L211.74 195.452Z" fill="#E2E2E2"/>
<path d="M195.074 194.728L187.102 186.032L195.798 178.061L203.77 186.756L195.074 194.728Z" fill="#E2E2E2"/>
<path d="M237.177 186.537L229.205 177.842L237.901 169.87L245.872 178.566L237.177 186.537Z" fill="#E2E2E2"/>
<path d="M253.844 187.261L245.872 178.566L254.568 170.594L262.54 179.29L253.844 187.261Z" fill="#E2E2E2"/>
<path d="M220.509 185.813L212.537 177.118L221.233 169.146L229.205 177.842L220.509 185.813Z" fill="#E2E2E2"/>
<path d="M203.841 185.09L195.87 176.394L204.565 168.422L212.537 177.118L203.841 185.09Z" fill="#E2E2E2"/>
<path d="M262.613 196.827L254.642 188.131L263.337 180.159L271.309 188.855L262.613 196.827Z" fill="#E2E2E2"/>
<path d="M272.178 188.058L264.207 179.362L272.902 171.39L280.874 180.086L272.178 188.058Z" fill="#E2E2E2"/>
<path d="M281.744 179.289L273.772 170.593L282.468 162.621L290.44 171.317L281.744 179.289Z" fill="#E2E2E2"/>
<path d="M307.977 171.244L300.005 162.548L308.701 154.576L316.673 163.272L307.977 171.244Z" fill="#E2E2E2"/>
<path d="M324.644 171.968L316.673 163.272L325.368 155.3L333.34 163.996L324.644 171.968Z" fill="#E2E2E2"/>
<path d="M291.309 170.52L283.337 161.824L292.033 153.852L300.005 162.548L291.309 170.52Z" fill="#E2E2E2"/>
<path d="M282.54 160.955L274.568 152.259L283.264 144.287L291.236 152.983L282.54 160.955Z" fill="#E2E2E2"/>
<path d="M263.41 178.493L255.438 169.797L264.134 161.825L272.106 170.521L263.41 178.493Z" fill="#E2E2E2"/>
<path d="M272.975 169.724L265.003 161.028L273.699 153.056L281.671 161.752L272.975 169.724Z" fill="#E2E2E2"/>
<path d="M414.862 94.0614L406.89 85.3657L398.194 93.3374L406.166 102.033L414.862 94.0614Z" fill="#E2E2E2"/>
<path d="M414.137 110.729L406.166 102.033L397.47 110.005L405.442 118.701L414.137 110.729Z" fill="#E2E2E2"/>
<path d="M415.585 77.3939L407.613 68.6981L398.918 76.6699L406.89 85.3657L415.585 77.3939Z" fill="#E2E2E2"/>
<path d="M416.31 60.7264L408.338 52.0307L399.642 60.0024L407.613 68.6981L416.31 60.7264Z" fill="#E2E2E2"/>
<path d="M461.168 85.2185L453.197 76.5227L444.501 84.4945L452.473 93.1902L461.168 85.2185Z" fill="#E2E2E2"/>
<path d="M452.399 75.6532L444.428 66.9574L435.732 74.9292L443.704 83.6249L452.399 75.6532Z" fill="#E2E2E2"/>
<path d="M443.631 66.0879L435.659 57.3922L426.964 65.3639L434.935 74.0596L443.631 66.0879Z" fill="#E2E2E2"/>
<path d="M434.862 56.5225L426.89 47.8267L418.194 55.7985L426.166 64.4942L434.862 56.5225Z" fill="#E2E2E2"/>
<path d="M408.555 27.8266L400.583 19.1309L391.887 27.1027L399.859 35.7984L408.555 27.8266Z" fill="#E2E2E2"/>
<path d="M426.092 46.9572L418.12 38.2615L409.425 46.2332L417.396 54.929L426.092 46.9572Z" fill="#E2E2E2"/>
<path d="M399.785 18.2613L391.814 9.56552L383.118 17.5373L391.09 26.233L399.785 18.2613Z" fill="#E2E2E2"/>
<path d="M417.324 37.3919L409.352 28.6962L400.656 36.6679L408.628 45.3637L417.324 37.3919Z" fill="#E2E2E2"/>
<path d="M391.017 8.69598L383.045 0.000244141L374.349 7.972L382.321 16.6677L391.017 8.69598Z" fill="#E2E2E2"/>
<path d="M451.603 93.9874L443.632 85.2917L434.936 93.2634L442.908 101.959L451.603 93.9874Z" fill="#E2E2E2"/>
<path d="M442.834 84.4221L434.863 75.7264L426.167 83.6982L434.139 92.3939L442.834 84.4221Z" fill="#E2E2E2"/>
<path d="M434.065 74.8567L426.094 66.161L417.398 74.1328L425.37 82.8285L434.065 74.8567Z" fill="#E2E2E2"/>
<path d="M442.038 102.756L434.067 94.0606L425.371 102.032L433.343 110.728L442.038 102.756Z" fill="#E2E2E2"/>
<path d="M433.268 93.191L425.297 84.4952L416.601 92.467L424.573 101.163L433.268 93.191Z" fill="#E2E2E2"/>
<path d="M432.472 111.525L424.5 102.829L415.805 110.801L423.776 119.497L432.472 111.525Z" fill="#E2E2E2"/>
<path d="M422.907 120.294L414.935 111.598L406.239 119.57L414.211 128.266L422.907 120.294Z" fill="#E2E2E2"/>
<path d="M413.342 129.063L405.37 120.367L396.674 128.339L404.646 137.035L413.342 129.063Z" fill="#E2E2E2"/>
<path d="M404.573 119.498L396.602 110.802L387.906 118.774L395.878 127.47L404.573 119.498Z" fill="#E2E2E2"/>
<path d="M395.804 109.932L387.832 101.237L379.136 109.208L387.108 117.904L395.804 109.932Z" fill="#E2E2E2"/>
<path d="M387.035 100.367L379.063 91.6714L370.367 99.6432L378.339 108.339L387.035 100.367Z" fill="#E2E2E2"/>
<path d="M391.091 64.6407L383.12 55.945L374.424 63.9167L382.396 72.6124L391.091 64.6407Z" fill="#E2E2E2"/>
<path d="M390.367 81.3081L382.396 72.6124L373.7 80.5842L381.672 89.2799L390.367 81.3081Z" fill="#E2E2E2"/>
<path d="M391.815 47.9731L383.844 39.2774L375.148 47.2492L383.12 55.945L391.815 47.9731Z" fill="#E2E2E2"/>
<path d="M392.539 31.3057L384.568 22.61L375.872 30.5817L383.844 39.2774L392.539 31.3057Z" fill="#E2E2E2"/>
<path d="M381.453 55.8725L373.481 47.1768L364.785 55.1485L372.757 63.8442L381.453 55.8725Z" fill="#E2E2E2"/>
<path d="M380.728 72.5399L372.757 63.8442L364.061 71.816L372.033 80.5117L380.728 72.5399Z" fill="#E2E2E2"/>
<path d="M382.176 39.2049L374.204 30.5092L365.509 38.4809L373.481 47.1768L382.176 39.2049Z" fill="#E2E2E2"/>
<path d="M382.9 22.5375L374.929 13.8417L366.233 21.8135L374.204 30.5092L382.9 22.5375Z" fill="#E2E2E2"/>
<path d="M371.09 63.7719L363.118 55.0762L354.423 63.0479L362.395 71.7437L371.09 63.7719Z" fill="#E2E2E2"/>
<path d="M370.366 80.4394L362.395 71.7437L353.699 79.7154L361.67 88.4111L370.366 80.4394Z" fill="#E2E2E2"/>
<path d="M371.814 47.1044L363.842 38.4086L355.146 46.3804L363.118 55.0762L371.814 47.1044Z" fill="#E2E2E2"/>
<path d="M372.538 30.4369L364.567 21.7412L355.871 29.7129L363.842 38.4086L372.538 30.4369Z" fill="#E2E2E2"/>
<path d="M379.135 90.0047L371.164 81.3089L362.468 89.2807L370.44 97.9764L379.135 90.0047Z" fill="#E2E2E2"/>
<path d="M369.57 98.7736L361.599 90.0779L352.903 98.0496L360.875 106.745L369.57 98.7736Z" fill="#E2E2E2"/>
<path d="M360.005 107.543L352.033 98.8468L343.337 106.819L351.309 115.514L360.005 107.543Z" fill="#E2E2E2"/>
<path d="M349.715 132.979L341.744 124.283L333.048 132.255L341.02 140.951L349.715 132.979Z" fill="#E2E2E2"/>
<path d="M348.992 149.647L341.02 140.951L332.324 148.923L340.296 157.618L348.992 149.647Z" fill="#E2E2E2"/>
<path d="M350.44 116.312L342.469 107.616L333.773 115.588L341.744 124.283L350.44 116.312Z" fill="#E2E2E2"/>
<path d="M341.671 106.746L333.699 98.0505L325.003 106.022L332.975 114.718L341.671 106.746Z" fill="#E2E2E2"/>
<path d="M360.801 89.2083L352.83 80.5126L344.134 88.4843L352.106 97.1801L360.801 89.2083Z" fill="#E2E2E2"/>
<path d="M351.236 97.9773L343.265 89.2815L334.569 97.2533L342.541 105.949L351.236 97.9773Z" fill="#E2E2E2"/>
<path d="M313.337 124.719L321.309 133.415L312.613 141.387L304.641 132.691L313.337 124.719Z" fill="#E2E2E2"/>
<path d="M448.111 162.799L456.082 171.495L447.387 179.467L439.415 170.771L448.111 162.799Z" fill="#E2E2E2"/>
<path d="M419.415 189.106L427.387 197.802L418.691 205.773L410.719 197.078L419.415 189.106Z" fill="#E2E2E2"/>
<path d="M438.546 171.568L446.517 180.264L437.822 188.235L429.85 179.54L438.546 171.568Z" fill="#E2E2E2"/>
<path d="M409.849 197.875L417.821 206.57L409.125 214.542L401.154 205.846L409.849 197.875Z" fill="#E2E2E2"/>
<path d="M457.676 154.03L465.647 162.726L456.952 170.697L448.98 162.002L457.676 154.03Z" fill="#E2E2E2"/>
<path d="M428.98 180.337L436.952 189.033L428.256 197.004L420.284 188.309L428.98 180.337Z" fill="#E2E2E2"/>
<path d="M446.521 276.283L437.825 284.254L429.854 275.559L438.549 267.587L446.521 276.283Z" fill="#E2E2E2"/>
<path d="M420.214 247.587L411.518 255.558L403.547 246.863L412.242 238.891L420.214 247.587Z" fill="#E2E2E2"/>
<path d="M437.752 266.717L429.056 274.689L421.085 265.993L429.78 258.022L437.752 266.717Z" fill="#E2E2E2"/>
<path d="M411.445 238.021L402.75 245.993L394.778 237.297L403.474 229.326L411.445 238.021Z" fill="#E2E2E2"/>
<path d="M455.29 285.848L446.594 293.82L438.622 285.124L447.318 277.152L455.29 285.848Z" fill="#E2E2E2"/>
<path d="M428.983 257.152L420.287 265.124L412.316 256.428L421.011 248.456L428.983 257.152Z" fill="#E2E2E2"/>
<path d="M362.892 240.922L370.864 249.618L362.168 257.59L354.196 248.894L362.892 240.922Z" fill="#E2E2E2"/>
<path d="M334.196 267.229L342.168 275.925L333.472 283.896L325.5 275.201L334.196 267.229Z" fill="#E2E2E2"/>
<path d="M353.327 249.691L361.299 258.387L352.603 266.359L344.631 257.663L353.327 249.691Z" fill="#E2E2E2"/>
<path d="M324.631 275.998L332.603 284.694L323.907 292.665L315.935 283.97L324.631 275.998Z" fill="#E2E2E2"/>
<path d="M372.457 232.153L380.429 240.849L371.733 248.821L363.761 240.125L372.457 232.153Z" fill="#E2E2E2"/>
<path d="M343.761 258.46L351.733 267.156L343.037 275.127L335.066 266.432L343.761 258.46Z" fill="#E2E2E2"/>
<path d="M376.369 199.76L367.673 207.732L359.702 199.036L368.397 191.064L376.369 199.76Z" fill="#E2E2E2"/>
<path d="M350.063 171.064L341.367 179.036L333.395 170.34L342.091 162.369L350.063 171.064Z" fill="#E2E2E2"/>
<path d="M367.601 190.195L358.905 198.167L350.933 189.471L359.629 181.499L367.601 190.195Z" fill="#E2E2E2"/>
<path d="M341.294 161.499L332.598 169.471L324.626 160.775L333.322 152.803L341.294 161.499Z" fill="#E2E2E2"/>
<path d="M385.138 209.326L376.442 217.297L368.471 208.602L377.166 200.63L385.138 209.326Z" fill="#E2E2E2"/>
<path d="M358.831 180.63L350.135 188.601L342.163 179.906L350.859 171.934L358.831 180.63Z" fill="#E2E2E2"/>
<path d="M491.808 156.348L499.78 165.043L491.084 173.015L483.112 164.319L491.808 156.348Z" fill="#E2E2E2"/>
<path d="M449.141 127.642L457.599 119.419L465.822 127.878L457.364 136.101L449.141 127.642Z" fill="#E2E2E2"/>
<path d="M475.141 155.624L483.112 164.319L474.417 172.291L466.445 163.595L475.141 155.624Z" fill="#E2E2E2"/>
<path d="M448.905 144.324L457.364 136.101L465.586 144.559L457.128 152.782L448.905 144.324Z" fill="#E2E2E2"/>
<path d="M508.476 157.072L516.448 165.767L507.752 173.739L499.78 165.043L508.476 157.072Z" fill="#E2E2E2"/>
<path d="M449.376 110.961L457.835 102.738L466.058 111.196L457.599 119.419L449.376 110.961Z" fill="#E2E2E2"/>
<path d="M525.143 157.796L533.115 166.491L524.419 174.463L516.448 165.767L525.143 157.796Z" fill="#E2E2E2"/>
<path d="M604.063 243.883L612.035 252.579L603.34 260.551L595.368 251.855L604.063 243.883Z" fill="#E2E2E2"/>
<path d="M501.083 115.838L509.054 124.534L500.359 132.506L492.387 123.81L501.083 115.838Z" fill="#E2E2E2"/>
<path d="M521.087 212.726L529.059 221.421L520.363 229.393L512.392 220.697L521.087 212.726Z" fill="#E2E2E2"/>
<path d="M504.419 212.002L512.392 220.697L503.695 228.669L495.724 219.973L504.419 212.002Z" fill="#E2E2E2"/>
<path d="M537.754 213.45L545.726 222.145L537.03 230.117L529.059 221.421L537.754 213.45Z" fill="#E2E2E2"/>
<path d="M554.421 214.174L562.393 222.869L553.697 230.841L545.726 222.145L554.421 214.174Z" fill="#E2E2E2"/>
<path d="M533.912 167.361L541.884 176.057L533.188 184.028L525.216 175.333L533.912 167.361Z" fill="#E2E2E2"/>
<path d="M542.681 176.926L550.653 185.622L541.957 193.593L533.985 184.898L542.681 176.926Z" fill="#E2E2E2"/>
<path d="M551.449 186.491L559.421 195.187L550.725 203.159L542.753 194.463L551.449 186.491Z" fill="#E2E2E2"/>
<path d="M560.219 196.057L568.191 204.752L559.495 212.724L551.523 204.028L560.219 196.057Z" fill="#E2E2E2"/>
<path d="M586.525 224.752L594.497 233.448L585.801 241.42L577.829 232.724L586.525 224.752Z" fill="#E2E2E2"/>
<path d="M568.987 205.622L576.959 214.318L568.263 222.289L560.291 213.594L568.987 205.622Z" fill="#E2E2E2"/>
<path d="M595.294 234.318L603.266 243.014L594.57 250.985L586.599 242.29L595.294 234.318Z" fill="#E2E2E2"/>
<path d="M577.756 215.187L585.728 223.883L577.032 231.855L569.06 223.159L577.756 215.187Z" fill="#E2E2E2"/>
<path d="M524.346 176.13L532.318 184.825L523.622 192.797L515.651 184.101L524.346 176.13Z" fill="#E2E2E2"/>
<path d="M533.115 185.695L541.087 194.391L532.391 202.362L524.419 193.667L533.115 185.695Z" fill="#E2E2E2"/>
<path d="M541.884 195.26L549.856 203.956L541.16 211.928L533.188 203.232L541.884 195.26Z" fill="#E2E2E2"/>
<path d="M514.782 184.899L522.753 193.594L514.058 201.566L506.086 192.87L514.782 184.899Z" fill="#E2E2E2"/>
<path d="M523.55 194.464L531.522 203.16L522.826 211.131L514.854 202.436L523.55 194.464Z" fill="#E2E2E2"/>
<path d="M505.216 193.667L513.188 202.363L504.492 210.335L496.52 201.639L505.216 193.667Z" fill="#E2E2E2"/>
<path d="M495.65 202.436L503.622 211.132L494.926 219.104L486.954 210.408L495.65 202.436Z" fill="#E2E2E2"/>
<path d="M486.085 211.205L494.057 219.901L485.361 227.873L477.389 219.177L486.085 211.205Z" fill="#E2E2E2"/>
<path d="M494.854 220.771L502.826 229.466L494.13 237.438L486.158 228.742L494.854 220.771Z" fill="#E2E2E2"/>
<path d="M503.623 230.336L511.595 239.032L502.899 247.003L494.927 238.308L503.623 230.336Z" fill="#E2E2E2"/>
<path d="M512.392 239.901L520.364 248.597L511.668 256.569L503.696 247.873L512.392 239.901Z" fill="#E2E2E2"/>
<path d="M548.336 238.958L556.308 247.653L547.612 255.625L539.64 246.929L548.336 238.958Z" fill="#E2E2E2"/>
<path d="M531.669 238.234L539.64 246.929L530.945 254.901L522.973 246.205L531.669 238.234Z" fill="#E2E2E2"/>
<path d="M565.004 239.682L572.976 248.377L564.28 256.349L556.308 247.653L565.004 239.682Z" fill="#E2E2E2"/>
<path d="M581.671 240.406L589.643 249.101L580.947 257.073L572.976 248.377L581.671 240.406Z" fill="#E2E2E2"/>
<path d="M556.236 249.32L564.208 258.016L555.512 265.988L547.54 257.292L556.236 249.32Z" fill="#E2E2E2"/>
<path d="M539.568 248.596L547.54 257.292L538.844 265.264L530.872 256.568L539.568 248.596Z" fill="#E2E2E2"/>
<path d="M572.904 250.044L580.875 258.74L572.18 266.712L564.208 258.016L572.904 250.044Z" fill="#E2E2E2"/>
<path d="M589.57 250.768L597.542 259.464L588.846 267.436L580.874 258.74L589.57 250.768Z" fill="#E2E2E2"/>
<path d="M547.468 258.959L555.439 267.654L546.744 275.626L538.772 266.93L547.468 258.959Z" fill="#E2E2E2"/>
<path d="M530.8 258.235L538.772 266.93L530.076 274.902L522.104 266.206L530.8 258.235Z" fill="#E2E2E2"/>
<path d="M564.135 259.683L572.107 268.378L563.411 276.35L555.439 267.654L564.135 259.683Z" fill="#E2E2E2"/>
<path d="M580.802 260.407L588.774 269.102L580.078 277.074L572.107 268.378L580.802 260.407Z" fill="#E2E2E2"/>
<path d="M522.03 248.669L530.002 257.365L521.306 265.337L513.335 256.641L522.03 248.669Z" fill="#E2E2E2"/>
<path d="M512.465 257.438L520.437 266.134L511.741 274.106L503.77 265.41L512.465 257.438Z" fill="#E2E2E2"/>
<path d="M502.9 266.207L510.872 274.903L502.176 282.875L494.204 274.179L502.9 266.207Z" fill="#E2E2E2"/>
<path d="M476.668 274.252L484.639 282.948L475.944 290.92L467.972 282.224L476.668 274.252Z" fill="#E2E2E2"/>
<path d="M460 273.528L467.972 282.224L459.276 290.196L451.304 281.5L460 273.528Z" fill="#E2E2E2"/>
<path d="M493.335 274.976L501.307 283.672L492.611 291.644L484.639 282.948L493.335 274.976Z" fill="#E2E2E2"/>
<path d="M502.104 284.541L510.075 293.237L501.38 301.209L493.408 292.513L502.104 284.541Z" fill="#E2E2E2"/>
<path d="M521.234 267.004L529.205 275.699L520.51 283.671L512.538 274.975L521.234 267.004Z" fill="#E2E2E2"/>
<path d="M511.669 275.772L519.64 284.468L510.945 292.44L502.973 283.744L511.669 275.772Z" fill="#E2E2E2"/>
<path d="M369.782 351.434L377.754 360.13L386.449 352.158L378.478 343.463L369.782 351.434Z" fill="#E2E2E2"/>
<path d="M370.506 334.767L378.478 343.463L387.174 335.491L379.202 326.795L370.506 334.767Z" fill="#E2E2E2"/>
<path d="M369.058 368.102L377.03 376.798L385.726 368.826L377.754 360.13L369.058 368.102Z" fill="#E2E2E2"/>
<path d="M368.334 384.769L376.306 393.465L385.002 385.493L377.03 376.798L368.334 384.769Z" fill="#E2E2E2"/>
<path d="M323.476 360.277L331.448 368.973L340.144 361.001L332.172 352.305L323.476 360.277Z" fill="#E2E2E2"/>
<path d="M332.245 369.843L340.216 378.538L348.912 370.567L340.94 361.871L332.245 369.843Z" fill="#E2E2E2"/>
<path d="M341.014 379.408L348.985 388.104L357.681 380.132L349.709 371.436L341.014 379.408Z" fill="#E2E2E2"/>
<path d="M349.783 388.973L357.754 397.669L366.45 389.697L358.478 381.002L349.783 388.973Z" fill="#E2E2E2"/>
<path d="M376.089 417.669L384.061 426.365L392.757 418.393L384.785 409.697L376.089 417.669Z" fill="#E2E2E2"/>
<path d="M358.551 398.539L366.523 407.234L375.219 399.263L367.247 390.567L358.551 398.539Z" fill="#E2E2E2"/>
<path d="M384.859 427.235L392.831 435.93L401.526 427.959L393.555 419.263L384.859 427.235Z" fill="#E2E2E2"/>
<path d="M367.321 408.104L375.293 416.8L383.988 408.828L376.017 400.132L367.321 408.104Z" fill="#E2E2E2"/>
<path d="M393.628 436.8L401.599 445.496L410.295 437.524L402.323 428.828L393.628 436.8Z" fill="#E2E2E2"/>
<path d="M333.041 351.508L341.013 360.204L349.709 352.232L341.737 343.537L333.041 351.508Z" fill="#E2E2E2"/>
<path d="M341.81 361.074L349.782 369.769L358.478 361.798L350.506 353.102L341.81 361.074Z" fill="#E2E2E2"/>
<path d="M350.579 370.639L358.551 379.335L367.247 371.363L359.275 362.667L350.579 370.639Z" fill="#E2E2E2"/>
<path d="M342.606 342.739L350.578 351.435L359.274 343.463L351.302 334.768L342.606 342.739Z" fill="#E2E2E2"/>
<path d="M351.375 352.305L359.347 361.001L368.043 353.029L360.071 344.333L351.375 352.305Z" fill="#E2E2E2"/>
<path d="M352.172 333.971L360.144 342.666L368.84 334.695L360.868 325.999L352.172 333.971Z" fill="#E2E2E2"/>
<path d="M361.737 325.202L369.709 333.897L378.405 325.926L370.433 317.23L361.737 325.202Z" fill="#E2E2E2"/>
<path d="M371.302 316.433L379.274 325.128L387.97 317.157L379.998 308.461L371.302 316.433Z" fill="#E2E2E2"/>
<path d="M380.071 325.998L388.043 334.694L396.739 326.722L388.767 318.026L380.071 325.998Z" fill="#E2E2E2"/>
<path d="M388.84 335.563L396.812 344.259L405.507 336.287L397.536 327.592L388.84 335.563Z" fill="#E2E2E2"/>
<path d="M397.609 345.129L405.581 353.824L414.277 345.853L406.305 337.157L397.609 345.129Z" fill="#E2E2E2"/>
<path d="M393.552 380.855L401.524 389.551L410.22 381.579L402.248 372.883L393.552 380.855Z" fill="#E2E2E2"/>
<path d="M394.276 364.188L402.248 372.883L410.944 364.912L402.972 356.216L394.276 364.188Z" fill="#E2E2E2"/>
<path d="M392.829 397.523L400.8 406.218L409.496 398.247L401.524 389.551L392.829 397.523Z" fill="#E2E2E2"/>
<path d="M392.105 414.19L400.076 422.886L408.772 414.914L400.8 406.218L392.105 414.19Z" fill="#E2E2E2"/>
<path d="M403.191 389.623L411.163 398.319L419.859 390.347L411.887 381.651L403.191 389.623Z" fill="#E2E2E2"/>
<path d="M403.916 372.956L411.887 381.651L420.583 373.68L412.612 364.984L403.916 372.956Z" fill="#E2E2E2"/>
<path d="M402.468 406.291L410.44 414.987L419.135 407.015L411.163 398.319L402.468 406.291Z" fill="#E2E2E2"/>
<path d="M401.744 422.958L409.716 431.654L418.411 423.682L410.44 414.987L401.744 422.958Z" fill="#E2E2E2"/>
<path d="M413.554 381.724L421.526 390.42L430.222 382.448L422.25 373.752L413.554 381.724Z" fill="#E2E2E2"/>
<path d="M414.278 365.056L422.25 373.752L430.945 365.78L422.974 357.085L414.278 365.056Z" fill="#E2E2E2"/>
<path d="M412.83 398.391L420.802 407.087L429.498 399.115L421.526 390.42L412.83 398.391Z" fill="#E2E2E2"/>
<path d="M412.106 415.059L420.078 423.755L428.773 415.783L420.802 407.087L412.106 415.059Z" fill="#E2E2E2"/>
<path d="M405.509 355.491L413.481 364.187L422.176 356.215L414.205 347.519L405.509 355.491Z" fill="#E2E2E2"/>
<path d="M415.074 346.722L423.046 355.418L431.742 347.446L423.77 338.75L415.074 346.722Z" fill="#E2E2E2"/>
<path d="M424.639 337.953L432.611 346.649L441.306 338.677L433.335 329.981L424.639 337.953Z" fill="#E2E2E2"/>
<path d="M434.929 312.517L442.901 321.213L451.596 313.241L443.625 304.545L434.929 312.517Z" fill="#E2E2E2"/>
<path d="M435.652 295.849L443.625 304.545L452.32 296.573L444.348 287.878L435.652 295.849Z" fill="#E2E2E2"/>
<path d="M434.204 329.184L442.176 337.88L450.872 329.908L442.901 321.213L434.204 329.184Z" fill="#E2E2E2"/>
<path d="M442.973 338.75L450.945 347.445L459.641 339.474L451.669 330.778L442.973 338.75Z" fill="#E2E2E2"/>
<path d="M423.843 356.287L431.814 364.983L440.51 357.011L432.538 348.316L423.843 356.287Z" fill="#E2E2E2"/>
<path d="M433.408 347.519L441.38 356.214L450.076 348.242L442.104 339.547L433.408 347.519Z" fill="#E2E2E2"/>
<path d="M471.234 303.24L479.206 311.935L470.51 319.907L462.538 311.211L471.234 303.24Z" fill="#E2E2E2"/>
<path d="M390.719 215.413L398.691 224.108L389.995 232.08L382.024 223.384L390.719 215.413Z" fill="#E2E2E2"/>
<path d="M441.735 194.25L449.706 202.946L441.011 210.918L433.039 202.222L441.735 194.25Z" fill="#E2E2E2"/>
<path d="M424.342 210.194L432.314 218.889L423.618 226.861L415.647 218.165L424.342 210.194Z" fill="#E2E2E2"/>
<path d="M440.287 227.585L448.258 236.281L439.563 244.253L431.591 235.557L440.287 227.585Z" fill="#E2E2E2"/>
<path d="M458.402 194.974L466.373 203.67L457.678 211.641L449.706 202.946L458.402 194.974Z" fill="#E2E2E2"/>
<path d="M441.011 210.918L448.982 219.613L440.287 227.585L432.314 218.889L441.011 210.918Z" fill="#E2E2E2"/>
<path d="M456.953 228.309L464.925 237.005L456.23 244.976L448.258 236.281L456.953 228.309Z" fill="#E2E2E2"/>
<path d="M475.069 195.698L483.041 204.394L474.345 212.365L466.373 203.67L475.069 195.698Z" fill="#E2E2E2"/>
<path d="M457.678 211.641L465.65 220.337L456.953 228.309L448.982 219.613L457.678 211.641Z" fill="#E2E2E2"/>
<path d="M473.621 229.033L481.593 237.729L472.897 245.7L464.925 237.005L473.621 229.033Z" fill="#E2E2E2"/>
<path d="M373.242 172.219L382.009 164.326L389.902 173.094L381.135 180.987L373.242 172.219Z" fill="#E2E2E2"/>
<path d="M389.028 189.754L397.795 181.861L405.688 190.628L396.921 198.521L389.028 189.754Z" fill="#E2E2E2"/>
<path d="M406.562 173.968L415.329 166.075L423.222 174.842L414.455 182.735L406.562 173.968Z" fill="#E2E2E2"/>
<path d="M374.116 155.559L382.884 147.666L390.777 156.433L382.009 164.326L374.116 155.559Z" fill="#E2E2E2"/>
<path d="M389.902 173.094L398.669 165.201L406.562 173.968L397.795 181.861L389.902 173.094Z" fill="#E2E2E2"/>
<path d="M407.437 157.308L416.204 149.414L424.097 158.182L415.329 166.075L407.437 157.308Z" fill="#E2E2E2"/>
<path d="M374.99 138.899L383.757 131.006L391.651 139.773L382.884 147.666L374.99 138.899Z" fill="#E2E2E2"/>
<path d="M390.777 156.433L399.544 148.54L407.437 157.308L398.669 165.201L390.777 156.433Z" fill="#E2E2E2"/>
<path d="M408.311 140.647L417.078 132.754L424.971 141.521L416.204 149.414L408.311 140.647Z" fill="#E2E2E2"/>
<path d="M340.662 252.916L332.691 244.22L341.386 236.248L349.358 244.944L340.662 252.916Z" fill="#E2E2E2"/>
<path d="M358.054 236.972L350.082 228.276L358.778 220.305L366.75 229L358.054 236.972Z" fill="#E2E2E2"/>
<path d="M342.11 219.581L334.138 210.885L342.834 202.913L350.806 211.609L342.11 219.581Z" fill="#E2E2E2"/>
<path d="M323.995 252.192L316.023 243.496L324.719 235.524L332.691 244.22L323.995 252.192Z" fill="#E2E2E2"/>
<path d="M341.386 236.248L333.415 227.552L342.11 219.581L350.082 228.276L341.386 236.248Z" fill="#E2E2E2"/>
<path d="M325.443 218.857L317.472 210.161L326.167 202.189L334.138 210.885L325.443 218.857Z" fill="#E2E2E2"/>
<path d="M307.328 251.468L299.356 242.772L308.052 234.8L316.023 243.496L307.328 251.468Z" fill="#E2E2E2"/>
<path d="M324.719 235.524L316.747 226.828L325.443 218.857L333.415 227.552L324.719 235.524Z" fill="#E2E2E2"/>
<path d="M308.776 218.133L300.804 209.437L309.5 201.465L317.472 210.161L308.776 218.133Z" fill="#E2E2E2"/>
<path d="M404.044 273.871L395.349 281.843L387.377 273.147L396.073 265.176L404.044 273.871Z" fill="#E2E2E2"/>
<path d="M388.1 256.48L379.405 264.452L371.433 255.756L380.129 247.784L388.1 256.48Z" fill="#E2E2E2"/>
<path d="M370.709 272.423L362.013 280.395L354.041 271.699L362.737 263.728L370.709 272.423Z" fill="#E2E2E2"/>
<path d="M403.32 290.539L394.624 298.511L386.652 289.815L395.349 281.843L403.32 290.539Z" fill="#E2E2E2"/>
<path d="M387.377 273.147L378.681 281.119L370.709 272.423L379.405 264.452L387.377 273.147Z" fill="#E2E2E2"/>
<path d="M369.985 289.091L361.289 297.063L353.318 288.367L362.013 280.395L369.985 289.091Z" fill="#E2E2E2"/>
<path d="M402.596 307.206L393.901 315.178L385.929 306.482L394.624 298.511L402.596 307.206Z" fill="#E2E2E2"/>
<path d="M386.652 289.815L377.956 297.786L369.985 289.091L378.681 281.119L386.652 289.815Z" fill="#E2E2E2"/>
<path d="M369.261 305.758L360.565 313.73L352.593 305.034L361.289 297.063L369.261 305.758Z" fill="#E2E2E2"/>
<path d="M449.612 94.279L458.071 86.056L466.294 94.5146L457.835 102.738L449.612 94.279Z" fill="#E2E2E2"/>
<path d="M289.775 290.348L281.804 281.652L290.499 273.68L298.471 282.376L289.775 290.348Z" fill="#E2E2E2"/>
<path d="M332.443 319.053L323.984 327.276L315.761 318.818L324.22 310.595L332.443 319.053Z" fill="#E2E2E2"/>
<path d="M306.443 291.072L298.471 282.376L307.167 274.404L315.139 283.1L306.443 291.072Z" fill="#E2E2E2"/>
<path d="M332.678 302.372L324.22 310.595L315.997 302.136L324.455 293.913L332.678 302.372Z" fill="#E2E2E2"/>
<path d="M273.108 289.624L265.136 280.928L273.832 272.956L281.804 281.652L273.108 289.624Z" fill="#E2E2E2"/>
<path d="M332.206 335.735L323.748 343.958L315.525 335.499L323.984 327.276L332.206 335.735Z" fill="#E2E2E2"/>
<path d="M256.44 288.9L248.468 280.204L257.164 272.232L265.136 280.928L256.44 288.9Z" fill="#E2E2E2"/>
<path d="M280.501 330.857L272.529 322.162L281.225 314.19L289.197 322.886L280.501 330.857Z" fill="#E2E2E2"/>
<path d="M331.971 352.416L323.512 360.639L315.289 352.181L323.748 343.958L331.971 352.416Z" fill="#E2E2E2"/>
<path d="M48.6009 77.9201L46.2063 75.308L48.8183 72.9134L51.2129 75.5255L48.6009 77.9201Z" fill="#E2E2E2"/>
<path d="M53.6077 78.1375L51.2129 75.5255L53.8252 73.1309L56.2198 75.743L53.6077 78.1375Z" fill="#E2E2E2"/>
<path d="M43.5946 77.7026L41.2001 75.0905L43.8121 72.696L46.2063 75.308L43.5946 77.7026Z" fill="#E2E2E2"/>
<path d="M38.5878 77.4851L36.1932 74.8731L38.8053 72.4785L41.2001 75.0905L38.5878 77.4851Z" fill="#E2E2E2"/>
<path d="M44.7484 91.5467L42.3538 88.9347L44.9659 86.5401L47.3605 89.1521L44.7484 91.5467Z" fill="#E2E2E2"/>
<path d="M42.1147 88.6736L39.7201 86.0616L42.3322 83.667L44.7268 86.2791L42.1147 88.6736Z" fill="#E2E2E2"/>
<path d="M39.4808 85.8004L37.0862 83.1884L39.6982 80.7938L42.0928 83.4058L39.4808 85.8004Z" fill="#E2E2E2"/>
<path d="M36.8465 82.9271L34.4519 80.3151L37.064 77.9205L39.4585 80.5326L36.8465 82.9271Z" fill="#E2E2E2"/>
<path d="M28.9447 74.3074L26.5501 71.6954L29.1621 69.3008L31.5567 71.9128L28.9447 74.3074Z" fill="#E2E2E2"/>
<path d="M34.2129 80.0539L31.8183 77.4418L34.4303 75.0473L36.8249 77.6593L34.2129 80.0539Z" fill="#E2E2E2"/>
<path d="M26.3104 71.4342L23.9158 68.8221L26.5279 66.4275L28.9224 69.0396L26.3104 71.4342Z" fill="#E2E2E2"/>
<path d="M31.5783 77.1806L29.1837 74.5686L31.7958 72.174L34.1903 74.7861L31.5783 77.1806Z" fill="#E2E2E2"/>
<path d="M47.6221 88.9128L45.2275 86.3008L47.8396 83.9062L50.2341 86.5183L47.6221 88.9128Z" fill="#E2E2E2"/>
<path d="M44.9878 86.0396L42.5933 83.4276L45.2053 81.033L47.5999 83.645L44.9878 86.0396Z" fill="#E2E2E2"/>
<path d="M42.3542 83.1664L39.9596 80.5543L42.5717 78.1598L44.9662 80.7718L42.3542 83.1664Z" fill="#E2E2E2"/>
<path d="M50.4949 86.2788L48.1003 83.6668L50.7124 81.2722L53.1069 83.8842L50.4949 86.2788Z" fill="#E2E2E2"/>
<path d="M47.8609 83.4056L45.4664 80.7935L48.0784 78.399L50.473 81.011L47.8609 83.4056Z" fill="#E2E2E2"/>
<path d="M53.3686 83.6448L50.9741 81.0328L53.5861 78.6382L55.9807 81.2502L53.3686 83.6448Z" fill="#E2E2E2"/>
<path d="M56.2418 81.0108L53.8472 78.3987L56.4592 76.0042L58.8538 78.6162L56.2418 81.0108Z" fill="#E2E2E2"/>
<path d="M59.1149 78.3767L56.7203 75.7647L59.3323 73.3701L61.7269 75.9822L59.1149 78.3767Z" fill="#E2E2E2"/>
<path d="M56.4809 75.5035L54.0863 72.8914L56.6984 70.4969L59.093 73.1089L56.4809 75.5035Z" fill="#E2E2E2"/>
<path d="M53.847 72.6303L51.4524 70.0182L54.0644 67.6236L56.459 70.2357L53.847 72.6303Z" fill="#E2E2E2"/>
<path d="M51.2127 69.757L48.8181 67.1449L51.4302 64.7504L53.8247 67.3624L51.2127 69.757Z" fill="#E2E2E2"/>
<path d="M40.4162 70.0404L38.0216 67.4284L40.6336 65.0338L43.0282 67.6459L40.4162 70.0404Z" fill="#E2E2E2"/>
<path d="M45.423 70.2579L43.0282 67.6459L45.6405 65.2513L48.0351 67.8633L45.423 70.2579Z" fill="#E2E2E2"/>
<path d="M35.4093 69.823L33.0147 67.2109L35.6268 64.8163L38.0216 67.4284L35.4093 69.823Z" fill="#E2E2E2"/>
<path d="M30.4028 69.6055L28.0082 66.9935L30.6202 64.5989L33.0147 67.2109L30.4028 69.6055Z" fill="#E2E2E2"/>
<path d="M38.0431 66.9277L35.6485 64.3157L38.2606 61.9211L40.6551 64.5331L38.0431 66.9277Z" fill="#E2E2E2"/>
<path d="M43.0496 67.1452L40.6551 64.5331L43.2671 62.1386L45.6617 64.7506L43.0496 67.1452Z" fill="#E2E2E2"/>
<path d="M33.0362 66.7102L30.6417 64.0982L33.2537 61.7036L35.6485 64.3157L33.0362 66.7102Z" fill="#E2E2E2"/>
<path d="M28.03 66.4928L25.6355 63.8808L28.2475 61.4862L30.6417 64.0982L28.03 66.4928Z" fill="#E2E2E2"/>
<path d="M40.677 64.0325L38.2825 61.4204L40.8945 59.0259L43.2891 61.6379L40.677 64.0325Z" fill="#E2E2E2"/>
<path d="M45.6836 64.2499L43.2891 61.6379L45.901 59.2433L48.2956 61.8554L45.6836 64.2499Z" fill="#E2E2E2"/>
<path d="M35.6702 63.815L33.2756 61.203L35.8877 58.8084L38.2825 61.4204L35.6702 63.815Z" fill="#E2E2E2"/>
<path d="M30.6636 63.5976L28.2691 60.9855L30.8811 58.5909L33.2756 61.203L30.6636 63.5976Z" fill="#E2E2E2"/>
<path d="M48.3177 67.1232L45.9231 64.5112L48.5352 62.1166L50.9297 64.7286L48.3177 67.1232Z" fill="#E2E2E2"/>
<path d="M51.1908 64.4892L48.7962 61.8771L51.4083 59.4826L53.8029 62.0946L51.1908 64.4892Z" fill="#E2E2E2"/>
<path d="M54.0639 61.8551L51.6694 59.2431L54.2814 56.8485L56.676 59.4606L54.0639 61.8551Z" fill="#E2E2E2"/>
<path d="M61.9439 59.4386L59.5493 56.8265L62.1614 54.432L64.5559 57.044L61.9439 59.4386Z" fill="#E2E2E2"/>
<path d="M66.9507 59.6561L64.5559 57.044L67.1682 54.6494L69.5628 57.2615L66.9507 59.6561Z" fill="#E2E2E2"/>
<path d="M56.9374 59.2211L54.5428 56.6091L57.1548 54.2145L59.5493 56.8265L56.9374 59.2211Z" fill="#E2E2E2"/>
<path d="M54.3034 56.3479L51.9088 53.7358L54.5209 51.3413L56.9154 53.9533L54.3034 56.3479Z" fill="#E2E2E2"/>
<path d="M48.5572 61.6159L46.1626 59.0039L48.7747 56.6093L51.1692 59.2214L48.5572 61.6159Z" fill="#E2E2E2"/>
<path d="M51.4303 58.9819L49.0357 56.3699L51.6478 53.9753L54.0423 56.5873L51.4303 58.9819Z" fill="#E2E2E2"/>
<path d="M94.05 36.2543L91.6554 33.6423L89.0434 36.0369L91.4379 38.6489L94.05 36.2543Z" fill="#E2E2E2"/>
<path d="M93.8324 41.2609L91.4379 38.6489L88.8258 41.0435L91.2203 43.6555L93.8324 41.2609Z" fill="#E2E2E2"/>
<path d="M94.2672 31.2477L91.8727 28.6357L89.2606 31.0302L91.6554 33.6423L94.2672 31.2477Z" fill="#E2E2E2"/>
<path d="M94.4848 26.2411L92.0903 23.6291L89.4782 26.0236L91.8727 28.6357L94.4848 26.2411Z" fill="#E2E2E2"/>
<path d="M107.96 33.598L105.565 30.986L102.953 33.3806L105.348 35.9926L107.96 33.598Z" fill="#E2E2E2"/>
<path d="M105.326 30.7248L102.931 28.1128L100.319 30.5074L102.714 33.1194L105.326 30.7248Z" fill="#E2E2E2"/>
<path d="M102.692 27.8516L100.297 25.2396L97.6854 27.6341L100.08 30.2462L102.692 27.8516Z" fill="#E2E2E2"/>
<path d="M100.058 24.9783L97.6632 22.3663L95.0511 24.7609L97.4457 27.3729L100.058 24.9783Z" fill="#E2E2E2"/>
<path d="M92.1556 16.3586L89.761 13.7466L87.149 16.1411L89.5435 18.7532L92.1556 16.3586Z" fill="#E2E2E2"/>
<path d="M97.4235 22.1051L95.0289 19.4931L92.4169 21.8876L94.8114 24.4997L97.4235 22.1051Z" fill="#E2E2E2"/>
<path d="M89.5213 13.4853L87.1267 10.8733L84.5147 13.2679L86.9093 15.8799L89.5213 13.4853Z" fill="#E2E2E2"/>
<path d="M94.7895 19.2319L92.3949 16.6198L89.7829 19.0144L92.1775 21.6264L94.7895 19.2319Z" fill="#E2E2E2"/>
<path d="M86.8877 10.6121L84.4931 8.00007L81.8811 10.3946L84.2756 13.0067L86.8877 10.6121Z" fill="#E2E2E2"/>
<path d="M105.087 36.2321L102.692 33.6201L100.08 36.0146L102.475 38.6267L105.087 36.2321Z" fill="#E2E2E2"/>
<path d="M102.453 33.3589L100.058 30.7468L97.4459 33.1414L99.8405 35.7535L102.453 33.3589Z" fill="#E2E2E2"/>
<path d="M99.8186 30.4856L97.424 27.8736L94.812 30.2681L97.2065 32.8802L99.8186 30.4856Z" fill="#E2E2E2"/>
<path d="M102.214 38.8662L99.8191 36.2541L97.2071 38.6487L99.6016 41.2607L102.214 38.8662Z" fill="#E2E2E2"/>
<path d="M99.5791 35.9929L97.1845 33.3808L94.5725 35.7754L96.9671 38.3875L99.5791 35.9929Z" fill="#E2E2E2"/>
<path d="M99.3399 41.5002L96.9454 38.8881L94.3333 41.2827L96.7279 43.8947L99.3399 41.5002Z" fill="#E2E2E2"/>
<path d="M96.4668 44.1342L94.0723 41.5222L91.4602 43.9167L93.8548 46.5288L96.4668 44.1342Z" fill="#E2E2E2"/>
<path d="M93.5937 46.7682L91.1991 44.1562L88.5871 46.5508L90.9817 49.1628L93.5937 46.7682Z" fill="#E2E2E2"/>
<path d="M90.9598 43.895L88.5652 41.283L85.9531 43.6775L88.3477 46.2896L90.9598 43.895Z" fill="#E2E2E2"/>
<path d="M88.3255 41.0217L85.9309 38.4097L83.3189 40.8043L85.7134 43.4163L88.3255 41.0217Z" fill="#E2E2E2"/>
<path d="M85.6915 38.1485L83.297 35.5364L80.6849 37.931L83.0795 40.5431L85.6915 38.1485Z" fill="#E2E2E2"/>
<path d="M86.91 27.4169L84.5155 24.8048L81.9034 27.1994L84.298 29.8115L86.91 27.4169Z" fill="#E2E2E2"/>
<path d="M86.6924 32.4235L84.298 29.8115L81.6858 32.206L84.0804 34.8181L86.6924 32.4235Z" fill="#E2E2E2"/>
<path d="M87.1273 22.4103L84.7327 19.7982L82.1207 22.1928L84.5155 24.8048L87.1273 22.4103Z" fill="#E2E2E2"/>
<path d="M87.3449 17.4037L84.9503 14.7916L82.3383 17.1862L84.7327 19.7982L87.3449 17.4037Z" fill="#E2E2E2"/>
<path d="M84.0146 24.7831L81.62 22.171L79.008 24.5656L81.4025 27.1777L84.0146 24.7831Z" fill="#E2E2E2"/>
<path d="M83.797 29.7897L81.4025 27.1777L78.7904 29.5722L81.185 32.1842L83.797 29.7897Z" fill="#E2E2E2"/>
<path d="M84.2319 19.7764L81.8373 17.1644L79.2253 19.559L81.62 22.171L84.2319 19.7764Z" fill="#E2E2E2"/>
<path d="M84.4495 14.7698L82.0549 12.1578L79.4428 14.5524L81.8373 17.1644L84.4495 14.7698Z" fill="#E2E2E2"/>
<path d="M80.9022 27.1559L78.5076 24.5439L75.8956 26.9384L78.2902 29.5505L80.9022 27.1559Z" fill="#E2E2E2"/>
<path d="M80.6849 32.1625L78.2902 29.5505L75.6783 31.945L78.0729 34.5571L80.6849 32.1625Z" fill="#E2E2E2"/>
<path d="M81.1195 22.1493L78.7249 19.5372L76.1129 21.9318L78.5076 24.5439L81.1195 22.1493Z" fill="#E2E2E2"/>
<path d="M81.3371 17.1427L78.9425 14.5306L76.3305 16.9252L78.7249 19.5372L81.3371 17.1427Z" fill="#E2E2E2"/>
<path d="M83.3186 35.0358L80.9241 32.4237L78.312 34.8183L80.7066 37.4303L83.3186 35.0358Z" fill="#E2E2E2"/>
<path d="M80.4455 37.6698L78.0509 35.0578L75.4389 37.4523L77.8335 40.0644L80.4455 37.6698Z" fill="#E2E2E2"/>
<path d="M77.5721 40.3038L75.1775 37.6918L72.5655 40.0864L74.9601 42.6984L77.5721 40.3038Z" fill="#E2E2E2"/>
<path d="M74.4814 47.9445L72.0868 45.3324L69.4748 47.727L71.8693 50.339L74.4814 47.9445Z" fill="#E2E2E2"/>
<path d="M74.2641 52.9511L71.8693 50.339L69.2575 52.7336L71.6521 55.3457L74.2641 52.9511Z" fill="#E2E2E2"/>
<path d="M74.6993 42.9379L72.3047 40.3258L69.6927 42.7204L72.0868 45.3324L74.6993 42.9379Z" fill="#E2E2E2"/>
<path d="M72.0647 40.0646L69.6701 37.4526L67.0581 39.8472L69.4527 42.4592L72.0647 40.0646Z" fill="#E2E2E2"/>
<path d="M77.8116 34.7966L75.417 32.1845L72.805 34.5791L75.1995 37.1911L77.8116 34.7966Z" fill="#E2E2E2"/>
<path d="M74.9381 37.4306L72.5436 34.8186L69.9315 37.2131L72.3261 39.8252L74.9381 37.4306Z" fill="#E2E2E2"/>
<path d="M63.5539 45.4634L65.9485 48.0755L63.3364 50.4701L60.9419 47.858L63.5539 45.4634Z" fill="#E2E2E2"/>
<path d="M104.037 56.9019L106.432 59.5139L103.82 61.9085L101.425 59.2965L104.037 56.9019Z" fill="#E2E2E2"/>
<path d="M95.4176 64.804L97.8122 67.416L95.2001 69.8106L92.8055 67.1985L95.4176 64.804Z" fill="#E2E2E2"/>
<path d="M101.164 59.5359L103.559 62.148L100.947 64.5425L98.5521 61.9305L101.164 59.5359Z" fill="#E2E2E2"/>
<path d="M92.5445 67.438L94.9391 70.05L92.327 72.4446L89.9324 69.8326L92.5445 67.438Z" fill="#E2E2E2"/>
<path d="M106.911 54.2678L109.305 56.8799L106.693 59.2744L104.299 56.6624L106.911 54.2678Z" fill="#E2E2E2"/>
<path d="M98.2907 62.1699L100.685 64.782L98.0732 67.1765L95.6787 64.5645L98.2907 62.1699Z" fill="#E2E2E2"/>
<path d="M103.56 90.9903L100.948 93.3849L98.5534 90.7729L101.165 88.3783L103.56 90.9903Z" fill="#E2E2E2"/>
<path d="M95.6578 82.3706L93.0458 84.7652L90.6512 82.1531L93.2632 79.7585L95.6578 82.3706Z" fill="#E2E2E2"/>
<path d="M100.926 88.1171L98.314 90.5117L95.9194 87.8996L98.5315 85.5051L100.926 88.1171Z" fill="#E2E2E2"/>
<path d="M93.0239 79.4973L90.4118 81.8919L88.0172 79.2799L90.6293 76.8853L93.0239 79.4973Z" fill="#E2E2E2"/>
<path d="M106.194 93.8636L103.582 96.2582L101.187 93.6462L103.799 91.2516L106.194 93.8636Z" fill="#E2E2E2"/>
<path d="M98.2918 85.2438L95.6797 87.6384L93.2851 85.0263L95.8972 82.6318L98.2918 85.2438Z" fill="#E2E2E2"/>
<path d="M78.4389 80.3686L80.8335 82.9807L78.2215 85.3752L75.8269 82.7632L78.4389 80.3686Z" fill="#E2E2E2"/>
<path d="M69.819 88.2707L72.2135 90.8827L69.6015 93.2773L67.2069 90.6653L69.819 88.2707Z" fill="#E2E2E2"/>
<path d="M75.5655 83.0027L77.9601 85.6147L75.348 88.0093L72.9535 85.3972L75.5655 83.0027Z" fill="#E2E2E2"/>
<path d="M66.9459 90.9047L69.3404 93.5168L66.7284 95.9113L64.3338 93.2993L66.9459 90.9047Z" fill="#E2E2E2"/>
<path d="M81.3124 77.7346L83.7069 80.3466L81.0949 82.7412L78.7003 80.1291L81.3124 77.7346Z" fill="#E2E2E2"/>
<path d="M72.6924 85.6367L75.087 88.2487L72.4749 90.6433L70.0804 88.0312L72.6924 85.6367Z" fill="#E2E2E2"/>
<path d="M82.4874 68.0044L79.8754 70.3989L77.4808 67.7869L80.0929 65.3923L82.4874 68.0044Z" fill="#E2E2E2"/>
<path d="M74.5856 59.3846L71.9736 61.7792L69.579 59.1672L72.191 56.7726L74.5856 59.3846Z" fill="#E2E2E2"/>
<path d="M79.8538 65.1311L77.2418 67.5257L74.8472 64.9137L77.4592 62.5191L79.8538 65.1311Z" fill="#E2E2E2"/>
<path d="M71.9513 56.5114L69.3393 58.906L66.9447 56.2939L69.5568 53.8993L71.9513 56.5114Z" fill="#E2E2E2"/>
<path d="M85.122 70.8777L82.51 73.2722L80.1154 70.6602L82.7274 68.2656L85.122 70.8777Z" fill="#E2E2E2"/>
<path d="M77.2192 62.2579L74.6072 64.6524L72.2126 62.0404L74.8247 59.6458L77.2192 62.2579Z" fill="#E2E2E2"/>
<path d="M117.163 54.964L119.558 57.576L116.946 59.9706L114.551 57.3586L117.163 54.964Z" fill="#E2E2E2"/>
<path d="M104.347 46.3414L106.888 43.8713L109.358 46.4122L106.817 48.8822L104.347 46.3414Z" fill="#E2E2E2"/>
<path d="M112.157 54.7465L114.551 57.3586L111.939 59.7531L109.545 57.1411L112.157 54.7465Z" fill="#E2E2E2"/>
<path d="M104.276 51.3522L106.817 48.8822L109.287 51.423L106.746 53.893L104.276 51.3522Z" fill="#E2E2E2"/>
<path d="M122.17 55.1815L124.565 57.7935L121.953 60.1881L119.558 57.576L122.17 55.1815Z" fill="#E2E2E2"/>
<path d="M104.418 41.3306L106.958 38.8605L109.428 41.4014L106.888 43.8713L104.418 41.3306Z" fill="#E2E2E2"/>
<path d="M127.176 55.3989L129.571 58.011L126.959 60.4055L124.565 57.7935L127.176 55.3989Z" fill="#E2E2E2"/>
<path d="M150.883 81.2581L153.277 83.8702L150.665 86.2647L148.271 83.6527L150.883 81.2581Z" fill="#E2E2E2"/>
<path d="M119.949 42.7957L122.344 45.4077L119.732 47.8023L117.337 45.1902L119.949 42.7957Z" fill="#E2E2E2"/>
<path d="M125.958 71.8987L128.353 74.5108L125.741 76.9053L123.346 74.2933L125.958 71.8987Z" fill="#E2E2E2"/>
<path d="M120.951 71.6813L123.346 74.2933L120.734 76.6879L118.339 74.0758L120.951 71.6813Z" fill="#E2E2E2"/>
<path d="M130.965 72.1162L133.359 74.7282L130.747 77.1228L128.353 74.5108L130.965 72.1162Z" fill="#E2E2E2"/>
<path d="M135.971 72.3336L138.366 74.9457L135.754 77.3403L133.359 74.7282L135.971 72.3336Z" fill="#E2E2E2"/>
<path d="M129.811 58.272L132.205 60.884L129.593 63.2786L127.199 60.6666L129.811 58.272Z" fill="#E2E2E2"/>
<path d="M132.445 61.1451L134.839 63.7572L132.227 66.1517L129.832 63.5397L132.445 61.1451Z" fill="#E2E2E2"/>
<path d="M135.078 64.0184L137.473 66.6304L134.861 69.025L132.466 66.4129L135.078 64.0184Z" fill="#E2E2E2"/>
<path d="M137.713 66.8916L140.107 69.5037L137.495 71.8982L135.101 69.2862L137.713 66.8916Z" fill="#E2E2E2"/>
<path d="M145.615 75.5113L148.009 78.1234L145.397 80.518L143.003 77.9059L145.615 75.5113Z" fill="#E2E2E2"/>
<path d="M140.347 69.7649L142.741 72.3769L140.129 74.7715L137.735 72.1594L140.347 69.7649Z" fill="#E2E2E2"/>
<path d="M148.249 78.3846L150.643 80.9967L148.031 83.3912L145.637 80.7792L148.249 78.3846Z" fill="#E2E2E2"/>
<path d="M142.981 72.6381L145.375 75.2501L142.763 77.6447L140.369 75.0327L142.981 72.6381Z" fill="#E2E2E2"/>
<path d="M126.937 60.9059L129.332 63.518L126.72 65.9125L124.325 63.3005L126.937 60.9059Z" fill="#E2E2E2"/>
<path d="M129.571 63.7792L131.966 66.3912L129.354 68.7858L126.959 66.1737L129.571 63.7792Z" fill="#E2E2E2"/>
<path d="M132.205 66.6524L134.6 69.2644L131.988 71.659L129.593 69.047L132.205 66.6524Z" fill="#E2E2E2"/>
<path d="M124.064 63.54L126.459 66.152L123.847 68.5466L121.452 65.9345L124.064 63.54Z" fill="#E2E2E2"/>
<path d="M126.698 66.4132L129.093 69.0252L126.481 71.4198L124.086 68.8078L126.698 66.4132Z" fill="#E2E2E2"/>
<path d="M121.191 66.174L123.585 68.786L120.973 71.1806L118.579 68.5685L121.191 66.174Z" fill="#E2E2E2"/>
<path d="M118.317 68.808L120.712 71.42L118.1 73.8146L115.705 71.2026L118.317 68.808Z" fill="#E2E2E2"/>
<path d="M115.444 71.442L117.839 74.0541L115.227 76.4486L112.832 73.8366L115.444 71.442Z" fill="#E2E2E2"/>
<path d="M118.078 74.3153L120.473 76.9273L117.861 79.3219L115.466 76.7098L118.078 74.3153Z" fill="#E2E2E2"/>
<path d="M120.712 77.1885L123.107 79.8005L120.495 82.1951L118.1 79.5831L120.712 77.1885Z" fill="#E2E2E2"/>
<path d="M123.347 80.0618L125.741 82.6738L123.129 85.0684L120.735 82.4564L123.347 80.0618Z" fill="#E2E2E2"/>
<path d="M134.143 79.7783L136.538 82.3904L133.926 84.785L131.531 82.1729L134.143 79.7783Z" fill="#E2E2E2"/>
<path d="M129.137 79.5609L131.531 82.1729L128.919 84.5675L126.525 81.9554L129.137 79.5609Z" fill="#E2E2E2"/>
<path d="M139.15 79.9958L141.545 82.6079L138.933 85.0024L136.538 82.3904L139.15 79.9958Z" fill="#E2E2E2"/>
<path d="M144.156 80.2133L146.551 82.8253L143.939 85.2199L141.545 82.6079L144.156 80.2133Z" fill="#E2E2E2"/>
<path d="M136.516 82.891L138.911 85.5031L136.299 87.8977L133.904 85.2856L136.516 82.891Z" fill="#E2E2E2"/>
<path d="M131.509 82.6736L133.904 85.2856L131.292 87.6802L128.897 85.0682L131.509 82.6736Z" fill="#E2E2E2"/>
<path d="M141.523 83.1085L143.918 85.7206L141.305 88.1151L138.911 85.5031L141.523 83.1085Z" fill="#E2E2E2"/>
<path d="M146.529 83.326L148.924 85.938L146.312 88.3326L143.918 85.7206L146.529 83.326Z" fill="#E2E2E2"/>
<path d="M133.882 85.7863L136.277 88.3983L133.665 90.7929L131.27 88.1809L133.882 85.7863Z" fill="#E2E2E2"/>
<path d="M128.876 85.5688L131.27 88.1809L128.659 90.5754L126.264 87.9634L128.876 85.5688Z" fill="#E2E2E2"/>
<path d="M138.889 86.0038L141.284 88.6158L138.672 91.0104L136.277 88.3983L138.889 86.0038Z" fill="#E2E2E2"/>
<path d="M143.896 86.2212L146.29 88.8333L143.678 91.2278L141.284 88.6158L143.896 86.2212Z" fill="#E2E2E2"/>
<path d="M126.242 82.6955L128.636 85.3076L126.024 87.7022L123.63 85.0901L126.242 82.6955Z" fill="#E2E2E2"/>
<path d="M123.368 85.3296L125.763 87.9416L123.151 90.3362L120.756 87.7242L123.368 85.3296Z" fill="#E2E2E2"/>
<path d="M120.495 87.9636L122.89 90.5757L120.278 92.9702L117.883 90.3582L120.495 87.9636Z" fill="#E2E2E2"/>
<path d="M112.615 90.3802L115.01 92.9922L112.398 95.3868L110.003 92.7748L112.615 90.3802Z" fill="#E2E2E2"/>
<path d="M107.609 90.1627L110.003 92.7748L107.391 95.1693L104.997 92.5573L107.609 90.1627Z" fill="#E2E2E2"/>
<path d="M117.622 90.5977L120.017 93.2097L117.405 95.6043L115.01 92.9922L117.622 90.5977Z" fill="#E2E2E2"/>
<path d="M120.256 93.4709L122.651 96.0829L120.039 98.4775L117.644 95.8655L120.256 93.4709Z" fill="#E2E2E2"/>
<path d="M126.002 88.2028L128.397 90.8149L125.785 93.2094L123.39 90.5974L126.002 88.2028Z" fill="#E2E2E2"/>
<path d="M123.129 90.8369L125.524 93.4489L122.912 95.8435L120.517 93.2314L123.129 90.8369Z" fill="#E2E2E2"/>
<path d="M80.5093 113.565L82.9039 116.177L85.516 113.782L83.1214 111.17L80.5093 113.565Z" fill="#E2E2E2"/>
<path d="M80.7269 108.558L83.1214 111.17L85.7336 108.775L83.339 106.163L80.7269 108.558Z" fill="#E2E2E2"/>
<path d="M80.2917 118.571L82.6863 121.183L85.2984 118.789L82.9039 116.177L80.2917 118.571Z" fill="#E2E2E2"/>
<path d="M80.0745 123.578L82.469 126.19L85.0811 123.795L82.6863 121.183L80.0745 123.578Z" fill="#E2E2E2"/>
<path d="M66.5996 116.221L68.9941 118.833L71.6062 116.438L69.2116 113.826L66.5996 116.221Z" fill="#E2E2E2"/>
<path d="M69.2336 119.094L71.6282 121.706L74.2402 119.312L71.8456 116.7L69.2336 119.094Z" fill="#E2E2E2"/>
<path d="M71.8676 121.967L74.2621 124.579L76.8742 122.185L74.4796 119.573L71.8676 121.967Z" fill="#E2E2E2"/>
<path d="M74.5018 124.841L76.8964 127.453L79.5084 125.058L77.1139 122.446L74.5018 124.841Z" fill="#E2E2E2"/>
<path d="M82.4034 133.46L84.7979 136.072L87.41 133.678L85.0154 131.066L82.4034 133.46Z" fill="#E2E2E2"/>
<path d="M77.1355 127.714L79.53 130.326L82.1421 127.931L79.7475 125.319L77.1355 127.714Z" fill="#E2E2E2"/>
<path d="M85.0379 136.334L87.4325 138.946L90.0446 136.551L87.65 133.939L85.0379 136.334Z" fill="#E2E2E2"/>
<path d="M79.7697 130.587L82.1643 133.199L84.7763 130.805L82.3818 128.192L79.7697 130.587Z" fill="#E2E2E2"/>
<path d="M87.6719 139.207L90.0665 141.819L92.6785 139.424L90.2839 136.812L87.6719 139.207Z" fill="#E2E2E2"/>
<path d="M69.4728 113.587L71.8673 116.199L74.4794 113.804L72.0848 111.192L69.4728 113.587Z" fill="#E2E2E2"/>
<path d="M72.107 116.46L74.5016 119.072L77.1137 116.677L74.7191 114.065L72.107 116.46Z" fill="#E2E2E2"/>
<path d="M74.7407 119.333L77.1352 121.945L79.7473 119.551L77.3527 116.939L74.7407 119.333Z" fill="#E2E2E2"/>
<path d="M72.3459 110.953L74.7405 113.565L77.3525 111.17L74.9579 108.558L72.3459 110.953Z" fill="#E2E2E2"/>
<path d="M74.9801 113.826L77.3747 116.438L79.9868 114.043L77.5922 111.431L74.9801 113.826Z" fill="#E2E2E2"/>
<path d="M75.2193 108.319L77.6139 110.931L80.2259 108.536L77.8314 105.924L75.2193 108.319Z" fill="#E2E2E2"/>
<path d="M78.0924 105.685L80.487 108.297L83.099 105.902L80.7045 103.29L78.0924 105.685Z" fill="#E2E2E2"/>
<path d="M80.9659 103.051L83.3604 105.663L85.9725 103.268L83.5779 100.656L80.9659 103.051Z" fill="#E2E2E2"/>
<path d="M83.5998 105.924L85.9944 108.536L88.6064 106.141L86.2118 103.529L83.5998 105.924Z" fill="#E2E2E2"/>
<path d="M86.2338 108.797L88.6283 111.409L91.2404 109.015L88.8458 106.403L86.2338 108.797Z" fill="#E2E2E2"/>
<path d="M88.868 111.67L91.2626 114.282L93.8746 111.888L91.4801 109.276L88.868 111.67Z" fill="#E2E2E2"/>
<path d="M87.6491 122.402L90.0437 125.014L92.6557 122.619L90.2612 120.007L87.6491 122.402Z" fill="#E2E2E2"/>
<path d="M87.8667 117.395L90.2612 120.007L92.8733 117.613L90.4788 115.001L87.8667 117.395Z" fill="#E2E2E2"/>
<path d="M87.4319 127.409L89.8264 130.021L92.4385 127.626L90.0437 125.014L87.4319 127.409Z" fill="#E2E2E2"/>
<path d="M87.2143 132.415L89.6088 135.027L92.2209 132.633L89.8264 130.021L87.2143 132.415Z" fill="#E2E2E2"/>
<path d="M90.5443 125.036L92.9389 127.648L95.5509 125.253L93.1564 122.641L90.5443 125.036Z" fill="#E2E2E2"/>
<path d="M90.7619 120.029L93.1564 122.641L95.7685 120.247L93.374 117.635L90.7619 120.029Z" fill="#E2E2E2"/>
<path d="M90.3267 130.042L92.7213 132.654L95.3333 130.26L92.9389 127.648L90.3267 130.042Z" fill="#E2E2E2"/>
<path d="M90.1095 135.049L92.504 137.661L95.1161 135.266L92.7213 132.654L90.1095 135.049Z" fill="#E2E2E2"/>
<path d="M93.6573 122.663L96.0519 125.275L98.664 122.88L96.2694 120.268L93.6573 122.663Z" fill="#E2E2E2"/>
<path d="M93.8746 117.656L96.2694 120.268L98.8812 117.874L96.4867 115.262L93.8746 117.656Z" fill="#E2E2E2"/>
<path d="M93.4401 127.67L95.8346 130.282L98.4467 127.887L96.0519 125.275L93.4401 127.67Z" fill="#E2E2E2"/>
<path d="M93.2225 132.676L95.617 135.288L98.2291 132.894L95.8346 130.282L93.2225 132.676Z" fill="#E2E2E2"/>
<path d="M91.2409 114.783L93.6355 117.395L96.2475 115.001L93.853 112.389L91.2409 114.783Z" fill="#E2E2E2"/>
<path d="M94.114 112.149L96.5086 114.761L99.1207 112.367L96.7261 109.755L94.114 112.149Z" fill="#E2E2E2"/>
<path d="M96.9872 109.515L99.3817 112.127L101.994 109.733L99.5992 107.12L96.9872 109.515Z" fill="#E2E2E2"/>
<path d="M100.078 101.874L102.472 104.486L105.084 102.092L102.69 99.4799L100.078 101.874Z" fill="#E2E2E2"/>
<path d="M100.295 96.8678L102.69 99.4799L105.302 97.0853L102.907 94.4732L100.295 96.8678Z" fill="#E2E2E2"/>
<path d="M99.8603 106.881L102.255 109.493L104.867 107.098L102.472 104.486L99.8603 106.881Z" fill="#E2E2E2"/>
<path d="M102.495 109.754L104.889 112.366L107.501 109.972L105.107 107.36L102.495 109.754Z" fill="#E2E2E2"/>
<path d="M96.748 115.022L99.1426 117.634L101.755 115.24L99.36 112.628L96.748 115.022Z" fill="#E2E2E2"/>
<path d="M99.6211 112.388L102.016 115L104.628 112.606L102.233 109.994L99.6211 112.388Z" fill="#E2E2E2"/>
<path d="M110.983 99.0877L113.378 101.7L110.766 104.094L108.371 101.482L110.983 99.0877Z" fill="#E2E2E2"/>
<path d="M86.7983 72.7061L89.1928 75.3181L86.5808 77.7127L84.1862 75.1007L86.7983 72.7061Z" fill="#E2E2E2"/>
<path d="M102.122 66.3492L104.517 68.9613L101.905 71.3558L99.5101 68.7438L102.122 66.3492Z" fill="#E2E2E2"/>
<path d="M96.8977 71.1383L99.2923 73.7504L96.6803 76.145L94.2857 73.5329L96.8977 71.1383Z" fill="#E2E2E2"/>
<path d="M101.687 76.3625L104.082 78.9745L101.47 81.3691L99.0753 78.757L101.687 76.3625Z" fill="#E2E2E2"/>
<path d="M107.129 66.5667L109.523 69.1787L106.911 71.5733L104.517 68.9613L107.129 66.5667Z" fill="#E2E2E2"/>
<path d="M101.905 71.3558L104.299 73.9679L101.687 76.3625L99.2923 73.7504L101.905 71.3558Z" fill="#E2E2E2"/>
<path d="M106.694 76.5799L109.088 79.1919L106.476 81.5865L104.082 78.9745L106.694 76.5799Z" fill="#E2E2E2"/>
<path d="M112.135 66.7841L114.53 69.3962L111.918 71.7908L109.523 69.1787L112.135 66.7841Z" fill="#E2E2E2"/>
<path d="M106.911 71.5733L109.306 74.1853L106.694 76.5799L104.299 73.9679L106.911 71.5733Z" fill="#E2E2E2"/>
<path d="M111.7 76.7974L114.095 79.4094L111.483 81.804L109.088 79.1919L111.7 76.7974Z" fill="#E2E2E2"/>
<path d="M81.5481 59.7316L84.1816 57.3607L86.5525 59.9942L83.919 62.3651L81.5481 59.7316Z" fill="#E2E2E2"/>
<path d="M86.2897 64.9986L88.9233 62.6277L91.2942 65.2612L88.6607 67.6321L86.2897 64.9986Z" fill="#E2E2E2"/>
<path d="M91.5567 60.2568L94.1902 57.8858L96.5611 60.5194L93.9276 62.8903L91.5567 60.2568Z" fill="#E2E2E2"/>
<path d="M81.8107 54.7271L84.4442 52.3562L86.8151 54.9897L84.1816 57.3607L81.8107 54.7271Z" fill="#E2E2E2"/>
<path d="M86.5525 59.9942L89.1859 57.6232L91.5567 60.2568L88.9233 62.6277L86.5525 59.9942Z" fill="#E2E2E2"/>
<path d="M91.8193 55.2523L94.4529 52.8814L96.8238 55.5149L94.1902 57.8858L91.8193 55.2523Z" fill="#E2E2E2"/>
<path d="M82.073 49.7227L84.7065 47.3518L87.0775 49.9853L84.4442 52.3562L82.073 49.7227Z" fill="#E2E2E2"/>
<path d="M86.8151 54.9897L89.4485 52.6188L91.8193 55.2523L89.1859 57.6232L86.8151 54.9897Z" fill="#E2E2E2"/>
<path d="M92.0823 50.2479L94.7158 47.8769L97.0867 50.5104L94.4529 52.8814L92.0823 50.2479Z" fill="#E2E2E2"/>
<path d="M71.7616 83.9713L69.367 81.3592L71.9791 78.9647L74.3736 81.5767L71.7616 83.9713Z" fill="#E2E2E2"/>
<path d="M76.9857 79.1822L74.5912 76.5701L77.2032 74.1756L79.5978 76.7876L76.9857 79.1822Z" fill="#E2E2E2"/>
<path d="M72.1965 73.9581L69.8019 71.346L72.4139 68.9514L74.8085 71.5635L72.1965 73.9581Z" fill="#E2E2E2"/>
<path d="M66.7554 83.7538L64.3608 81.1418L66.9729 78.7472L69.367 81.3592L66.7554 83.7538Z" fill="#E2E2E2"/>
<path d="M71.9791 78.9647L69.5846 76.3527L72.1965 73.9581L74.5912 76.5701L71.9791 78.9647Z" fill="#E2E2E2"/>
<path d="M67.1903 73.7406L64.7957 71.1286L67.4077 68.734L69.8019 71.346L67.1903 73.7406Z" fill="#E2E2E2"/>
<path d="M61.7488 83.5364L59.3543 80.9243L61.9663 78.5298L64.3608 81.1418L61.7488 83.5364Z" fill="#E2E2E2"/>
<path d="M66.9729 78.7472L64.5781 76.1352L67.1903 73.7406L69.5846 76.3527L66.9729 78.7472Z" fill="#E2E2E2"/>
<path d="M62.1834 73.5231L59.7888 70.9111L62.4009 68.5165L64.7957 71.1286L62.1834 73.5231Z" fill="#E2E2E2"/>
<path d="M90.801 90.266L88.189 92.6606L85.7944 90.0485L88.4064 87.654L90.801 90.266Z" fill="#E2E2E2"/>
<path d="M86.0117 85.0419L83.3997 87.4365L81.0051 84.8244L83.6172 82.4298L86.0117 85.0419Z" fill="#E2E2E2"/>
<path d="M80.7876 89.831L78.1756 92.2256L75.781 89.6136L78.393 87.219L80.7876 89.831Z" fill="#E2E2E2"/>
<path d="M90.5831 95.2726L87.971 97.6672L85.5765 95.0551L88.189 92.6606L90.5831 95.2726Z" fill="#E2E2E2"/>
<path d="M85.7944 90.0485L83.1821 92.4431L80.7876 89.831L83.3997 87.4365L85.7944 90.0485Z" fill="#E2E2E2"/>
<path d="M80.5703 94.8377L77.9583 97.2322L75.5637 94.6202L78.1756 92.2256L80.5703 94.8377Z" fill="#E2E2E2"/>
<path d="M90.3661 100.279L87.7541 102.674L85.3595 100.062L87.971 97.6672L90.3661 100.279Z" fill="#E2E2E2"/>
<path d="M85.5765 95.0551L82.9645 97.4497L80.5703 94.8377L83.1821 92.4431L85.5765 95.0551Z" fill="#E2E2E2"/>
<path d="M80.3524 99.8443L77.7404 102.239L75.3458 99.6268L77.9583 97.2322L80.3524 99.8443Z" fill="#E2E2E2"/>
<path d="M104.489 36.3197L107.029 33.8497L109.499 36.3905L106.958 38.8605L104.489 36.3197Z" fill="#E2E2E2"/>
<path d="M56.4765 95.2152L54.0819 92.6032L56.694 90.2086L59.0885 92.8207L56.4765 95.2152Z" fill="#E2E2E2"/>
<path d="M69.2929 103.838L66.7521 106.308L64.2821 103.767L66.8229 101.297L69.2929 103.838Z" fill="#E2E2E2"/>
<path d="M61.4834 95.4327L59.0885 92.8207L61.7008 90.4261L64.0954 93.0381L61.4834 95.4327Z" fill="#E2E2E2"/>
<path d="M69.3636 98.827L66.8229 101.297L64.3528 98.7562L66.8936 96.2862L69.3636 98.827Z" fill="#E2E2E2"/>
<path d="M51.47 94.9977L49.0754 92.3857L51.6874 89.9911L54.0819 92.6032L51.47 94.9977Z" fill="#E2E2E2"/>
<path d="M69.2222 108.849L66.6814 111.319L64.2113 108.778L66.7521 106.308L69.2222 108.849Z" fill="#E2E2E2"/>
<path d="M46.4631 94.7803L44.0685 92.1682L46.6806 89.7737L49.0754 92.3857L46.4631 94.7803Z" fill="#E2E2E2"/>
<path d="M53.6906 107.384L51.296 104.772L53.9081 102.377L56.3027 104.989L53.6906 107.384Z" fill="#E2E2E2"/>
<path d="M69.1514 113.86L66.6106 116.33L64.1406 113.789L66.6814 111.319L69.1514 113.86Z" fill="#E2E2E2"/>
<path d="M91.5902 409.265L87.9795 412.31L84.9337 408.7L88.5443 405.654L91.5902 409.265Z" fill="#E2E2E2"/>
<path d="M92.155 402.608L88.5443 405.654L85.4986 402.043L89.1092 398.997L92.155 402.608Z" fill="#E2E2E2"/>
<path d="M91.0253 415.921L87.4147 418.966L84.3689 415.356L87.9795 412.31L91.0253 415.921Z" fill="#E2E2E2"/>
<path d="M90.4605 422.577L86.8498 425.623L83.804 422.013L87.4147 418.966L90.4605 422.577Z" fill="#E2E2E2"/>
<path d="M109.528 415.144L105.917 418.19L102.872 414.579L106.482 411.533L109.528 415.144Z" fill="#E2E2E2"/>
<path d="M105.557 418.494L101.946 421.54L98.9001 417.93L102.511 414.884L105.557 418.494Z" fill="#E2E2E2"/>
<path d="M101.585 421.845L97.9742 424.891L94.9284 421.28L98.5391 418.234L101.585 421.845Z" fill="#E2E2E2"/>
<path d="M97.6131 425.196L94.0024 428.242L90.9566 424.631L94.5673 421.585L97.6131 425.196Z" fill="#E2E2E2"/>
<path d="M85.698 435.247L82.0873 438.292L79.0415 434.682L82.6522 431.636L85.698 435.247Z" fill="#E2E2E2"/>
<path d="M93.6414 428.545L90.0308 431.591L86.985 427.98L90.5956 424.935L93.6414 428.545Z" fill="#E2E2E2"/>
<path d="M81.7262 438.597L78.1156 441.643L75.0698 438.032L78.6804 434.986L81.7262 438.597Z" fill="#E2E2E2"/>
<path d="M89.6697 431.897L86.059 434.942L83.0132 431.332L86.6239 428.286L89.6697 431.897Z" fill="#E2E2E2"/>
<path d="M106.178 411.172L102.567 414.218L99.5214 410.607L103.132 407.562L106.178 411.172Z" fill="#E2E2E2"/>
<path d="M102.206 414.523L98.5955 417.569L95.5497 413.958L99.1604 410.912L102.206 414.523Z" fill="#E2E2E2"/>
<path d="M98.2345 417.873L94.6238 420.919L91.578 417.308L95.1887 414.262L98.2345 417.873Z" fill="#E2E2E2"/>
<path d="M102.827 407.201L99.2168 410.247L96.171 406.637L99.7817 403.591L102.827 407.201Z" fill="#E2E2E2"/>
<path d="M98.8558 410.551L95.2451 413.597L92.1993 409.987L95.81 406.941L98.8558 410.551Z" fill="#E2E2E2"/>
<path d="M99.4771 403.229L95.8665 406.274L92.8207 402.664L96.4313 399.618L99.4771 403.229Z" fill="#E2E2E2"/>
<path d="M96.1267 399.257L92.5161 402.303L89.4703 398.692L93.0809 395.647L96.1267 399.257Z" fill="#E2E2E2"/>
<path d="M92.7763 395.286L89.1657 398.332L86.1199 394.721L89.7305 391.675L92.7763 395.286Z" fill="#E2E2E2"/>
<path d="M88.8046 398.636L85.194 401.682L82.1481 398.071L85.7588 395.025L88.8046 398.636Z" fill="#E2E2E2"/>
<path d="M84.8329 401.987L81.2222 405.032L78.1764 401.422L81.7871 398.376L84.8329 401.987Z" fill="#E2E2E2"/>
<path d="M80.8611 405.337L77.2505 408.383L74.2047 404.772L77.8153 401.727L80.8611 405.337Z" fill="#E2E2E2"/>
<path d="M80.6452 419.733L77.0346 422.778L73.9888 419.168L77.5994 416.122L80.6452 419.733Z" fill="#E2E2E2"/>
<path d="M81.2101 413.076L77.5994 416.122L74.5536 412.511L78.1643 409.465L81.2101 413.076Z" fill="#E2E2E2"/>
<path d="M80.0804 426.389L76.4697 429.435L73.4239 425.824L77.0346 422.778L80.0804 426.389Z" fill="#E2E2E2"/>
<path d="M79.5155 433.046L75.9049 436.092L72.8591 432.481L76.4697 429.435L79.5155 433.046Z" fill="#E2E2E2"/>
<path d="M76.3689 422.722L72.7583 425.768L69.7125 422.157L73.3231 419.112L76.3689 422.722Z" fill="#E2E2E2"/>
<path d="M76.9338 416.066L73.3231 419.112L70.2773 415.501L73.8879 412.455L76.9338 416.066Z" fill="#E2E2E2"/>
<path d="M75.8041 429.379L72.1934 432.425L69.1476 428.814L72.7583 425.768L75.8041 429.379Z" fill="#E2E2E2"/>
<path d="M75.2393 436.035L71.6286 439.081L68.5828 435.47L72.1934 432.425L75.2393 436.035Z" fill="#E2E2E2"/>
<path d="M72.6574 419.055L69.0468 422.101L66.001 418.49L69.6116 415.444L72.6574 419.055Z" fill="#E2E2E2"/>
<path d="M73.2223 412.399L69.6116 415.444L66.5658 411.834L70.1765 408.788L73.2223 412.399Z" fill="#E2E2E2"/>
<path d="M72.0926 425.712L68.4819 428.757L65.4361 425.147L69.0468 422.101L72.0926 425.712Z" fill="#E2E2E2"/>
<path d="M71.5278 432.368L67.9171 435.414L64.8713 431.804L68.4819 428.757L71.5278 432.368Z" fill="#E2E2E2"/>
<path d="M77.194 409.048L73.5834 412.094L70.5376 408.484L74.1482 405.438L77.194 409.048Z" fill="#E2E2E2"/>
<path d="M73.8437 405.076L70.233 408.122L67.1872 404.511L70.7978 401.466L73.8437 405.076Z" fill="#E2E2E2"/>
<path d="M70.4932 401.105L66.8826 404.151L63.8368 400.54L67.4474 397.494L70.4932 401.105Z" fill="#E2E2E2"/>
<path d="M67.7077 390.477L64.097 393.522L61.0512 389.912L64.6619 386.866L67.7077 390.477Z" fill="#E2E2E2"/>
<path d="M68.2726 383.82L64.6619 386.866L61.6161 383.255L65.2267 380.209L68.2726 383.82Z" fill="#E2E2E2"/>
<path d="M67.1429 397.133L63.5322 400.179L60.4864 396.568L64.097 393.522L67.1429 397.133Z" fill="#E2E2E2"/>
<path d="M63.1711 400.483L59.5605 403.529L56.5147 399.919L60.1253 396.873L63.1711 400.483Z" fill="#E2E2E2"/>
<path d="M69.872 408.426L66.2613 411.472L63.2155 407.862L66.8261 404.816L69.872 408.426Z" fill="#E2E2E2"/>
<path d="M66.5215 404.455L62.9109 407.501L59.8651 403.89L63.4757 400.844L66.5215 404.455Z" fill="#E2E2E2"/>
<path d="M38.5929 346.439L34.9822 349.485L38.028 353.095L41.6387 350.049L38.5929 346.439Z" fill="#E2E2E2"/>
<path d="M45.2493 347.004L41.6387 350.049L44.6844 353.661L48.2951 350.615L45.2493 347.004Z" fill="#E2E2E2"/>
<path d="M31.9364 345.874L28.3257 348.92L31.3715 352.531L34.9822 349.485L31.9364 345.874Z" fill="#E2E2E2"/>
<path d="M25.2799 345.31L21.6693 348.355L24.7151 351.966L28.3257 348.92L25.2799 345.31Z" fill="#E2E2E2"/>
<path d="M35.8194 327.766L32.2088 330.812L35.2546 334.423L38.8652 331.377L35.8194 327.766Z" fill="#E2E2E2"/>
<path d="M31.8478 331.117L28.2371 334.163L31.2829 337.773L34.8936 334.728L31.8478 331.117Z" fill="#E2E2E2"/>
<path d="M27.8761 334.467L24.2654 337.513L27.3112 341.124L30.9219 338.078L27.8761 334.467Z" fill="#E2E2E2"/>
<path d="M23.9043 337.818L20.2936 340.864L23.3395 344.474L26.9501 341.428L23.9043 337.818Z" fill="#E2E2E2"/>
<path d="M11.9892 347.869L8.37852 350.914L11.4243 354.525L15.035 351.479L11.9892 347.869Z" fill="#E2E2E2"/>
<path d="M19.9326 341.168L16.3219 344.214L19.3677 347.825L22.9784 344.779L19.9326 341.168Z" fill="#E2E2E2"/>
<path d="M8.01742 351.219L4.40677 354.265L7.45258 357.876L11.0632 354.83L8.01742 351.219Z" fill="#E2E2E2"/>
<path d="M15.9609 344.519L12.3502 347.564L15.396 351.175L19.0067 348.129L15.9609 344.519Z" fill="#E2E2E2"/>
<path d="M4.04571 354.569L0.435059 357.615L3.48087 361.226L7.09152 358.18L4.04571 354.569Z" fill="#E2E2E2"/>
<path d="M39.1699 331.738L35.5592 334.784L38.6051 338.394L42.2157 335.348L39.1699 331.738Z" fill="#E2E2E2"/>
<path d="M35.1982 335.088L31.5875 338.134L34.6333 341.745L38.244 338.699L35.1982 335.088Z" fill="#E2E2E2"/>
<path d="M31.2264 338.439L27.6158 341.485L30.6616 345.096L34.2722 342.05L31.2264 338.439Z" fill="#E2E2E2"/>
<path d="M42.5203 335.709L38.9097 338.755L41.9555 342.366L45.5661 339.32L42.5203 335.709Z" fill="#E2E2E2"/>
<path d="M38.5485 339.061L34.9379 342.106L37.9837 345.717L41.5943 342.671L38.5485 339.061Z" fill="#E2E2E2"/>
<path d="M45.8706 339.682L42.26 342.728L45.3058 346.338L48.9164 343.293L45.8706 339.682Z" fill="#E2E2E2"/>
<path d="M49.221 343.653L45.6104 346.699L48.6562 350.31L52.2669 347.264L49.221 343.653Z" fill="#E2E2E2"/>
<path d="M52.5715 347.625L48.9608 350.671L52.0066 354.281L55.6173 351.235L52.5715 347.625Z" fill="#E2E2E2"/>
<path d="M48.5998 350.975L44.9891 354.021L48.0349 357.631L51.6456 354.586L48.5998 350.975Z" fill="#E2E2E2"/>
<path d="M44.628 354.326L41.0173 357.371L44.0631 360.982L47.6738 357.936L44.628 354.326Z" fill="#E2E2E2"/>
<path d="M40.6563 357.676L37.0456 360.722L40.0914 364.333L43.7021 361.287L40.6563 357.676Z" fill="#E2E2E2"/>
<path d="M26.4296 355.464L22.8189 358.51L25.8647 362.12L29.4754 359.075L26.4296 355.464Z" fill="#E2E2E2"/>
<path d="M33.086 356.028L29.4754 359.075L32.5212 362.685L36.1318 359.639L33.086 356.028Z" fill="#E2E2E2"/>
<path d="M19.7731 354.899L16.1624 357.945L19.2082 361.556L22.8189 358.51L19.7731 354.899Z" fill="#E2E2E2"/>
<path d="M13.1166 354.334L9.50599 357.38L12.5518 360.99L16.1624 357.945L13.1166 354.334Z" fill="#E2E2E2"/>
<path d="M22.7624 359.175L19.1517 362.221L22.1975 365.832L25.8082 362.786L22.7624 359.175Z" fill="#E2E2E2"/>
<path d="M29.4188 359.741L25.8082 362.786L28.854 366.397L32.4646 363.351L29.4188 359.741Z" fill="#E2E2E2"/>
<path d="M16.1059 358.611L12.4952 361.657L15.541 365.267L19.1517 362.221L16.1059 358.611Z" fill="#E2E2E2"/>
<path d="M9.44944 358.046L5.83878 361.092L8.88459 364.703L12.4952 361.657L9.44944 358.046Z" fill="#E2E2E2"/>
<path d="M25.7518 363.451L22.1411 366.497L25.1869 370.108L28.7976 367.062L25.7518 363.451Z" fill="#E2E2E2"/>
<path d="M32.4082 364.016L28.7976 367.062L31.8434 370.672L35.454 367.627L32.4082 364.016Z" fill="#E2E2E2"/>
<path d="M19.0952 362.887L15.4846 365.933L18.5304 369.543L22.1411 366.497L19.0952 362.887Z" fill="#E2E2E2"/>
<path d="M12.4388 362.322L8.82817 365.367L11.874 368.978L15.4846 365.933L12.4388 362.322Z" fill="#E2E2E2"/>
<path d="M36.38 360.665L32.7693 363.711L35.8151 367.322L39.4258 364.276L36.38 360.665Z" fill="#E2E2E2"/>
<path d="M39.7303 364.637L36.1197 367.683L39.1655 371.294L42.7761 368.248L39.7303 364.637Z" fill="#E2E2E2"/>
<path d="M43.0808 368.609L39.4701 371.655L42.5159 375.265L46.1266 372.22L43.0808 368.609Z" fill="#E2E2E2"/>
<path d="M53.0876 373.146L49.4769 376.191L52.5227 379.802L56.1334 376.756L53.0876 373.146Z" fill="#E2E2E2"/>
<path d="M59.7441 373.71L56.1334 376.756L59.1792 380.367L62.7899 377.321L59.7441 373.71Z" fill="#E2E2E2"/>
<path d="M46.4312 372.58L42.8205 375.626L45.8663 379.237L49.4769 376.191L46.4312 372.58Z" fill="#E2E2E2"/>
<path d="M42.4595 375.931L38.8488 378.977L41.8946 382.587L45.5053 379.542L42.4595 375.931Z" fill="#E2E2E2"/>
<path d="M35.7586 367.987L32.148 371.033L35.1938 374.644L38.8045 371.598L35.7586 367.987Z" fill="#E2E2E2"/>
<path d="M39.109 371.96L35.4984 375.005L38.5442 378.616L42.1548 375.57L39.109 371.96Z" fill="#E2E2E2"/>
<path d="M49.1826 387.564L52.7933 384.518L55.8391 388.129L52.2284 391.175L49.1826 387.564Z" fill="#E2E2E2"/>
<path d="M66.6427 334.272L70.2534 331.226L73.2992 334.837L69.6885 337.883L66.6427 334.272Z" fill="#E2E2E2"/>
<path d="M76.6939 346.187L80.3045 343.141L83.3504 346.752L79.7397 349.798L76.6939 346.187Z" fill="#E2E2E2"/>
<path d="M69.9931 338.244L73.6038 335.198L76.6496 338.808L73.0389 341.854L69.9931 338.244Z" fill="#E2E2E2"/>
<path d="M80.0443 350.159L83.6549 347.113L86.7007 350.723L83.0901 353.769L80.0443 350.159Z" fill="#E2E2E2"/>
<path d="M63.2923 330.3L66.9029 327.254L69.9488 330.865L66.3381 333.911L63.2923 330.3Z" fill="#E2E2E2"/>
<path d="M73.3435 342.216L76.9541 339.17L79.9999 342.781L76.3893 345.826L73.3435 342.216Z" fill="#E2E2E2"/>
<path d="M112.02 336.781L115.065 340.392L111.455 343.438L108.409 339.827L112.02 336.781Z" fill="#E2E2E2"/>
<path d="M100.104 346.832L103.15 350.443L99.5396 353.489L96.4938 349.878L100.104 346.832Z" fill="#E2E2E2"/>
<path d="M108.048 340.131L111.094 343.742L107.483 346.788L104.437 343.177L108.048 340.131Z" fill="#E2E2E2"/>
<path d="M96.1328 350.183L99.1786 353.794L95.5679 356.839L92.5221 353.229L96.1328 350.183Z" fill="#E2E2E2"/>
<path d="M115.991 333.431L119.037 337.041L115.426 340.087L112.381 336.476L115.991 333.431Z" fill="#E2E2E2"/>
<path d="M104.076 343.482L107.122 347.093L103.511 350.139L100.466 346.528L104.076 343.482Z" fill="#E2E2E2"/>
<path d="M96.4915 369.657L100.102 366.611L103.148 370.222L99.5373 373.268L96.4915 369.657Z" fill="#E2E2E2"/>
<path d="M106.543 381.573L110.153 378.527L113.199 382.137L109.588 385.183L106.543 381.573Z" fill="#E2E2E2"/>
<path d="M99.8419 373.629L103.453 370.583L106.498 374.194L102.888 377.24L99.8419 373.629Z" fill="#E2E2E2"/>
<path d="M109.893 385.544L113.504 382.498L116.55 386.109L112.939 389.155L109.893 385.544Z" fill="#E2E2E2"/>
<path d="M93.1411 365.685L96.7517 362.64L99.7976 366.25L96.1869 369.296L93.1411 365.685Z" fill="#E2E2E2"/>
<path d="M103.192 377.6L106.803 374.555L109.849 378.165L106.238 381.211L103.192 377.6Z" fill="#E2E2E2"/>
<path d="M80.2459 363.584L83.2917 367.195L79.681 370.241L76.6352 366.63L80.2459 363.584Z" fill="#E2E2E2"/>
<path d="M68.3307 373.635L71.3765 377.246L67.7659 380.292L64.7201 376.681L68.3307 373.635Z" fill="#E2E2E2"/>
<path d="M76.2742 366.934L79.32 370.545L75.7093 373.591L72.6635 369.98L76.2742 366.934Z" fill="#E2E2E2"/>
<path d="M64.359 376.986L67.4048 380.596L63.7942 383.642L60.7483 380.032L64.359 376.986Z" fill="#E2E2E2"/>
<path d="M84.2177 360.233L87.2635 363.844L83.6528 366.89L80.607 363.279L84.2177 360.233Z" fill="#E2E2E2"/>
<path d="M72.3024 370.286L75.3482 373.896L71.7375 376.942L68.6917 373.331L72.3024 370.286Z" fill="#E2E2E2"/>
<path d="M64.7831 316.683L68.3937 313.637L71.4395 317.248L67.8289 320.293L64.7831 316.683Z" fill="#E2E2E2"/>
<path d="M52.5939 333.279L49.4437 329.759L52.9636 326.609L56.1139 330.129L52.5939 333.279Z" fill="#E2E2E2"/>
<path d="M64.2182 323.339L67.8289 320.293L70.8747 323.904L67.264 326.95L64.2182 323.339Z" fill="#E2E2E2"/>
<path d="M59.2641 333.649L56.1139 330.129L59.6339 326.979L62.7841 330.499L59.2641 333.649Z" fill="#E2E2E2"/>
<path d="M65.3482 310.026L68.9588 306.98L72.0046 310.591L68.3937 313.637L65.3482 310.026Z" fill="#E2E2E2"/>
<path d="M45.9238 332.91L42.7736 329.39L46.2936 326.239L49.4437 329.759L45.9238 332.91Z" fill="#E2E2E2"/>
<path d="M65.9128 303.37L69.5234 300.324L72.5692 303.935L68.9588 306.98L65.9128 303.37Z" fill="#E2E2E2"/>
<path d="M101.658 273.216L105.269 270.17L108.315 273.781L104.704 276.827L101.658 273.216Z" fill="#E2E2E2"/>
<path d="M48.7289 312.303L52.3396 309.257L55.3854 312.868L51.7747 315.914L48.7289 312.303Z" fill="#E2E2E2"/>
<path d="M87.8223 305.899L91.4329 302.853L94.4787 306.464L90.8681 309.51L87.8223 305.899Z" fill="#E2E2E2"/>
<path d="M87.2574 312.556L90.8681 309.51L93.9139 313.121L90.3032 316.166L87.2574 312.556Z" fill="#E2E2E2"/>
<path d="M88.3871 299.243L91.9978 296.197L95.0436 299.808L91.4329 302.853L88.3871 299.243Z" fill="#E2E2E2"/>
<path d="M88.9519 292.587L92.5626 289.541L95.6084 293.152L91.9978 296.197L88.9519 292.587Z" fill="#E2E2E2"/>
<path d="M69.8843 300.018L73.4949 296.973L76.5407 300.583L72.9301 303.629L69.8843 300.018Z" fill="#E2E2E2"/>
<path d="M73.8558 296.669L77.4665 293.623L80.5123 297.234L76.9016 300.28L73.8558 296.669Z" fill="#E2E2E2"/>
<path d="M77.8275 293.318L81.4382 290.272L84.484 293.883L80.8733 296.929L77.8275 293.318Z" fill="#E2E2E2"/>
<path d="M81.7993 289.968L85.41 286.922L88.4558 290.532L84.8451 293.578L81.7993 289.968Z" fill="#E2E2E2"/>
<path d="M93.7144 279.917L97.3251 276.871L100.371 280.482L96.7602 283.527L93.7144 279.917Z" fill="#E2E2E2"/>
<path d="M85.771 286.617L89.3817 283.572L92.4275 287.182L88.8168 290.228L85.771 286.617Z" fill="#E2E2E2"/>
<path d="M97.6862 276.566L101.297 273.52L104.343 277.131L100.732 280.177L97.6862 276.566Z" fill="#E2E2E2"/>
<path d="M89.7427 283.267L93.3533 280.222L96.3992 283.832L92.7885 286.878L89.7427 283.267Z" fill="#E2E2E2"/>
<path d="M73.2345 303.991L76.8452 300.945L79.891 304.555L76.2803 307.601L73.2345 303.991Z" fill="#E2E2E2"/>
<path d="M77.2062 300.64L80.8169 297.595L83.8627 301.205L80.252 304.251L77.2062 300.64Z" fill="#E2E2E2"/>
<path d="M81.178 297.29L84.7886 294.244L87.8344 297.855L84.2238 300.9L81.178 297.29Z" fill="#E2E2E2"/>
<path d="M76.5849 307.962L80.1956 304.916L83.2414 308.527L79.6308 311.573L76.5849 307.962Z" fill="#E2E2E2"/>
<path d="M80.5566 304.613L84.1673 301.567L87.2131 305.177L83.6024 308.223L80.5566 304.613Z" fill="#E2E2E2"/>
<path d="M79.9353 311.934L83.5459 308.888L86.5918 312.499L82.9811 315.545L79.9353 311.934Z" fill="#E2E2E2"/>
<path d="M83.2857 315.906L86.8963 312.86L89.9421 316.471L86.3315 319.517L83.2857 315.906Z" fill="#E2E2E2"/>
<path d="M86.6361 319.878L90.2467 316.832L93.2926 320.443L89.6819 323.488L86.6361 319.878Z" fill="#E2E2E2"/>
<path d="M90.6078 316.528L94.2184 313.482L97.2642 317.092L93.6536 320.138L90.6078 316.528Z" fill="#E2E2E2"/>
<path d="M94.5795 313.177L98.1901 310.131L101.236 313.742L97.6253 316.788L94.5795 313.177Z" fill="#E2E2E2"/>
<path d="M98.5513 309.826L102.162 306.78L105.208 310.391L101.597 313.437L98.5513 309.826Z" fill="#E2E2E2"/>
<path d="M98.7672 295.43L102.378 292.384L105.424 295.995L101.813 299.041L98.7672 295.43Z" fill="#E2E2E2"/>
<path d="M98.2024 302.087L101.813 299.041L104.859 302.652L101.248 305.697L98.2024 302.087Z" fill="#E2E2E2"/>
<path d="M99.3321 288.773L102.943 285.727L105.989 289.338L102.378 292.384L99.3321 288.773Z" fill="#E2E2E2"/>
<path d="M99.8969 282.118L103.508 279.072L106.553 282.683L102.943 285.728L99.8969 282.118Z" fill="#E2E2E2"/>
<path d="M103.044 292.441L106.654 289.395L109.7 293.006L106.089 296.052L103.044 292.441Z" fill="#E2E2E2"/>
<path d="M102.479 299.098L106.089 296.052L109.135 299.663L105.524 302.708L102.479 299.098Z" fill="#E2E2E2"/>
<path d="M103.608 285.784L107.219 282.738L110.265 286.349L106.654 289.395L103.608 285.784Z" fill="#E2E2E2"/>
<path d="M104.173 279.128L107.784 276.082L110.83 279.693L107.219 282.738L104.173 279.128Z" fill="#E2E2E2"/>
<path d="M106.755 296.108L110.366 293.062L113.411 296.673L109.801 299.719L106.755 296.108Z" fill="#E2E2E2"/>
<path d="M106.19 302.764L109.801 299.719L112.847 303.329L109.236 306.375L106.19 302.764Z" fill="#E2E2E2"/>
<path d="M107.32 289.452L110.93 286.406L113.976 290.016L110.366 293.062L107.32 289.452Z" fill="#E2E2E2"/>
<path d="M107.885 282.795L111.495 279.75L114.541 283.36L110.93 286.406L107.885 282.795Z" fill="#E2E2E2"/>
<path d="M102.218 306.115L105.829 303.069L108.875 306.68L105.264 309.726L102.218 306.115Z" fill="#E2E2E2"/>
<path d="M105.569 310.086L109.179 307.041L112.225 310.651L108.615 313.697L105.569 310.086Z" fill="#E2E2E2"/>
<path d="M108.919 314.059L112.53 311.013L115.576 314.623L111.965 317.669L108.919 314.059Z" fill="#E2E2E2"/>
<path d="M111.705 324.687L115.315 321.641L118.361 325.252L114.751 328.297L111.705 324.687Z" fill="#E2E2E2"/>
<path d="M111.14 331.343L114.751 328.297L117.796 331.908L114.186 334.954L111.14 331.343Z" fill="#E2E2E2"/>
<path d="M112.27 318.03L115.88 314.984L118.926 318.595L115.315 321.641L112.27 318.03Z" fill="#E2E2E2"/>
<path d="M116.241 314.679L119.852 311.633L122.898 315.244L119.287 318.29L116.241 314.679Z" fill="#E2E2E2"/>
<path d="M109.54 306.736L113.151 303.691L116.197 307.301L112.586 310.347L109.54 306.736Z" fill="#E2E2E2"/>
<path d="M112.891 310.708L116.502 307.662L119.547 311.273L115.937 314.318L112.891 310.708Z" fill="#E2E2E2"/>
<path d="M140.82 368.725L144.43 365.679L141.385 362.068L137.774 365.114L140.82 368.725Z" fill="#E2E2E2"/>
<path d="M134.163 368.159L137.774 365.114L134.728 361.503L131.117 364.549L134.163 368.159Z" fill="#E2E2E2"/>
<path d="M147.476 369.289L151.087 366.243L148.041 362.633L144.43 365.679L147.476 369.289Z" fill="#E2E2E2"/>
<path d="M154.133 369.854L157.743 366.808L154.697 363.197L151.087 366.243L154.133 369.854Z" fill="#E2E2E2"/>
<path d="M143.593 387.396L147.204 384.351L144.158 380.74L140.547 383.786L143.593 387.396Z" fill="#E2E2E2"/>
<path d="M147.565 384.046L151.175 381.001L148.13 377.39L144.519 380.436L147.565 384.046Z" fill="#E2E2E2"/>
<path d="M151.537 380.696L155.147 377.65L152.101 374.039L148.491 377.085L151.537 380.696Z" fill="#E2E2E2"/>
<path d="M155.508 377.346L159.119 374.3L156.073 370.689L152.462 373.735L155.508 377.346Z" fill="#E2E2E2"/>
<path d="M167.423 367.295L171.034 364.249L167.988 360.638L164.378 363.684L167.423 367.295Z" fill="#E2E2E2"/>
<path d="M159.48 373.996L163.091 370.95L160.045 367.339L156.434 370.385L159.48 373.996Z" fill="#E2E2E2"/>
<path d="M171.395 363.944L175.006 360.898L171.96 357.288L168.349 360.333L171.395 363.944Z" fill="#E2E2E2"/>
<path d="M163.452 370.645L167.062 367.599L164.017 363.988L160.406 367.034L163.452 370.645Z" fill="#E2E2E2"/>
<path d="M175.367 360.593L178.978 357.548L175.932 353.937L172.321 356.983L175.367 360.593Z" fill="#E2E2E2"/>
<path d="M140.243 383.425L143.853 380.379L140.808 376.769L137.197 379.814L140.243 383.425Z" fill="#E2E2E2"/>
<path d="M144.214 380.074L147.825 377.029L144.779 373.418L141.169 376.464L144.214 380.074Z" fill="#E2E2E2"/>
<path d="M148.186 376.724L151.797 373.678L148.751 370.068L145.14 373.114L148.186 376.724Z" fill="#E2E2E2"/>
<path d="M136.892 379.454L140.503 376.408L137.457 372.797L133.846 375.843L136.892 379.454Z" fill="#E2E2E2"/>
<path d="M140.864 376.103L144.475 373.057L141.429 369.446L137.818 372.492L140.864 376.103Z" fill="#E2E2E2"/>
<path d="M133.542 375.481L137.153 372.436L134.107 368.825L130.496 371.871L133.542 375.481Z" fill="#E2E2E2"/>
<path d="M130.192 371.51L133.802 368.464L130.756 364.854L127.146 367.899L130.192 371.51Z" fill="#E2E2E2"/>
<path d="M126.841 367.538L130.452 364.492L127.406 360.881L123.795 363.927L126.841 367.538Z" fill="#E2E2E2"/>
<path d="M130.813 364.188L134.423 361.142L131.378 357.531L127.767 360.577L130.813 364.188Z" fill="#E2E2E2"/>
<path d="M134.785 360.838L138.395 357.792L135.349 354.181L131.739 357.227L134.785 360.838Z" fill="#E2E2E2"/>
<path d="M138.756 357.487L142.367 354.441L139.321 350.831L135.711 353.876L138.756 357.487Z" fill="#E2E2E2"/>
<path d="M152.983 359.7L156.594 356.654L153.548 353.044L149.937 356.089L152.983 359.7Z" fill="#E2E2E2"/>
<path d="M146.327 359.135L149.937 356.089L146.891 352.478L143.281 355.524L146.327 359.135Z" fill="#E2E2E2"/>
<path d="M159.639 360.265L163.25 357.219L160.204 353.608L156.594 356.654L159.639 360.265Z" fill="#E2E2E2"/>
<path d="M166.296 360.83L169.907 357.784L166.861 354.173L163.25 357.219L166.296 360.83Z" fill="#E2E2E2"/>
<path d="M156.65 355.988L160.261 352.942L157.215 349.332L153.604 352.377L156.65 355.988Z" fill="#E2E2E2"/>
<path d="M149.994 355.423L153.604 352.377L150.559 348.767L146.948 351.813L149.994 355.423Z" fill="#E2E2E2"/>
<path d="M163.307 356.553L166.917 353.508L163.871 349.897L160.261 352.942L163.307 356.553Z" fill="#E2E2E2"/>
<path d="M169.963 357.118L173.574 354.072L170.528 350.461L166.917 353.508L169.963 357.118Z" fill="#E2E2E2"/>
<path d="M153.661 351.712L157.271 348.666L154.226 345.056L150.615 348.101L153.661 351.712Z" fill="#E2E2E2"/>
<path d="M147.004 351.147L150.615 348.101L147.569 344.491L143.958 347.537L147.004 351.147Z" fill="#E2E2E2"/>
<path d="M160.317 352.277L163.928 349.231L160.882 345.62L157.271 348.666L160.317 352.277Z" fill="#E2E2E2"/>
<path d="M166.974 352.842L170.584 349.796L167.539 346.185L163.928 349.231L166.974 352.842Z" fill="#E2E2E2"/>
<path d="M143.033 354.497L146.643 351.452L143.597 347.841L139.987 350.887L143.033 354.497Z" fill="#E2E2E2"/>
<path d="M139.682 350.526L143.293 347.48L140.247 343.87L136.636 346.915L139.682 350.526Z" fill="#E2E2E2"/>
<path d="M136.332 346.555L139.942 343.509L136.897 339.898L133.286 342.944L136.332 346.555Z" fill="#E2E2E2"/>
<path d="M126.325 342.018L129.936 338.972L126.89 335.361L123.279 338.407L126.325 342.018Z" fill="#E2E2E2"/>
<path d="M119.668 341.453L123.279 338.407L120.233 334.796L116.623 337.842L119.668 341.453Z" fill="#E2E2E2"/>
<path d="M132.981 342.582L136.592 339.537L133.546 335.926L129.936 338.972L132.981 342.582Z" fill="#E2E2E2"/>
<path d="M136.953 339.232L140.564 336.186L137.518 332.575L133.907 335.621L136.953 339.232Z" fill="#E2E2E2"/>
<path d="M143.654 347.175L147.265 344.129L144.219 340.519L140.608 343.565L143.654 347.175Z" fill="#E2E2E2"/>
<path d="M140.304 343.204L143.914 340.158L140.868 336.547L137.258 339.593L140.304 343.204Z" fill="#E2E2E2"/>
<path d="M123.213 327.34L126.824 324.294L129.869 327.904L126.259 330.95L123.213 327.34Z" fill="#E2E2E2"/>
<path d="M86.7452 358.102L90.3558 355.056L93.4016 358.666L89.791 361.712L86.7452 358.102Z" fill="#E2E2E2"/>
<path d="M79.1206 337.342L82.7312 334.296L85.777 337.907L82.1664 340.953L79.1206 337.342Z" fill="#E2E2E2"/>
<path d="M85.2121 344.564L88.8228 341.518L91.8686 345.129L88.2579 348.175L85.2121 344.564Z" fill="#E2E2E2"/>
<path d="M92.4335 338.472L96.0442 335.426L99.09 339.037L95.4793 342.083L92.4335 338.472Z" fill="#E2E2E2"/>
<path d="M79.6854 330.686L83.296 327.64L86.3418 331.251L82.7312 334.296L79.6854 330.686Z" fill="#E2E2E2"/>
<path d="M85.777 337.907L89.3876 334.861L92.4335 338.472L88.8228 341.518L85.777 337.907Z" fill="#E2E2E2"/>
<path d="M92.9983 331.816L96.6089 328.77L99.6547 332.381L96.0442 335.426L92.9983 331.816Z" fill="#E2E2E2"/>
<path d="M80.2502 324.029L83.8609 320.983L86.9067 324.594L83.296 327.64L80.2502 324.029Z" fill="#E2E2E2"/>
<path d="M86.3418 331.251L89.9525 328.205L92.9983 331.816L89.3876 334.861L86.3418 331.251Z" fill="#E2E2E2"/>
<path d="M93.5632 325.159L97.1738 322.113L100.22 325.724L96.6089 328.77L93.5632 325.159Z" fill="#E2E2E2"/>
<path d="M69.1755 364.381L66.1624 360.743L69.8004 357.73L72.8135 361.368L69.1755 364.381Z" fill="#E2E2E2"/>
<path d="M76.4514 358.355L73.4383 354.717L77.0762 351.704L80.0894 355.342L76.4514 358.355Z" fill="#E2E2E2"/>
<path d="M70.4251 351.079L67.412 347.441L71.05 344.428L74.0631 348.066L70.4251 351.079Z" fill="#E2E2E2"/>
<path d="M62.5244 363.757L59.5113 360.119L63.1492 357.105L66.1624 360.743L62.5244 363.757Z" fill="#E2E2E2"/>
<path d="M69.8004 357.73L66.7872 354.093L70.4251 351.079L73.4383 354.717L69.8004 357.73Z" fill="#E2E2E2"/>
<path d="M63.7741 350.454L60.7609 346.817L64.3989 343.803L67.412 347.441L63.7741 350.454Z" fill="#E2E2E2"/>
<path d="M55.8733 363.132L52.8602 359.494L56.4982 356.48L59.5113 360.119L55.8733 363.132Z" fill="#E2E2E2"/>
<path d="M63.1492 357.105L60.1361 353.468L63.7741 350.454L66.7872 354.093L63.1492 357.105Z" fill="#E2E2E2"/>
<path d="M57.123 349.829L54.1098 346.191L57.7478 343.178L60.7609 346.817L57.123 349.829Z" fill="#E2E2E2"/>
<path d="M100.923 378.748L97.3123 381.794L94.2665 378.183L97.8772 375.138L100.923 378.748Z" fill="#E2E2E2"/>
<path d="M94.8314 371.527L91.2207 374.573L88.1749 370.962L91.7856 367.916L94.8314 371.527Z" fill="#E2E2E2"/>
<path d="M87.61 377.619L83.9994 380.665L80.9536 377.054L84.5642 374.008L87.61 377.619Z" fill="#E2E2E2"/>
<path d="M100.358 385.404L96.7475 388.45L93.7017 384.84L97.3123 381.794L100.358 385.404Z" fill="#E2E2E2"/>
<path d="M94.2665 378.183L90.6559 381.23L87.61 377.619L91.2207 374.573L94.2665 378.183Z" fill="#E2E2E2"/>
<path d="M87.0452 384.275L83.4346 387.321L80.3888 383.71L83.9994 380.665L87.0452 384.275Z" fill="#E2E2E2"/>
<path d="M99.7933 392.061L96.1827 395.107L93.1369 391.496L96.7475 388.45L99.7933 392.061Z" fill="#E2E2E2"/>
<path d="M93.7017 384.84L90.091 387.886L87.0452 384.275L90.6559 381.23L93.7017 384.84Z" fill="#E2E2E2"/>
<path d="M86.4804 390.932L82.8697 393.978L79.8239 390.367L83.4346 387.321L86.4804 390.932Z" fill="#E2E2E2"/>
<path d="M110.354 353.735L113.399 357.346L109.789 360.392L106.743 356.781L110.354 353.735Z" fill="#E2E2E2"/>
<path d="M103.132 359.827L106.178 363.438L102.567 366.484L99.5216 362.873L103.132 359.827Z" fill="#E2E2E2"/>
<path d="M109.224 367.049L112.27 370.659L108.659 373.705L105.613 370.095L109.224 367.049Z" fill="#E2E2E2"/>
<path d="M117.01 354.3L120.056 357.911L116.445 360.957L113.399 357.346L117.01 354.3Z" fill="#E2E2E2"/>
<path d="M109.789 360.392L112.835 364.003L109.224 367.049L106.178 363.438L109.789 360.392Z" fill="#E2E2E2"/>
<path d="M115.88 367.613L118.926 371.224L115.316 374.27L112.27 370.659L115.88 367.613Z" fill="#E2E2E2"/>
<path d="M123.667 354.865L126.712 358.476L123.102 361.522L120.056 357.911L123.667 354.865Z" fill="#E2E2E2"/>
<path d="M116.445 360.957L119.491 364.568L115.88 367.613L112.835 364.003L116.445 360.957Z" fill="#E2E2E2"/>
<path d="M122.537 368.179L125.583 371.789L121.972 374.835L118.926 371.224L122.537 368.179Z" fill="#E2E2E2"/>
<path d="M39.2537 332.539L36.1035 329.019L39.6234 325.869L42.7736 329.39L39.2537 332.539Z" fill="#E2E2E2"/>
<path d="M115.059 399.725L111.448 402.771L108.402 399.16L112.013 396.114L115.059 399.725Z" fill="#E2E2E2"/>
<path d="M127.248 383.129L130.398 386.649L126.878 389.799L123.728 386.279L127.248 383.129Z" fill="#E2E2E2"/>
<path d="M115.624 393.068L112.013 396.114L108.967 392.504L112.578 389.458L115.624 393.068Z" fill="#E2E2E2"/>
<path d="M120.578 382.759L123.728 386.279L120.208 389.429L117.058 385.909L120.578 382.759Z" fill="#E2E2E2"/>
<path d="M114.494 406.382L110.883 409.428L107.838 405.817L111.448 402.771L114.494 406.382Z" fill="#E2E2E2"/>
<path d="M133.918 383.498L137.068 387.018L133.548 390.168L130.398 386.649L133.918 383.498Z" fill="#E2E2E2"/>
<path d="M113.929 413.039L110.318 416.084L107.273 412.474L110.883 409.428L113.929 413.039Z" fill="#E2E2E2"/>
<path d="M131.113 404.105L127.502 407.151L124.457 403.54L128.067 400.494L131.113 404.105Z" fill="#E2E2E2"/>
<path d="M140.588 383.868L143.738 387.388L140.219 390.538L137.068 387.018L140.588 383.868Z" fill="#E2E2E2"/>
</svg>
