<svg width="132" height="134" viewBox="0 0 132 134" fill="none" xmlns="http://www.w3.org/2000/svg">
<rect x="26.6008" y="69.92" width="3.54355" height="3.54355" transform="rotate(-132.513 26.6008 69.92)" fill="#E2E2E2"/>
<rect x="31.6077" y="70.1376" width="3.54355" height="3.54355" transform="rotate(-132.513 31.6077 70.1376)" fill="#E2E2E2"/>
<rect x="21.5946" y="69.7026" width="3.54355" height="3.54355" transform="rotate(-132.513 21.5946 69.7026)" fill="#E2E2E2"/>
<rect x="16.5878" y="69.4851" width="3.54355" height="3.54355" transform="rotate(-132.513 16.5878 69.4851)" fill="#E2E2E2"/>
<rect x="22.7483" y="83.5466" width="3.54355" height="3.54355" transform="rotate(-132.513 22.7483 83.5466)" fill="#E2E2E2"/>
<rect x="20.1146" y="80.6736" width="3.54355" height="3.54355" transform="rotate(-132.513 20.1146 80.6736)" fill="#E2E2E2"/>
<rect x="17.4807" y="77.8004" width="3.54355" height="3.54355" transform="rotate(-132.513 17.4807 77.8004)" fill="#E2E2E2"/>
<rect x="14.8464" y="74.9271" width="3.54355" height="3.54355" transform="rotate(-132.513 14.8464 74.9271)" fill="#E2E2E2"/>
<rect x="6.94434" y="66.3073" width="3.54355" height="3.54355" transform="rotate(-132.513 6.94434 66.3073)" fill="#E2E2E2"/>
<rect x="12.2128" y="72.0538" width="3.54355" height="3.54355" transform="rotate(-132.513 12.2128 72.0538)" fill="#E2E2E2"/>
<rect x="4.3103" y="63.4341" width="3.54355" height="3.54355" transform="rotate(-132.513 4.3103 63.4341)" fill="#E2E2E2"/>
<rect x="9.57825" y="69.1807" width="3.54355" height="3.54355" transform="rotate(-132.513 9.57825 69.1807)" fill="#E2E2E2"/>
<rect x="25.6221" y="80.9128" width="3.54355" height="3.54355" transform="rotate(-132.513 25.6221 80.9128)" fill="#E2E2E2"/>
<rect x="22.9878" y="78.0396" width="3.54355" height="3.54355" transform="rotate(-132.513 22.9878 78.0396)" fill="#E2E2E2"/>
<rect x="20.3541" y="75.1663" width="3.54355" height="3.54355" transform="rotate(-132.513 20.3541 75.1663)" fill="#E2E2E2"/>
<rect x="28.4949" y="78.2788" width="3.54355" height="3.54355" transform="rotate(-132.513 28.4949 78.2788)" fill="#E2E2E2"/>
<rect x="25.8608" y="75.4055" width="3.54355" height="3.54355" transform="rotate(-132.513 25.8608 75.4055)" fill="#E2E2E2"/>
<rect x="31.3685" y="75.6448" width="3.54355" height="3.54355" transform="rotate(-132.513 31.3685 75.6448)" fill="#E2E2E2"/>
<rect x="34.2417" y="73.0107" width="3.54355" height="3.54355" transform="rotate(-132.513 34.2417 73.0107)" fill="#E2E2E2"/>
<rect x="37.1147" y="70.3767" width="3.54355" height="3.54355" transform="rotate(-132.513 37.1147 70.3767)" fill="#E2E2E2"/>
<rect x="34.4808" y="67.5034" width="3.54355" height="3.54355" transform="rotate(-132.513 34.4808 67.5034)" fill="#E2E2E2"/>
<rect x="31.8469" y="64.6302" width="3.54355" height="3.54355" transform="rotate(-132.513 31.8469 64.6302)" fill="#E2E2E2"/>
<rect x="29.2126" y="61.757" width="3.54355" height="3.54355" transform="rotate(-132.513 29.2126 61.757)" fill="#E2E2E2"/>
<rect x="18.416" y="62.0404" width="3.54355" height="3.54355" transform="rotate(-132.513 18.416 62.0404)" fill="#E2E2E2"/>
<rect x="23.4229" y="62.2578" width="3.54355" height="3.54355" transform="rotate(-132.513 23.4229 62.2578)" fill="#E2E2E2"/>
<rect x="13.4092" y="61.8229" width="3.54355" height="3.54355" transform="rotate(-132.513 13.4092 61.8229)" fill="#E2E2E2"/>
<rect x="8.40271" y="61.6055" width="3.54355" height="3.54355" transform="rotate(-132.513 8.40271 61.6055)" fill="#E2E2E2"/>
<rect x="16.043" y="58.9276" width="3.54355" height="3.54355" transform="rotate(-132.513 16.043 58.9276)" fill="#E2E2E2"/>
<rect x="21.0496" y="59.1451" width="3.54355" height="3.54355" transform="rotate(-132.513 21.0496 59.1451)" fill="#E2E2E2"/>
<rect x="11.0361" y="58.7102" width="3.54355" height="3.54355" transform="rotate(-132.513 11.0361 58.7102)" fill="#E2E2E2"/>
<rect x="6.02991" y="58.4927" width="3.54355" height="3.54355" transform="rotate(-132.513 6.02991 58.4927)" fill="#E2E2E2"/>
<rect x="18.6769" y="56.0325" width="3.54355" height="3.54355" transform="rotate(-132.513 18.6769 56.0325)" fill="#E2E2E2"/>
<rect x="23.6835" y="56.25" width="3.54355" height="3.54355" transform="rotate(-132.513 23.6835 56.25)" fill="#E2E2E2"/>
<rect x="13.67" y="55.8151" width="3.54355" height="3.54355" transform="rotate(-132.513 13.67 55.8151)" fill="#E2E2E2"/>
<rect x="8.66345" y="55.5975" width="3.54355" height="3.54355" transform="rotate(-132.513 8.66345 55.5975)" fill="#E2E2E2"/>
<rect x="26.3176" y="59.1232" width="3.54355" height="3.54355" transform="rotate(-132.513 26.3176 59.1232)" fill="#E2E2E2"/>
<rect x="29.1908" y="56.4891" width="3.54355" height="3.54355" transform="rotate(-132.513 29.1908 56.4891)" fill="#E2E2E2"/>
<rect x="32.0638" y="53.8551" width="3.54355" height="3.54355" transform="rotate(-132.513 32.0638 53.8551)" fill="#E2E2E2"/>
<rect x="39.9438" y="51.4386" width="3.54355" height="3.54355" transform="rotate(-132.513 39.9438 51.4386)" fill="#E2E2E2"/>
<rect x="44.9507" y="51.656" width="3.54355" height="3.54355" transform="rotate(-132.513 44.9507 51.656)" fill="#E2E2E2"/>
<rect x="34.9373" y="51.2211" width="3.54355" height="3.54355" transform="rotate(-132.513 34.9373 51.2211)" fill="#E2E2E2"/>
<rect x="32.3033" y="48.3478" width="3.54355" height="3.54355" transform="rotate(-132.513 32.3033 48.3478)" fill="#E2E2E2"/>
<rect x="26.5571" y="53.6158" width="3.54355" height="3.54355" transform="rotate(-132.513 26.5571 53.6158)" fill="#E2E2E2"/>
<rect x="29.4302" y="50.9818" width="3.54355" height="3.54355" transform="rotate(-132.513 29.4302 50.9818)" fill="#E2E2E2"/>
<rect width="3.54355" height="3.54355" transform="matrix(-0.675755 -0.737126 -0.737126 0.675755 72.05 28.2544)" fill="#E2E2E2"/>
<rect width="3.54355" height="3.54355" transform="matrix(-0.675755 -0.737126 -0.737126 0.675755 71.8324 33.261)" fill="#E2E2E2"/>
<rect width="3.54355" height="3.54355" transform="matrix(-0.675755 -0.737126 -0.737126 0.675755 72.2673 23.2478)" fill="#E2E2E2"/>
<rect width="3.54355" height="3.54355" transform="matrix(-0.675755 -0.737126 -0.737126 0.675755 72.4849 18.2412)" fill="#E2E2E2"/>
<rect width="3.54355" height="3.54355" transform="matrix(-0.675755 -0.737126 -0.737126 0.675755 85.9597 25.598)" fill="#E2E2E2"/>
<rect width="3.54355" height="3.54355" transform="matrix(-0.675755 -0.737126 -0.737126 0.675755 83.3257 22.7249)" fill="#E2E2E2"/>
<rect width="3.54355" height="3.54355" transform="matrix(-0.675755 -0.737126 -0.737126 0.675755 80.692 19.8517)" fill="#E2E2E2"/>
<rect width="3.54355" height="3.54355" transform="matrix(-0.675755 -0.737126 -0.737126 0.675755 78.0577 16.9784)" fill="#E2E2E2"/>
<rect width="3.54355" height="3.54355" transform="matrix(-0.675755 -0.737126 -0.737126 0.675755 70.1556 8.35864)" fill="#E2E2E2"/>
<rect width="3.54355" height="3.54355" transform="matrix(-0.675755 -0.737126 -0.737126 0.675755 75.4235 14.1051)" fill="#E2E2E2"/>
<rect width="3.54355" height="3.54355" transform="matrix(-0.675755 -0.737126 -0.737126 0.675755 67.5214 5.48535)" fill="#E2E2E2"/>
<rect width="3.54355" height="3.54355" transform="matrix(-0.675755 -0.737126 -0.737126 0.675755 72.7896 11.2319)" fill="#E2E2E2"/>
<rect width="3.54355" height="3.54355" transform="matrix(-0.675755 -0.737126 -0.737126 0.675755 64.8877 2.61218)" fill="#E2E2E2"/>
<rect width="3.54355" height="3.54355" transform="matrix(-0.675755 -0.737126 -0.737126 0.675755 83.0868 28.2322)" fill="#E2E2E2"/>
<rect width="3.54355" height="3.54355" transform="matrix(-0.675755 -0.737126 -0.737126 0.675755 80.4525 25.3589)" fill="#E2E2E2"/>
<rect width="3.54355" height="3.54355" transform="matrix(-0.675755 -0.737126 -0.737126 0.675755 77.8186 22.4856)" fill="#E2E2E2"/>
<rect width="3.54355" height="3.54355" transform="matrix(-0.675755 -0.737126 -0.737126 0.675755 80.2137 30.8662)" fill="#E2E2E2"/>
<rect width="3.54355" height="3.54355" transform="matrix(-0.675755 -0.737126 -0.737126 0.675755 77.5791 27.9929)" fill="#E2E2E2"/>
<rect width="3.54355" height="3.54355" transform="matrix(-0.675755 -0.737126 -0.737126 0.675755 77.34 33.5002)" fill="#E2E2E2"/>
<rect width="3.54355" height="3.54355" transform="matrix(-0.675755 -0.737126 -0.737126 0.675755 74.4668 36.1343)" fill="#E2E2E2"/>
<rect width="3.54355" height="3.54355" transform="matrix(-0.675755 -0.737126 -0.737126 0.675755 71.5938 38.7683)" fill="#E2E2E2"/>
<rect width="3.54355" height="3.54355" transform="matrix(-0.675755 -0.737126 -0.737126 0.675755 68.9597 35.895)" fill="#E2E2E2"/>
<rect width="3.54355" height="3.54355" transform="matrix(-0.675755 -0.737126 -0.737126 0.675755 66.3256 33.0217)" fill="#E2E2E2"/>
<rect width="3.54355" height="3.54355" transform="matrix(-0.675755 -0.737126 -0.737126 0.675755 63.6915 30.1486)" fill="#E2E2E2"/>
<rect width="3.54355" height="3.54355" transform="matrix(-0.675755 -0.737126 -0.737126 0.675755 64.91 19.417)" fill="#E2E2E2"/>
<rect width="3.54355" height="3.54355" transform="matrix(-0.675755 -0.737126 -0.737126 0.675755 64.6924 24.4236)" fill="#E2E2E2"/>
<rect width="3.54355" height="3.54355" transform="matrix(-0.675755 -0.737126 -0.737126 0.675755 65.1273 14.4103)" fill="#E2E2E2"/>
<rect width="3.54355" height="3.54355" transform="matrix(-0.675755 -0.737126 -0.737126 0.675755 65.3448 9.40369)" fill="#E2E2E2"/>
<rect width="3.54355" height="3.54355" transform="matrix(-0.675755 -0.737126 -0.737126 0.675755 62.0145 16.7832)" fill="#E2E2E2"/>
<rect width="3.54355" height="3.54355" transform="matrix(-0.675755 -0.737126 -0.737126 0.675755 61.797 21.7898)" fill="#E2E2E2"/>
<rect width="3.54355" height="3.54355" transform="matrix(-0.675755 -0.737126 -0.737126 0.675755 62.2318 11.7765)" fill="#E2E2E2"/>
<rect width="3.54355" height="3.54355" transform="matrix(-0.675755 -0.737126 -0.737126 0.675755 62.4495 6.7699)" fill="#E2E2E2"/>
<rect width="3.54355" height="3.54355" transform="matrix(-0.675755 -0.737126 -0.737126 0.675755 58.9022 19.156)" fill="#E2E2E2"/>
<rect width="3.54355" height="3.54355" transform="matrix(-0.675755 -0.737126 -0.737126 0.675755 58.6849 24.1626)" fill="#E2E2E2"/>
<rect width="3.54355" height="3.54355" transform="matrix(-0.675755 -0.737126 -0.737126 0.675755 59.1195 14.1494)" fill="#E2E2E2"/>
<rect width="3.54355" height="3.54355" transform="matrix(-0.675755 -0.737126 -0.737126 0.675755 59.337 9.14282)" fill="#E2E2E2"/>
<rect width="3.54355" height="3.54355" transform="matrix(-0.675755 -0.737126 -0.737126 0.675755 61.3186 27.0358)" fill="#E2E2E2"/>
<rect width="3.54355" height="3.54355" transform="matrix(-0.675755 -0.737126 -0.737126 0.675755 58.4456 29.6698)" fill="#E2E2E2"/>
<rect width="3.54355" height="3.54355" transform="matrix(-0.675755 -0.737126 -0.737126 0.675755 55.5721 32.3038)" fill="#E2E2E2"/>
<rect width="3.54355" height="3.54355" transform="matrix(-0.675755 -0.737126 -0.737126 0.675755 52.4814 39.9446)" fill="#E2E2E2"/>
<rect width="3.54355" height="3.54355" transform="matrix(-0.675755 -0.737126 -0.737126 0.675755 52.2642 44.9512)" fill="#E2E2E2"/>
<rect width="3.54355" height="3.54355" transform="matrix(-0.675755 -0.737126 -0.737126 0.675755 52.6993 34.938)" fill="#E2E2E2"/>
<rect width="3.54355" height="3.54355" transform="matrix(-0.675755 -0.737126 -0.737126 0.675755 50.0647 32.0647)" fill="#E2E2E2"/>
<rect width="3.54355" height="3.54355" transform="matrix(-0.675755 -0.737126 -0.737126 0.675755 55.8116 26.7966)" fill="#E2E2E2"/>
<rect width="3.54355" height="3.54355" transform="matrix(-0.675755 -0.737126 -0.737126 0.675755 52.9381 29.4307)" fill="#E2E2E2"/>
<rect x="41.5538" y="37.4635" width="3.54355" height="3.54355" transform="rotate(47.4872 41.5538 37.4635)" fill="#E2E2E2"/>
<rect x="82.0372" y="48.9019" width="3.54355" height="3.54355" transform="rotate(47.4872 82.0372 48.9019)" fill="#E2E2E2"/>
<rect x="73.4176" y="56.804" width="3.54355" height="3.54355" transform="rotate(47.4872 73.4176 56.804)" fill="#E2E2E2"/>
<rect x="79.1641" y="51.5359" width="3.54355" height="3.54355" transform="rotate(47.4872 79.1641 51.5359)" fill="#E2E2E2"/>
<rect x="70.5444" y="59.438" width="3.54355" height="3.54355" transform="rotate(47.4872 70.5444 59.438)" fill="#E2E2E2"/>
<rect x="84.9106" y="46.2678" width="3.54355" height="3.54355" transform="rotate(47.4872 84.9106 46.2678)" fill="#E2E2E2"/>
<rect x="76.2906" y="54.1699" width="3.54355" height="3.54355" transform="rotate(47.4872 76.2906 54.1699)" fill="#E2E2E2"/>
<rect x="81.5599" y="82.9904" width="3.54355" height="3.54355" transform="rotate(137.487 81.5599 82.9904)" fill="#E2E2E2"/>
<rect x="73.6577" y="74.3706" width="3.54355" height="3.54355" transform="rotate(137.487 73.6577 74.3706)" fill="#E2E2E2"/>
<rect x="78.926" y="80.1171" width="3.54355" height="3.54355" transform="rotate(137.487 78.926 80.1171)" fill="#E2E2E2"/>
<rect x="71.0238" y="71.4973" width="3.54355" height="3.54355" transform="rotate(137.487 71.0238 71.4973)" fill="#E2E2E2"/>
<rect x="84.194" y="85.8636" width="3.54355" height="3.54355" transform="rotate(137.487 84.194 85.8636)" fill="#E2E2E2"/>
<rect x="76.2917" y="77.2438" width="3.54355" height="3.54355" transform="rotate(137.487 76.2917 77.2438)" fill="#E2E2E2"/>
<rect x="56.4388" y="72.3687" width="3.54355" height="3.54355" transform="rotate(47.4872 56.4388 72.3687)" fill="#E2E2E2"/>
<rect x="47.819" y="80.2708" width="3.54355" height="3.54355" transform="rotate(47.4872 47.819 80.2708)" fill="#E2E2E2"/>
<rect x="53.5654" y="75.0027" width="3.54355" height="3.54355" transform="rotate(47.4872 53.5654 75.0027)" fill="#E2E2E2"/>
<rect x="44.9458" y="82.9048" width="3.54355" height="3.54355" transform="rotate(47.4872 44.9458 82.9048)" fill="#E2E2E2"/>
<rect x="59.3124" y="69.7346" width="3.54355" height="3.54355" transform="rotate(47.4872 59.3124 69.7346)" fill="#E2E2E2"/>
<rect x="50.6924" y="77.6367" width="3.54355" height="3.54355" transform="rotate(47.4872 50.6924 77.6367)" fill="#E2E2E2"/>
<rect x="60.4874" y="60.0044" width="3.54355" height="3.54355" transform="rotate(137.487 60.4874 60.0044)" fill="#E2E2E2"/>
<rect x="52.5856" y="51.3846" width="3.54355" height="3.54355" transform="rotate(137.487 52.5856 51.3846)" fill="#E2E2E2"/>
<rect x="57.8538" y="57.1311" width="3.54355" height="3.54355" transform="rotate(137.487 57.8538 57.1311)" fill="#E2E2E2"/>
<rect x="49.9513" y="48.5114" width="3.54355" height="3.54355" transform="rotate(137.487 49.9513 48.5114)" fill="#E2E2E2"/>
<rect x="63.1219" y="62.8777" width="3.54355" height="3.54355" transform="rotate(137.487 63.1219 62.8777)" fill="#E2E2E2"/>
<rect x="55.2191" y="54.2578" width="3.54355" height="3.54355" transform="rotate(137.487 55.2191 54.2578)" fill="#E2E2E2"/>
<rect x="95.1632" y="46.964" width="3.54355" height="3.54355" transform="rotate(47.4872 95.1632 46.964)" fill="#E2E2E2"/>
<rect x="82.3468" y="38.3413" width="3.54355" height="3.54355" transform="rotate(-44.1906 82.3468 38.3413)" fill="#E2E2E2"/>
<rect x="90.1567" y="46.7466" width="3.54355" height="3.54355" transform="rotate(47.4872 90.1567 46.7466)" fill="#E2E2E2"/>
<rect x="82.2761" y="43.3522" width="3.54355" height="3.54355" transform="rotate(-44.1906 82.2761 43.3522)" fill="#E2E2E2"/>
<rect x="100.17" y="47.1815" width="3.54355" height="3.54355" transform="rotate(47.4872 100.17 47.1815)" fill="#E2E2E2"/>
<rect x="82.4175" y="33.3306" width="3.54355" height="3.54355" transform="rotate(-44.1906 82.4175 33.3306)" fill="#E2E2E2"/>
<rect x="105.176" y="47.3989" width="3.54355" height="3.54355" transform="rotate(47.4872 105.176 47.3989)" fill="#E2E2E2"/>
<rect x="128.883" y="73.2582" width="3.54355" height="3.54355" transform="rotate(47.4872 128.883 73.2582)" fill="#E2E2E2"/>
<rect x="97.9491" y="34.7957" width="3.54355" height="3.54355" transform="rotate(47.4872 97.9491 34.7957)" fill="#E2E2E2"/>
<rect x="103.958" y="63.8989" width="3.54355" height="3.54355" transform="rotate(47.4872 103.958 63.8989)" fill="#E2E2E2"/>
<rect x="98.9514" y="63.6814" width="3.54355" height="3.54355" transform="rotate(47.4872 98.9514 63.6814)" fill="#E2E2E2"/>
<rect x="108.965" y="64.1163" width="3.54355" height="3.54355" transform="rotate(47.4872 108.965 64.1163)" fill="#E2E2E2"/>
<rect x="113.971" y="64.3339" width="3.54355" height="3.54355" transform="rotate(47.4872 113.971 64.3339)" fill="#E2E2E2"/>
<rect x="107.811" y="50.272" width="3.54355" height="3.54355" transform="rotate(47.4872 107.811 50.272)" fill="#E2E2E2"/>
<rect x="110.444" y="53.1453" width="3.54355" height="3.54355" transform="rotate(47.4872 110.444 53.1453)" fill="#E2E2E2"/>
<rect x="113.079" y="56.0186" width="3.54355" height="3.54355" transform="rotate(47.4872 113.079 56.0186)" fill="#E2E2E2"/>
<rect x="115.713" y="58.8918" width="3.54355" height="3.54355" transform="rotate(47.4872 115.713 58.8918)" fill="#E2E2E2"/>
<rect x="123.615" y="67.5115" width="3.54355" height="3.54355" transform="rotate(47.4872 123.615 67.5115)" fill="#E2E2E2"/>
<rect x="118.347" y="61.7649" width="3.54355" height="3.54355" transform="rotate(47.4872 118.347 61.7649)" fill="#E2E2E2"/>
<rect x="126.249" y="70.3848" width="3.54355" height="3.54355" transform="rotate(47.4872 126.249 70.3848)" fill="#E2E2E2"/>
<rect x="120.98" y="64.6382" width="3.54355" height="3.54355" transform="rotate(47.4872 120.98 64.6382)" fill="#E2E2E2"/>
<rect x="104.938" y="52.906" width="3.54355" height="3.54355" transform="rotate(47.4872 104.938 52.906)" fill="#E2E2E2"/>
<rect x="107.571" y="55.7793" width="3.54355" height="3.54355" transform="rotate(47.4872 107.571 55.7793)" fill="#E2E2E2"/>
<rect x="110.206" y="58.6526" width="3.54355" height="3.54355" transform="rotate(47.4872 110.206 58.6526)" fill="#E2E2E2"/>
<rect x="102.064" y="55.54" width="3.54355" height="3.54355" transform="rotate(47.4872 102.064 55.54)" fill="#E2E2E2"/>
<rect x="104.698" y="58.4133" width="3.54355" height="3.54355" transform="rotate(47.4872 104.698 58.4133)" fill="#E2E2E2"/>
<rect x="99.1909" y="58.1741" width="3.54355" height="3.54355" transform="rotate(47.4872 99.1909 58.1741)" fill="#E2E2E2"/>
<rect x="96.3174" y="60.8081" width="3.54355" height="3.54355" transform="rotate(47.4872 96.3174 60.8081)" fill="#E2E2E2"/>
<rect x="93.4443" y="63.4421" width="3.54355" height="3.54355" transform="rotate(47.4872 93.4443 63.4421)" fill="#E2E2E2"/>
<rect x="96.0781" y="66.3154" width="3.54355" height="3.54355" transform="rotate(47.4872 96.0781 66.3154)" fill="#E2E2E2"/>
<rect x="98.7124" y="69.1887" width="3.54355" height="3.54355" transform="rotate(47.4872 98.7124 69.1887)" fill="#E2E2E2"/>
<rect x="101.347" y="72.0618" width="3.54355" height="3.54355" transform="rotate(47.4872 101.347 72.0618)" fill="#E2E2E2"/>
<rect x="112.143" y="71.7786" width="3.54355" height="3.54355" transform="rotate(47.4872 112.143 71.7786)" fill="#E2E2E2"/>
<rect x="107.137" y="71.561" width="3.54355" height="3.54355" transform="rotate(47.4872 107.137 71.561)" fill="#E2E2E2"/>
<rect x="117.15" y="71.996" width="3.54355" height="3.54355" transform="rotate(47.4872 117.15 71.996)" fill="#E2E2E2"/>
<rect x="122.156" y="72.2135" width="3.54355" height="3.54355" transform="rotate(47.4872 122.156 72.2135)" fill="#E2E2E2"/>
<rect x="114.516" y="74.8912" width="3.54355" height="3.54355" transform="rotate(47.4872 114.516 74.8912)" fill="#E2E2E2"/>
<rect x="109.509" y="74.6737" width="3.54355" height="3.54355" transform="rotate(47.4872 109.509 74.6737)" fill="#E2E2E2"/>
<rect x="119.523" y="75.1086" width="3.54355" height="3.54355" transform="rotate(47.4872 119.523 75.1086)" fill="#E2E2E2"/>
<rect x="124.529" y="75.3262" width="3.54355" height="3.54355" transform="rotate(47.4872 124.529 75.3262)" fill="#E2E2E2"/>
<rect x="111.882" y="77.7865" width="3.54355" height="3.54355" transform="rotate(47.4872 111.882 77.7865)" fill="#E2E2E2"/>
<rect x="106.876" y="77.569" width="3.54355" height="3.54355" transform="rotate(47.4872 106.876 77.569)" fill="#E2E2E2"/>
<rect x="116.889" y="78.0039" width="3.54355" height="3.54355" transform="rotate(47.4872 116.889 78.0039)" fill="#E2E2E2"/>
<rect x="121.896" y="78.2214" width="3.54355" height="3.54355" transform="rotate(47.4872 121.896 78.2214)" fill="#E2E2E2"/>
<rect x="104.242" y="74.6956" width="3.54355" height="3.54355" transform="rotate(47.4872 104.242 74.6956)" fill="#E2E2E2"/>
<rect x="101.369" y="77.3296" width="3.54355" height="3.54355" transform="rotate(47.4872 101.369 77.3296)" fill="#E2E2E2"/>
<rect x="98.4951" y="79.9636" width="3.54355" height="3.54355" transform="rotate(47.4872 98.4951 79.9636)" fill="#E2E2E2"/>
<rect x="90.6152" y="82.3804" width="3.54355" height="3.54355" transform="rotate(47.4872 90.6152 82.3804)" fill="#E2E2E2"/>
<rect x="85.6089" y="82.1628" width="3.54355" height="3.54355" transform="rotate(47.4872 85.6089 82.1628)" fill="#E2E2E2"/>
<rect x="95.6221" y="82.5977" width="3.54355" height="3.54355" transform="rotate(47.4872 95.6221 82.5977)" fill="#E2E2E2"/>
<rect x="98.2563" y="85.4709" width="3.54355" height="3.54355" transform="rotate(47.4872 98.2563 85.4709)" fill="#E2E2E2"/>
<rect x="104.002" y="80.2029" width="3.54355" height="3.54355" transform="rotate(47.4872 104.002 80.2029)" fill="#E2E2E2"/>
<rect x="101.129" y="82.8369" width="3.54355" height="3.54355" transform="rotate(47.4872 101.129 82.8369)" fill="#E2E2E2"/>
<rect width="3.54355" height="3.54355" transform="matrix(0.675755 0.737126 0.737126 -0.675755 58.5094 105.565)" fill="#E2E2E2"/>
<rect width="3.54355" height="3.54355" transform="matrix(0.675755 0.737126 0.737126 -0.675755 58.7269 100.558)" fill="#E2E2E2"/>
<rect width="3.54355" height="3.54355" transform="matrix(0.675755 0.737126 0.737126 -0.675755 58.2917 110.571)" fill="#E2E2E2"/>
<rect width="3.54355" height="3.54355" transform="matrix(0.675755 0.737126 0.737126 -0.675755 58.0745 115.578)" fill="#E2E2E2"/>
<rect width="3.54355" height="3.54355" transform="matrix(0.675755 0.737126 0.737126 -0.675755 44.5996 108.221)" fill="#E2E2E2"/>
<rect width="3.54355" height="3.54355" transform="matrix(0.675755 0.737126 0.737126 -0.675755 47.2336 111.094)" fill="#E2E2E2"/>
<rect width="3.54355" height="3.54355" transform="matrix(0.675755 0.737126 0.737126 -0.675755 49.8678 113.967)" fill="#E2E2E2"/>
<rect width="3.54355" height="3.54355" transform="matrix(0.675755 0.737126 0.737126 -0.675755 52.5018 116.841)" fill="#E2E2E2"/>
<rect width="3.54355" height="3.54355" transform="matrix(0.675755 0.737126 0.737126 -0.675755 60.4033 125.46)" fill="#E2E2E2"/>
<rect width="3.54355" height="3.54355" transform="matrix(0.675755 0.737126 0.737126 -0.675755 55.1355 119.714)" fill="#E2E2E2"/>
<rect width="3.54355" height="3.54355" transform="matrix(0.675755 0.737126 0.737126 -0.675755 63.038 128.333)" fill="#E2E2E2"/>
<rect width="3.54355" height="3.54355" transform="matrix(0.675755 0.737126 0.737126 -0.675755 57.7698 122.587)" fill="#E2E2E2"/>
<rect width="3.54355" height="3.54355" transform="matrix(0.675755 0.737126 0.737126 -0.675755 65.6719 131.207)" fill="#E2E2E2"/>
<rect width="3.54355" height="3.54355" transform="matrix(0.675755 0.737126 0.737126 -0.675755 47.4728 105.587)" fill="#E2E2E2"/>
<rect width="3.54355" height="3.54355" transform="matrix(0.675755 0.737126 0.737126 -0.675755 50.1071 108.46)" fill="#E2E2E2"/>
<rect width="3.54355" height="3.54355" transform="matrix(0.675755 0.737126 0.737126 -0.675755 52.7407 111.333)" fill="#E2E2E2"/>
<rect width="3.54355" height="3.54355" transform="matrix(0.675755 0.737126 0.737126 -0.675755 50.3458 102.953)" fill="#E2E2E2"/>
<rect width="3.54355" height="3.54355" transform="matrix(0.675755 0.737126 0.737126 -0.675755 52.9801 105.826)" fill="#E2E2E2"/>
<rect width="3.54355" height="3.54355" transform="matrix(0.675755 0.737126 0.737126 -0.675755 53.2194 100.319)" fill="#E2E2E2"/>
<rect width="3.54355" height="3.54355" transform="matrix(0.675755 0.737126 0.737126 -0.675755 56.0924 97.6847)" fill="#E2E2E2"/>
<rect width="3.54355" height="3.54355" transform="matrix(0.675755 0.737126 0.737126 -0.675755 58.9658 95.0507)" fill="#E2E2E2"/>
<rect width="3.54355" height="3.54355" transform="matrix(0.675755 0.737126 0.737126 -0.675755 61.5999 97.9238)" fill="#E2E2E2"/>
<rect width="3.54355" height="3.54355" transform="matrix(0.675755 0.737126 0.737126 -0.675755 64.2338 100.797)" fill="#E2E2E2"/>
<rect width="3.54355" height="3.54355" transform="matrix(0.675755 0.737126 0.737126 -0.675755 66.868 103.67)" fill="#E2E2E2"/>
<rect width="3.54355" height="3.54355" transform="matrix(0.675755 0.737126 0.737126 -0.675755 65.6492 114.402)" fill="#E2E2E2"/>
<rect width="3.54355" height="3.54355" transform="matrix(0.675755 0.737126 0.737126 -0.675755 65.8668 109.395)" fill="#E2E2E2"/>
<rect width="3.54355" height="3.54355" transform="matrix(0.675755 0.737126 0.737126 -0.675755 65.4319 119.409)" fill="#E2E2E2"/>
<rect width="3.54355" height="3.54355" transform="matrix(0.675755 0.737126 0.737126 -0.675755 65.2144 124.415)" fill="#E2E2E2"/>
<rect width="3.54355" height="3.54355" transform="matrix(0.675755 0.737126 0.737126 -0.675755 68.5444 117.036)" fill="#E2E2E2"/>
<rect width="3.54355" height="3.54355" transform="matrix(0.675755 0.737126 0.737126 -0.675755 68.762 112.029)" fill="#E2E2E2"/>
<rect width="3.54355" height="3.54355" transform="matrix(0.675755 0.737126 0.737126 -0.675755 68.3268 122.042)" fill="#E2E2E2"/>
<rect width="3.54355" height="3.54355" transform="matrix(0.675755 0.737126 0.737126 -0.675755 68.1095 127.049)" fill="#E2E2E2"/>
<rect width="3.54355" height="3.54355" transform="matrix(0.675755 0.737126 0.737126 -0.675755 71.6575 114.663)" fill="#E2E2E2"/>
<rect width="3.54355" height="3.54355" transform="matrix(0.675755 0.737126 0.737126 -0.675755 71.8746 109.656)" fill="#E2E2E2"/>
<rect width="3.54355" height="3.54355" transform="matrix(0.675755 0.737126 0.737126 -0.675755 71.4402 119.67)" fill="#E2E2E2"/>
<rect width="3.54355" height="3.54355" transform="matrix(0.675755 0.737126 0.737126 -0.675755 71.2225 124.676)" fill="#E2E2E2"/>
<rect width="3.54355" height="3.54355" transform="matrix(0.675755 0.737126 0.737126 -0.675755 69.241 106.783)" fill="#E2E2E2"/>
<rect width="3.54355" height="3.54355" transform="matrix(0.675755 0.737126 0.737126 -0.675755 72.114 104.149)" fill="#E2E2E2"/>
<rect width="3.54355" height="3.54355" transform="matrix(0.675755 0.737126 0.737126 -0.675755 74.9872 101.515)" fill="#E2E2E2"/>
<rect width="3.54355" height="3.54355" transform="matrix(0.675755 0.737126 0.737126 -0.675755 78.0779 93.8744)" fill="#E2E2E2"/>
<rect width="3.54355" height="3.54355" transform="matrix(0.675755 0.737126 0.737126 -0.675755 78.2954 88.8678)" fill="#E2E2E2"/>
<rect width="3.54355" height="3.54355" transform="matrix(0.675755 0.737126 0.737126 -0.675755 77.8602 98.881)" fill="#E2E2E2"/>
<rect width="3.54355" height="3.54355" transform="matrix(0.675755 0.737126 0.737126 -0.675755 80.4945 101.754)" fill="#E2E2E2"/>
<rect width="3.54355" height="3.54355" transform="matrix(0.675755 0.737126 0.737126 -0.675755 74.748 107.022)" fill="#E2E2E2"/>
<rect width="3.54355" height="3.54355" transform="matrix(0.675755 0.737126 0.737126 -0.675755 77.6211 104.388)" fill="#E2E2E2"/>
<rect x="88.983" y="91.0876" width="3.54355" height="3.54355" transform="rotate(47.4872 88.983 91.0876)" fill="#E2E2E2"/>
<rect x="64.7982" y="64.7061" width="3.54355" height="3.54355" transform="rotate(47.4872 64.7982 64.7061)" fill="#E2E2E2"/>
<rect x="80.1222" y="58.3492" width="3.54355" height="3.54355" transform="rotate(47.4872 80.1222 58.3492)" fill="#E2E2E2"/>
<rect x="74.8977" y="63.1383" width="3.54355" height="3.54355" transform="rotate(47.4872 74.8977 63.1383)" fill="#E2E2E2"/>
<rect x="79.6873" y="68.3624" width="3.54355" height="3.54355" transform="rotate(47.4872 79.6873 68.3624)" fill="#E2E2E2"/>
<rect x="85.1287" y="58.5667" width="3.54355" height="3.54355" transform="rotate(47.4872 85.1287 58.5667)" fill="#E2E2E2"/>
<rect x="79.9045" y="63.3558" width="3.54355" height="3.54355" transform="rotate(47.4872 79.9045 63.3558)" fill="#E2E2E2"/>
<rect x="84.6935" y="68.5798" width="3.54355" height="3.54355" transform="rotate(47.4872 84.6935 68.5798)" fill="#E2E2E2"/>
<rect x="90.1353" y="58.7842" width="3.54355" height="3.54355" transform="rotate(47.4872 90.1353 58.7842)" fill="#E2E2E2"/>
<rect x="84.9111" y="63.5732" width="3.54355" height="3.54355" transform="rotate(47.4872 84.9111 63.5732)" fill="#E2E2E2"/>
<rect x="89.7003" y="68.7974" width="3.54355" height="3.54355" transform="rotate(47.4872 89.7003 68.7974)" fill="#E2E2E2"/>
<rect x="59.5483" y="51.7317" width="3.54355" height="3.54355" transform="rotate(-41.9964 59.5483 51.7317)" fill="#E2E2E2"/>
<rect x="64.2898" y="56.9985" width="3.54355" height="3.54355" transform="rotate(-41.9964 64.2898 56.9985)" fill="#E2E2E2"/>
<rect x="69.5568" y="52.2567" width="3.54355" height="3.54355" transform="rotate(-41.9964 69.5568 52.2567)" fill="#E2E2E2"/>
<rect x="59.8108" y="46.7272" width="3.54355" height="3.54355" transform="rotate(-41.9964 59.8108 46.7272)" fill="#E2E2E2"/>
<rect x="64.5524" y="51.9941" width="3.54355" height="3.54355" transform="rotate(-41.9964 64.5524 51.9941)" fill="#E2E2E2"/>
<rect x="69.8193" y="47.2523" width="3.54355" height="3.54355" transform="rotate(-41.9964 69.8193 47.2523)" fill="#E2E2E2"/>
<rect x="60.073" y="41.7227" width="3.54355" height="3.54355" transform="rotate(-41.9964 60.073 41.7227)" fill="#E2E2E2"/>
<rect x="64.8151" y="46.9897" width="3.54355" height="3.54355" transform="rotate(-41.9964 64.8151 46.9897)" fill="#E2E2E2"/>
<rect x="70.0823" y="42.2478" width="3.54355" height="3.54355" transform="rotate(-41.9964 70.0823 42.2478)" fill="#E2E2E2"/>
<rect x="49.7616" y="75.9712" width="3.54355" height="3.54355" transform="rotate(-132.513 49.7616 75.9712)" fill="#E2E2E2"/>
<rect x="54.9857" y="71.1821" width="3.54355" height="3.54355" transform="rotate(-132.513 54.9857 71.1821)" fill="#E2E2E2"/>
<rect x="50.1965" y="65.958" width="3.54355" height="3.54355" transform="rotate(-132.513 50.1965 65.958)" fill="#E2E2E2"/>
<rect x="44.7554" y="75.7538" width="3.54355" height="3.54355" transform="rotate(-132.513 44.7554 75.7538)" fill="#E2E2E2"/>
<rect x="49.9792" y="70.9646" width="3.54355" height="3.54355" transform="rotate(-132.513 49.9792 70.9646)" fill="#E2E2E2"/>
<rect x="45.1903" y="65.7406" width="3.54355" height="3.54355" transform="rotate(-132.513 45.1903 65.7406)" fill="#E2E2E2"/>
<rect x="39.7489" y="75.5364" width="3.54355" height="3.54355" transform="rotate(-132.513 39.7489 75.5364)" fill="#E2E2E2"/>
<rect x="44.9727" y="70.7472" width="3.54355" height="3.54355" transform="rotate(-132.513 44.9727 70.7472)" fill="#E2E2E2"/>
<rect x="40.1835" y="65.5231" width="3.54355" height="3.54355" transform="rotate(-132.513 40.1835 65.5231)" fill="#E2E2E2"/>
<rect x="68.8009" y="82.266" width="3.54355" height="3.54355" transform="rotate(137.487 68.8009 82.266)" fill="#E2E2E2"/>
<rect x="64.0117" y="77.0419" width="3.54355" height="3.54355" transform="rotate(137.487 64.0117 77.0419)" fill="#E2E2E2"/>
<rect x="58.7876" y="81.8309" width="3.54355" height="3.54355" transform="rotate(137.487 58.7876 81.8309)" fill="#E2E2E2"/>
<rect x="68.583" y="87.2726" width="3.54355" height="3.54355" transform="rotate(137.487 68.583 87.2726)" fill="#E2E2E2"/>
<rect x="63.7941" y="82.0485" width="3.54355" height="3.54355" transform="rotate(137.487 63.7941 82.0485)" fill="#E2E2E2"/>
<rect x="58.5703" y="86.8376" width="3.54355" height="3.54355" transform="rotate(137.487 58.5703 86.8376)" fill="#E2E2E2"/>
<rect x="68.3661" y="92.2792" width="3.54355" height="3.54355" transform="rotate(137.487 68.3661 92.2792)" fill="#E2E2E2"/>
<rect x="63.5765" y="87.0551" width="3.54355" height="3.54355" transform="rotate(137.487 63.5765 87.0551)" fill="#E2E2E2"/>
<rect x="58.3524" y="91.8442" width="3.54355" height="3.54355" transform="rotate(137.487 58.3524 91.8442)" fill="#E2E2E2"/>
<rect x="82.4886" y="28.3197" width="3.54355" height="3.54355" transform="rotate(-44.1906 82.4886 28.3197)" fill="#E2E2E2"/>
<rect x="34.4766" y="87.2152" width="3.54355" height="3.54355" transform="rotate(-132.513 34.4766 87.2152)" fill="#E2E2E2"/>
<rect x="47.293" y="95.8378" width="3.54355" height="3.54355" transform="rotate(135.809 47.293 95.8378)" fill="#E2E2E2"/>
<rect x="39.4834" y="87.4326" width="3.54355" height="3.54355" transform="rotate(-132.513 39.4834 87.4326)" fill="#E2E2E2"/>
<rect x="47.3636" y="90.8269" width="3.54355" height="3.54355" transform="rotate(135.809 47.3636 90.8269)" fill="#E2E2E2"/>
<rect x="29.47" y="86.9977" width="3.54355" height="3.54355" transform="rotate(-132.513 29.47 86.9977)" fill="#E2E2E2"/>
<rect x="47.2222" y="100.849" width="3.54355" height="3.54355" transform="rotate(135.809 47.2222 100.849)" fill="#E2E2E2"/>
<rect x="24.4631" y="86.7803" width="3.54355" height="3.54355" transform="rotate(-132.513 24.4631 86.7803)" fill="#E2E2E2"/>
<rect x="31.6907" y="99.3835" width="3.54355" height="3.54355" transform="rotate(-132.513 31.6907 99.3835)" fill="#E2E2E2"/>
<rect x="47.1515" y="105.859" width="3.54355" height="3.54355" transform="rotate(135.809 47.1515 105.859)" fill="#E2E2E2"/>
</svg>
