<svg width="15" height="15" viewBox="0 0 15 15" fill="none" xmlns="http://www.w3.org/2000/svg">
<rect width="0.400721" height="0.401385" transform="matrix(-0.682739 -0.730662 0.743512 -0.668722 3.03882 7.83667)" fill="#F0BB12"/>
<rect width="0.400721" height="0.401385" transform="matrix(-0.682739 -0.730662 0.743512 -0.668722 3.61084 7.86108)" fill="#F0BB12"/>
<rect width="0.400721" height="0.401385" transform="matrix(-0.682739 -0.730662 0.743512 -0.668722 2.4668 7.81238)" fill="#F0BB12"/>
<rect width="0.400721" height="0.401385" transform="matrix(-0.682739 -0.730662 0.743512 -0.668722 1.89478 7.78772)" fill="#F0BB12"/>
<rect width="0.400721" height="0.401385" transform="matrix(-0.682739 -0.730662 0.743512 -0.668722 2.59888 9.36414)" fill="#F0BB12"/>
<rect width="0.400721" height="0.401385" transform="matrix(-0.682739 -0.730662 0.743512 -0.668722 2.29761 9.04199)" fill="#F0BB12"/>
<rect width="0.400721" height="0.401385" transform="matrix(-0.682739 -0.730662 0.743512 -0.668722 1.99707 8.71985)" fill="#F0BB12"/>
<rect width="0.400721" height="0.401385" transform="matrix(-0.682739 -0.730662 0.743512 -0.668722 1.6958 8.39783)" fill="#F0BB12"/>
<rect width="0.400721" height="0.401385" transform="matrix(-0.682739 -0.730662 0.743512 -0.668722 0.792969 7.43176)" fill="#F0BB12"/>
<rect width="0.400721" height="0.401385" transform="matrix(-0.682739 -0.730662 0.743512 -0.668722 1.39502 8.07568)" fill="#F0BB12"/>
<rect width="0.400721" height="0.401385" transform="matrix(-0.682739 -0.730662 0.743512 -0.668722 0.492188 7.10962)" fill="#F0BB12"/>
<rect width="0.400721" height="0.401385" transform="matrix(-0.682739 -0.730662 0.743512 -0.668722 1.09399 7.75378)" fill="#F0BB12"/>
<rect width="0.400721" height="0.401385" transform="matrix(-0.682739 -0.730662 0.743512 -0.668722 2.927 9.06885)" fill="#F0BB12"/>
<rect width="0.400721" height="0.401385" transform="matrix(-0.682739 -0.730662 0.743512 -0.668722 2.62598 8.74658)" fill="#F0BB12"/>
<rect width="0.400721" height="0.401385" transform="matrix(-0.682739 -0.730662 0.743512 -0.668722 2.32495 8.42432)" fill="#F0BB12"/>
<rect width="0.400721" height="0.401385" transform="matrix(-0.682739 -0.730662 0.743512 -0.668722 3.25537 8.77368)" fill="#F0BB12"/>
<rect width="0.400721" height="0.401385" transform="matrix(-0.682739 -0.730662 0.743512 -0.668722 2.95459 8.45166)" fill="#F0BB12"/>
<rect width="0.400721" height="0.401385" transform="matrix(-0.682739 -0.730662 0.743512 -0.668722 3.58374 8.47815)" fill="#F0BB12"/>
<rect width="0.400721" height="0.401385" transform="matrix(-0.682739 -0.730662 0.743512 -0.668722 3.91187 8.18323)" fill="#F0BB12"/>
<rect width="0.400721" height="0.401385" transform="matrix(-0.682739 -0.730662 0.743512 -0.668722 4.24023 7.88782)" fill="#F0BB12"/>
<rect width="0.400721" height="0.401385" transform="matrix(-0.682739 -0.730662 0.743512 -0.668722 3.93921 7.56555)" fill="#F0BB12"/>
<rect width="0.400721" height="0.401385" transform="matrix(-0.682739 -0.730662 0.743512 -0.668722 3.63843 7.2439)" fill="#F0BB12"/>
<rect width="0.400721" height="0.401385" transform="matrix(-0.682739 -0.730662 0.743512 -0.668722 3.3374 6.92175)" fill="#F0BB12"/>
<rect width="0.400721" height="0.401385" transform="matrix(-0.682739 -0.730662 0.743512 -0.668722 2.10376 6.9541)" fill="#F0BB12"/>
<rect width="0.400721" height="0.401385" transform="matrix(-0.682739 -0.730662 0.743512 -0.668722 2.67578 6.97864)" fill="#F0BB12"/>
<rect width="0.400721" height="0.401385" transform="matrix(-0.682739 -0.730662 0.743512 -0.668722 1.53198 6.92981)" fill="#F0BB12"/>
<rect width="0.400721" height="0.401385" transform="matrix(-0.682739 -0.730662 0.743512 -0.668722 0.959717 6.90527)" fill="#F0BB12"/>
<rect width="0.400721" height="0.401385" transform="matrix(-0.682739 -0.730662 0.743512 -0.668722 1.83276 6.60535)" fill="#F0BB12"/>
<rect width="0.400721" height="0.401385" transform="matrix(-0.682739 -0.730662 0.743512 -0.668722 2.40503 6.62988)" fill="#F0BB12"/>
<rect width="0.400721" height="0.401385" transform="matrix(-0.682739 -0.730662 0.743512 -0.668722 1.26074 6.58118)" fill="#F0BB12"/>
<rect width="0.400721" height="0.401385" transform="matrix(-0.682739 -0.730662 0.743512 -0.668722 0.688721 6.55664)" fill="#F0BB12"/>
<rect width="0.400721" height="0.401385" transform="matrix(-0.682739 -0.730662 0.743512 -0.668722 2.13354 6.2804)" fill="#F0BB12"/>
<rect width="0.400721" height="0.401385" transform="matrix(-0.682739 -0.730662 0.743512 -0.668722 2.70581 6.30469)" fill="#F0BB12"/>
<rect width="0.400721" height="0.401385" transform="matrix(-0.682739 -0.730662 0.743512 -0.668722 1.56177 6.25635)" fill="#F0BB12"/>
<rect width="0.400721" height="0.401385" transform="matrix(-0.682739 -0.730662 0.743512 -0.668722 0.989502 6.23169)" fill="#F0BB12"/>
<rect width="0.400721" height="0.401385" transform="matrix(-0.682739 -0.730662 0.743512 -0.668722 3.00659 6.62634)" fill="#F0BB12"/>
<rect width="0.400721" height="0.401385" transform="matrix(-0.682739 -0.730662 0.743512 -0.668722 3.33472 6.33142)" fill="#F0BB12"/>
<rect width="0.400721" height="0.401385" transform="matrix(-0.682739 -0.730662 0.743512 -0.668722 3.66309 6.03589)" fill="#F0BB12"/>
<rect width="0.400721" height="0.401385" transform="matrix(-0.682739 -0.730662 0.743512 -0.668722 4.56348 5.76526)" fill="#F0BB12"/>
<rect width="0.400721" height="0.401385" transform="matrix(-0.682739 -0.730662 0.743512 -0.668722 5.13525 5.78955)" fill="#F0BB12"/>
<rect width="0.400721" height="0.401385" transform="matrix(-0.682739 -0.730662 0.743512 -0.668722 3.99121 5.74072)" fill="#F0BB12"/>
<rect width="0.400721" height="0.401385" transform="matrix(-0.682739 -0.730662 0.743512 -0.668722 3.69043 5.41858)" fill="#F0BB12"/>
<rect width="0.400721" height="0.401385" transform="matrix(-0.682739 -0.730662 0.743512 -0.668722 3.03394 6.00916)" fill="#F0BB12"/>
<rect width="0.400721" height="0.401385" transform="matrix(-0.682739 -0.730662 0.743512 -0.668722 3.36206 5.71375)" fill="#F0BB12"/>
<rect width="0.400721" height="0.401385" transform="matrix(-0.682739 -0.730662 -0.743512 0.668722 8.23291 3.16699)" fill="#F0BB12"/>
<rect width="0.400721" height="0.401385" transform="matrix(-0.682739 -0.730662 -0.743512 0.668722 8.20801 3.72827)" fill="#F0BB12"/>
<rect width="0.400721" height="0.401385" transform="matrix(-0.682739 -0.730662 -0.743512 0.668722 8.25781 2.60583)" fill="#F0BB12"/>
<rect width="0.400721" height="0.401385" transform="matrix(-0.682739 -0.730662 -0.743512 0.668722 8.28247 2.04468)" fill="#F0BB12"/>
<rect width="0.400721" height="0.401385" transform="matrix(-0.682739 -0.730662 -0.743512 0.668722 9.82202 2.86963)" fill="#F0BB12"/>
<rect width="0.400721" height="0.401385" transform="matrix(-0.682739 -0.730662 -0.743512 0.668722 9.52124 2.54736)" fill="#F0BB12"/>
<rect width="0.400721" height="0.401385" transform="matrix(-0.682739 -0.730662 -0.743512 0.668722 9.22021 2.22522)" fill="#F0BB12"/>
<rect width="0.400721" height="0.401385" transform="matrix(-0.682739 -0.730662 -0.743512 0.668722 8.91943 1.90332)" fill="#F0BB12"/>
<rect width="0.400721" height="0.401385" transform="matrix(-0.682739 -0.730662 -0.743512 0.668722 8.0166 0.937134)" fill="#F0BB12"/>
<rect width="0.400721" height="0.401385" transform="matrix(-0.682739 -0.730662 -0.743512 0.668722 8.61816 1.58118)" fill="#F0BB12"/>
<rect width="0.400721" height="0.401385" transform="matrix(-0.682739 -0.730662 -0.743512 0.668722 7.71558 0.61499)" fill="#F0BB12"/>
<rect width="0.400721" height="0.401385" transform="matrix(-0.682739 -0.730662 -0.743512 0.668722 8.31763 1.25916)" fill="#F0BB12"/>
<rect width="0.400721" height="0.401385" transform="matrix(-0.682739 -0.730662 -0.743512 0.668722 7.41455 0.292847)" fill="#F0BB12"/>
<rect width="0.400721" height="0.401385" transform="matrix(-0.682739 -0.730662 -0.743512 0.668722 9.4939 3.16504)" fill="#F0BB12"/>
<rect width="0.400721" height="0.401385" transform="matrix(-0.682739 -0.730662 -0.743512 0.668722 9.19287 2.8429)" fill="#F0BB12"/>
<rect width="0.400721" height="0.401385" transform="matrix(-0.682739 -0.730662 -0.743512 0.668722 8.89185 2.52063)" fill="#F0BB12"/>
<rect width="0.400721" height="0.401385" transform="matrix(-0.682739 -0.730662 -0.743512 0.668722 9.16577 3.46033)" fill="#F0BB12"/>
<rect width="0.400721" height="0.401385" transform="matrix(-0.682739 -0.730662 -0.743512 0.668722 8.86475 3.13782)" fill="#F0BB12"/>
<rect width="0.400721" height="0.401385" transform="matrix(-0.682739 -0.730662 -0.743512 0.668722 8.83716 3.75513)" fill="#F0BB12"/>
<rect width="0.400721" height="0.401385" transform="matrix(-0.682739 -0.730662 -0.743512 0.668722 8.50879 4.05029)" fill="#F0BB12"/>
<rect width="0.400721" height="0.401385" transform="matrix(-0.682739 -0.730662 -0.743512 0.668722 8.18066 4.34558)" fill="#F0BB12"/>
<rect width="0.400721" height="0.401385" transform="matrix(-0.682739 -0.730662 -0.743512 0.668722 7.87964 4.0238)" fill="#F0BB12"/>
<rect width="0.400721" height="0.401385" transform="matrix(-0.682739 -0.730662 -0.743512 0.668722 7.57886 3.70166)" fill="#F0BB12"/>
<rect width="0.400721" height="0.401385" transform="matrix(-0.682739 -0.730662 -0.743512 0.668722 7.27783 3.37976)" fill="#F0BB12"/>
<rect width="0.400721" height="0.401385" transform="matrix(-0.682739 -0.730662 -0.743512 0.668722 7.41675 2.17688)" fill="#F0BB12"/>
<rect width="0.400721" height="0.401385" transform="matrix(-0.682739 -0.730662 -0.743512 0.668722 7.39209 2.73804)" fill="#F0BB12"/>
<rect width="0.400721" height="0.401385" transform="matrix(-0.682739 -0.730662 -0.743512 0.668722 7.44165 1.61548)" fill="#F0BB12"/>
<rect width="0.400721" height="0.401385" transform="matrix(-0.682739 -0.730662 -0.743512 0.668722 7.46655 1.05432)" fill="#F0BB12"/>
<rect width="0.400721" height="0.401385" transform="matrix(-0.682739 -0.730662 -0.743512 0.668722 7.08618 1.88196)" fill="#F0BB12"/>
<rect width="0.400721" height="0.401385" transform="matrix(-0.682739 -0.730662 -0.743512 0.668722 7.06128 2.44312)" fill="#F0BB12"/>
<rect width="0.400721" height="0.401385" transform="matrix(-0.682739 -0.730662 -0.743512 0.668722 7.11108 1.32056)" fill="#F0BB12"/>
<rect width="0.400721" height="0.401385" transform="matrix(-0.682739 -0.730662 -0.743512 0.668722 7.13574 0.759399)" fill="#F0BB12"/>
<rect width="0.400721" height="0.401385" transform="matrix(-0.682739 -0.730662 -0.743512 0.668722 6.73096 2.14722)" fill="#F0BB12"/>
<rect width="0.400721" height="0.401385" transform="matrix(-0.682739 -0.730662 -0.743512 0.668722 6.70581 2.7085)" fill="#F0BB12"/>
<rect width="0.400721" height="0.401385" transform="matrix(-0.682739 -0.730662 -0.743512 0.668722 6.75562 1.58594)" fill="#F0BB12"/>
<rect width="0.400721" height="0.401385" transform="matrix(-0.682739 -0.730662 -0.743512 0.668722 6.78052 1.0249)" fill="#F0BB12"/>
<rect width="0.400721" height="0.401385" transform="matrix(-0.682739 -0.730662 -0.743512 0.668722 7.00684 3.03076)" fill="#F0BB12"/>
<rect width="0.400721" height="0.401385" transform="matrix(-0.682739 -0.730662 -0.743512 0.668722 6.67847 3.32617)" fill="#F0BB12"/>
<rect width="0.400721" height="0.401385" transform="matrix(-0.682739 -0.730662 -0.743512 0.668722 6.35034 3.62109)" fill="#F0BB12"/>
<rect width="0.400721" height="0.401385" transform="matrix(-0.682739 -0.730662 -0.743512 0.668722 5.99707 4.47766)" fill="#F0BB12"/>
<rect width="0.400721" height="0.401385" transform="matrix(-0.682739 -0.730662 -0.743512 0.668722 5.97217 5.03882)" fill="#F0BB12"/>
<rect width="0.400721" height="0.401385" transform="matrix(-0.682739 -0.730662 -0.743512 0.668722 6.02197 3.91626)" fill="#F0BB12"/>
<rect width="0.400721" height="0.401385" transform="matrix(-0.682739 -0.730662 -0.743512 0.668722 5.72119 3.5946)" fill="#F0BB12"/>
<rect width="0.400721" height="0.401385" transform="matrix(-0.682739 -0.730662 -0.743512 0.668722 6.37744 3.00403)" fill="#F0BB12"/>
<rect width="0.400721" height="0.401385" transform="matrix(-0.682739 -0.730662 -0.743512 0.668722 6.04932 3.29895)" fill="#F0BB12"/>
<rect width="0.400721" height="0.401385" transform="matrix(0.682739 0.730662 -0.743512 0.668722 4.74731 4.19885)" fill="#F0BB12"/>
<rect width="0.400721" height="0.401385" transform="matrix(0.682739 0.730662 -0.743512 0.668722 9.37427 5.48096)" fill="#F0BB12"/>
<rect width="0.400721" height="0.401385" transform="matrix(0.682739 0.730662 -0.743512 0.668722 8.38916 6.36658)" fill="#F0BB12"/>
<rect width="0.400721" height="0.401385" transform="matrix(0.682739 0.730662 -0.743512 0.668722 9.04614 5.77612)" fill="#F0BB12"/>
<rect width="0.400721" height="0.401385" transform="matrix(0.682739 0.730662 -0.743512 0.668722 8.06104 6.66199)" fill="#F0BB12"/>
<rect width="0.400721" height="0.401385" transform="matrix(0.682739 0.730662 -0.743512 0.668722 9.70239 5.18567)" fill="#F0BB12"/>
<rect width="0.400721" height="0.401385" transform="matrix(0.682739 0.730662 -0.743512 0.668722 8.71777 6.07129)" fill="#F0BB12"/>
<rect width="0.401385" height="0.400721" transform="matrix(-0.743512 0.668722 -0.682739 -0.730662 9.31958 9.30212)" fill="#F0BB12"/>
<rect width="0.401385" height="0.400721" transform="matrix(-0.743512 0.668722 -0.682739 -0.730662 8.4165 8.33545)" fill="#F0BB12"/>
<rect width="0.401385" height="0.400721" transform="matrix(-0.743512 0.668722 -0.682739 -0.730662 9.01855 8.97998)" fill="#F0BB12"/>
<rect width="0.401385" height="0.400721" transform="matrix(-0.743512 0.668722 -0.682739 -0.730662 8.11572 8.01367)" fill="#F0BB12"/>
<rect width="0.401385" height="0.400721" transform="matrix(-0.743512 0.668722 -0.682739 -0.730662 9.62036 9.6239)" fill="#F0BB12"/>
<rect width="0.401385" height="0.400721" transform="matrix(-0.743512 0.668722 -0.682739 -0.730662 8.71753 8.65771)" fill="#F0BB12"/>
<rect width="0.400721" height="0.401385" transform="matrix(0.682739 0.730662 -0.743512 0.668722 6.44971 8.11169)" fill="#F0BB12"/>
<rect width="0.400721" height="0.401385" transform="matrix(0.682739 0.730662 -0.743512 0.668722 5.46484 8.99719)" fill="#F0BB12"/>
<rect width="0.400721" height="0.401385" transform="matrix(0.682739 0.730662 -0.743512 0.668722 6.12158 8.40686)" fill="#F0BB12"/>
<rect width="0.400721" height="0.401385" transform="matrix(0.682739 0.730662 -0.743512 0.668722 5.13672 9.2926)" fill="#F0BB12"/>
<rect width="0.400721" height="0.401385" transform="matrix(0.682739 0.730662 -0.743512 0.668722 6.77783 7.81616)" fill="#F0BB12"/>
<rect width="0.400721" height="0.401385" transform="matrix(0.682739 0.730662 -0.743512 0.668722 5.79321 8.70227)" fill="#F0BB12"/>
<rect width="0.401385" height="0.400721" transform="matrix(-0.743512 0.668722 -0.682739 -0.730662 6.91187 6.7251)" fill="#F0BB12"/>
<rect width="0.401385" height="0.400721" transform="matrix(-0.743512 0.668722 -0.682739 -0.730662 6.00903 5.75903)" fill="#F0BB12"/>
<rect width="0.401385" height="0.400721" transform="matrix(-0.743512 0.668722 -0.682739 -0.730662 6.61108 6.40283)" fill="#F0BB12"/>
<rect width="0.401385" height="0.400721" transform="matrix(-0.743512 0.668722 -0.682739 -0.730662 5.70825 5.43677)" fill="#F0BB12"/>
<rect width="0.401385" height="0.400721" transform="matrix(-0.743512 0.668722 -0.682739 -0.730662 7.21313 7.047)" fill="#F0BB12"/>
<rect width="0.401385" height="0.400721" transform="matrix(-0.743512 0.668722 -0.682739 -0.730662 6.31006 6.08069)" fill="#F0BB12"/>
<rect width="0.400721" height="0.401385" transform="matrix(0.682739 0.730662 -0.743512 0.668722 10.874 5.26355)" fill="#F0BB12"/>
<rect width="0.401161" height="0.400945" transform="matrix(0.723641 -0.690177 0.703857 0.710341 9.40942 4.29724)" fill="#F0BB12"/>
<rect width="0.400721" height="0.401385" transform="matrix(0.682739 0.730662 -0.743512 0.668722 10.3018 5.23938)" fill="#F0BB12"/>
<rect width="0.401161" height="0.400945" transform="matrix(0.723641 -0.690177 0.703857 0.710341 9.40137 4.85889)" fill="#F0BB12"/>
<rect width="0.400721" height="0.401385" transform="matrix(0.682739 0.730662 -0.743512 0.668722 11.4458 5.28821)" fill="#F0BB12"/>
<rect width="0.401161" height="0.400945" transform="matrix(0.723641 -0.690177 0.703857 0.710341 9.41748 3.73523)" fill="#F0BB12"/>
<rect width="0.400721" height="0.401385" transform="matrix(0.682739 0.730662 -0.743512 0.668722 12.0178 5.31238)" fill="#F0BB12"/>
<rect width="0.400721" height="0.401385" transform="matrix(0.682739 0.730662 -0.743512 0.668722 14.7266 8.21094)" fill="#F0BB12"/>
<rect width="0.400721" height="0.401385" transform="matrix(0.682739 0.730662 -0.743512 0.668722 11.1924 3.89978)" fill="#F0BB12"/>
<rect width="0.400721" height="0.401385" transform="matrix(0.682739 0.730662 -0.743512 0.668722 11.8789 7.16138)" fill="#F0BB12"/>
<rect width="0.400721" height="0.401385" transform="matrix(0.682739 0.730662 -0.743512 0.668722 11.3069 7.13708)" fill="#F0BB12"/>
<rect width="0.400721" height="0.401385" transform="matrix(0.682739 0.730662 -0.743512 0.668722 12.4512 7.18567)" fill="#F0BB12"/>
<rect width="0.400721" height="0.401385" transform="matrix(0.682739 0.730662 -0.743512 0.668722 13.0229 7.21033)" fill="#F0BB12"/>
<rect width="0.400721" height="0.401385" transform="matrix(0.682739 0.730662 -0.743512 0.668722 12.3188 5.63416)" fill="#F0BB12"/>
<rect width="0.400721" height="0.401385" transform="matrix(0.682739 0.730662 -0.743512 0.668722 12.6199 5.95618)" fill="#F0BB12"/>
<rect width="0.400721" height="0.401385" transform="matrix(0.682739 0.730662 -0.743512 0.668722 12.9209 6.27844)" fill="#F0BB12"/>
<rect width="0.400721" height="0.401385" transform="matrix(0.682739 0.730662 -0.743512 0.668722 13.2217 6.60034)" fill="#F0BB12"/>
<rect width="0.400721" height="0.401385" transform="matrix(0.682739 0.730662 -0.743512 0.668722 14.1248 7.56641)" fill="#F0BB12"/>
<rect width="0.400721" height="0.401385" transform="matrix(0.682739 0.730662 -0.743512 0.668722 13.5225 6.92261)" fill="#F0BB12"/>
<rect width="0.400721" height="0.401385" transform="matrix(0.682739 0.730662 -0.743512 0.668722 14.4255 7.88867)" fill="#F0BB12"/>
<rect width="0.400721" height="0.401385" transform="matrix(0.682739 0.730662 -0.743512 0.668722 13.8237 7.24414)" fill="#F0BB12"/>
<rect width="0.400721" height="0.401385" transform="matrix(0.682739 0.730662 -0.743512 0.668722 11.9907 5.92957)" fill="#F0BB12"/>
<rect width="0.400721" height="0.401385" transform="matrix(0.682739 0.730662 -0.743512 0.668722 12.2915 6.25171)" fill="#F0BB12"/>
<rect width="0.400721" height="0.401385" transform="matrix(0.682739 0.730662 -0.743512 0.668722 12.5928 6.57336)" fill="#F0BB12"/>
<rect width="0.400721" height="0.401385" transform="matrix(0.682739 0.730662 -0.743512 0.668722 11.6624 6.22498)" fill="#F0BB12"/>
<rect width="0.400721" height="0.401385" transform="matrix(0.682739 0.730662 -0.743512 0.668722 11.9634 6.54712)" fill="#F0BB12"/>
<rect width="0.400721" height="0.401385" transform="matrix(0.682739 0.730662 -0.743512 0.668722 11.3342 6.52014)" fill="#F0BB12"/>
<rect width="0.400721" height="0.401385" transform="matrix(0.682739 0.730662 -0.743512 0.668722 11.0059 6.81506)" fill="#F0BB12"/>
<rect width="0.400721" height="0.401385" transform="matrix(0.682739 0.730662 -0.743512 0.668722 10.6775 7.11047)" fill="#F0BB12"/>
<rect width="0.400721" height="0.401385" transform="matrix(0.682739 0.730662 -0.743512 0.668722 10.9785 7.43262)" fill="#F0BB12"/>
<rect width="0.400721" height="0.401385" transform="matrix(0.682739 0.730662 -0.743512 0.668722 11.2793 7.75464)" fill="#F0BB12"/>
<rect width="0.400721" height="0.401385" transform="matrix(0.682739 0.730662 -0.743512 0.668722 11.5803 8.0769)" fill="#F0BB12"/>
<rect width="0.400721" height="0.401385" transform="matrix(0.682739 0.730662 -0.743512 0.668722 12.8137 8.04456)" fill="#F0BB12"/>
<rect width="0.400721" height="0.401385" transform="matrix(0.682739 0.730662 -0.743512 0.668722 12.2417 8.02014)" fill="#F0BB12"/>
<rect width="0.400721" height="0.401385" transform="matrix(0.682739 0.730662 -0.743512 0.668722 13.386 8.06885)" fill="#F0BB12"/>
<rect width="0.400721" height="0.401385" transform="matrix(0.682739 0.730662 -0.743512 0.668722 13.958 8.09338)" fill="#F0BB12"/>
<rect width="0.400721" height="0.401385" transform="matrix(0.682739 0.730662 -0.743512 0.668722 13.085 8.39355)" fill="#F0BB12"/>
<rect width="0.400721" height="0.401385" transform="matrix(0.682739 0.730662 -0.743512 0.668722 12.5129 8.36902)" fill="#F0BB12"/>
<rect width="0.400721" height="0.401385" transform="matrix(0.682739 0.730662 -0.743512 0.668722 13.6572 8.41772)" fill="#F0BB12"/>
<rect width="0.400721" height="0.401385" transform="matrix(0.682739 0.730662 -0.743512 0.668722 14.229 8.44226)" fill="#F0BB12"/>
<rect width="0.400721" height="0.401385" transform="matrix(0.682739 0.730662 -0.743512 0.668722 12.7839 8.71802)" fill="#F0BB12"/>
<rect width="0.400721" height="0.401385" transform="matrix(0.682739 0.730662 -0.743512 0.668722 12.2119 8.69348)" fill="#F0BB12"/>
<rect width="0.400721" height="0.401385" transform="matrix(0.682739 0.730662 -0.743512 0.668722 13.356 8.74219)" fill="#F0BB12"/>
<rect width="0.400721" height="0.401385" transform="matrix(0.682739 0.730662 -0.743512 0.668722 13.928 8.76672)" fill="#F0BB12"/>
<rect width="0.400721" height="0.401385" transform="matrix(0.682739 0.730662 -0.743512 0.668722 11.9114 8.37195)" fill="#F0BB12"/>
<rect width="0.400721" height="0.401385" transform="matrix(0.682739 0.730662 -0.743512 0.668722 11.583 8.66687)" fill="#F0BB12"/>
<rect width="0.400721" height="0.401385" transform="matrix(0.682739 0.730662 -0.743512 0.668722 11.2546 8.96228)" fill="#F0BB12"/>
<rect width="0.400721" height="0.401385" transform="matrix(0.682739 0.730662 -0.743512 0.668722 10.3542 9.2334)" fill="#F0BB12"/>
<rect width="0.400721" height="0.401385" transform="matrix(0.682739 0.730662 -0.743512 0.668722 9.78223 9.20898)" fill="#F0BB12"/>
<rect width="0.400721" height="0.401385" transform="matrix(0.682739 0.730662 -0.743512 0.668722 10.9265 9.25769)" fill="#F0BB12"/>
<rect width="0.400721" height="0.401385" transform="matrix(0.682739 0.730662 -0.743512 0.668722 11.2273 9.57996)" fill="#F0BB12"/>
<rect width="0.400721" height="0.401385" transform="matrix(0.682739 0.730662 -0.743512 0.668722 11.8838 8.98914)" fill="#F0BB12"/>
<rect width="0.400721" height="0.401385" transform="matrix(0.682739 0.730662 -0.743512 0.668722 11.5554 9.28455)" fill="#F0BB12"/>
<rect width="0.400721" height="0.401385" transform="matrix(0.682739 0.730662 0.743512 -0.668722 6.68457 11.8333)" fill="#F0BB12"/>
<rect width="0.400721" height="0.401385" transform="matrix(0.682739 0.730662 0.743512 -0.668722 6.70972 11.2722)" fill="#F0BB12"/>
<rect width="0.400721" height="0.401385" transform="matrix(0.682739 0.730662 0.743512 -0.668722 6.65967 12.3947)" fill="#F0BB12"/>
<rect width="0.400721" height="0.401385" transform="matrix(0.682739 0.730662 0.743512 -0.668722 6.63501 12.9558)" fill="#F0BB12"/>
<rect width="0.400721" height="0.401385" transform="matrix(0.682739 0.730662 0.743512 -0.668722 5.09546 12.1304)" fill="#F0BB12"/>
<rect width="0.400721" height="0.401385" transform="matrix(0.682739 0.730662 0.743512 -0.668722 5.39624 12.4526)" fill="#F0BB12"/>
<rect width="0.400721" height="0.401385" transform="matrix(0.682739 0.730662 0.743512 -0.668722 5.69751 12.7747)" fill="#F0BB12"/>
<rect width="0.400721" height="0.401385" transform="matrix(0.682739 0.730662 0.743512 -0.668722 5.99829 13.0968)" fill="#F0BB12"/>
<rect width="0.400721" height="0.401385" transform="matrix(0.682739 0.730662 0.743512 -0.668722 6.90112 14.063)" fill="#F0BB12"/>
<rect width="0.400721" height="0.401385" transform="matrix(0.682739 0.730662 0.743512 -0.668722 6.29907 13.4185)" fill="#F0BB12"/>
<rect width="0.400721" height="0.401385" transform="matrix(0.682739 0.730662 0.743512 -0.668722 7.20215 14.3849)" fill="#F0BB12"/>
<rect width="0.400721" height="0.401385" transform="matrix(0.682739 0.730662 0.743512 -0.668722 6.60034 13.7407)" fill="#F0BB12"/>
<rect width="0.400721" height="0.401385" transform="matrix(0.682739 0.730662 0.743512 -0.668722 7.50293 14.707)" fill="#F0BB12"/>
<rect width="0.400721" height="0.401385" transform="matrix(0.682739 0.730662 0.743512 -0.668722 5.42383 11.8352)" fill="#F0BB12"/>
<rect width="0.400721" height="0.401385" transform="matrix(0.682739 0.730662 0.743512 -0.668722 5.72461 12.1573)" fill="#F0BB12"/>
<rect width="0.400721" height="0.401385" transform="matrix(0.682739 0.730662 0.743512 -0.668722 6.02588 12.4791)" fill="#F0BB12"/>
<rect width="0.400721" height="0.401385" transform="matrix(0.682739 0.730662 0.743512 -0.668722 5.75195 11.5398)" fill="#F0BB12"/>
<rect width="0.400721" height="0.401385" transform="matrix(0.682739 0.730662 0.743512 -0.668722 6.05298 11.8619)" fill="#F0BB12"/>
<rect width="0.400721" height="0.401385" transform="matrix(0.682739 0.730662 0.743512 -0.668722 6.08032 11.2444)" fill="#F0BB12"/>
<rect width="0.400721" height="0.401385" transform="matrix(0.682739 0.730662 0.743512 -0.668722 6.40869 10.9495)" fill="#F0BB12"/>
<rect width="0.400721" height="0.401385" transform="matrix(0.682739 0.730662 0.743512 -0.668722 6.73657 10.6541)" fill="#F0BB12"/>
<rect width="0.400721" height="0.401385" transform="matrix(0.682739 0.730662 0.743512 -0.668722 7.03784 10.9763)" fill="#F0BB12"/>
<rect width="0.400721" height="0.401385" transform="matrix(0.682739 0.730662 0.743512 -0.668722 7.33887 11.2982)" fill="#F0BB12"/>
<rect width="0.400721" height="0.401385" transform="matrix(0.682739 0.730662 0.743512 -0.668722 7.63965 11.6204)" fill="#F0BB12"/>
<rect width="0.400721" height="0.401385" transform="matrix(0.682739 0.730662 0.743512 -0.668722 7.50049 12.8225)" fill="#F0BB12"/>
<rect width="0.400721" height="0.401385" transform="matrix(0.682739 0.730662 0.743512 -0.668722 7.52539 12.2615)" fill="#F0BB12"/>
<rect width="0.400721" height="0.401385" transform="matrix(0.682739 0.730662 0.743512 -0.668722 7.47559 13.3839)" fill="#F0BB12"/>
<rect width="0.400721" height="0.401385" transform="matrix(0.682739 0.730662 0.743512 -0.668722 7.45068 13.9451)" fill="#F0BB12"/>
<rect width="0.400721" height="0.401385" transform="matrix(0.682739 0.730662 0.743512 -0.668722 7.83105 13.1183)" fill="#F0BB12"/>
<rect width="0.400721" height="0.401385" transform="matrix(0.682739 0.730662 0.743512 -0.668722 7.8562 12.5571)" fill="#F0BB12"/>
<rect width="0.400721" height="0.401385" transform="matrix(0.682739 0.730662 0.743512 -0.668722 7.8064 13.6797)" fill="#F0BB12"/>
<rect width="0.400721" height="0.401385" transform="matrix(0.682739 0.730662 0.743512 -0.668722 7.78149 14.2407)" fill="#F0BB12"/>
<rect width="0.400721" height="0.401385" transform="matrix(0.682739 0.730662 0.743512 -0.668722 8.18677 12.8518)" fill="#F0BB12"/>
<rect width="0.400721" height="0.401385" transform="matrix(0.682739 0.730662 0.743512 -0.668722 8.21167 12.2906)" fill="#F0BB12"/>
<rect width="0.400721" height="0.401385" transform="matrix(0.682739 0.730662 0.743512 -0.668722 8.16187 13.4131)" fill="#F0BB12"/>
<rect width="0.400721" height="0.401385" transform="matrix(0.682739 0.730662 0.743512 -0.668722 8.13696 13.9742)" fill="#F0BB12"/>
<rect width="0.400721" height="0.401385" transform="matrix(0.682739 0.730662 0.743512 -0.668722 7.91064 11.9692)" fill="#F0BB12"/>
<rect width="0.400721" height="0.401385" transform="matrix(0.682739 0.730662 0.743512 -0.668722 8.23926 11.6742)" fill="#F0BB12"/>
<rect width="0.400721" height="0.401385" transform="matrix(0.682739 0.730662 0.743512 -0.668722 8.56738 11.3788)" fill="#F0BB12"/>
<rect width="0.400721" height="0.401385" transform="matrix(0.682739 0.730662 0.743512 -0.668722 8.92041 10.5222)" fill="#F0BB12"/>
<rect width="0.400721" height="0.401385" transform="matrix(0.682739 0.730662 0.743512 -0.668722 8.94531 9.96106)" fill="#F0BB12"/>
<rect width="0.400721" height="0.401385" transform="matrix(0.682739 0.730662 0.743512 -0.668722 8.89551 11.0839)" fill="#F0BB12"/>
<rect width="0.400721" height="0.401385" transform="matrix(0.682739 0.730662 0.743512 -0.668722 9.19653 11.4055)" fill="#F0BB12"/>
<rect width="0.400721" height="0.401385" transform="matrix(0.682739 0.730662 0.743512 -0.668722 8.54028 11.9963)" fill="#F0BB12"/>
<rect width="0.400721" height="0.401385" transform="matrix(0.682739 0.730662 0.743512 -0.668722 8.86816 11.7009)" fill="#F0BB12"/>
<rect width="0.400721" height="0.401385" transform="matrix(0.682739 0.730662 -0.743512 0.668722 10.168 10.21)" fill="#F0BB12"/>
<rect width="0.400721" height="0.401385" transform="matrix(0.682739 0.730662 -0.743512 0.668722 7.40454 7.25232)" fill="#F0BB12"/>
<rect width="0.400721" height="0.401385" transform="matrix(0.682739 0.730662 -0.743512 0.668722 9.15552 6.53931)" fill="#F0BB12"/>
<rect width="0.400721" height="0.401385" transform="matrix(0.682739 0.730662 -0.743512 0.668722 8.55859 7.07654)" fill="#F0BB12"/>
<rect width="0.400721" height="0.401385" transform="matrix(0.682739 0.730662 -0.743512 0.668722 9.10596 7.66235)" fill="#F0BB12"/>
<rect width="0.400721" height="0.401385" transform="matrix(0.682739 0.730662 -0.743512 0.668722 9.72778 6.56384)" fill="#F0BB12"/>
<rect width="0.400721" height="0.401385" transform="matrix(0.682739 0.730662 -0.743512 0.668722 9.13086 7.10095)" fill="#F0BB12"/>
<rect width="0.400721" height="0.401385" transform="matrix(0.682739 0.730662 -0.743512 0.668722 9.67798 7.68628)" fill="#F0BB12"/>
<rect width="0.400721" height="0.401385" transform="matrix(0.682739 0.730662 -0.743512 0.668722 10.2996 6.58887)" fill="#F0BB12"/>
<rect width="0.400721" height="0.401385" transform="matrix(0.682739 0.730662 -0.743512 0.668722 9.70288 7.12537)" fill="#F0BB12"/>
<rect width="0.400721" height="0.401385" transform="matrix(0.682739 0.730662 -0.743512 0.668722 10.25 7.71118)" fill="#F0BB12"/>
<rect width="0.401453" height="0.400652" transform="matrix(0.749497 -0.662007 0.676114 0.736797 6.80347 5.79797)" fill="#F0BB12"/>
<rect width="0.401453" height="0.400652" transform="matrix(0.749497 -0.662007 0.676114 0.736797 7.34521 6.38831)" fill="#F0BB12"/>
<rect width="0.401453" height="0.400652" transform="matrix(0.749497 -0.662007 0.676114 0.736797 7.94702 5.85669)" fill="#F0BB12"/>
<rect width="0.401453" height="0.400652" transform="matrix(0.749497 -0.662007 0.676114 0.736797 6.83325 5.23718)" fill="#F0BB12"/>
<rect width="0.401453" height="0.400652" transform="matrix(0.749497 -0.662007 0.676114 0.736797 7.37524 5.82751)" fill="#F0BB12"/>
<rect width="0.401453" height="0.400652" transform="matrix(0.749497 -0.662007 0.676114 0.736797 7.97705 5.29602)" fill="#F0BB12"/>
<rect width="0.401453" height="0.400652" transform="matrix(0.749497 -0.662007 0.676114 0.736797 6.86328 4.67627)" fill="#F0BB12"/>
<rect width="0.401453" height="0.400652" transform="matrix(0.749497 -0.662007 0.676114 0.736797 7.40527 5.26672)" fill="#F0BB12"/>
<rect width="0.401453" height="0.400652" transform="matrix(0.749497 -0.662007 0.676114 0.736797 8.00684 4.73486)" fill="#F0BB12"/>
<rect width="0.400721" height="0.401385" transform="matrix(-0.682739 -0.730662 0.743512 -0.668722 5.68506 8.51477)" fill="#F0BB12"/>
<rect width="0.400721" height="0.401385" transform="matrix(-0.682739 -0.730662 0.743512 -0.668722 6.28198 7.97827)" fill="#F0BB12"/>
<rect width="0.400721" height="0.401385" transform="matrix(-0.682739 -0.730662 0.743512 -0.668722 5.73486 7.39221)" fill="#F0BB12"/>
<rect width="0.400721" height="0.401385" transform="matrix(-0.682739 -0.730662 0.743512 -0.668722 5.11279 8.49048)" fill="#F0BB12"/>
<rect width="0.400721" height="0.401385" transform="matrix(-0.682739 -0.730662 0.743512 -0.668722 5.70996 7.95361)" fill="#F0BB12"/>
<rect width="0.400721" height="0.401385" transform="matrix(-0.682739 -0.730662 0.743512 -0.668722 5.16284 7.36829)" fill="#F0BB12"/>
<rect width="0.400721" height="0.401385" transform="matrix(-0.682739 -0.730662 0.743512 -0.668722 4.54102 8.46643)" fill="#F0BB12"/>
<rect width="0.400721" height="0.401385" transform="matrix(-0.682739 -0.730662 0.743512 -0.668722 5.13794 7.92944)" fill="#F0BB12"/>
<rect width="0.400721" height="0.401385" transform="matrix(-0.682739 -0.730662 0.743512 -0.668722 4.59058 7.34399)" fill="#F0BB12"/>
<rect width="0.401385" height="0.400721" transform="matrix(-0.743512 0.668722 -0.682739 -0.730662 7.86157 9.22119)" fill="#F0BB12"/>
<rect width="0.401385" height="0.400721" transform="matrix(-0.743512 0.668722 -0.682739 -0.730662 7.31445 8.63586)" fill="#F0BB12"/>
<rect width="0.401385" height="0.400721" transform="matrix(-0.743512 0.668722 -0.682739 -0.730662 6.71777 9.17236)" fill="#F0BB12"/>
<rect width="0.401385" height="0.400721" transform="matrix(-0.743512 0.668722 -0.682739 -0.730662 7.83691 9.78223)" fill="#F0BB12"/>
<rect width="0.401385" height="0.400721" transform="matrix(-0.743512 0.668722 -0.682739 -0.730662 7.28979 9.1969)" fill="#F0BB12"/>
<rect width="0.401385" height="0.400721" transform="matrix(-0.743512 0.668722 -0.682739 -0.730662 6.69287 9.7334)" fill="#F0BB12"/>
<rect width="0.401385" height="0.400721" transform="matrix(-0.743512 0.668722 -0.682739 -0.730662 7.81226 10.3436)" fill="#F0BB12"/>
<rect width="0.401385" height="0.400721" transform="matrix(-0.743512 0.668722 -0.682739 -0.730662 7.26489 9.75793)" fill="#F0BB12"/>
<rect width="0.401385" height="0.400721" transform="matrix(-0.743512 0.668722 -0.682739 -0.730662 6.66821 10.2948)" fill="#F0BB12"/>
<rect width="0.401161" height="0.400945" transform="matrix(0.723641 -0.690177 0.703857 0.710341 9.42578 3.17371)" fill="#F0BB12"/>
<rect width="0.400721" height="0.401385" transform="matrix(-0.682739 -0.730662 0.743512 -0.668722 3.93872 9.77539)" fill="#F0BB12"/>
<rect width="0.401384" height="0.400722" transform="matrix(-0.723239 0.689793 -0.70425 -0.710737 5.40308 10.7418)" fill="#F0BB12"/>
<rect width="0.400721" height="0.401385" transform="matrix(-0.682739 -0.730662 0.743512 -0.668722 4.51074 9.79993)" fill="#F0BB12"/>
<rect width="0.401384" height="0.400722" transform="matrix(-0.723239 0.689793 -0.70425 -0.710737 5.41113 10.1804)" fill="#F0BB12"/>
<rect width="0.400721" height="0.401385" transform="matrix(-0.682739 -0.730662 0.743512 -0.668722 3.3667 9.7511)" fill="#F0BB12"/>
<rect width="0.401384" height="0.400722" transform="matrix(-0.723239 0.689793 -0.70425 -0.710737 5.39478 11.304)" fill="#F0BB12"/>
<rect width="0.400721" height="0.401385" transform="matrix(-0.682739 -0.730662 0.743512 -0.668722 2.79443 9.72668)" fill="#F0BB12"/>
<rect width="0.400721" height="0.401385" transform="matrix(-0.682739 -0.730662 0.743512 -0.668722 3.62036 11.1392)" fill="#F0BB12"/>
<rect width="0.401384" height="0.400722" transform="matrix(-0.723239 0.689793 -0.70425 -0.710737 5.38696 11.8652)" fill="#F0BB12"/>
</svg>
