<svg width="96" height="39" viewBox="0 0 96 39" fill="none" xmlns="http://www.w3.org/2000/svg">
<g filter="url(#filter0_dd_2001_104)">
<path d="M43.7619 1.32491C43.7619 1.13574 43.7819 0.989564 43.8221 0.886379H41.4488C41.489 0.989564 41.509 1.13574 41.509 1.32491V6.34655L41.5176 6.62171C41.5176 6.74783 41.5004 6.84241 41.466 6.90547C41.4316 6.96853 41.36 7.00005 41.2511 7.00005H40.2192V6.91407H40.2278C40.3597 6.91407 40.4485 6.86821 40.4944 6.77649C40.5402 6.68477 40.5632 6.52999 40.5632 6.31216V1.31631C40.5632 1.12714 40.5144 0.980965 40.417 0.877781C40.3253 0.768864 40.2049 0.714405 40.0558 0.714405H40.0472V0.628418H45.2237V0.714405H45.2151C45.066 0.714405 44.9428 0.768864 44.8453 0.877781C44.7536 0.980965 44.7077 1.12714 44.7077 1.31631V6.32076C44.7077 6.53859 44.7307 6.69337 44.7765 6.78509C44.8224 6.87681 44.9112 6.92267 45.0431 6.92267H45.0517V7.00865H44.0198C43.9109 7.00865 43.8393 6.97712 43.8049 6.91407C43.7705 6.85101 43.7533 6.75642 43.7533 6.63031L43.7619 6.35515V1.32491Z" fill="#333333"/>
<path d="M47.1279 9.24431C47.0362 9.12966 46.9904 8.98062 46.9904 8.79718L46.999 8.53062V3.16503C46.999 2.97586 46.9646 2.82969 46.8958 2.7265C46.8327 2.61758 46.7267 2.52586 46.5776 2.45134H47.4203C47.5579 2.45134 47.6496 2.48287 47.6955 2.54593C47.7413 2.60325 47.7642 2.72077 47.7642 2.89847C47.7642 3.01312 47.7614 3.10771 47.7556 3.18223V3.19083C47.7556 3.42013 47.7528 3.54051 47.747 3.55198C47.747 3.55771 47.7499 3.56631 47.7556 3.57777C47.7671 3.58924 47.7786 3.59497 47.79 3.59497C47.8072 3.59497 47.8273 3.5835 47.8502 3.56057L47.9362 3.47459C48.1942 3.22236 48.4063 3.03032 48.5725 2.89847C48.7388 2.76663 48.9279 2.66058 49.14 2.58032C49.3579 2.49434 49.6044 2.45134 49.8795 2.45134C50.1203 2.45134 50.3267 2.5144 50.4986 2.64051C50.6706 2.7609 50.7996 2.90994 50.8856 3.08765C50.9773 3.26535 51.0289 3.43733 51.0403 3.60357V3.68096C51.0403 4.0421 50.8999 4.40898 50.619 4.78159C50.3381 5.1542 49.8795 5.49528 49.2432 5.80483C49.2547 5.95388 49.3091 6.11152 49.4066 6.27776C49.5098 6.43827 49.6359 6.57299 49.7849 6.6819C49.934 6.79082 50.0888 6.84528 50.2493 6.84528C50.0601 6.95419 49.848 7.00865 49.613 7.00865C49.4869 7.00865 49.3722 6.99432 49.269 6.96566C49.1429 6.93126 49.0197 6.85101 48.8993 6.7249C48.7789 6.59878 48.6155 6.40388 48.4091 6.14018L48.2544 5.93382C48.6499 5.86503 48.9881 5.71025 49.269 5.46949C49.5556 5.22299 49.7706 4.93923 49.9139 4.61821C50.0572 4.2972 50.1289 3.98478 50.1289 3.68096C50.1289 3.41726 50.0716 3.2023 49.9569 3.03605C49.848 2.86408 49.6904 2.77809 49.484 2.77809C49.398 2.77809 49.3177 2.78956 49.2432 2.81249C48.6986 2.96726 48.3375 3.36567 48.1598 4.00771C47.9821 4.64974 47.8932 5.30611 47.8932 5.97681V8.53062C47.8932 8.651 47.9248 8.78285 47.9878 8.92616C48.0566 9.07521 48.1627 9.18126 48.306 9.24431H47.1279Z" fill="#333333"/>
<path d="M54.0019 7.06884C53.6522 7.06884 53.3168 6.96279 52.9958 6.75069C52.6805 6.53859 52.4226 6.25483 52.2219 5.89942C52.027 5.53828 51.9296 5.15133 51.9296 4.7386C51.9296 4.32013 52.027 3.93032 52.2219 3.56917C52.4226 3.2023 52.6805 2.91281 52.9958 2.7007C53.3168 2.4886 53.6522 2.38255 54.0019 2.38255C54.3458 2.38255 54.6754 2.4886 54.9907 2.7007C55.3117 2.91281 55.5697 3.2023 55.7646 3.56917C55.9652 3.93032 56.0655 4.32013 56.0655 4.7386C56.0655 5.15133 55.9681 5.53828 55.7732 5.89942C55.5783 6.25483 55.3203 6.53859 54.9993 6.75069C54.684 6.96279 54.3515 7.06884 54.0019 7.06884ZM52.9958 6.10579C52.9958 6.27203 53.056 6.41534 53.1764 6.53572C53.3025 6.65611 53.4343 6.7163 53.5719 6.7163C53.6636 6.7163 53.7468 6.6905 53.8213 6.63891C53.9015 6.58732 53.9617 6.51853 54.0019 6.43254C54.042 6.51853 54.0993 6.58732 54.1738 6.63891C54.2484 6.6905 54.3315 6.7163 54.4232 6.7163C54.5608 6.7163 54.6869 6.65611 54.8015 6.53572C54.9219 6.41534 54.9821 6.27203 54.9821 6.10579V3.32841C54.9821 3.1679 54.9219 3.02459 54.8015 2.89847C54.6869 2.77236 54.5608 2.7093 54.4232 2.7093C54.3372 2.7093 54.2541 2.73797 54.1738 2.79529C54.0993 2.84688 54.042 2.91567 54.0019 3.00166C53.9617 2.91567 53.9015 2.84688 53.8213 2.79529C53.741 2.73797 53.6579 2.7093 53.5719 2.7093C53.4343 2.7093 53.3025 2.77236 53.1764 2.89847C53.056 3.02459 52.9958 3.1679 52.9958 3.32841V6.10579Z" fill="#333333"/>
<path d="M11.2892 24.7682C10.4275 24.7682 9.65053 24.5492 8.95833 24.1113C8.28026 23.6593 7.75052 23.0872 7.36911 22.395C7.00182 21.7028 6.81818 21.0035 6.81818 20.2972C6.81818 19.4355 7.07951 18.6868 7.60219 18.0511C8.139 17.4013 8.9442 17.0764 10.0178 17.0764L6.7758 10.6347C6.57803 10.1827 6.28137 9.82244 5.88583 9.55403C5.49029 9.28563 5.09475 9.15143 4.69921 9.15143H4.67802L4.59326 8.93953H7.36911C7.7929 8.93953 8.16019 9.08786 8.47097 9.38452C8.78175 9.66705 9.06428 10.0908 9.31855 10.6559L12.2427 16.3771L14.9126 11.228C15.0539 10.9596 15.1245 10.7053 15.1245 10.4652C15.1245 9.84363 14.6583 9.33507 13.726 8.93953H16.1416C16.297 9.09492 16.41 9.24325 16.4807 9.38452C16.5654 9.52578 16.6078 9.70236 16.6078 9.91426C16.6078 10.225 16.3959 10.776 15.9721 11.5671C15.5483 12.344 14.9197 13.4176 14.0862 14.7879C13.4223 15.8756 12.9773 16.6314 12.7513 17.0552C13.7684 17.0552 14.5312 17.3518 15.0398 17.9451C15.5624 18.5384 15.8238 19.2518 15.8238 20.0853C15.8238 20.8057 15.626 21.5333 15.2305 22.2678C14.8349 22.9883 14.284 23.5886 13.5777 24.0689C12.8855 24.5351 12.1227 24.7682 11.2892 24.7682ZM8.74643 20.721C8.74643 21.837 8.96539 22.6846 9.40331 23.2637C9.84123 23.8429 10.4699 24.1325 11.2892 24.1325C11.9814 24.1325 12.5676 23.85 13.0479 23.2849C13.5424 22.7199 13.8037 21.9288 13.832 20.9117C13.8602 20.0641 13.7754 19.3578 13.5777 18.7927C13.394 18.2277 13.0479 17.9451 12.5394 17.9451C12.2851 17.9451 12.0732 18.0511 11.9037 18.263C11.7483 18.4749 11.5858 18.7715 11.4163 19.1529C11.3174 18.828 11.155 18.5455 10.929 18.3054C10.7029 18.0652 10.4557 17.9451 10.1873 17.9451C9.70703 17.9451 9.34681 18.2277 9.10666 18.7927C8.86651 19.3437 8.74643 19.9864 8.74643 20.721Z" fill="#333333"/>
<path d="M29.8065 30.3623C29.2414 30.3623 28.754 30.1151 28.3444 29.6206C28.0053 29.2251 27.7299 28.8507 27.518 28.4976C27.3061 28.1585 27.1083 27.5652 26.9247 26.7177C26.741 25.8701 26.6492 24.74 26.6492 23.3273V23.2214C26.6492 22.1901 26.4726 21.1095 26.1195 19.9793C25.7804 18.8351 25.0812 18.263 24.0217 18.263C23.7815 18.263 23.5767 18.2912 23.4072 18.3477C23.2377 18.3901 23.0328 18.4678 22.7927 18.5808C22.8916 17.6202 23.1953 16.7373 23.7038 15.9321C24.2265 15.1128 24.8905 14.47 25.6957 14.0039C26.5009 13.5236 27.3626 13.2834 28.2808 13.2834C28.4362 13.2834 28.6693 13.2975 28.9801 13.3258C28.7823 13.6931 28.6057 14.2087 28.4503 14.8726C28.3091 15.5366 28.2384 16.1723 28.2384 16.7797C28.083 16.2288 27.8429 15.7838 27.518 15.4448C27.2072 15.0916 26.741 14.915 26.1195 14.915C25.7239 14.915 25.3637 15.0139 25.0388 15.2117C24.7139 15.3953 24.4525 15.6425 24.2548 15.9533C24.0711 16.2641 23.9793 16.5819 23.9793 16.9068C23.9793 17.147 24.0076 17.3518 24.0641 17.5213C24.1347 17.6909 24.2477 17.7756 24.4031 17.7756L25.4414 17.7544C26.402 17.7403 27.1224 17.9239 27.6027 18.3054C28.083 18.6726 28.3868 19.1176 28.5139 19.6403C28.641 20.1489 28.7046 20.7351 28.7046 21.399C28.7046 21.5827 28.6693 21.8652 28.5987 22.2466C28.5421 22.6139 28.5068 22.8611 28.4927 22.9883C28.2102 24.5281 28.0689 25.7147 28.0689 26.5481C28.0689 27.5511 28.2314 28.3493 28.5563 28.9426C28.7964 29.3805 29.1001 29.5994 29.4674 29.5994C29.8912 29.5994 30.3009 29.3734 30.6964 28.9214C31.092 28.4693 31.4098 27.8901 31.65 27.1838C31.9042 26.4916 32.0384 25.8136 32.0526 25.1496L32.0738 25.2556C32.0738 26.2585 31.9466 27.2756 31.6923 28.3069C31.4381 29.3381 31.0284 29.9809 30.4633 30.2351C30.2514 30.3199 30.0325 30.3623 29.8065 30.3623ZM18.8726 8.66407H21.3094C21.705 8.66407 21.9804 8.8124 22.1358 9.10905C22.2912 9.39158 22.3689 9.81537 22.3689 10.3804V22.9035C22.3689 23.4403 22.4254 23.8217 22.5384 24.0478C22.6514 24.2738 22.8704 24.3868 23.1953 24.3868H23.2165V24.5987H20.7797C20.5113 24.5987 20.3347 24.521 20.2499 24.3656C20.1652 24.2102 20.1228 23.9771 20.1228 23.6663L20.144 22.9883V10.3592C20.144 9.89307 20.0239 9.53284 19.7838 9.27857C19.5577 9.01017 19.2611 8.87596 18.8938 8.87596H18.8726V8.66407Z" fill="#333333"/>
<path d="M34.1344 30.1292C33.9084 29.8467 33.7954 29.4794 33.7954 29.0273L33.8166 28.3704V15.1481C33.8166 14.6819 33.7318 14.3217 33.5623 14.0674C33.4069 13.799 33.1456 13.573 32.7783 13.3894H34.8549C35.1939 13.3894 35.42 13.4671 35.533 13.6224C35.646 13.7637 35.7025 14.0533 35.7025 14.4912C35.7025 14.7738 35.6954 15.0068 35.6813 15.1905V15.2117C35.6813 15.7767 35.6742 16.0734 35.6601 16.1016C35.6601 16.1158 35.6672 16.137 35.6813 16.1652C35.7095 16.1935 35.7378 16.2076 35.7661 16.2076C35.8084 16.2076 35.8579 16.1793 35.9144 16.1228L36.1263 15.9109C36.762 15.2894 37.2846 14.8161 37.6943 14.4912C38.104 14.1663 38.5701 13.905 39.0928 13.7072C39.6296 13.4953 40.2371 13.3894 40.9151 13.3894C41.5084 13.3894 42.017 13.5448 42.4408 13.8555C42.8646 14.1522 43.1824 14.5195 43.3943 14.9574C43.6203 15.3953 43.7475 15.8191 43.7757 16.2288V16.4195C43.7757 17.3094 43.4296 18.2135 42.7374 19.1318C42.0453 20.05 40.9151 20.8905 39.3471 21.6533C39.3754 22.0206 39.5096 22.4091 39.7497 22.8188C40.004 23.2143 40.3148 23.5463 40.6821 23.8147C41.0493 24.0831 41.4308 24.2173 41.8263 24.2173C41.3601 24.4857 40.8374 24.6199 40.2583 24.6199C39.9475 24.6199 39.6649 24.5846 39.4107 24.5139C39.0999 24.4292 38.7962 24.2314 38.4995 23.9206C38.2029 23.6098 37.8003 23.1295 37.2917 22.4797L36.9103 21.9712C37.885 21.8017 38.7185 21.4202 39.4107 20.8269C40.117 20.2195 40.6467 19.5202 40.9999 18.7292C41.3531 17.9381 41.5296 17.1682 41.5296 16.4195C41.5296 15.7697 41.3884 15.2399 41.1058 14.8303C40.8374 14.4065 40.449 14.1946 39.9404 14.1946C39.7285 14.1946 39.5307 14.2228 39.3471 14.2793C38.0051 14.6607 37.1151 15.6425 36.6772 17.2247C36.2393 18.8068 36.0203 20.4243 36.0203 22.0771V28.3704C36.0203 28.6671 36.098 28.992 36.2534 29.3452C36.4229 29.7125 36.6843 29.9738 37.0374 30.1292H34.1344Z" fill="#333333"/>
<path d="M43.9204 24.6411C44.2736 24.3727 44.5279 24.1113 44.6833 23.857C44.8386 23.5886 44.9305 23.3344 44.9587 23.0942C45.0011 22.8399 45.0223 22.508 45.0223 22.0983C45.0364 21.3637 45.1141 20.6927 45.2554 20.0853C45.4108 19.4779 45.771 18.7433 46.336 17.8816C46.6751 17.3871 47.0494 16.928 47.4591 16.5042C47.8688 16.0663 48.3561 15.6072 48.9212 15.1269C48.6952 14.576 48.4126 14.1804 48.0736 13.9403C47.7346 13.7001 47.3178 13.5801 46.8234 13.5801H46.8022L46.7387 13.3682H49.7476C50.355 13.3682 50.8989 13.912 51.3792 14.9998L51.5487 15.4659L51.697 15.8897L54.1762 22.6492L54.3034 22.9671C54.3457 23.066 54.4234 23.2637 54.5364 23.5604C54.6495 23.857 54.706 24.0831 54.706 24.2385C54.706 24.3656 54.6706 24.4574 54.6 24.5139C54.5435 24.5704 54.4305 24.5987 54.261 24.5987H51.7606L51.697 24.3868H51.7182C51.9019 24.3868 52.0361 24.3585 52.1208 24.302C52.2056 24.2314 52.248 24.1184 52.248 23.963C52.248 23.8076 52.1491 23.4474 51.9513 22.8823L50.6375 19.386C50.4256 20.5727 50.0372 21.505 49.4721 22.1831C48.9212 22.8611 48.229 23.3838 47.3955 23.7511C46.5762 24.1043 45.4461 24.4645 44.0052 24.8318L43.9204 24.6411ZM46.8658 23.2002C47.4167 23.0448 47.9323 22.734 48.4126 22.2678C48.8929 21.7875 49.2814 21.2083 49.5781 20.5303C49.8747 19.8381 50.023 19.1106 50.023 18.3477V18.0299C50.023 17.7897 49.9242 17.4083 49.7264 16.8857C49.5286 16.3488 49.3591 15.9886 49.2178 15.805C48.9918 15.918 48.7164 16.1793 48.3914 16.589C48.0807 16.9845 47.7981 17.479 47.5439 18.0723C47.3037 18.6656 47.1554 19.273 47.0989 19.8946C47.0848 20.0217 47.0777 20.2054 47.0777 20.4455L47.0989 21.1236C47.113 21.2648 47.1201 21.4697 47.1201 21.7381C47.1201 22.2749 47.0353 22.7623 46.8658 23.2002Z" fill="#333333"/>
<path d="M59.1672 12.7749C58.8706 12.7749 58.5103 12.7678 58.0865 12.7537C57.6769 12.7254 57.3732 12.6901 57.1754 12.6477C57.5003 12.45 57.7122 12.2381 57.8111 12.012C57.91 11.786 57.9876 11.4894 58.0442 11.1221C58.0865 10.7972 58.143 10.5217 58.2137 10.2957C58.2984 10.0696 58.4468 9.84363 58.6587 9.6176C58.8564 9.40571 59.2025 9.215 59.6969 9.04548C60.2055 8.86184 60.7352 8.77002 61.2862 8.77002C60.8765 8.98191 60.5798 9.22913 60.3962 9.51165C60.2267 9.78006 60.1137 10.1262 60.0572 10.5499C60.0148 10.8607 59.923 11.1574 59.7817 11.4399C59.6404 11.7083 59.4639 11.9343 59.252 12.118C59.0966 12.2451 58.8494 12.344 58.5103 12.4146C58.1854 12.4711 58.0724 12.4994 58.1713 12.4994C58.2843 12.5135 58.4891 12.5206 58.7858 12.5206C59.6616 12.5206 60.262 12.3934 60.5869 12.1392C61.039 11.8284 61.3286 11.2986 61.4557 10.5499C61.5122 10.0979 61.7241 9.68823 62.0914 9.32095C62.4728 8.95366 62.9813 8.77002 63.617 8.77002H63.6806C63.3698 8.95366 63.1721 9.1373 63.0873 9.32095C63.0167 9.50459 62.9672 9.76593 62.939 10.105L62.8966 10.5499C62.7836 11.2986 62.3598 11.8566 61.6252 12.2239C60.9048 12.5912 60.0854 12.7749 59.1672 12.7749ZM57.7475 13.3682H60.1843C60.5799 13.3682 60.8553 13.5165 61.0107 13.8132C61.1661 14.0957 61.2438 14.5195 61.2438 15.0845V22.9035C61.2438 23.4403 61.3003 23.8217 61.4133 24.0478C61.5263 24.2738 61.7453 24.3868 62.0702 24.3868H62.0914V24.5987H59.6546C59.3862 24.5987 59.2096 24.521 59.1248 24.3656C59.0401 24.2102 58.9977 23.9771 58.9977 23.6663L59.0189 22.9883V15.0633C59.0189 14.5972 58.8988 14.2369 58.6587 13.9827C58.4326 13.7143 58.136 13.5801 57.7687 13.5801H57.7475V13.3682Z" fill="#333333"/>
<path d="M74.7241 21.5686C74.6252 21.2013 74.3709 20.7704 73.9612 20.276C73.5516 19.7816 73.0642 19.3507 72.4991 18.9834C72.0188 18.6585 71.5739 18.27 71.1642 17.818C70.7687 17.366 70.4579 16.8927 70.2318 16.3983V22.9883L70.253 23.6663C70.253 23.9771 70.2107 24.2102 70.1259 24.3656C70.0411 24.521 69.8646 24.5987 69.5962 24.5987H67.1593V24.3868H67.1805C67.5054 24.3868 67.7244 24.2738 67.8374 24.0478C67.9504 23.8217 68.0069 23.4403 68.0069 22.9035V15.0633C68.0069 14.5972 67.8869 14.2369 67.6467 13.9827C67.4207 13.7143 67.124 13.5801 66.7567 13.5801H66.7356V13.3682H69.1724C69.5679 13.3682 69.8434 13.5165 69.9988 13.8132C70.1542 14.0957 70.2318 14.5195 70.2318 15.0845C70.359 15.579 70.5921 16.0028 70.9311 16.3559C71.2701 16.6949 71.7292 17.0693 72.3084 17.479L72.6051 17.6909C73.0854 18.0299 73.5162 18.4678 73.8977 19.0046C74.2791 19.5414 74.5545 20.0429 74.7241 20.5091V15.0845C74.7241 14.5195 74.8017 14.0957 74.9571 13.8132C75.1125 13.5165 75.388 13.3682 75.7835 13.3682H78.2203V13.5801H78.1992C77.8319 13.5801 77.5282 13.7143 77.288 13.9827C77.062 14.2369 76.949 14.5972 76.949 15.0633V22.9035C76.949 23.4403 77.0055 23.8217 77.1185 24.0478C77.2315 24.2738 77.4505 24.3868 77.7754 24.3868H77.7966V24.5987H75.3597C75.0913 24.5987 74.9148 24.521 74.83 24.3656C74.7452 24.2102 74.7029 23.9771 74.7029 23.6663L74.7241 22.9883V21.5686Z" fill="#333333"/>
<path d="M85.5993 28.879C85.4863 28.879 85.3027 28.8649 85.0484 28.8366C84.3986 28.766 83.8264 28.547 83.332 28.1797C82.8517 27.8125 82.4844 27.3604 82.2302 26.8236C81.99 26.2868 81.8699 25.7288 81.8699 25.1496C81.8699 24.3444 82.1171 23.6593 82.6116 23.0942C83.106 22.5292 83.8123 22.2466 84.7305 22.2466C84.8294 22.2466 85.0343 22.2608 85.345 22.289C85.5852 22.3455 86.0302 22.508 86.68 22.7764C87.019 22.9318 87.2168 23.0095 87.2733 23.0095C86.8495 21.4556 86.3621 20.1842 85.8112 19.1953C85.2603 18.2065 84.5116 17.2953 83.5651 16.4619C83.2684 16.2076 82.9223 15.9816 82.5268 15.7838C82.1454 15.586 81.764 15.4871 81.3826 15.4871C81.0718 15.4871 80.7893 15.5648 80.535 15.7202L82.6963 13.8555C82.7387 13.8414 82.8093 13.8343 82.9082 13.8343C83.6004 13.8343 84.4409 14.2581 85.4298 15.1057C86.4186 15.9533 87.2804 17.1399 88.0149 18.6656C88.7495 20.1771 89.1168 21.9005 89.1168 23.8359C89.1168 24.189 89.1097 24.4574 89.0956 24.6411C87.8101 23.7228 86.6517 23.2637 85.6205 23.2637C84.8435 23.2637 84.2361 23.518 83.7982 24.0266C83.3744 24.521 83.1625 25.1143 83.1625 25.8065C83.1625 26.3857 83.325 26.9013 83.6499 27.3533C83.9748 27.8195 84.4409 28.1162 85.0484 28.2433C85.2744 28.2998 85.5216 28.3281 85.79 28.3281C86.8636 28.3281 87.7465 27.8407 88.4387 26.866C89.145 25.9054 89.6607 24.6976 89.9856 23.2425C90.3105 21.7734 90.4729 20.276 90.4729 18.7503C90.4729 17.7191 90.3952 16.8009 90.2398 15.9957C90.0986 15.1764 89.9079 14.6042 89.6677 14.2793C89.4276 13.912 89.2086 13.6578 89.0108 13.5165C88.8272 13.3752 88.6789 13.2834 88.5659 13.241C88.4529 13.1987 88.3822 13.1704 88.354 13.1563C88.2833 13.128 88.5376 13.015 89.1168 12.8172C89.696 12.6053 90.0845 12.4994 90.2822 12.4994C90.4235 12.4994 90.5577 12.7395 90.6848 13.2198C90.812 13.686 90.9179 14.3288 91.0027 15.1481C91.0874 15.9533 91.1298 16.8221 91.1298 17.7544C91.1298 19.5767 90.9532 21.3284 90.6001 23.0095C90.261 24.6764 89.6819 26.0678 88.8625 27.1838C88.0432 28.3139 86.9554 28.879 85.5993 28.879Z" fill="#333333"/>
</g>
<defs>
<filter id="filter0_dd_2001_104" x="0.593262" y="0.628418" width="94.5366" height="37.7339" filterUnits="userSpaceOnUse" color-interpolation-filters="sRGB">
<feFlood flood-opacity="0" result="BackgroundImageFix"/>
<feColorMatrix in="SourceAlpha" type="matrix" values="0 0 0 0 0 0 0 0 0 0 0 0 0 0 0 0 0 0 127 0" result="hardAlpha"/>
<feOffset dy="4"/>
<feGaussianBlur stdDeviation="2"/>
<feComposite in2="hardAlpha" operator="out"/>
<feColorMatrix type="matrix" values="0 0 0 0 0 0 0 0 0 0 0 0 0 0 0 0 0 0 0.25 0"/>
<feBlend mode="normal" in2="BackgroundImageFix" result="effect1_dropShadow_2001_104"/>
<feColorMatrix in="SourceAlpha" type="matrix" values="0 0 0 0 0 0 0 0 0 0 0 0 0 0 0 0 0 0 127 0" result="hardAlpha"/>
<feOffset dy="4"/>
<feGaussianBlur stdDeviation="2"/>
<feComposite in2="hardAlpha" operator="out"/>
<feColorMatrix type="matrix" values="0 0 0 0 0 0 0 0 0 0 0 0 0 0 0 0 0 0 0.25 0"/>
<feBlend mode="normal" in2="effect1_dropShadow_2001_104" result="effect2_dropShadow_2001_104"/>
<feBlend mode="normal" in="SourceGraphic" in2="effect2_dropShadow_2001_104" result="shape"/>
</filter>
</defs>
</svg>
