<svg width="154" height="380" viewBox="0 0 154 380" fill="none" xmlns="http://www.w3.org/2000/svg">
<path d="M78.5005 351.695L75.4015 354.309L72.7874 351.21L75.8863 348.596L78.5005 351.695Z" fill="#E2E2E2"/>
<path d="M78.9853 345.981L75.8863 348.596L73.2723 345.496L76.3712 342.882L78.9853 345.981Z" fill="#E2E2E2"/>
<path d="M78.016 357.407L74.9171 360.021L72.303 356.922L75.4019 354.308L78.016 357.407Z" fill="#E2E2E2"/>
<path d="M77.5311 363.121L74.4322 365.735L71.8181 362.636L74.9171 360.021L77.5311 363.121Z" fill="#E2E2E2"/>
<path d="M93.896 356.74L90.7971 359.354L88.1829 356.255L91.2818 353.641L93.896 356.74Z" fill="#E2E2E2"/>
<path d="M90.4876 359.615L87.3887 362.229L84.7746 359.13L87.8735 356.516L90.4876 359.615Z" fill="#E2E2E2"/>
<path d="M87.0785 362.491L83.9795 365.105L81.3654 362.006L84.4643 359.392L87.0785 362.491Z" fill="#E2E2E2"/>
<path d="M83.6697 365.367L80.5708 367.981L77.9567 364.882L81.0556 362.268L83.6697 365.367Z" fill="#E2E2E2"/>
<path d="M73.4434 373.994L70.3445 376.608L67.7304 373.509L70.8293 370.895L73.4434 373.994Z" fill="#E2E2E2"/>
<path d="M80.2609 368.242L77.162 370.856L74.5479 367.757L77.6468 365.143L80.2609 368.242Z" fill="#E2E2E2"/>
<path d="M70.0346 376.869L66.9357 379.483L64.3216 376.384L67.4205 373.77L70.0346 376.869Z" fill="#E2E2E2"/>
<path d="M76.8521 371.118L73.7532 373.732L71.1391 370.633L74.238 368.019L76.8521 371.118Z" fill="#E2E2E2"/>
<path d="M91.0207 353.331L87.9218 355.945L85.3077 352.846L88.4066 350.232L91.0207 353.331Z" fill="#E2E2E2"/>
<path d="M87.612 356.207L84.5131 358.821L81.8989 355.722L84.9978 353.108L87.612 356.207Z" fill="#E2E2E2"/>
<path d="M84.2032 359.083L81.1043 361.697L78.4902 358.598L81.5891 355.984L84.2032 359.083Z" fill="#E2E2E2"/>
<path d="M88.145 349.923L85.0461 352.537L82.432 349.438L85.5309 346.824L88.145 349.923Z" fill="#E2E2E2"/>
<path d="M84.7362 352.798L81.6373 355.413L79.0232 352.314L82.1221 349.7L84.7362 352.798Z" fill="#E2E2E2"/>
<path d="M85.2697 346.513L82.1708 349.127L79.5567 346.029L82.6556 343.414L85.2697 346.513Z" fill="#E2E2E2"/>
<path d="M82.394 343.104L79.2951 345.718L76.681 342.619L79.7799 340.005L82.394 343.104Z" fill="#E2E2E2"/>
<path d="M79.5188 339.696L76.4199 342.31L73.8057 339.211L76.9046 336.597L79.5188 339.696Z" fill="#E2E2E2"/>
<path d="M76.1096 342.572L73.0107 345.186L70.3966 342.087L73.4955 339.473L76.1096 342.572Z" fill="#E2E2E2"/>
<path d="M72.7008 345.447L69.6019 348.061L66.9877 344.962L70.0866 342.348L72.7008 345.447Z" fill="#E2E2E2"/>
<path d="M69.292 348.323L66.1931 350.937L63.579 347.838L66.6779 345.224L69.292 348.323Z" fill="#E2E2E2"/>
<path d="M69.1068 360.678L66.0079 363.293L63.3938 360.194L66.4927 357.579L69.1068 360.678Z" fill="#E2E2E2"/>
<path d="M69.5917 354.965L66.4927 357.579L63.8787 354.481L66.9776 351.867L69.5917 354.965Z" fill="#E2E2E2"/>
<path d="M68.622 366.391L65.5231 369.005L62.9089 365.906L66.0079 363.293L68.622 366.391Z" fill="#E2E2E2"/>
<path d="M68.1375 372.105L65.0386 374.719L62.4245 371.62L65.5231 369.005L68.1375 372.105Z" fill="#E2E2E2"/>
<path d="M65.4368 363.244L62.3379 365.858L59.7238 362.759L62.8227 360.145L65.4368 363.244Z" fill="#E2E2E2"/>
<path d="M65.9217 357.531L62.8227 360.145L60.2086 357.046L63.3075 354.432L65.9217 357.531Z" fill="#E2E2E2"/>
<path d="M64.9519 368.958L61.853 371.572L59.2389 368.473L62.3379 365.858L64.9519 368.958Z" fill="#E2E2E2"/>
<path d="M64.467 374.67L61.3681 377.284L58.754 374.185L61.8529 371.571L64.467 374.67Z" fill="#E2E2E2"/>
<path d="M62.2514 360.097L59.1525 362.711L56.5384 359.613L59.6373 356.998L62.2514 360.097Z" fill="#E2E2E2"/>
<path d="M62.7359 354.384L59.6373 356.998L57.0228 353.9L60.1217 351.286L62.7359 354.384Z" fill="#E2E2E2"/>
<path d="M61.7666 365.81L58.6677 368.424L56.0535 365.325L59.1525 362.711L61.7666 365.81Z" fill="#E2E2E2"/>
<path d="M61.2817 371.524L58.1828 374.138L55.5687 371.039L58.6677 368.424L61.2817 371.524Z" fill="#E2E2E2"/>
<path d="M66.1447 351.508L63.0458 354.123L60.4317 351.024L63.5306 348.41L66.1447 351.508Z" fill="#E2E2E2"/>
<path d="M63.2691 348.099L60.1702 350.713L57.556 347.614L60.6549 345L63.2691 348.099Z" fill="#E2E2E2"/>
<path d="M60.3938 344.69L57.2948 347.304L54.6807 344.205L57.7796 341.591L60.3938 344.69Z" fill="#E2E2E2"/>
<path d="M58.003 335.569L54.904 338.183L52.2899 335.084L55.3888 332.47L58.003 335.569Z" fill="#E2E2E2"/>
<path d="M58.4878 329.855L55.3888 332.47L52.7748 329.37L55.8737 326.756L58.4878 329.855Z" fill="#E2E2E2"/>
<path d="M57.5181 341.282L54.4192 343.896L51.8051 340.797L54.904 338.183L57.5181 341.282Z" fill="#E2E2E2"/>
<path d="M54.1093 344.157L51.0104 346.771L48.3963 343.672L51.4952 341.058L54.1093 344.157Z" fill="#E2E2E2"/>
<path d="M59.8603 350.974L56.7614 353.588L54.1473 350.489L57.2462 347.875L59.8603 350.974Z" fill="#E2E2E2"/>
<path d="M56.985 347.566L53.8861 350.18L51.272 347.081L54.3709 344.467L56.985 347.566Z" fill="#E2E2E2"/>
<path d="M33.015 297.773L29.9161 300.387L32.5302 303.486L35.6291 300.871L33.015 297.773Z" fill="#E2E2E2"/>
<path d="M38.7278 298.258L35.6291 300.871L38.243 303.971L41.342 301.357L38.7278 298.258Z" fill="#E2E2E2"/>
<path d="M27.3018 297.288L24.2028 299.902L26.817 303.001L29.9161 300.387L27.3018 297.288Z" fill="#E2E2E2"/>
<path d="M21.5889 296.804L18.4899 299.418L21.1041 302.517L24.2028 299.902L21.5889 296.804Z" fill="#E2E2E2"/>
<path d="M30.6348 281.745L27.5359 284.359L30.15 287.458L33.2489 284.844L30.6348 281.745Z" fill="#E2E2E2"/>
<path d="M27.2259 284.621L24.127 287.235L26.7411 290.334L29.84 287.72L27.2259 284.621Z" fill="#E2E2E2"/>
<path d="M23.8171 287.497L20.7182 290.111L23.3323 293.21L26.4313 290.596L23.8171 287.497Z" fill="#E2E2E2"/>
<path d="M20.4084 290.372L17.3095 292.986L19.9236 296.085L23.0225 293.471L20.4084 290.372Z" fill="#E2E2E2"/>
<path d="M10.1821 298.999L7.08315 301.613L9.69727 304.712L12.7962 302.098L10.1821 298.999Z" fill="#E2E2E2"/>
<path d="M16.9996 293.248L13.9007 295.862L16.5148 298.961L19.6137 296.347L16.9996 293.248Z" fill="#E2E2E2"/>
<path d="M6.7733 301.875L3.6744 304.489L6.28852 307.588L9.38743 304.974L6.7733 301.875Z" fill="#E2E2E2"/>
<path d="M13.5909 296.123L10.492 298.737L13.1061 301.836L16.205 299.222L13.5909 296.123Z" fill="#E2E2E2"/>
<path d="M3.36455 304.75L0.265643 307.364L2.87977 310.463L5.97867 307.849L3.36455 304.75Z" fill="#E2E2E2"/>
<path d="M33.5104 285.154L30.4115 287.768L33.0256 290.867L36.1245 288.253L33.5104 285.154Z" fill="#E2E2E2"/>
<path d="M30.1016 288.029L27.0027 290.643L29.6168 293.742L32.7157 291.128L30.1016 288.029Z" fill="#E2E2E2"/>
<path d="M26.6929 290.906L23.594 293.52L26.2081 296.619L29.307 294.005L26.6929 290.906Z" fill="#E2E2E2"/>
<path d="M36.3861 288.563L33.2872 291.177L35.9013 294.276L39.0002 291.661L36.3861 288.563Z" fill="#E2E2E2"/>
<path d="M32.9773 291.439L29.8784 294.053L32.4925 297.152L35.5914 294.537L32.9773 291.439Z" fill="#E2E2E2"/>
<path d="M39.2613 291.973L36.1624 294.587L38.7766 297.686L41.8755 295.072L39.2613 291.973Z" fill="#E2E2E2"/>
<path d="M42.1371 295.381L39.0382 297.995L41.6523 301.094L44.7512 298.48L42.1371 295.381Z" fill="#E2E2E2"/>
<path d="M45.0123 298.789L41.9134 301.403L44.5275 304.502L47.6264 301.888L45.0123 298.789Z" fill="#E2E2E2"/>
<path d="M41.6036 301.665L38.5047 304.279L41.1188 307.378L44.2177 304.764L41.6036 301.665Z" fill="#E2E2E2"/>
<path d="M38.1948 304.54L35.0959 307.154L37.71 310.253L40.8089 307.639L38.1948 304.54Z" fill="#E2E2E2"/>
<path d="M34.7861 307.416L31.6872 310.03L34.3013 313.129L37.4002 310.515L34.7861 307.416Z" fill="#E2E2E2"/>
<path d="M22.5752 305.518L19.4763 308.132L22.0905 311.231L25.1894 308.617L22.5752 305.518Z" fill="#E2E2E2"/>
<path d="M28.2881 306.003L25.1894 308.617L27.8033 311.716L30.9022 309.102L28.2881 306.003Z" fill="#E2E2E2"/>
<path d="M16.862 305.033L13.7631 307.647L16.3772 310.746L19.4763 308.132L16.862 305.033Z" fill="#E2E2E2"/>
<path d="M11.1491 304.549L8.05019 307.163L10.6643 310.262L13.7631 307.647L11.1491 304.549Z" fill="#E2E2E2"/>
<path d="M19.428 308.703L16.3291 311.317L18.9432 314.416L22.0421 311.802L19.428 308.703Z" fill="#E2E2E2"/>
<path d="M25.1408 309.189L22.0421 311.802L24.656 314.902L27.7549 312.287L25.1408 309.189Z" fill="#E2E2E2"/>
<path d="M13.7147 308.219L10.6158 310.833L13.2299 313.932L16.3291 311.317L13.7147 308.219Z" fill="#E2E2E2"/>
<path d="M8.00182 307.734L4.90291 310.349L7.51703 313.447L10.6158 310.833L8.00182 307.734Z" fill="#E2E2E2"/>
<path d="M21.9937 312.373L18.8948 314.987L21.5089 318.086L24.6079 315.472L21.9937 312.373Z" fill="#E2E2E2"/>
<path d="M27.7066 312.858L24.6079 315.472L27.2218 318.571L30.3207 315.957L27.7066 312.858Z" fill="#E2E2E2"/>
<path d="M16.2805 311.889L13.1816 314.503L15.7957 317.602L18.8948 314.987L16.2805 311.889Z" fill="#E2E2E2"/>
<path d="M10.5676 311.404L7.46868 314.018L10.0828 317.117L13.1816 314.503L10.5676 311.404Z" fill="#E2E2E2"/>
<path d="M31.1158 309.982L28.0169 312.596L30.631 315.695L33.7299 313.08L31.1158 309.982Z" fill="#E2E2E2"/>
<path d="M33.9915 313.391L30.8926 316.005L33.5067 319.104L36.6056 316.49L33.9915 313.391Z" fill="#E2E2E2"/>
<path d="M36.8672 316.8L33.7683 319.414L36.3824 322.513L39.4813 319.899L36.8672 316.8Z" fill="#E2E2E2"/>
<path d="M45.4557 320.693L42.3568 323.308L44.971 326.406L48.0699 323.792L45.4557 320.693Z" fill="#E2E2E2"/>
<path d="M51.1686 321.178L48.0699 323.792L50.6838 326.891L53.7827 324.277L51.1686 321.178Z" fill="#E2E2E2"/>
<path d="M39.7425 320.208L36.6436 322.822L39.2577 325.921L42.3568 323.308L39.7425 320.208Z" fill="#E2E2E2"/>
<path d="M36.3337 323.084L33.2348 325.698L35.8489 328.797L38.9478 326.183L36.3337 323.084Z" fill="#E2E2E2"/>
<path d="M30.5827 316.267L27.4838 318.881L30.0979 321.98L33.1968 319.366L30.5827 316.267Z" fill="#E2E2E2"/>
<path d="M33.458 319.676L30.3591 322.29L32.9732 325.389L36.0721 322.775L33.458 319.676Z" fill="#E2E2E2"/>
<path d="M42.1039 333.068L45.2028 330.454L47.817 333.553L44.718 336.167L42.1039 333.068Z" fill="#E2E2E2"/>
<path d="M57.0893 287.33L60.1882 284.716L62.8023 287.815L59.7034 290.429L57.0893 287.33Z" fill="#E2E2E2"/>
<path d="M65.7159 297.556L68.8148 294.941L71.4289 298.04L68.33 300.654L65.7159 297.556Z" fill="#E2E2E2"/>
<path d="M59.9649 290.738L63.0639 288.124L65.678 291.223L62.5791 293.837L59.9649 290.738Z" fill="#E2E2E2"/>
<path d="M68.5917 300.964L71.6906 298.35L74.3047 301.449L71.2058 304.063L68.5917 300.964Z" fill="#E2E2E2"/>
<path d="M54.214 283.921L57.3129 281.307L59.927 284.406L56.8281 287.02L54.214 283.921Z" fill="#E2E2E2"/>
<path d="M62.8403 294.147L65.9392 291.533L68.5533 294.632L65.4544 297.246L62.8403 294.147Z" fill="#E2E2E2"/>
<path d="M96.0347 289.483L98.6488 292.582L95.5499 295.196L92.9357 292.098L96.0347 289.483Z" fill="#E2E2E2"/>
<path d="M85.8083 298.109L88.4224 301.208L85.3235 303.822L82.7094 300.723L85.8083 298.109Z" fill="#E2E2E2"/>
<path d="M92.6259 292.358L95.24 295.457L92.1411 298.071L89.527 294.972L92.6259 292.358Z" fill="#E2E2E2"/>
<path d="M82.3996 300.985L85.0137 304.084L81.9148 306.698L79.3007 303.6L82.3996 300.985Z" fill="#E2E2E2"/>
<path d="M99.4436 286.607L102.058 289.706L98.9589 292.32L96.3447 289.221L99.4436 286.607Z" fill="#E2E2E2"/>
<path d="M89.2171 295.234L91.8312 298.333L88.7323 300.947L86.1182 297.849L89.2171 295.234Z" fill="#E2E2E2"/>
<path d="M82.7079 317.699L85.8069 315.085L88.421 318.184L85.3221 320.798L82.7079 317.699Z" fill="#E2E2E2"/>
<path d="M91.3346 327.927L94.4335 325.312L97.0477 328.411L93.9488 331.026L91.3346 327.927Z" fill="#E2E2E2"/>
<path d="M85.5836 321.108L88.6826 318.494L91.2967 321.593L88.1978 324.207L85.5836 321.108Z" fill="#E2E2E2"/>
<path d="M94.2099 331.335L97.3088 328.721L99.9229 331.82L96.824 334.434L94.2099 331.335Z" fill="#E2E2E2"/>
<path d="M79.8321 314.291L82.931 311.677L85.5452 314.776L82.4463 317.39L79.8321 314.291Z" fill="#E2E2E2"/>
<path d="M88.4589 324.517L91.5578 321.903L94.1719 325.002L91.073 327.616L88.4589 324.517Z" fill="#E2E2E2"/>
<path d="M68.7649 312.487L71.379 315.586L68.2801 318.2L65.666 315.101L68.7649 312.487Z" fill="#E2E2E2"/>
<path d="M58.5386 321.113L61.1527 324.212L58.0538 326.826L55.4397 323.727L58.5386 321.113Z" fill="#E2E2E2"/>
<path d="M65.3561 315.362L67.9703 318.461L64.8714 321.075L62.2572 317.976L65.3561 315.362Z" fill="#E2E2E2"/>
<path d="M55.1299 323.989L57.744 327.088L54.6451 329.702L52.0309 326.603L55.1299 323.989Z" fill="#E2E2E2"/>
<path d="M72.1735 309.611L74.7877 312.71L71.6887 315.324L69.0746 312.225L72.1735 309.611Z" fill="#E2E2E2"/>
<path d="M61.9474 318.238L64.5615 321.337L61.4626 323.951L58.8485 320.852L61.9474 318.238Z" fill="#E2E2E2"/>
<path d="M55.4934 272.233L58.5923 269.619L61.2064 272.718L58.1075 275.332L55.4934 272.233Z" fill="#E2E2E2"/>
<path d="M45.0316 286.477L42.3279 283.456L45.3489 280.753L48.0526 283.774L45.0316 286.477Z" fill="#E2E2E2"/>
<path d="M55.0085 277.945L58.1074 275.331L60.7216 278.43L57.6226 281.044L55.0085 277.945Z" fill="#E2E2E2"/>
<path d="M50.7566 286.795L48.0526 283.774L51.0739 281.07L53.7776 284.091L50.7566 286.795Z" fill="#E2E2E2"/>
<path d="M55.9782 266.52L59.0772 263.906L61.6913 267.005L58.5923 269.619L55.9782 266.52Z" fill="#E2E2E2"/>
<path d="M39.307 286.16L36.6033 283.139L39.6243 280.435L42.3279 283.456L39.307 286.16Z" fill="#E2E2E2"/>
<path d="M56.4627 260.807L59.5617 258.193L62.1758 261.292L59.0772 263.906L56.4627 260.807Z" fill="#E2E2E2"/>
<path d="M87.1421 234.927L90.241 232.312L92.8551 235.411L89.7562 238.026L87.1421 234.927Z" fill="#E2E2E2"/>
<path d="M41.7146 268.474L44.8135 265.86L47.4276 268.959L44.3287 271.573L41.7146 268.474Z" fill="#E2E2E2"/>
<path d="M75.2675 262.978L78.3664 260.364L80.9806 263.463L77.8817 266.077L75.2675 262.978Z" fill="#E2E2E2"/>
<path d="M74.7827 268.691L77.8817 266.077L80.4957 269.176L77.3968 271.79L74.7827 268.691Z" fill="#E2E2E2"/>
<path d="M75.7524 257.265L78.8513 254.651L81.4654 257.75L78.3664 260.364L75.7524 257.265Z" fill="#E2E2E2"/>
<path d="M76.2369 251.552L79.3358 248.938L81.9499 252.037L78.8513 254.651L76.2369 251.552Z" fill="#E2E2E2"/>
<path d="M59.8718 257.93L62.9708 255.316L65.5849 258.415L62.486 261.029L59.8718 257.93Z" fill="#E2E2E2"/>
<path d="M63.2805 255.055L66.3794 252.441L68.9936 255.54L65.8947 258.154L63.2805 255.055Z" fill="#E2E2E2"/>
<path d="M66.6893 252.179L69.7882 249.565L72.4023 252.664L69.3034 255.278L66.6893 252.179Z" fill="#E2E2E2"/>
<path d="M70.098 249.303L73.197 246.689L75.8111 249.788L72.7122 252.402L70.098 249.303Z" fill="#E2E2E2"/>
<path d="M80.3244 240.677L83.4233 238.063L86.0374 241.162L82.9385 243.776L80.3244 240.677Z" fill="#E2E2E2"/>
<path d="M73.5068 246.428L76.6057 243.814L79.2198 246.913L76.1209 249.527L73.5068 246.428Z" fill="#E2E2E2"/>
<path d="M83.7331 237.801L86.832 235.187L89.4461 238.286L86.3472 240.9L83.7331 237.801Z" fill="#E2E2E2"/>
<path d="M76.9156 243.553L80.0145 240.939L82.6286 244.038L79.5297 246.652L76.9156 243.553Z" fill="#E2E2E2"/>
<path d="M62.747 261.34L65.8459 258.725L68.4601 261.824L65.3612 264.438L62.747 261.34Z" fill="#E2E2E2"/>
<path d="M66.1558 258.464L69.2547 255.849L71.8688 258.948L68.7699 261.562L66.1558 258.464Z" fill="#E2E2E2"/>
<path d="M69.565 255.589L72.6639 252.974L75.278 256.073L72.1791 258.688L69.565 255.589Z" fill="#E2E2E2"/>
<path d="M65.6227 264.748L68.7216 262.134L71.3357 265.233L68.2368 267.847L65.6227 264.748Z" fill="#E2E2E2"/>
<path d="M69.0315 261.873L72.1304 259.259L74.7445 262.358L71.6456 264.972L69.0315 261.873Z" fill="#E2E2E2"/>
<path d="M68.4984 268.157L71.5973 265.543L74.2115 268.642L71.1126 271.256L68.4984 268.157Z" fill="#E2E2E2"/>
<path d="M71.3737 271.566L74.4726 268.952L77.0868 272.051L73.9879 274.665L71.3737 271.566Z" fill="#E2E2E2"/>
<path d="M74.2494 274.975L77.3483 272.361L79.9624 275.46L76.8635 278.074L74.2494 274.975Z" fill="#E2E2E2"/>
<path d="M77.6582 272.099L80.7571 269.485L83.3712 272.584L80.2723 275.198L77.6582 272.099Z" fill="#E2E2E2"/>
<path d="M81.0669 269.223L84.1658 266.609L86.7799 269.708L83.681 272.322L81.0669 269.223Z" fill="#E2E2E2"/>
<path d="M84.4757 266.347L87.5746 263.733L90.1888 266.832L87.0899 269.446L84.4757 266.347Z" fill="#E2E2E2"/>
<path d="M84.6609 253.992L87.7598 251.378L90.3739 254.477L87.275 257.091L84.6609 253.992Z" fill="#E2E2E2"/>
<path d="M84.1762 259.706L87.275 257.091L89.8893 260.191L86.7904 262.805L84.1762 259.706Z" fill="#E2E2E2"/>
<path d="M85.1458 248.279L88.2447 245.665L90.8588 248.764L87.7598 251.378L85.1458 248.279Z" fill="#E2E2E2"/>
<path d="M85.6302 242.567L88.7291 239.953L91.3432 243.052L88.2443 245.666L85.6302 242.567Z" fill="#E2E2E2"/>
<path d="M88.3315 251.427L91.4304 248.813L94.0445 251.912L90.9456 254.526L88.3315 251.427Z" fill="#E2E2E2"/>
<path d="M87.8466 257.14L90.9456 254.526L93.5597 257.625L90.4608 260.239L87.8466 257.14Z" fill="#E2E2E2"/>
<path d="M88.8159 245.714L91.9148 243.099L94.529 246.198L91.4304 248.813L88.8159 245.714Z" fill="#E2E2E2"/>
<path d="M89.3008 240.001L92.3997 237.387L95.0138 240.486L91.9148 243.099L89.3008 240.001Z" fill="#E2E2E2"/>
<path d="M91.5167 254.575L94.6157 251.961L97.2298 255.06L94.1309 257.674L91.5167 254.575Z" fill="#E2E2E2"/>
<path d="M91.0319 260.288L94.1309 257.674L96.7449 260.773L93.646 263.387L91.0319 260.288Z" fill="#E2E2E2"/>
<path d="M92.0016 248.861L95.1005 246.247L97.7146 249.346L94.6157 251.961L92.0016 248.861Z" fill="#E2E2E2"/>
<path d="M92.4865 243.148L95.5854 240.534L98.1995 243.633L95.1005 246.247L92.4865 243.148Z" fill="#E2E2E2"/>
<path d="M87.6229 263.163L90.7219 260.549L93.336 263.648L90.2371 266.262L87.6229 263.163Z" fill="#E2E2E2"/>
<path d="M90.4987 266.571L93.5976 263.957L96.2117 267.056L93.1128 269.67L90.4987 266.571Z" fill="#E2E2E2"/>
<path d="M93.3744 269.98L96.4733 267.366L99.0874 270.465L95.9885 273.079L93.3744 269.98Z" fill="#E2E2E2"/>
<path d="M95.7648 279.102L98.8637 276.488L101.478 279.587L98.3789 282.201L95.7648 279.102Z" fill="#E2E2E2"/>
<path d="M95.2803 284.815L98.3789 282.201L100.993 285.3L97.8944 287.914L95.2803 284.815Z" fill="#E2E2E2"/>
<path d="M96.2496 273.389L99.3486 270.775L101.963 273.874L98.8637 276.488L96.2496 273.389Z" fill="#E2E2E2"/>
<path d="M99.6584 270.513L102.757 267.899L105.371 270.998L102.273 273.612L99.6584 270.513Z" fill="#E2E2E2"/>
<path d="M93.9074 263.696L97.0063 261.082L99.6205 264.181L96.5216 266.795L93.9074 263.696Z" fill="#E2E2E2"/>
<path d="M96.7831 267.104L99.882 264.49L102.496 267.589L99.3973 270.203L96.7831 267.104Z" fill="#E2E2E2"/>
<path d="M120.753 316.899L123.852 314.285L121.238 311.186L118.139 313.801L120.753 316.899Z" fill="#E2E2E2"/>
<path d="M115.04 316.414L118.139 313.801L115.525 310.701L112.426 313.315L115.04 316.414Z" fill="#E2E2E2"/>
<path d="M126.466 317.384L129.565 314.77L126.951 311.671L123.852 314.285L126.466 317.384Z" fill="#E2E2E2"/>
<path d="M132.179 317.868L135.278 315.254L132.664 312.155L129.565 314.77L132.179 317.868Z" fill="#E2E2E2"/>
<path d="M123.134 332.925L126.232 330.311L123.618 327.212L120.519 329.826L123.134 332.925Z" fill="#E2E2E2"/>
<path d="M126.542 330.049L129.641 327.435L127.027 324.336L123.928 326.95L126.542 330.049Z" fill="#E2E2E2"/>
<path d="M129.951 327.173L133.05 324.559L130.436 321.46L127.337 324.074L129.951 327.173Z" fill="#E2E2E2"/>
<path d="M133.36 324.298L136.459 321.684L133.845 318.585L130.746 321.199L133.36 324.298Z" fill="#E2E2E2"/>
<path d="M143.586 315.671L146.685 313.057L144.071 309.958L140.972 312.573L143.586 315.671Z" fill="#E2E2E2"/>
<path d="M136.768 321.423L139.867 318.809L137.253 315.71L134.154 318.324L136.768 321.423Z" fill="#E2E2E2"/>
<path d="M146.995 312.796L150.094 310.182L147.48 307.083L144.381 309.697L146.995 312.796Z" fill="#E2E2E2"/>
<path d="M140.177 318.547L143.276 315.933L140.662 312.834L137.563 315.448L140.177 318.547Z" fill="#E2E2E2"/>
<path d="M150.404 309.92L153.503 307.306L150.889 304.207L147.79 306.821L150.404 309.92Z" fill="#E2E2E2"/>
<path d="M120.258 329.516L123.357 326.902L120.742 323.803L117.644 326.417L120.258 329.516Z" fill="#E2E2E2"/>
<path d="M123.666 326.64L126.765 324.025L124.151 320.926L121.052 323.541L123.666 326.64Z" fill="#E2E2E2"/>
<path d="M127.076 323.765L130.175 321.151L127.56 318.052L124.462 320.666L127.076 323.765Z" fill="#E2E2E2"/>
<path d="M117.382 326.107L120.481 323.493L117.867 320.394L114.768 323.008L117.382 326.107Z" fill="#E2E2E2"/>
<path d="M120.791 323.231L123.89 320.617L121.276 317.518L118.177 320.132L120.791 323.231Z" fill="#E2E2E2"/>
<path d="M114.507 322.698L117.606 320.084L114.992 316.985L111.893 319.599L114.507 322.698Z" fill="#E2E2E2"/>
<path d="M111.631 319.289L114.73 316.675L112.116 313.576L109.017 316.19L111.631 319.289Z" fill="#E2E2E2"/>
<path d="M108.756 315.88L111.855 313.266L109.241 310.167L106.142 312.781L108.756 315.88Z" fill="#E2E2E2"/>
<path d="M112.165 313.005L115.263 310.391L112.649 307.292L109.55 309.906L112.165 313.005Z" fill="#E2E2E2"/>
<path d="M115.573 310.13L118.672 307.515L116.058 304.417L112.959 307.031L115.573 310.13Z" fill="#E2E2E2"/>
<path d="M118.982 307.254L122.081 304.64L119.467 301.541L116.368 304.155L118.982 307.254Z" fill="#E2E2E2"/>
<path d="M131.192 309.152L134.291 306.538L131.677 303.439L128.578 306.053L131.192 309.152Z" fill="#E2E2E2"/>
<path d="M125.479 308.668L128.578 306.053L125.964 302.955L122.865 305.569L125.479 308.668Z" fill="#E2E2E2"/>
<path d="M136.905 309.638L140.004 307.023L137.39 303.925L134.291 306.538L136.905 309.638Z" fill="#E2E2E2"/>
<path d="M142.618 310.122L145.717 307.508L143.103 304.409L140.004 307.023L142.618 310.122Z" fill="#E2E2E2"/>
<path d="M134.34 305.968L137.439 303.354L134.825 300.255L131.726 302.869L134.34 305.968Z" fill="#E2E2E2"/>
<path d="M128.627 305.482L131.726 302.869L129.112 299.769L126.013 302.383L128.627 305.482Z" fill="#E2E2E2"/>
<path d="M140.053 306.452L143.152 303.838L140.538 300.739L137.439 303.354L140.053 306.452Z" fill="#E2E2E2"/>
<path d="M145.766 306.937L148.865 304.323L146.251 301.224L143.152 303.838L145.766 306.937Z" fill="#E2E2E2"/>
<path d="M131.774 302.297L134.873 299.683L132.259 296.584L129.16 299.199L131.774 302.297Z" fill="#E2E2E2"/>
<path d="M126.061 301.813L129.16 299.199L126.546 296.1L123.447 298.714L126.061 301.813Z" fill="#E2E2E2"/>
<path d="M137.487 302.782L140.586 300.168L137.972 297.069L134.873 299.683L137.487 302.782Z" fill="#E2E2E2"/>
<path d="M143.2 303.266L146.299 300.652L143.685 297.553L140.586 300.168L143.2 303.266Z" fill="#E2E2E2"/>
<path d="M122.652 304.688L125.751 302.074L123.137 298.975L120.038 301.589L122.652 304.688Z" fill="#E2E2E2"/>
<path d="M119.777 301.279L122.876 298.665L120.262 295.566L117.163 298.18L119.777 301.279Z" fill="#E2E2E2"/>
<path d="M116.901 297.871L120 295.257L117.386 292.158L114.287 294.772L116.901 297.871Z" fill="#E2E2E2"/>
<path d="M108.313 293.977L111.412 291.363L108.798 288.264L105.699 290.878L108.313 293.977Z" fill="#E2E2E2"/>
<path d="M102.6 293.492L105.699 290.878L103.084 287.779L99.9854 290.393L102.6 293.492Z" fill="#E2E2E2"/>
<path d="M114.026 294.462L117.125 291.847L114.51 288.749L111.412 291.363L114.026 294.462Z" fill="#E2E2E2"/>
<path d="M117.434 291.586L120.533 288.972L117.919 285.873L114.82 288.487L117.434 291.586Z" fill="#E2E2E2"/>
<path d="M123.186 298.404L126.285 295.79L123.671 292.691L120.572 295.305L123.186 298.404Z" fill="#E2E2E2"/>
<path d="M120.31 294.995L123.409 292.381L120.795 289.282L117.696 291.896L120.31 294.995Z" fill="#E2E2E2"/>
<path d="M105.642 281.38L108.741 278.766L111.355 281.865L108.256 284.479L105.642 281.38Z" fill="#E2E2E2"/>
<path d="M74.3426 307.781L77.4415 305.167L80.0557 308.266L76.9568 310.88L74.3426 307.781Z" fill="#E2E2E2"/>
<path d="M67.7988 289.964L70.8977 287.35L73.5118 290.449L70.4129 293.063L67.7988 289.964Z" fill="#E2E2E2"/>
<path d="M73.0272 296.162L76.1261 293.548L78.7403 296.647L75.6413 299.261L73.0272 296.162Z" fill="#E2E2E2"/>
<path d="M79.2249 290.933L82.3239 288.319L84.938 291.418L81.8391 294.032L79.2249 290.933Z" fill="#E2E2E2"/>
<path d="M68.2837 284.251L71.3826 281.637L73.9967 284.736L70.8977 287.35L68.2837 284.251Z" fill="#E2E2E2"/>
<path d="M73.5118 290.449L76.611 287.835L79.2249 290.933L76.1261 293.548L73.5118 290.449Z" fill="#E2E2E2"/>
<path d="M79.7098 285.221L82.8087 282.606L85.4229 285.705L82.3239 288.319L79.7098 285.221Z" fill="#E2E2E2"/>
<path d="M68.7686 278.538L71.8675 275.924L74.4816 279.023L71.3826 281.637L68.7686 278.538Z" fill="#E2E2E2"/>
<path d="M73.9967 284.736L77.0959 282.121L79.7098 285.221L76.611 287.835L73.9967 284.736Z" fill="#E2E2E2"/>
<path d="M80.1947 279.508L83.2936 276.894L85.9077 279.992L82.8087 282.606L80.1947 279.508Z" fill="#E2E2E2"/>
<path d="M59.263 313.171L56.677 310.048L59.7993 307.462L62.3854 310.585L59.263 313.171Z" fill="#E2E2E2"/>
<path d="M65.5077 308L62.9216 304.877L66.0439 302.291L68.63 305.414L65.5077 308Z" fill="#E2E2E2"/>
<path d="M60.3354 301.755L57.7493 298.632L60.8717 296.046L63.4578 299.168L60.3354 301.755Z" fill="#E2E2E2"/>
<path d="M53.5544 312.635L50.9683 309.513L54.0906 306.927L56.6767 310.049L53.5544 312.635Z" fill="#E2E2E2"/>
<path d="M59.7993 307.462L57.2133 304.34L60.3354 301.755L62.9216 304.877L59.7993 307.462Z" fill="#E2E2E2"/>
<path d="M54.6272 301.218L52.0411 298.096L55.1634 295.51L57.7493 298.632L54.6272 301.218Z" fill="#E2E2E2"/>
<path d="M47.8461 312.098L45.26 308.976L48.3824 306.39L50.9683 309.513L47.8461 312.098Z" fill="#E2E2E2"/>
<path d="M54.0906 306.927L51.5047 303.804L54.6272 301.218L57.2133 304.34L54.0906 306.927Z" fill="#E2E2E2"/>
<path d="M48.9186 300.681L46.3325 297.559L49.4548 294.973L52.0411 298.096L48.9186 300.681Z" fill="#E2E2E2"/>
<path d="M86.5114 325.502L83.4125 328.116L80.7984 325.017L83.8973 322.403L86.5114 325.502Z" fill="#E2E2E2"/>
<path d="M81.283 319.303L78.1841 321.918L75.57 318.819L78.6689 316.205L81.283 319.303Z" fill="#E2E2E2"/>
<path d="M75.0853 324.532L71.9864 327.146L69.3723 324.048L72.4712 321.433L75.0853 324.532Z" fill="#E2E2E2"/>
<path d="M86.0265 331.214L82.9276 333.828L80.3135 330.729L83.4125 328.116L86.0265 331.214Z" fill="#E2E2E2"/>
<path d="M80.7984 325.017L77.6992 327.631L75.0853 324.532L78.1841 321.918L80.7984 325.017Z" fill="#E2E2E2"/>
<path d="M74.6004 330.245L71.5015 332.859L68.8874 329.76L71.9864 327.146L74.6004 330.245Z" fill="#E2E2E2"/>
<path d="M85.5417 336.927L82.4428 339.541L79.8286 336.443L82.9276 333.828L85.5417 336.927Z" fill="#E2E2E2"/>
<path d="M80.3135 330.729L77.2148 333.344L74.6004 330.245L77.6992 327.631L80.3135 330.729Z" fill="#E2E2E2"/>
<path d="M74.1156 335.959L71.0167 338.573L68.4025 335.474L71.5015 332.859L74.1156 335.959Z" fill="#E2E2E2"/>
<path d="M94.605 304.034L97.2191 307.133L94.1202 309.747L91.5061 306.648L94.605 304.034Z" fill="#E2E2E2"/>
<path d="M88.4068 309.263L91.0209 312.361L87.922 314.976L85.3079 311.877L88.4068 309.263Z" fill="#E2E2E2"/>
<path d="M93.6352 315.46L96.2493 318.559L93.1504 321.173L90.5363 318.074L93.6352 315.46Z" fill="#E2E2E2"/>
<path d="M100.318 304.518L102.932 307.617L99.833 310.231L97.2191 307.133L100.318 304.518Z" fill="#E2E2E2"/>
<path d="M94.1202 309.747L96.7342 312.846L93.6352 315.46L91.0209 312.361L94.1202 309.747Z" fill="#E2E2E2"/>
<path d="M99.3485 315.945L101.963 319.044L98.8637 321.658L96.2493 318.559L99.3485 315.945Z" fill="#E2E2E2"/>
<path d="M106.031 305.004L108.645 308.103L105.546 310.717L102.932 307.617L106.031 305.004Z" fill="#E2E2E2"/>
<path d="M99.833 310.231L102.447 313.331L99.3485 315.945L96.7342 312.846L99.833 310.231Z" fill="#E2E2E2"/>
<path d="M105.061 316.43L107.675 319.528L104.577 322.143L101.963 319.044L105.061 316.43Z" fill="#E2E2E2"/>
<path d="M33.582 285.843L30.8783 282.822L33.8993 280.118L36.6033 283.139L33.582 285.843Z" fill="#E2E2E2"/>
<path d="M98.643 343.506L95.5441 346.12L92.93 343.021L96.0289 340.407L98.643 343.506Z" fill="#E2E2E2"/>
<path d="M109.105 329.262L111.809 332.283L108.788 334.986L106.084 331.965L109.105 329.262Z" fill="#E2E2E2"/>
<path d="M99.1279 337.793L96.0289 340.407L93.4149 337.308L96.5138 334.694L99.1279 337.793Z" fill="#E2E2E2"/>
<path d="M103.38 328.944L106.084 331.965L103.063 334.669L100.359 331.648L103.38 328.944Z" fill="#E2E2E2"/>
<path d="M98.1582 349.219L95.0593 351.833L92.4451 348.734L95.5441 346.12L98.1582 349.219Z" fill="#E2E2E2"/>
<path d="M114.829 329.579L117.533 332.6L114.512 335.304L111.809 332.283L114.829 329.579Z" fill="#E2E2E2"/>
<path d="M97.6737 354.932L94.5748 357.546L91.9607 354.447L95.0593 351.833L97.6737 354.932Z" fill="#E2E2E2"/>
<path d="M112.422 347.264L109.323 349.878L106.709 346.78L109.808 344.165L112.422 347.264Z" fill="#E2E2E2"/>
<path d="M120.554 329.895L123.258 332.916L120.237 335.62L117.533 332.6L120.554 329.895Z" fill="#E2E2E2"/>
<path d="M78.5007 119.961L75.4017 122.575L72.7876 119.476L75.8865 116.862L78.5007 119.961Z" fill="#E2E2E2"/>
<path d="M78.9855 114.247L75.8865 116.862L73.2725 113.763L76.3714 111.148L78.9855 114.247Z" fill="#E2E2E2"/>
<path d="M78.0162 125.673L74.9173 128.288L72.3032 125.189L75.4017 122.575L78.0162 125.673Z" fill="#E2E2E2"/>
<path d="M77.5313 131.387L74.4324 134.001L71.8183 130.902L74.9173 128.288L77.5313 131.387Z" fill="#E2E2E2"/>
<path d="M93.8962 125.006L90.7973 127.621L88.1831 124.522L91.282 121.907L93.8962 125.006Z" fill="#E2E2E2"/>
<path d="M90.4878 127.882L87.3889 130.496L84.7748 127.397L87.8737 124.783L90.4878 127.882Z" fill="#E2E2E2"/>
<path d="M87.0787 130.758L83.9797 133.372L81.3656 130.273L84.4645 127.659L87.0787 130.758Z" fill="#E2E2E2"/>
<path d="M83.6699 133.634L80.571 136.248L77.9569 133.149L81.0558 130.535L83.6699 133.634Z" fill="#E2E2E2"/>
<path d="M73.4436 142.26L70.3447 144.874L67.7306 141.775L70.8295 139.161L73.4436 142.26Z" fill="#E2E2E2"/>
<path d="M80.2611 136.508L77.1622 139.122L74.5481 136.023L77.647 133.409L80.2611 136.508Z" fill="#E2E2E2"/>
<path d="M70.0349 145.135L66.9359 147.749L64.3218 144.65L67.4207 142.036L70.0349 145.135Z" fill="#E2E2E2"/>
<path d="M76.8524 139.385L73.7534 141.999L71.1393 138.9L74.2382 136.286L76.8524 139.385Z" fill="#E2E2E2"/>
<path d="M91.0209 121.597L87.922 124.212L85.3079 121.113L88.4068 118.499L91.0209 121.597Z" fill="#E2E2E2"/>
<path d="M87.6121 124.474L84.5132 127.088L81.8991 123.989L84.998 121.375L87.6121 124.474Z" fill="#E2E2E2"/>
<path d="M84.2034 127.349L81.1045 129.963L78.4903 126.864L81.5892 124.25L84.2034 127.349Z" fill="#E2E2E2"/>
<path d="M88.1452 118.19L85.0463 120.804L82.4322 117.705L85.5311 115.091L88.1452 118.19Z" fill="#E2E2E2"/>
<path d="M84.7364 121.065L81.6375 123.679L79.0234 120.58L82.1223 117.966L84.7364 121.065Z" fill="#E2E2E2"/>
<path d="M85.2699 114.78L82.171 117.394L79.5569 114.295L82.6558 111.681L85.2699 114.78Z" fill="#E2E2E2"/>
<path d="M82.3942 111.371L79.2953 113.985L76.6812 110.886L79.7801 108.272L82.3942 111.371Z" fill="#E2E2E2"/>
<path d="M79.5189 107.963L76.42 110.577L73.8059 107.478L76.9048 104.864L79.5189 107.963Z" fill="#E2E2E2"/>
<path d="M76.1098 110.838L73.0108 113.452L70.3967 110.353L73.4956 107.739L76.1098 110.838Z" fill="#E2E2E2"/>
<path d="M72.701 113.714L69.6021 116.328L66.988 113.229L70.0869 110.615L72.701 113.714Z" fill="#E2E2E2"/>
<path d="M69.2922 116.59L66.1933 119.204L63.5792 116.105L66.6781 113.491L69.2922 116.59Z" fill="#E2E2E2"/>
<path d="M69.107 128.944L66.0081 131.559L63.394 128.46L66.4929 125.846L69.107 128.944Z" fill="#E2E2E2"/>
<path d="M69.5919 123.231L66.4929 125.846L63.8789 122.746L66.9778 120.132L69.5919 123.231Z" fill="#E2E2E2"/>
<path d="M68.6222 134.658L65.5232 137.272L62.9091 134.173L66.0081 131.559L68.6222 134.658Z" fill="#E2E2E2"/>
<path d="M68.1377 140.371L65.0388 142.985L62.4247 139.886L65.5232 137.272L68.1377 140.371Z" fill="#E2E2E2"/>
<path d="M65.4365 131.51L62.3376 134.125L59.7235 131.026L62.8224 128.412L65.4365 131.51Z" fill="#E2E2E2"/>
<path d="M65.9214 125.798L62.8224 128.412L60.2084 125.313L63.3073 122.699L65.9214 125.798Z" fill="#E2E2E2"/>
<path d="M64.9516 137.224L61.8527 139.838L59.2386 136.739L62.3376 134.125L64.9516 137.224Z" fill="#E2E2E2"/>
<path d="M64.4668 142.936L61.3679 145.55L58.7537 142.451L61.8527 139.838L64.4668 142.936Z" fill="#E2E2E2"/>
<path d="M62.2516 128.363L59.1527 130.977L56.5386 127.878L59.6375 125.264L62.2516 128.363Z" fill="#E2E2E2"/>
<path d="M62.7361 122.65L59.6375 125.264L57.023 122.165L60.1219 119.551L62.7361 122.65Z" fill="#E2E2E2"/>
<path d="M61.7667 134.076L58.6678 136.69L56.0537 133.591L59.1527 130.977L61.7667 134.076Z" fill="#E2E2E2"/>
<path d="M61.2819 139.789L58.183 142.404L55.5688 139.305L58.6678 136.69L61.2819 139.789Z" fill="#E2E2E2"/>
<path d="M66.145 119.775L63.046 122.389L60.4319 119.29L63.5308 116.676L66.145 119.775Z" fill="#E2E2E2"/>
<path d="M63.2693 116.366L60.1703 118.98L57.5562 115.881L60.6551 113.267L63.2693 116.366Z" fill="#E2E2E2"/>
<path d="M60.394 112.957L57.2951 115.571L54.6809 112.472L57.7799 109.858L60.394 112.957Z" fill="#E2E2E2"/>
<path d="M58.0031 103.835L54.9042 106.449L52.2901 103.351L55.389 100.736L58.0031 103.835Z" fill="#E2E2E2"/>
<path d="M58.488 98.1221L55.389 100.736L52.775 97.6373L55.8739 95.0232L58.488 98.1221Z" fill="#E2E2E2"/>
<path d="M57.5183 109.548L54.4194 112.162L51.8052 109.063L54.9042 106.449L57.5183 109.548Z" fill="#E2E2E2"/>
<path d="M54.1095 112.424L51.0106 115.038L48.3965 111.939L51.4954 109.325L54.1095 112.424Z" fill="#E2E2E2"/>
<path d="M59.8605 119.241L56.7616 121.855L54.1475 118.756L57.2464 116.142L59.8605 119.241Z" fill="#E2E2E2"/>
<path d="M56.9852 115.832L53.8863 118.446L51.2722 115.347L54.3711 112.733L56.9852 115.832Z" fill="#E2E2E2"/>
<path d="M33.0152 66.0384L29.9163 68.6525L32.5304 71.7514L35.6293 69.1373L33.0152 66.0384Z" fill="#E2E2E2"/>
<path d="M38.728 66.5237L35.6293 69.1373L38.2432 72.2367L41.3421 69.6226L38.728 66.5237Z" fill="#E2E2E2"/>
<path d="M27.3019 65.5539L24.203 68.1681L26.8171 71.267L29.9163 68.6525L27.3019 65.5539Z" fill="#E2E2E2"/>
<path d="M21.5891 65.0695L18.4901 67.6836L21.1043 70.7825L24.203 68.1681L21.5891 65.0695Z" fill="#E2E2E2"/>
<path d="M30.6347 50.0125L27.5358 52.6266L30.1499 55.7255L33.2488 53.1114L30.6347 50.0125Z" fill="#E2E2E2"/>
<path d="M27.2259 52.8882L24.127 55.5023L26.7411 58.6012L29.84 55.9871L27.2259 52.8882Z" fill="#E2E2E2"/>
<path d="M23.8171 55.7635L20.7182 58.3776L23.3323 61.4765L26.4313 58.8624L23.8171 55.7635Z" fill="#E2E2E2"/>
<path d="M20.4084 58.6392L17.3095 61.2533L19.9236 64.3522L23.0225 61.7381L20.4084 58.6392Z" fill="#E2E2E2"/>
<path d="M10.1821 67.2655L7.08316 69.8796L9.69728 72.9785L12.7962 70.3644L10.1821 67.2655Z" fill="#E2E2E2"/>
<path d="M16.9996 61.5149L13.9007 64.129L16.5148 67.2279L19.6137 64.6138L16.9996 61.5149Z" fill="#E2E2E2"/>
<path d="M6.7733 70.1416L3.67439 72.7557L6.28851 75.8546L9.38742 73.2405L6.7733 70.1416Z" fill="#E2E2E2"/>
<path d="M13.5908 64.3902L10.4919 67.0043L13.106 70.1032L16.205 67.4891L13.5908 64.3902Z" fill="#E2E2E2"/>
<path d="M3.36453 73.0164L0.265625 75.6306L2.87975 78.7295L5.97866 76.1153L3.36453 73.0164Z" fill="#E2E2E2"/>
<path d="M33.5104 53.4209L30.4115 56.035L33.0256 59.1339L36.1245 56.5198L33.5104 53.4209Z" fill="#E2E2E2"/>
<path d="M30.1016 56.2966L27.0027 58.9107L29.6168 62.0096L32.7157 59.3955L30.1016 56.2966Z" fill="#E2E2E2"/>
<path d="M26.6928 59.1727L23.5939 61.7868L26.208 64.8857L29.307 62.2716L26.6928 59.1727Z" fill="#E2E2E2"/>
<path d="M36.3861 56.8296L33.2872 59.4437L35.9013 62.5427L39.0002 59.9285L36.3861 56.8296Z" fill="#E2E2E2"/>
<path d="M32.9773 59.7057L29.8784 62.3199L32.4925 65.4188L35.5914 62.8047L32.9773 59.7057Z" fill="#E2E2E2"/>
<path d="M39.2613 60.2392L36.1624 62.8533L38.7766 65.9523L41.8755 63.3381L39.2613 60.2392Z" fill="#E2E2E2"/>
<path d="M42.1371 63.6476L39.0381 66.2617L41.6523 69.3606L44.7512 66.7465L42.1371 63.6476Z" fill="#E2E2E2"/>
<path d="M45.0123 67.0563L41.9134 69.6705L44.5275 72.7694L47.6265 70.1553L45.0123 67.0563Z" fill="#E2E2E2"/>
<path d="M41.6036 69.9316L38.5047 72.5457L41.1188 75.6447L44.2177 73.0305L41.6036 69.9316Z" fill="#E2E2E2"/>
<path d="M38.1948 72.8073L35.0959 75.4214L37.71 78.5204L40.8089 75.9062L38.1948 72.8073Z" fill="#E2E2E2"/>
<path d="M34.786 75.683L31.6871 78.2971L34.3012 81.3961L37.4002 78.7819L34.786 75.683Z" fill="#E2E2E2"/>
<path d="M22.5752 73.7841L19.4763 76.3982L22.0904 79.4971L25.1893 76.883L22.5752 73.7841Z" fill="#E2E2E2"/>
<path d="M28.288 74.2689L25.1893 76.883L27.8032 79.982L30.9021 77.3679L28.288 74.2689Z" fill="#E2E2E2"/>
<path d="M16.8619 73.2996L13.763 75.9137L16.3771 79.0127L19.4763 76.3982L16.8619 73.2996Z" fill="#E2E2E2"/>
<path d="M11.1491 72.8148L8.05015 75.4289L10.6643 78.5278L13.763 75.9137L11.1491 72.8148Z" fill="#E2E2E2"/>
<path d="M19.4279 76.9697L16.329 79.5838L18.9431 82.6827L22.042 80.0686L19.4279 76.9697Z" fill="#E2E2E2"/>
<path d="M25.1408 77.455L22.042 80.0686L24.656 83.168L27.7549 80.5539L25.1408 77.455Z" fill="#E2E2E2"/>
<path d="M13.7147 76.4852L10.6157 79.0993L13.2299 82.1982L16.329 79.5838L13.7147 76.4852Z" fill="#E2E2E2"/>
<path d="M8.00181 76.0008L4.9029 78.6149L7.51702 81.7138L10.6157 79.0993L8.00181 76.0008Z" fill="#E2E2E2"/>
<path d="M21.9937 80.6395L18.8948 83.2536L21.5089 86.3525L24.6078 83.7384L21.9937 80.6395Z" fill="#E2E2E2"/>
<path d="M27.7065 81.1244L24.6078 83.7384L27.2217 86.8374L30.3206 84.2233L27.7065 81.1244Z" fill="#E2E2E2"/>
<path d="M16.2804 80.1551L13.1815 82.7692L15.7956 85.8681L18.8948 83.2536L16.2804 80.1551Z" fill="#E2E2E2"/>
<path d="M10.5675 79.6702L7.46864 82.2843L10.0828 85.3832L13.1815 82.7692L10.5675 79.6702Z" fill="#E2E2E2"/>
<path d="M31.1158 78.2486L28.0169 80.8627L30.631 83.9616L33.7299 81.3475L31.1158 78.2486Z" fill="#E2E2E2"/>
<path d="M33.9915 81.6578L30.8926 84.2719L33.5067 87.3708L36.6056 84.7567L33.9915 81.6578Z" fill="#E2E2E2"/>
<path d="M36.8672 85.0661L33.7683 87.6803L36.3824 90.7792L39.4813 88.1651L36.8672 85.0661Z" fill="#E2E2E2"/>
<path d="M45.4557 88.9598L42.3568 91.5739L44.9709 94.6728L48.0698 92.0587L45.4557 88.9598Z" fill="#E2E2E2"/>
<path d="M51.1686 89.4446L48.0698 92.0587L50.6838 95.1577L53.7827 92.5436L51.1686 89.4446Z" fill="#E2E2E2"/>
<path d="M39.7424 88.4749L36.6435 91.089L39.2577 94.1879L42.3568 91.5739L39.7424 88.4749Z" fill="#E2E2E2"/>
<path d="M36.3337 91.3506L33.2348 93.9647L35.8489 97.0636L38.9478 94.4495L36.3337 91.3506Z" fill="#E2E2E2"/>
<path d="M30.5827 84.5331L27.4838 87.1472L30.0979 90.2461L33.1968 87.632L30.5827 84.5331Z" fill="#E2E2E2"/>
<path d="M33.458 87.9423L30.3591 90.5564L32.9732 93.6553L36.0721 91.0412L33.458 87.9423Z" fill="#E2E2E2"/>
<path d="M42.1039 101.335L45.2028 98.7205L47.817 101.819L44.7181 104.434L42.1039 101.335Z" fill="#E2E2E2"/>
<path d="M57.0893 55.5958L60.1882 52.9817L62.8023 56.0806L59.7034 58.6948L57.0893 55.5958Z" fill="#E2E2E2"/>
<path d="M65.7159 65.8226L68.8148 63.2085L71.429 66.3074L68.33 68.9215L65.7159 65.8226Z" fill="#E2E2E2"/>
<path d="M59.965 59.0042L63.0639 56.3901L65.678 59.489L62.5791 62.1031L59.965 59.0042Z" fill="#E2E2E2"/>
<path d="M68.5917 69.2308L71.6906 66.6167L74.3047 69.7156L71.2058 72.3297L68.5917 69.2308Z" fill="#E2E2E2"/>
<path d="M54.214 52.1867L57.3129 49.5725L59.927 52.6714L56.8281 55.2856L54.214 52.1867Z" fill="#E2E2E2"/>
<path d="M62.8403 62.4134L65.9392 59.7993L68.5533 62.8982L65.4544 65.5123L62.8403 62.4134Z" fill="#E2E2E2"/>
<path d="M96.0347 57.7495L98.6488 60.8485L95.5499 63.4626L92.9358 60.3637L96.0347 57.7495Z" fill="#E2E2E2"/>
<path d="M85.8084 66.3758L88.4225 69.4747L85.3236 72.0888L82.7095 68.9899L85.8084 66.3758Z" fill="#E2E2E2"/>
<path d="M92.6259 60.6244L95.24 63.7233L92.1411 66.3374L89.527 63.2385L92.6259 60.6244Z" fill="#E2E2E2"/>
<path d="M82.3996 69.2515L85.0137 72.3504L81.9148 74.9645L79.3007 71.8656L82.3996 69.2515Z" fill="#E2E2E2"/>
<path d="M99.4436 54.8734L102.058 57.9723L98.9589 60.5864L96.3447 57.4875L99.4436 54.8734Z" fill="#E2E2E2"/>
<path d="M89.2171 63.5005L91.8313 66.5994L88.7323 69.2136L86.1182 66.1147L89.2171 63.5005Z" fill="#E2E2E2"/>
<path d="M82.7079 85.9652L85.8069 83.351L88.421 86.45L85.3221 89.0641L82.7079 85.9652Z" fill="#E2E2E2"/>
<path d="M91.3346 96.1923L94.4335 93.5782L97.0477 96.6771L93.9487 99.2912L91.3346 96.1923Z" fill="#E2E2E2"/>
<path d="M85.5836 89.3744L88.6825 86.7602L91.2967 89.8591L88.1978 92.4733L85.5836 89.3744Z" fill="#E2E2E2"/>
<path d="M94.2099 99.6006L97.3088 96.9865L99.9229 100.085L96.824 102.7L94.2099 99.6006Z" fill="#E2E2E2"/>
<path d="M79.8321 82.557L82.931 79.9429L85.5452 83.0418L82.4463 85.6559L79.8321 82.557Z" fill="#E2E2E2"/>
<path d="M88.4589 92.7831L91.5578 90.169L94.172 93.2679L91.073 95.882L88.4589 92.7831Z" fill="#E2E2E2"/>
<path d="M68.7649 80.7534L71.379 83.8523L68.2801 86.4665L65.666 83.3676L68.7649 80.7534Z" fill="#E2E2E2"/>
<path d="M58.5386 89.3797L61.1527 92.4786L58.0538 95.0927L55.4397 91.9938L58.5386 89.3797Z" fill="#E2E2E2"/>
<path d="M65.3562 83.6287L67.9703 86.7276L64.8714 89.3418L62.2572 86.2428L65.3562 83.6287Z" fill="#E2E2E2"/>
<path d="M55.1299 92.2554L57.744 95.3543L54.6451 97.9684L52.0309 94.8695L55.1299 92.2554Z" fill="#E2E2E2"/>
<path d="M72.1737 77.8777L74.7878 80.9766L71.6889 83.5908L69.0748 80.4919L72.1737 77.8777Z" fill="#E2E2E2"/>
<path d="M61.9474 86.5048L64.5615 89.6038L61.4626 92.2179L58.8485 89.119L61.9474 86.5048Z" fill="#E2E2E2"/>
<path d="M55.4934 40.4999L58.5923 37.8857L61.2064 40.9847L58.1075 43.5988L55.4934 40.4999Z" fill="#E2E2E2"/>
<path d="M45.0316 54.7434L42.3279 51.7224L45.3489 49.0187L48.0527 52.0397L45.0316 54.7434Z" fill="#E2E2E2"/>
<path d="M55.0085 46.2123L58.1075 43.5988L60.7216 46.6971L57.6226 49.3112L55.0085 46.2123Z" fill="#E2E2E2"/>
<path d="M50.7566 55.0614L48.0527 52.0397L51.0739 49.3366L53.7776 52.3577L50.7566 55.0614Z" fill="#E2E2E2"/>
<path d="M55.9783 34.7865L59.0772 32.1724L61.6913 35.2713L58.5923 37.8857L55.9783 34.7865Z" fill="#E2E2E2"/>
<path d="M39.307 54.4266L36.6033 51.4056L39.6243 48.7019L42.3279 51.7224L39.307 54.4266Z" fill="#E2E2E2"/>
<path d="M56.4627 29.0736L59.5617 26.4595L62.1758 29.5584L59.0772 32.1724L56.4627 29.0736Z" fill="#E2E2E2"/>
<path d="M87.1421 3.19371L90.241 0.57959L92.8551 3.6785L89.7562 6.29262L87.1421 3.19371Z" fill="#E2E2E2"/>
<path d="M41.7146 36.7406L44.8135 34.1265L47.4276 37.2254L44.3287 39.8395L41.7146 36.7406Z" fill="#E2E2E2"/>
<path d="M75.2673 31.2445L78.3662 28.6304L80.9803 31.7293L77.8814 34.3434L75.2673 31.2445Z" fill="#E2E2E2"/>
<path d="M74.7824 36.9578L77.8814 34.3434L80.4954 37.4426L77.3965 40.0567L74.7824 36.9578Z" fill="#E2E2E2"/>
<path d="M75.7522 25.5317L78.8511 22.9176L81.4652 26.0165L78.3662 28.6304L75.7522 25.5317Z" fill="#E2E2E2"/>
<path d="M76.2366 19.8188L79.3355 17.2047L81.9496 20.3036L78.8511 22.9176L76.2366 19.8188Z" fill="#E2E2E2"/>
<path d="M59.8715 26.1974L62.9704 23.5832L65.5845 26.6822L62.4856 29.2963L59.8715 26.1974Z" fill="#E2E2E2"/>
<path d="M63.2803 23.3225L66.3792 20.7084L68.9933 23.8073L65.8944 26.4215L63.2803 23.3225Z" fill="#E2E2E2"/>
<path d="M66.689 20.4468L69.788 17.8327L72.4021 20.9316L69.3032 23.5458L66.689 20.4468Z" fill="#E2E2E2"/>
<path d="M70.0978 17.5711L73.1967 14.957L75.8108 18.0559L72.7119 20.6701L70.0978 17.5711Z" fill="#E2E2E2"/>
<path d="M80.3241 8.94488L83.423 6.33076L86.0371 9.42967L82.9382 12.0438L80.3241 8.94488Z" fill="#E2E2E2"/>
<path d="M73.5066 14.6959L76.6055 12.0817L79.2196 15.1807L76.1207 17.7948L73.5066 14.6959Z" fill="#E2E2E2"/>
<path d="M83.7329 6.06876L86.8318 3.45464L89.4459 6.55355L86.347 9.16767L83.7329 6.06876Z" fill="#E2E2E2"/>
<path d="M76.9154 11.8206L80.0143 9.20646L82.6284 12.3054L79.5295 14.9195L76.9154 11.8206Z" fill="#E2E2E2"/>
<path d="M62.7468 29.6066L65.8457 26.9925L68.4598 30.0914L65.3609 32.7055L62.7468 29.6066Z" fill="#E2E2E2"/>
<path d="M66.1556 26.7313L69.2545 24.1172L71.8686 27.2161L68.7697 29.8302L66.1556 26.7313Z" fill="#E2E2E2"/>
<path d="M69.5648 23.8556L72.6637 21.2415L75.2778 24.3404L72.1789 26.9545L69.5648 23.8556Z" fill="#E2E2E2"/>
<path d="M65.6225 33.0149L68.7214 30.4008L71.3355 33.4997L68.2366 36.1139L65.6225 33.0149Z" fill="#E2E2E2"/>
<path d="M69.0313 30.1405L72.1302 27.5264L74.7443 30.6253L71.6454 33.2394L69.0313 30.1405Z" fill="#E2E2E2"/>
<path d="M68.4982 36.4241L71.5971 33.81L74.2112 36.9089L71.1123 39.523L68.4982 36.4241Z" fill="#E2E2E2"/>
<path d="M71.3735 39.8333L74.4724 37.2192L77.0865 40.3181L73.9876 42.9322L71.3735 39.8333Z" fill="#E2E2E2"/>
<path d="M74.2492 43.2421L77.3481 40.628L79.9622 43.7269L76.8633 46.341L74.2492 43.2421Z" fill="#E2E2E2"/>
<path d="M77.658 40.3668L80.7569 37.7527L83.371 40.8516L80.2721 43.4657L77.658 40.3668Z" fill="#E2E2E2"/>
<path d="M81.0667 37.4911L84.1656 34.877L86.7797 37.9759L83.6808 40.59L81.0667 37.4911Z" fill="#E2E2E2"/>
<path d="M84.4755 34.615L87.5744 32.0009L90.1885 35.0998L87.0896 37.7139L84.4755 34.615Z" fill="#E2E2E2"/>
<path d="M84.6609 22.2595L87.7598 19.6453L90.3739 22.7443L87.275 25.3584L84.6609 22.2595Z" fill="#E2E2E2"/>
<path d="M84.176 27.9727L87.275 25.3584L89.8891 28.4575L86.7902 31.0716L84.176 27.9727Z" fill="#E2E2E2"/>
<path d="M85.1458 16.5462L88.2447 13.9321L90.8588 17.031L87.7598 19.6453L85.1458 16.5462Z" fill="#E2E2E2"/>
<path d="M85.6302 10.8342L88.7291 8.22007L91.3433 11.319L88.2444 13.9331L85.6302 10.8342Z" fill="#E2E2E2"/>
<path d="M88.3313 19.6943L91.4302 17.0801L94.0443 20.1791L90.9454 22.7932L88.3313 19.6943Z" fill="#E2E2E2"/>
<path d="M87.8464 25.4075L90.9454 22.7932L93.5595 25.8923L90.4606 28.5064L87.8464 25.4075Z" fill="#E2E2E2"/>
<path d="M88.8158 13.981L91.9147 11.3669L94.5288 14.4658L91.4302 17.0801L88.8158 13.981Z" fill="#E2E2E2"/>
<path d="M89.3006 8.26815L92.3995 5.65403L95.0137 8.75294L91.9147 11.3669L89.3006 8.26815Z" fill="#E2E2E2"/>
<path d="M91.5165 22.8417L94.6154 20.2276L97.2295 23.3265L94.1306 25.9407L91.5165 22.8417Z" fill="#E2E2E2"/>
<path d="M91.0316 28.5546L94.1306 25.9407L96.7446 29.0394L93.6457 31.6535L91.0316 28.5546Z" fill="#E2E2E2"/>
<path d="M92.0014 17.1285L95.1003 14.5144L97.7144 17.6133L94.6154 20.2276L92.0014 17.1285Z" fill="#E2E2E2"/>
<path d="M92.4862 11.4156L95.5851 8.80151L98.1993 11.9004L95.1003 14.5144L92.4862 11.4156Z" fill="#E2E2E2"/>
<path d="M87.6227 31.43L90.7217 28.8159L93.3358 31.9148L90.2369 34.5289L87.6227 31.43Z" fill="#E2E2E2"/>
<path d="M90.4985 34.8383L93.5974 32.2242L96.2115 35.3231L93.1126 37.9373L90.4985 34.8383Z" fill="#E2E2E2"/>
<path d="M93.3741 38.2475L96.4731 35.6334L99.0872 38.7323L95.9883 41.3464L93.3741 38.2475Z" fill="#E2E2E2"/>
<path d="M95.7646 47.3696L98.8635 44.7554L101.478 47.8544L98.3787 50.4685L95.7646 47.3696Z" fill="#E2E2E2"/>
<path d="M95.2801 53.082L98.3787 50.4685L100.993 53.5668L97.8942 56.1809L95.2801 53.082Z" fill="#E2E2E2"/>
<path d="M96.2494 41.6563L99.3483 39.0422L101.962 42.1411L98.8635 44.7554L96.2494 41.6563Z" fill="#E2E2E2"/>
<path d="M99.6582 38.7802L102.757 36.1661L105.371 39.265L102.272 41.8791L99.6582 38.7802Z" fill="#E2E2E2"/>
<path d="M93.9072 31.9631L97.0061 29.3489L99.6202 32.4479L96.5213 35.062L93.9072 31.9631Z" fill="#E2E2E2"/>
<path d="M96.7829 35.3718L99.8818 32.7577L102.496 35.8566L99.397 38.4707L96.7829 35.3718Z" fill="#E2E2E2"/>
<path d="M120.753 85.1662L123.852 82.5521L121.238 79.4532L118.139 82.0673L120.753 85.1662Z" fill="#E2E2E2"/>
<path d="M115.04 84.6809L118.139 82.0673L115.525 78.9679L112.426 81.582L115.04 84.6809Z" fill="#E2E2E2"/>
<path d="M126.466 85.6507L129.565 83.0365L126.951 79.9376L123.852 82.5521L126.466 85.6507Z" fill="#E2E2E2"/>
<path d="M132.179 86.1351L135.278 83.521L132.664 80.4221L129.565 83.0365L132.179 86.1351Z" fill="#E2E2E2"/>
<path d="M123.133 101.192L126.232 98.5774L123.618 95.4785L120.519 98.0926L123.133 101.192Z" fill="#E2E2E2"/>
<path d="M126.542 98.3162L129.641 95.7021L127.027 92.6032L123.928 95.2173L126.542 98.3162Z" fill="#E2E2E2"/>
<path d="M129.951 95.4401L133.05 92.826L130.436 89.7271L127.337 92.3412L129.951 95.4401Z" fill="#E2E2E2"/>
<path d="M133.36 92.5653L136.459 89.9511L133.844 86.8522L130.746 89.4664L133.36 92.5653Z" fill="#E2E2E2"/>
<path d="M143.586 83.9386L146.685 81.3245L144.071 78.2255L140.972 80.8397L143.586 83.9386Z" fill="#E2E2E2"/>
<path d="M136.768 89.69L139.867 87.0759L137.253 83.977L134.154 86.5911L136.768 89.69Z" fill="#E2E2E2"/>
<path d="M146.995 81.0629L150.094 78.4488L147.48 75.3498L144.381 77.964L146.995 81.0629Z" fill="#E2E2E2"/>
<path d="M140.177 86.8139L143.276 84.1997L140.662 81.1008L137.563 83.715L140.177 86.8139Z" fill="#E2E2E2"/>
<path d="M150.404 78.1872L153.503 75.5731L150.889 72.4741L147.79 75.0883L150.404 78.1872Z" fill="#E2E2E2"/>
<path d="M120.258 97.7828L123.357 95.1686L120.742 92.0697L117.644 94.6839L120.258 97.7828Z" fill="#E2E2E2"/>
<path d="M123.666 94.9071L126.765 92.2929L124.151 89.194L121.052 91.8082L123.666 94.9071Z" fill="#E2E2E2"/>
<path d="M127.076 92.0318L130.175 89.4177L127.56 86.3187L124.462 88.9329L127.076 92.0318Z" fill="#E2E2E2"/>
<path d="M117.382 94.3744L120.481 91.7603L117.867 88.6614L114.768 91.2755L117.382 94.3744Z" fill="#E2E2E2"/>
<path d="M120.791 91.4983L123.89 88.8842L121.276 85.7853L118.177 88.3994L120.791 91.4983Z" fill="#E2E2E2"/>
<path d="M114.507 90.9652L117.606 88.3511L114.992 85.2522L111.893 87.8663L114.507 90.9652Z" fill="#E2E2E2"/>
<path d="M111.631 87.5565L114.73 84.9423L112.116 81.8434L109.017 84.4576L111.631 87.5565Z" fill="#E2E2E2"/>
<path d="M108.756 84.1473L111.855 81.5332L109.241 78.4342L106.142 81.0484L108.756 84.1473Z" fill="#E2E2E2"/>
<path d="M112.165 81.272L115.263 78.6579L112.649 75.559L109.55 78.1731L112.165 81.272Z" fill="#E2E2E2"/>
<path d="M115.573 78.3967L118.672 75.7826L116.058 72.6837L112.959 75.2978L115.573 78.3967Z" fill="#E2E2E2"/>
<path d="M118.982 75.521L122.081 72.9069L119.467 69.808L116.368 72.4221L118.982 75.521Z" fill="#E2E2E2"/>
<path d="M131.192 77.4202L134.291 74.806L131.677 71.7071L128.578 74.3213L131.192 77.4202Z" fill="#E2E2E2"/>
<path d="M125.479 76.9349L128.578 74.3213L125.964 71.2218L122.865 73.836L125.479 76.9349Z" fill="#E2E2E2"/>
<path d="M136.905 77.9046L140.004 75.2905L137.39 72.1916L134.291 74.806L136.905 77.9046Z" fill="#E2E2E2"/>
<path d="M142.618 78.3899L145.717 75.7758L143.103 72.6769L140.004 75.2905L142.618 78.3899Z" fill="#E2E2E2"/>
<path d="M134.34 74.2345L137.439 71.6203L134.825 68.5214L131.726 71.1355L134.34 74.2345Z" fill="#E2E2E2"/>
<path d="M128.627 73.7496L131.726 71.1355L129.112 68.0365L126.013 70.6507L128.627 73.7496Z" fill="#E2E2E2"/>
<path d="M140.053 74.7193L143.152 72.1052L140.538 69.0063L137.439 71.6203L140.053 74.7193Z" fill="#E2E2E2"/>
<path d="M145.766 75.2042L148.865 72.5901L146.251 69.4912L143.152 72.1052L145.766 75.2042Z" fill="#E2E2E2"/>
<path d="M131.774 70.5647L134.873 67.9505L132.259 64.8516L129.16 67.4658L131.774 70.5647Z" fill="#E2E2E2"/>
<path d="M126.061 70.0798L129.16 67.4658L126.546 64.3668L123.447 66.9809L126.061 70.0798Z" fill="#E2E2E2"/>
<path d="M137.487 71.0491L140.586 68.435L137.972 65.3361L134.873 67.9505L137.487 71.0491Z" fill="#E2E2E2"/>
<path d="M143.2 71.534L146.299 68.9199L143.685 65.821L140.586 68.435L143.2 71.534Z" fill="#E2E2E2"/>
<path d="M122.652 72.955L125.751 70.3409L123.137 67.242L120.038 69.8561L122.652 72.955Z" fill="#E2E2E2"/>
<path d="M119.777 69.5467L122.876 66.9325L120.262 63.8336L117.163 66.4478L119.777 69.5467Z" fill="#E2E2E2"/>
<path d="M116.901 66.1379L120 63.5238L117.386 60.4249L114.287 63.039L116.901 66.1379Z" fill="#E2E2E2"/>
<path d="M108.313 62.2443L111.412 59.6301L108.798 56.5312L105.699 59.1453L108.313 62.2443Z" fill="#E2E2E2"/>
<path d="M102.6 61.7594L105.699 59.1453L103.084 56.0464L99.9854 58.6605L102.6 61.7594Z" fill="#E2E2E2"/>
<path d="M114.026 62.7287L117.125 60.1146L114.51 57.0157L111.412 59.6301L114.026 62.7287Z" fill="#E2E2E2"/>
<path d="M117.434 59.853L120.533 57.2389L117.919 54.14L114.82 56.7541L117.434 59.853Z" fill="#E2E2E2"/>
<path d="M123.186 66.671L126.285 64.0568L123.671 60.9579L120.572 63.5721L123.186 66.671Z" fill="#E2E2E2"/>
<path d="M120.31 63.2622L123.409 60.6481L120.795 57.5492L117.696 60.1633L120.31 63.2622Z" fill="#E2E2E2"/>
<path d="M105.642 49.6458L108.741 47.0317L111.355 50.1306L108.256 52.7447L105.642 49.6458Z" fill="#E2E2E2"/>
<path d="M74.3426 76.0476L77.4415 73.4335L80.0557 76.5324L76.9568 79.1465L74.3426 76.0476Z" fill="#E2E2E2"/>
<path d="M67.7988 58.2305L70.8977 55.6164L73.5119 58.7153L70.413 61.3294L67.7988 58.2305Z" fill="#E2E2E2"/>
<path d="M73.0272 64.4286L76.1261 61.8145L78.7403 64.9134L75.6413 67.5275L73.0272 64.4286Z" fill="#E2E2E2"/>
<path d="M79.225 59.1998L82.3239 56.5857L84.938 59.6846L81.8391 62.2987L79.225 59.1998Z" fill="#E2E2E2"/>
<path d="M68.2837 52.5176L71.3826 49.9035L73.9967 53.0024L70.8977 55.6164L68.2837 52.5176Z" fill="#E2E2E2"/>
<path d="M73.5119 58.7153L76.611 56.1012L79.225 59.1998L76.1261 61.8145L73.5119 58.7153Z" fill="#E2E2E2"/>
<path d="M79.7098 53.4874L82.8087 50.8733L85.4229 53.9722L82.3239 56.5857L79.7098 53.4874Z" fill="#E2E2E2"/>
<path d="M68.7686 46.8044L71.8675 44.1902L74.4816 47.2892L71.3826 49.9035L68.7686 46.8044Z" fill="#E2E2E2"/>
<path d="M73.9967 53.0024L77.0959 50.388L79.7098 53.4874L76.611 56.1012L73.9967 53.0024Z" fill="#E2E2E2"/>
<path d="M80.1947 47.7741L83.2936 45.16L85.9077 48.2589L82.8087 50.8733L80.1947 47.7741Z" fill="#E2E2E2"/>
<path d="M59.2632 81.4369L56.6771 78.3145L59.7995 75.7285L62.3855 78.8508L59.2632 81.4369Z" fill="#E2E2E2"/>
<path d="M65.5079 76.2655L62.9218 73.1431L66.0441 70.5571L68.6302 73.6794L65.5079 76.2655Z" fill="#E2E2E2"/>
<path d="M60.3356 70.0208L57.7495 66.8985L60.8719 64.3124L63.458 67.4348L60.3356 70.0208Z" fill="#E2E2E2"/>
<path d="M53.5545 80.9013L50.9685 77.779L54.0908 75.1929L56.6771 78.3145L53.5545 80.9013Z" fill="#E2E2E2"/>
<path d="M59.7995 75.7285L57.2135 72.6067L60.3356 70.0208L62.9218 73.1431L59.7995 75.7285Z" fill="#E2E2E2"/>
<path d="M54.6274 69.4844L52.0413 66.3621L55.1636 63.776L57.7495 66.8985L54.6274 69.4844Z" fill="#E2E2E2"/>
<path d="M47.8463 80.3649L45.2602 77.2425L48.3826 74.6565L50.9685 77.779L47.8463 80.3649Z" fill="#E2E2E2"/>
<path d="M54.0908 75.1929L51.5049 72.0703L54.6274 69.4844L57.2135 72.6067L54.0908 75.1929Z" fill="#E2E2E2"/>
<path d="M48.9187 68.9476L46.3326 65.8252L49.455 63.2392L52.0413 66.3621L48.9187 68.9476Z" fill="#E2E2E2"/>
<path d="M86.5115 93.7681L83.4125 96.3823L80.7984 93.2834L83.8973 90.6692L86.5115 93.7681Z" fill="#E2E2E2"/>
<path d="M81.2831 87.57L78.1842 90.1841L75.57 87.0852L78.6689 84.4711L81.2831 87.57Z" fill="#E2E2E2"/>
<path d="M75.0853 92.7988L71.9864 95.4129L69.3723 92.314L72.4712 89.6999L75.0853 92.7988Z" fill="#E2E2E2"/>
<path d="M86.0266 99.4806L82.9277 102.095L80.3136 98.9958L83.4125 96.3823L86.0266 99.4806Z" fill="#E2E2E2"/>
<path d="M80.7984 93.2834L77.6993 95.8974L75.0853 92.7988L78.1842 90.1841L80.7984 93.2834Z" fill="#E2E2E2"/>
<path d="M74.6005 98.5117L71.5016 101.126L68.8874 98.0269L71.9864 95.4129L74.6005 98.5117Z" fill="#E2E2E2"/>
<path d="M85.5417 105.194L82.4428 107.808L79.8287 104.709L82.9277 102.095L85.5417 105.194Z" fill="#E2E2E2"/>
<path d="M80.3136 98.9958L77.2148 101.61L74.6005 98.5117L77.6993 95.8974L80.3136 98.9958Z" fill="#E2E2E2"/>
<path d="M74.1156 104.225L71.0167 106.839L68.4026 103.74L71.5016 101.126L74.1156 104.225Z" fill="#E2E2E2"/>
<path d="M94.6049 72.3003L97.2191 75.3993L94.1202 78.0134L91.506 74.9145L94.6049 72.3003Z" fill="#E2E2E2"/>
<path d="M88.4068 77.5287L91.0209 80.6277L87.922 83.2418L85.3079 80.1429L88.4068 77.5287Z" fill="#E2E2E2"/>
<path d="M93.6352 83.7269L96.2493 86.8258L93.1504 89.4399L90.5363 86.341L93.6352 83.7269Z" fill="#E2E2E2"/>
<path d="M100.318 72.7852L102.932 75.8841L99.833 78.4983L97.2191 75.3993L100.318 72.7852Z" fill="#E2E2E2"/>
<path d="M94.1202 78.0134L96.7342 81.1125L93.6352 83.7269L91.0209 80.6277L94.1202 78.0134Z" fill="#E2E2E2"/>
<path d="M99.3485 84.2113L101.963 87.3102L98.8637 89.9244L96.2493 86.8258L99.3485 84.2113Z" fill="#E2E2E2"/>
<path d="M106.031 73.2701L108.645 76.369L105.546 78.9831L102.932 75.8841L106.031 73.2701Z" fill="#E2E2E2"/>
<path d="M99.833 78.4983L102.447 81.5974L99.3485 84.2113L96.7342 81.1125L99.833 78.4983Z" fill="#E2E2E2"/>
<path d="M105.061 84.6966L107.675 87.7955L104.577 90.4097L101.963 87.3102L105.061 84.6966Z" fill="#E2E2E2"/>
<path d="M33.582 54.1085L30.8783 51.0875L33.8993 48.3838L36.6033 51.4056L33.582 54.1085Z" fill="#E2E2E2"/>
<path d="M98.643 111.773L95.5441 114.387L92.93 111.288L96.0289 108.674L98.643 111.773Z" fill="#E2E2E2"/>
<path d="M109.105 97.5284L111.809 100.549L108.788 103.253L106.084 100.232L109.105 97.5284Z" fill="#E2E2E2"/>
<path d="M99.1279 106.06L96.0289 108.674L93.4149 105.575L96.5138 102.961L99.1279 106.06Z" fill="#E2E2E2"/>
<path d="M103.38 97.2111L106.084 100.232L103.063 102.936L100.359 99.9149L103.38 97.2111Z" fill="#E2E2E2"/>
<path d="M98.1582 117.486L95.0593 120.1L92.4451 117.001L95.5441 114.387L98.1582 117.486Z" fill="#E2E2E2"/>
<path d="M114.829 97.8456L117.533 100.867L114.512 103.57L111.809 100.549L114.829 97.8456Z" fill="#E2E2E2"/>
<path d="M97.6737 123.199L94.5748 125.813L91.9607 122.715L95.0593 120.1L97.6737 123.199Z" fill="#E2E2E2"/>
<path d="M112.422 115.531L109.323 118.146L106.709 115.047L109.808 112.433L112.422 115.531Z" fill="#E2E2E2"/>
<path d="M120.554 98.1629L123.258 101.184L120.237 103.888L117.533 100.867L120.554 98.1629Z" fill="#E2E2E2"/>
</svg>
