<svg width="64" height="64" viewBox="0 0 64 64" fill="none" xmlns="http://www.w3.org/2000/svg">
<path d="M64 32C64 49.6731 49.6731 64 32 64C14.3269 64 0 49.6731 0 32C0 14.3269 14.3269 0 32 0C49.6731 0 64 14.3269 64 32Z" fill="#F0BB12"/>
<path d="M36.2645 39.6035L29.348 32.576C29.1963 32.4227 29.1112 32.2157 29.1112 32C29.1112 31.7843 29.1963 31.5773 29.348 31.424L36.263 24.3965C36.4146 24.2422 36.4996 24.0346 36.4996 23.8182C36.4996 23.6019 36.4146 23.3943 36.263 23.24C36.1889 23.164 36.1004 23.1037 36.0026 23.0624C35.9049 23.0212 35.7999 23 35.6937 23C35.5876 23 35.4826 23.0212 35.3849 23.0624C35.2871 23.1037 35.1986 23.164 35.1245 23.24L28.2095 30.266C27.7551 30.7288 27.5005 31.3514 27.5005 32C27.5005 32.6486 27.7551 33.2712 28.2095 33.734L35.1245 40.76C35.1986 40.8362 35.2872 40.8968 35.3851 40.9381C35.483 40.9795 35.5882 41.0008 35.6945 41.0008C35.8008 41.0008 35.906 40.9795 36.0039 40.9381C36.1018 40.8968 36.1904 40.8362 36.2645 40.76C36.4161 40.6057 36.5011 40.3981 36.5011 40.1818C36.5011 39.9654 36.4161 39.7578 36.2645 39.6035Z" fill="white"/>
</svg>
