<svg width="88" height="31" viewBox="0 0 88 31" fill="none" xmlns="http://www.w3.org/2000/svg">
<path d="M39.7619 1.32491C39.7619 1.13574 39.7819 0.989564 39.8221 0.886379H37.4488C37.489 0.989564 37.509 1.13574 37.509 1.32491V6.34655L37.5176 6.62171C37.5176 6.74783 37.5004 6.84241 37.466 6.90547C37.4316 6.96853 37.36 7.00005 37.2511 7.00005H36.2192V6.91407H36.2278C36.3597 6.91407 36.4485 6.86821 36.4944 6.77649C36.5402 6.68477 36.5632 6.52999 36.5632 6.31216V1.31631C36.5632 1.12714 36.5144 0.980965 36.417 0.877781C36.3253 0.768864 36.2049 0.714405 36.0558 0.714405H36.0472V0.628418H41.2237V0.714405H41.2151C41.066 0.714405 40.9428 0.768864 40.8453 0.877781C40.7536 0.980965 40.7077 1.12714 40.7077 1.31631V6.32076C40.7077 6.53859 40.7307 6.69337 40.7765 6.78509C40.8224 6.87681 40.9112 6.92267 41.0431 6.92267H41.0517V7.00865H40.0198C39.9109 7.00865 39.8393 6.97712 39.8049 6.91407C39.7705 6.85101 39.7533 6.75642 39.7533 6.63031L39.7619 6.35515V1.32491Z" fill="#333333"/>
<path d="M43.1279 9.24431C43.0362 9.12966 42.9904 8.98062 42.9904 8.79718L42.999 8.53062V3.16503C42.999 2.97586 42.9646 2.82969 42.8958 2.7265C42.8327 2.61758 42.7267 2.52586 42.5776 2.45134H43.4203C43.5579 2.45134 43.6496 2.48287 43.6955 2.54593C43.7413 2.60325 43.7642 2.72077 43.7642 2.89847C43.7642 3.01312 43.7614 3.10771 43.7556 3.18223V3.19083C43.7556 3.42013 43.7528 3.54051 43.747 3.55198C43.747 3.55771 43.7499 3.56631 43.7556 3.57777C43.7671 3.58924 43.7786 3.59497 43.79 3.59497C43.8072 3.59497 43.8273 3.5835 43.8502 3.56057L43.9362 3.47459C44.1942 3.22236 44.4063 3.03032 44.5725 2.89847C44.7388 2.76663 44.9279 2.66058 45.14 2.58032C45.3579 2.49434 45.6044 2.45134 45.8795 2.45134C46.1203 2.45134 46.3267 2.5144 46.4986 2.64051C46.6706 2.7609 46.7996 2.90994 46.8856 3.08765C46.9773 3.26535 47.0289 3.43733 47.0403 3.60357V3.68096C47.0403 4.0421 46.8999 4.40898 46.619 4.78159C46.3381 5.1542 45.8795 5.49528 45.2432 5.80483C45.2547 5.95388 45.3091 6.11152 45.4066 6.27776C45.5098 6.43827 45.6359 6.57299 45.7849 6.6819C45.934 6.79082 46.0888 6.84528 46.2493 6.84528C46.0601 6.95419 45.848 7.00865 45.613 7.00865C45.4869 7.00865 45.3722 6.99432 45.269 6.96566C45.1429 6.93126 45.0197 6.85101 44.8993 6.7249C44.7789 6.59878 44.6155 6.40388 44.4091 6.14018L44.2544 5.93382C44.6499 5.86503 44.9881 5.71025 45.269 5.46949C45.5556 5.22299 45.7706 4.93923 45.9139 4.61821C46.0572 4.2972 46.1289 3.98478 46.1289 3.68096C46.1289 3.41726 46.0716 3.2023 45.9569 3.03605C45.848 2.86408 45.6904 2.77809 45.484 2.77809C45.398 2.77809 45.3177 2.78956 45.2432 2.81249C44.6986 2.96726 44.3375 3.36567 44.1598 4.00771C43.9821 4.64974 43.8932 5.30611 43.8932 5.97681V8.53062C43.8932 8.651 43.9248 8.78285 43.9878 8.92616C44.0566 9.07521 44.1627 9.18126 44.306 9.24431H43.1279Z" fill="#333333"/>
<path d="M50.0019 7.06884C49.6522 7.06884 49.3168 6.96279 48.9958 6.75069C48.6805 6.53859 48.4226 6.25483 48.2219 5.89942C48.027 5.53828 47.9296 5.15133 47.9296 4.7386C47.9296 4.32013 48.027 3.93032 48.2219 3.56917C48.4226 3.2023 48.6805 2.91281 48.9958 2.7007C49.3168 2.4886 49.6522 2.38255 50.0019 2.38255C50.3458 2.38255 50.6754 2.4886 50.9907 2.7007C51.3117 2.91281 51.5697 3.2023 51.7646 3.56917C51.9652 3.93032 52.0655 4.32013 52.0655 4.7386C52.0655 5.15133 51.9681 5.53828 51.7732 5.89942C51.5783 6.25483 51.3203 6.53859 50.9993 6.75069C50.684 6.96279 50.3515 7.06884 50.0019 7.06884ZM48.9958 6.10579C48.9958 6.27203 49.056 6.41534 49.1764 6.53572C49.3025 6.65611 49.4343 6.7163 49.5719 6.7163C49.6636 6.7163 49.7468 6.6905 49.8213 6.63891C49.9015 6.58732 49.9617 6.51853 50.0019 6.43254C50.042 6.51853 50.0993 6.58732 50.1738 6.63891C50.2484 6.6905 50.3315 6.7163 50.4232 6.7163C50.5608 6.7163 50.6869 6.65611 50.8015 6.53572C50.9219 6.41534 50.9821 6.27203 50.9821 6.10579V3.32841C50.9821 3.1679 50.9219 3.02459 50.8015 2.89847C50.6869 2.77236 50.5608 2.7093 50.4232 2.7093C50.3372 2.7093 50.2541 2.73797 50.1738 2.79529C50.0993 2.84688 50.042 2.91567 50.0019 3.00166C49.9617 2.91567 49.9015 2.84688 49.8213 2.79529C49.741 2.73797 49.6579 2.7093 49.5719 2.7093C49.4343 2.7093 49.3025 2.77236 49.1764 2.89847C49.056 3.02459 48.9958 3.1679 48.9958 3.32841V6.10579Z" fill="#333333"/>
<path d="M7.28919 24.7682C6.42748 24.7682 5.65053 24.5492 4.95833 24.1113C4.28026 23.6593 3.75052 23.0872 3.36911 22.395C3.00182 21.7028 2.81818 21.0035 2.81818 20.2972C2.81818 19.4355 3.07951 18.6868 3.60219 18.0511C4.139 17.4013 4.9442 17.0764 6.01781 17.0764L2.7758 10.6347C2.57803 10.1827 2.28137 9.82244 1.88583 9.55403C1.49029 9.28563 1.09475 9.15143 0.69921 9.15143H0.67802L0.593262 8.93953H3.36911C3.7929 8.93953 4.16019 9.08786 4.47097 9.38452C4.78175 9.66705 5.06428 10.0908 5.31855 10.6559L8.24273 16.3771L10.9126 11.228C11.0539 10.9596 11.1245 10.7053 11.1245 10.4652C11.1245 9.84363 10.6583 9.33507 9.726 8.93953H12.1416C12.297 9.09492 12.41 9.24325 12.4807 9.38452C12.5654 9.52578 12.6078 9.70236 12.6078 9.91426C12.6078 10.225 12.3959 10.776 11.9721 11.5671C11.5483 12.344 10.9197 13.4176 10.0862 14.7879C9.42228 15.8756 8.9773 16.6314 8.75128 17.0552C9.76838 17.0552 10.5312 17.3518 11.0398 17.9451C11.5624 18.5384 11.8238 19.2518 11.8238 20.0853C11.8238 20.8057 11.626 21.5333 11.2305 22.2678C10.8349 22.9883 10.284 23.5886 9.57767 24.0689C8.88548 24.5351 8.12265 24.7682 7.28919 24.7682ZM4.74643 20.721C4.74643 21.837 4.96539 22.6846 5.40331 23.2637C5.84123 23.8429 6.46986 24.1325 7.28919 24.1325C7.98139 24.1325 8.56763 23.85 9.04793 23.2849C9.54236 22.7199 9.8037 21.9288 9.83195 20.9117C9.8602 20.0641 9.77544 19.3578 9.57767 18.7927C9.39403 18.2277 9.04793 17.9451 8.53938 17.9451C8.28511 17.9451 8.07321 18.0511 7.90369 18.263C7.7483 18.4749 7.58585 18.7715 7.41633 19.1529C7.31744 18.828 7.15499 18.5455 6.92897 18.3054C6.70294 18.0652 6.45573 17.9451 6.18733 17.9451C5.70703 17.9451 5.34681 18.2277 5.10666 18.7927C4.86651 19.3437 4.74643 19.9864 4.74643 20.721Z" fill="#333333"/>
<path d="M25.8065 30.3623C25.2414 30.3623 24.754 30.1151 24.3444 29.6206C24.0053 29.2251 23.7299 28.8507 23.518 28.4976C23.3061 28.1585 23.1083 27.5652 22.9247 26.7177C22.741 25.8701 22.6492 24.74 22.6492 23.3273V23.2214C22.6492 22.1901 22.4726 21.1095 22.1195 19.9793C21.7804 18.8351 21.0812 18.263 20.0217 18.263C19.7815 18.263 19.5767 18.2912 19.4072 18.3477C19.2377 18.3901 19.0328 18.4678 18.7927 18.5808C18.8916 17.6202 19.1953 16.7373 19.7038 15.9321C20.2265 15.1128 20.8905 14.47 21.6957 14.0039C22.5009 13.5236 23.3626 13.2834 24.2808 13.2834C24.4362 13.2834 24.6693 13.2975 24.9801 13.3258C24.7823 13.6931 24.6057 14.2087 24.4503 14.8726C24.3091 15.5366 24.2384 16.1723 24.2384 16.7797C24.083 16.2288 23.8429 15.7838 23.518 15.4448C23.2072 15.0916 22.741 14.915 22.1195 14.915C21.7239 14.915 21.3637 15.0139 21.0388 15.2117C20.7139 15.3953 20.4525 15.6425 20.2548 15.9533C20.0711 16.2641 19.9793 16.5819 19.9793 16.9068C19.9793 17.147 20.0076 17.3518 20.0641 17.5213C20.1347 17.6909 20.2477 17.7756 20.4031 17.7756L21.4414 17.7544C22.402 17.7403 23.1224 17.9239 23.6027 18.3054C24.083 18.6726 24.3868 19.1176 24.5139 19.6403C24.641 20.1489 24.7046 20.7351 24.7046 21.399C24.7046 21.5827 24.6693 21.8652 24.5987 22.2466C24.5421 22.6139 24.5068 22.8611 24.4927 22.9883C24.2102 24.5281 24.0689 25.7147 24.0689 26.5481C24.0689 27.5511 24.2314 28.3493 24.5563 28.9426C24.7964 29.3805 25.1001 29.5994 25.4674 29.5994C25.8912 29.5994 26.3009 29.3734 26.6964 28.9214C27.092 28.4693 27.4098 27.8901 27.65 27.1838C27.9042 26.4916 28.0384 25.8136 28.0526 25.1496L28.0738 25.2556C28.0738 26.2585 27.9466 27.2756 27.6923 28.3069C27.4381 29.3381 27.0284 29.9809 26.4633 30.2351C26.2514 30.3199 26.0325 30.3623 25.8065 30.3623ZM14.8726 8.66407H17.3094C17.705 8.66407 17.9804 8.8124 18.1358 9.10905C18.2912 9.39158 18.3689 9.81537 18.3689 10.3804V22.9035C18.3689 23.4403 18.4254 23.8217 18.5384 24.0478C18.6514 24.2738 18.8704 24.3868 19.1953 24.3868H19.2165V24.5987H16.7797C16.5113 24.5987 16.3347 24.521 16.2499 24.3656C16.1652 24.2102 16.1228 23.9771 16.1228 23.6663L16.144 22.9883V10.3592C16.144 9.89307 16.0239 9.53284 15.7838 9.27857C15.5577 9.01017 15.2611 8.87596 14.8938 8.87596H14.8726V8.66407Z" fill="#333333"/>
<path d="M30.1344 30.1292C29.9084 29.8467 29.7954 29.4794 29.7954 29.0273L29.8166 28.3704V15.1481C29.8166 14.6819 29.7318 14.3217 29.5623 14.0674C29.4069 13.799 29.1456 13.573 28.7783 13.3894H30.8549C31.1939 13.3894 31.42 13.4671 31.533 13.6224C31.646 13.7637 31.7025 14.0533 31.7025 14.4912C31.7025 14.7738 31.6954 15.0068 31.6813 15.1905V15.2117C31.6813 15.7767 31.6742 16.0734 31.6601 16.1016C31.6601 16.1158 31.6672 16.137 31.6813 16.1652C31.7095 16.1935 31.7378 16.2076 31.7661 16.2076C31.8084 16.2076 31.8579 16.1793 31.9144 16.1228L32.1263 15.9109C32.762 15.2894 33.2846 14.8161 33.6943 14.4912C34.104 14.1663 34.5701 13.905 35.0928 13.7072C35.6296 13.4953 36.2371 13.3894 36.9151 13.3894C37.5084 13.3894 38.017 13.5448 38.4408 13.8555C38.8646 14.1522 39.1824 14.5195 39.3943 14.9574C39.6203 15.3953 39.7475 15.8191 39.7757 16.2288V16.4195C39.7757 17.3094 39.4296 18.2135 38.7374 19.1318C38.0453 20.05 36.9151 20.8905 35.3471 21.6533C35.3754 22.0206 35.5096 22.4091 35.7497 22.8188C36.004 23.2143 36.3148 23.5463 36.6821 23.8147C37.0493 24.0831 37.4308 24.2173 37.8263 24.2173C37.3601 24.4857 36.8374 24.6199 36.2583 24.6199C35.9475 24.6199 35.6649 24.5846 35.4107 24.5139C35.0999 24.4292 34.7962 24.2314 34.4995 23.9206C34.2029 23.6098 33.8003 23.1295 33.2917 22.4797L32.9103 21.9712C33.885 21.8017 34.7185 21.4202 35.4107 20.8269C36.117 20.2195 36.6467 19.5202 36.9999 18.7292C37.3531 17.9381 37.5296 17.1682 37.5296 16.4195C37.5296 15.7697 37.3884 15.2399 37.1058 14.8303C36.8374 14.4065 36.449 14.1946 35.9404 14.1946C35.7285 14.1946 35.5307 14.2228 35.3471 14.2793C34.0051 14.6607 33.1151 15.6425 32.6772 17.2247C32.2393 18.8068 32.0203 20.4243 32.0203 22.0771V28.3704C32.0203 28.6671 32.098 28.992 32.2534 29.3452C32.4229 29.7125 32.6843 29.9738 33.0374 30.1292H30.1344Z" fill="#333333"/>
<path d="M39.9204 24.6411C40.2736 24.3727 40.5279 24.1113 40.6833 23.857C40.8386 23.5886 40.9305 23.3344 40.9587 23.0942C41.0011 22.8399 41.0223 22.508 41.0223 22.0983C41.0364 21.3637 41.1141 20.6927 41.2554 20.0853C41.4108 19.4779 41.771 18.7433 42.336 17.8816C42.6751 17.3871 43.0494 16.928 43.4591 16.5042C43.8688 16.0663 44.3561 15.6072 44.9212 15.1269C44.6952 14.576 44.4126 14.1804 44.0736 13.9403C43.7346 13.7001 43.3178 13.5801 42.8234 13.5801H42.8022L42.7387 13.3682H45.7476C46.355 13.3682 46.8989 13.912 47.3792 14.9998L47.5487 15.4659L47.697 15.8897L50.1762 22.6492L50.3034 22.9671C50.3457 23.066 50.4234 23.2637 50.5364 23.5604C50.6495 23.857 50.706 24.0831 50.706 24.2385C50.706 24.3656 50.6706 24.4574 50.6 24.5139C50.5435 24.5704 50.4305 24.5987 50.261 24.5987H47.7606L47.697 24.3868H47.7182C47.9019 24.3868 48.0361 24.3585 48.1208 24.302C48.2056 24.2314 48.248 24.1184 48.248 23.963C48.248 23.8076 48.1491 23.4474 47.9513 22.8823L46.6375 19.386C46.4256 20.5727 46.0372 21.505 45.4721 22.1831C44.9212 22.8611 44.229 23.3838 43.3955 23.7511C42.5762 24.1043 41.4461 24.4645 40.0052 24.8318L39.9204 24.6411ZM42.8658 23.2002C43.4167 23.0448 43.9323 22.734 44.4126 22.2678C44.8929 21.7875 45.2814 21.2083 45.5781 20.5303C45.8747 19.8381 46.023 19.1106 46.023 18.3477V18.0299C46.023 17.7897 45.9242 17.4083 45.7264 16.8857C45.5286 16.3488 45.3591 15.9886 45.2178 15.805C44.9918 15.918 44.7164 16.1793 44.3914 16.589C44.0807 16.9845 43.7981 17.479 43.5439 18.0723C43.3037 18.6656 43.1554 19.273 43.0989 19.8946C43.0848 20.0217 43.0777 20.2054 43.0777 20.4455L43.0989 21.1236C43.113 21.2648 43.1201 21.4697 43.1201 21.7381C43.1201 22.2749 43.0353 22.7623 42.8658 23.2002Z" fill="#333333"/>
<path d="M55.1672 12.7749C54.8706 12.7749 54.5103 12.7678 54.0865 12.7537C53.6769 12.7254 53.3732 12.6901 53.1754 12.6477C53.5003 12.45 53.7122 12.2381 53.8111 12.012C53.91 11.786 53.9876 11.4894 54.0442 11.1221C54.0865 10.7972 54.143 10.5217 54.2137 10.2957C54.2984 10.0696 54.4468 9.84363 54.6587 9.6176C54.8564 9.40571 55.2025 9.215 55.6969 9.04548C56.2055 8.86184 56.7352 8.77002 57.2862 8.77002C56.8765 8.98191 56.5798 9.22913 56.3962 9.51165C56.2267 9.78006 56.1137 10.1262 56.0572 10.5499C56.0148 10.8607 55.923 11.1574 55.7817 11.4399C55.6404 11.7083 55.4639 11.9343 55.252 12.118C55.0966 12.2451 54.8494 12.344 54.5103 12.4146C54.1854 12.4711 54.0724 12.4994 54.1713 12.4994C54.2843 12.5135 54.4891 12.5206 54.7858 12.5206C55.6616 12.5206 56.262 12.3934 56.5869 12.1392C57.039 11.8284 57.3286 11.2986 57.4557 10.5499C57.5122 10.0979 57.7241 9.68823 58.0914 9.32095C58.4728 8.95366 58.9813 8.77002 59.617 8.77002H59.6806C59.3698 8.95366 59.1721 9.1373 59.0873 9.32095C59.0167 9.50459 58.9672 9.76593 58.939 10.105L58.8966 10.5499C58.7836 11.2986 58.3598 11.8566 57.6252 12.2239C56.9048 12.5912 56.0854 12.7749 55.1672 12.7749ZM53.7475 13.3682H56.1843C56.5799 13.3682 56.8553 13.5165 57.0107 13.8132C57.1661 14.0957 57.2438 14.5195 57.2438 15.0845V22.9035C57.2438 23.4403 57.3003 23.8217 57.4133 24.0478C57.5263 24.2738 57.7453 24.3868 58.0702 24.3868H58.0914V24.5987H55.6546C55.3862 24.5987 55.2096 24.521 55.1248 24.3656C55.0401 24.2102 54.9977 23.9771 54.9977 23.6663L55.0189 22.9883V15.0633C55.0189 14.5972 54.8988 14.2369 54.6587 13.9827C54.4326 13.7143 54.136 13.5801 53.7687 13.5801H53.7475V13.3682Z" fill="#333333"/>
<path d="M70.7241 21.5686C70.6252 21.2013 70.3709 20.7704 69.9612 20.276C69.5516 19.7816 69.0642 19.3507 68.4991 18.9834C68.0188 18.6585 67.5739 18.27 67.1642 17.818C66.7687 17.366 66.4579 16.8927 66.2318 16.3983V22.9883L66.253 23.6663C66.253 23.9771 66.2107 24.2102 66.1259 24.3656C66.0411 24.521 65.8646 24.5987 65.5962 24.5987H63.1593V24.3868H63.1805C63.5054 24.3868 63.7244 24.2738 63.8374 24.0478C63.9504 23.8217 64.0069 23.4403 64.0069 22.9035V15.0633C64.0069 14.5972 63.8869 14.2369 63.6467 13.9827C63.4207 13.7143 63.124 13.5801 62.7567 13.5801H62.7356V13.3682H65.1724C65.5679 13.3682 65.8434 13.5165 65.9988 13.8132C66.1542 14.0957 66.2318 14.5195 66.2318 15.0845C66.359 15.579 66.5921 16.0028 66.9311 16.3559C67.2701 16.6949 67.7292 17.0693 68.3084 17.479L68.6051 17.6909C69.0854 18.0299 69.5162 18.4678 69.8977 19.0046C70.2791 19.5414 70.5545 20.0429 70.7241 20.5091V15.0845C70.7241 14.5195 70.8017 14.0957 70.9571 13.8132C71.1125 13.5165 71.388 13.3682 71.7835 13.3682H74.2203V13.5801H74.1992C73.8319 13.5801 73.5282 13.7143 73.288 13.9827C73.062 14.2369 72.949 14.5972 72.949 15.0633V22.9035C72.949 23.4403 73.0055 23.8217 73.1185 24.0478C73.2315 24.2738 73.4505 24.3868 73.7754 24.3868H73.7966V24.5987H71.3597C71.0913 24.5987 70.9148 24.521 70.83 24.3656C70.7452 24.2102 70.7029 23.9771 70.7029 23.6663L70.7241 22.9883V21.5686Z" fill="#333333"/>
<path d="M81.5993 28.879C81.4863 28.879 81.3027 28.8649 81.0484 28.8366C80.3986 28.766 79.8264 28.547 79.332 28.1797C78.8517 27.8125 78.4844 27.3604 78.2302 26.8236C77.99 26.2868 77.8699 25.7288 77.8699 25.1496C77.8699 24.3444 78.1171 23.6593 78.6116 23.0942C79.106 22.5292 79.8123 22.2466 80.7305 22.2466C80.8294 22.2466 81.0343 22.2608 81.345 22.289C81.5852 22.3455 82.0302 22.508 82.68 22.7764C83.019 22.9318 83.2168 23.0095 83.2733 23.0095C82.8495 21.4556 82.3621 20.1842 81.8112 19.1953C81.2603 18.2065 80.5116 17.2953 79.5651 16.4619C79.2684 16.2076 78.9223 15.9816 78.5268 15.7838C78.1454 15.586 77.764 15.4871 77.3826 15.4871C77.0718 15.4871 76.7893 15.5648 76.535 15.7202L78.6963 13.8555C78.7387 13.8414 78.8093 13.8343 78.9082 13.8343C79.6004 13.8343 80.4409 14.2581 81.4298 15.1057C82.4186 15.9533 83.2804 17.1399 84.0149 18.6656C84.7495 20.1771 85.1168 21.9005 85.1168 23.8359C85.1168 24.189 85.1097 24.4574 85.0956 24.6411C83.8101 23.7228 82.6517 23.2637 81.6205 23.2637C80.8435 23.2637 80.2361 23.518 79.7982 24.0266C79.3744 24.521 79.1625 25.1143 79.1625 25.8065C79.1625 26.3857 79.325 26.9013 79.6499 27.3533C79.9748 27.8195 80.4409 28.1162 81.0484 28.2433C81.2744 28.2998 81.5216 28.3281 81.79 28.3281C82.8636 28.3281 83.7465 27.8407 84.4387 26.866C85.145 25.9054 85.6607 24.6976 85.9856 23.2425C86.3105 21.7734 86.4729 20.276 86.4729 18.7503C86.4729 17.7191 86.3952 16.8009 86.2398 15.9957C86.0986 15.1764 85.9079 14.6042 85.6677 14.2793C85.4276 13.912 85.2086 13.6578 85.0108 13.5165C84.8272 13.3752 84.6789 13.2834 84.5659 13.241C84.4529 13.1987 84.3822 13.1704 84.354 13.1563C84.2833 13.128 84.5376 13.015 85.1168 12.8172C85.696 12.6053 86.0845 12.4994 86.2822 12.4994C86.4235 12.4994 86.5577 12.7395 86.6848 13.2198C86.812 13.686 86.9179 14.3288 87.0027 15.1481C87.0874 15.9533 87.1298 16.8221 87.1298 17.7544C87.1298 19.5767 86.9532 21.3284 86.6001 23.0095C86.261 24.6764 85.6819 26.0678 84.8625 27.1838C84.0432 28.3139 82.9554 28.879 81.5993 28.879Z" fill="#333333"/>
</svg>
